<?xml version="1.0" encoding="UTF-8" standalone="no"?>
<!-- Created with Inkscape (http://www.inkscape.org/) -->

<svg
   xmlns:dc="http://purl.org/dc/elements/1.1/"
   xmlns:cc="http://creativecommons.org/ns#"
   xmlns:rdf="http://www.w3.org/1999/02/22-rdf-syntax-ns#"
   xmlns:svg="http://www.w3.org/2000/svg"
   xmlns="http://www.w3.org/2000/svg"
   xmlns:xlink="http://www.w3.org/1999/xlink"
   xmlns:sodipodi="http://sodipodi.sourceforge.net/DTD/sodipodi-0.dtd"
   xmlns:inkscape="http://www.inkscape.org/namespaces/inkscape"
   id="svg2"
   version="1.1"
   inkscape:version="0.92.1 renderfarm"
   width="2481"
   height="663"
   sodipodi:docname="Pepper-and-Carrot_by-David-Revoy_E01P00_092.svg"
   enable-background="new"
   inkscape:export-filename="C:\Users\Mahwiii\Desktop\Manga\translations\pepper carrot\peppercarrot_ep01_translation-master\ar\Pepper-and-Carrot_by-David-Revoy_E01P00.png"
   inkscape:export-xdpi="90"
   inkscape:export-ydpi="90">
  <sodipodi:namedview pagecolor="#ffffff" bordercolor="#666666" inkscape:pageopacity="0" inkscape:pageshadow="2" inkscape:window-width="1813" inkscape:window-height="955" id="namedview70" showgrid="false" inkscape:zoom="0.4" inkscape:cx="1284.4231" inkscape:cy="2618.6204" inkscape:current-layer="layer1" /><metadata
     id="metadata8">
    <rdf:RDF>
      <cc:Work
         rdf:about="">
        <dc:format>image/svg+xml</dc:format>
        <dc:type
           rdf:resource="http://purl.org/dc/dcmitype/StillImage" />
        <dc:title />
      </cc:Work>
    </rdf:RDF>
  </metadata>
  <defs
     id="defs6" />
  <sodipodi:namedview
     pagecolor="#ffffff"
     bordercolor="#666666"
     borderopacity="1"
     objecttolerance="10"
     gridtolerance="10"
     guidetolerance="10"
     inkscape:pageopacity="0"
     inkscape:pageshadow="2"
     inkscape:window-width="1920"
     inkscape:window-height="1026"
     id="namedview4"
     showgrid="false"
     inkscape:zoom="0.37856796"
     inkscape:cx="1466.0694"
     inkscape:cy="407.42906"
     inkscape:window-x="0"
     inkscape:window-y="27"
     inkscape:window-maximized="1"
     inkscape:current-layer="layer3"
     inkscape:snap-global="false">
    <inkscape:grid
       type="xygrid"
       id="grid4282" />
  </sodipodi:namedview>
  <flowRoot
     xml:space="preserve"
     id="flowRoot2987"
     style="font-style:normal;font-variant:normal;font-weight:normal;font-stretch:normal;line-height:0.01%;font-family:Lavi;-inkscape-font-specification:Lavi;letter-spacing:0px;word-spacing:0px;fill:#000000;fill-opacity:1;stroke:none;stroke-width:1px;stroke-linecap:butt;stroke-linejoin:miter;stroke-opacity:1"><flowRegion
       id="flowRegion2989"><rect
         id="rect2991"
         width="1016.5607"
         height="77.684769"
         x="838.99548"
         y="443.73529"
         style="font-style:normal;font-variant:normal;font-weight:normal;font-stretch:normal;font-family:Lavi;-inkscape-font-specification:Lavi" /></flowRegion><flowPara
       id="flowPara2993"
       style="font-size:12px;line-height:1.25"> </flowPara></flowRoot>  <g
     inkscape:groupmode="layer"
     id="layer1"
     inkscape:label="artwork"
     style="display:inline"
     sodipodi:insensitive="true">
    <image
       sodipodi:absref="/home/deevad/peppercarrot/webcomics/ep01_Potion-of-Flight/lang/ar/../gfx_Pepper-and-Carrot_by-David-Revoy_E01P00.png"
       xlink:href="../gfx_Pepper-and-Carrot_by-David-Revoy_E01P00.png"
       y="0"
       x="0"
       id="image3084"
       height="663"
       width="2481" />
  </g>
  <g
     inkscape:groupmode="layer"
     id="layer3"
     inkscape:label="txt"
     style="display:inline">
    <flowRoot
       xml:space="preserve"
       id="flowRoot3063"
       style="font-style:normal;font-variant:normal;font-weight:normal;font-stretch:normal;line-height:0.01%;font-family:KacstOne;-inkscape-font-specification:KacstOne;letter-spacing:0px;word-spacing:0px;display:inline;fill:#2a5953;fill-opacity:1;stroke:none"
       transform="matrix(0.97396068,0,0,0.97396068,-221.68046,88.65639)"><flowRegion
         id="flowRegion3065"><rect
           id="rect3067"
           width="2759.6196"
           height="206.88049"
           x="92.642677"
           y="425.30325"
           style="font-style:normal;font-variant:normal;font-weight:normal;font-stretch:normal;font-size:112.5px;font-family:KacstOne;-inkscape-font-specification:KacstOne;fill:#2a5953;fill-opacity:1" /></flowRegion><flowPara
         id="flowPara3069"
         style="font-style:normal;font-variant:normal;font-weight:normal;font-stretch:normal;font-size:112.5px;line-height:1.25;font-family:AlHor;-inkscape-font-specification:AlHor;text-align:center;text-anchor:middle;fill:#2a5953;fill-opacity:1">حلقة ١ : جُرعةُ الطَيران</flowPara></flowRoot>    <path
       style="fill:#2a5953;fill-opacity:1"
       d="m 714.80308,469.57848 c 0.12201,-3.22906 -3.35302,-5.67574 -7.7666,-5.46819 -3.81134,0.17923 -3.98948,0.0626 -5.13061,-3.35924 -1.9116,-5.73185 -0.13548,-9.25461 8.60027,-17.05814 6.55979,-5.85993 17.52654,-18.76922 19.36067,-22.79013 0.35175,-0.7711 1.80926,-1.31144 3.41652,-1.26659 5.35277,0.14932 8.34565,-4.77576 6.03972,-9.93915 -0.78185,-1.75075 0.0752,-4.30013 5.0385,-14.99413 3.28929,-7.0866 8.41859,-19.70961 11.39844,-28.05113 5.79276,-16.21539 6.98897,-18.73192 10.05101,-21.144 1.74467,-1.37441 2.08665,-1.38923 3.13311,-0.1357 1.66814,1.99825 7.05336,1.93318 9.17976,-0.11092 0.96822,-0.93071 2.37659,-1.45212 3.1298,-1.15868 2.48501,0.96824 5.66481,7.94047 8.8716,19.45337 3.782,13.57788 5.45344,17.10725 10.77558,22.75304 5.67152,6.01653 11.47014,8.04112 21.35106,7.45481 4.10441,-0.24356 10.44214,-0.42231 14.0835,-0.39717 6.91272,0.0477 9.42882,-1.24376 9.56741,-4.911 0.0319,-0.84659 1.60778,-2.32904 3.50208,-3.2944 11.07919,-5.64638 41.96251,-27.6362 54.71491,-38.9585 l 6.8995,-6.12564 -9.637,-6.21976 c -9.4346,-6.08933 -9.6035,-6.26072 -8.0562,-8.17376 0.8692,-1.07468 1.6152,-2.87646 1.6578,-4.00394 0.1839,-4.86521 -7.42188,-7.70852 -11.38712,-4.25692 -1.87961,1.63621 -2.05647,1.51595 -10.71579,-7.28194 -8.8544,-8.9964 -14.91642,-16.53097 -17.72554,-22.03175 l -1.51587,-2.96814 -4.04997,2.21294 c -7.10416,3.8817 -12.542,5.42848 -18.5005,5.26226 -4.69124,-0.13088 -6.1594,-0.57541 -8.58576,-2.59943 -6.19993,-5.17202 -7.07078,-11.53257 -2.62314,-19.16218 3.0617,-5.25201 14.64208,-15.68714 25.01338,-22.53949 l 6.96363,-4.60091 0.43924,6.94078 c 0.52488,8.29778 3.32477,13.05317 9.78549,16.62016 l 4.15269,2.29269 -2.92915,-5.41218 c -2.30689,-4.26244 -3.05885,-7.12095 -3.53932,-13.456 -0.33561,-4.42409 -0.4151,-8.21362 -0.17674,-8.42116 0.84636,-0.73684 9.29751,7.75209 13.32561,13.38543 3.3972,4.75104 3.90534,6.01671 2.99816,7.47049 -0.60061,0.96266 -1.11684,2.40291 -1.14679,3.20051 -0.0809,2.13522 4.19266,5.98759 6.75784,6.09208 1.62851,0.0663 3.25348,1.61727 6.07729,5.80099 5.42296,8.03464 12.09906,15.22713 20.56566,22.15641 14.5463,11.90493 24.9342,15.88079 59.9857,22.95872 17.7227,3.57873 23.107,5.4811 21.9904,7.7695 -1.6871,3.45811 -1.757,4.74309 -0.3727,6.85755 0.8017,1.22458 2.368,2.52361 3.4806,2.88674 4.38339,1.43063 -1.4186,9.81672 -9.1063,13.16151 -3.3329,1.45014 -7.7044,2.22919 -15.6174,2.78318 l -10.9886,0.76931 -2.2352,-2.39332 c -3.9208,-4.19849 -12.0274,-2.38473 -12.2209,2.73429 -0.036,0.99006 -0.6471,1.78401 -1.3545,1.76428 -2.1529,-0.06 -13.3327,4.05967 -17.7151,6.52797 -2.2692,1.27796 -11.1808,8.02977 -19.8034,15.004 -14.8048,11.97452 -15.86473,12.65482 -19.03838,12.22031 -4.26805,-0.58431 -7.79302,2.11949 -7.48122,5.73805 0.18062,2.09233 -0.82461,3.10495 -7.24935,7.30416 -17.3364,11.33095 -32.91767,16.75407 -49.2559,17.14382 -12.94536,0.30884 -14.71633,-0.13366 -15.77737,-3.94186 -0.47955,-1.72116 -1.92585,-3.56919 -3.4497,-4.408 -2.38297,-1.31156 -2.90238,-1.30748 -5.65045,0.0442 -2.07208,1.01922 -3.53591,1.21587 -4.6425,0.62371 -2.04872,-1.09633 -9.91793,-9.44736 -14.08395,-14.94636 l -3.18708,-4.20683 -4.90715,10.28826 c -10.88689,22.8255 -25.11357,44.00582 -37.41669,55.70516 -7.65407,7.27847 -17.43046,11.13187 -17.26699,6.8059 z m 469.20692,3.68969 c -3.837,-2.59098 -7.741,-10.48772 -6.6249,-13.40089 0.3745,-0.97793 6.9999,-7.1577 14.7227,-13.73281 13.4145,-11.42058 15.7624,-13.89441 17.431,-18.36498 l 0.7384,-1.97904 -4.67,1.76132 c -8.2916,3.12728 -19.9199,0.97704 -30.3596,-5.61385 -4.2184,-2.6632 -4.3781,-2.92664 -3.7744,-6.22695 0.896,-4.89881 -2.0041,-7.75754 -7.2332,-7.13018 -3.5565,0.42668 -3.8282,0.26711 -6.9699,-4.09611 -3.8928,-5.40611 -8.2241,-13.91014 -11.0584,-21.71142 -1.9467,-5.35907 -1.9673,-5.80055 -0.3783,-8.18229 2.1262,-3.18732 1.3483,-7.09368 -1.69,-8.4867 -1.9041,-0.8731 -2.2838,-1.89442 -2.6107,-7.0252 -0.5557,-8.72267 -0.2068,-14.76366 1.3688,-23.68911 1.1938,-6.7623 1.6576,-7.89883 3.2067,-7.85561 4.981,0.13895 7.7708,-7.11308 4.1266,-10.72678 l -1.9005,-1.88461 4.0952,-7.44591 c 8.1784,-14.87001 13.1432,-19.0525 22.2927,-18.78014 5.9742,0.17784 11.109,1.65822 20.3349,5.86259 l 6.4951,2.95967 -1.8928,-2.39475 c -2.1021,-2.6598 -8.5453,-6.97297 -12.889,-8.62795 -2.4659,-0.93961 -2.1505,-0.9969 2.4869,-0.45156 11.6188,1.36631 25.6682,10.11068 35.1857,21.89951 6.5457,8.10821 13.9721,21.75182 16.813,30.88935 l 2.2877,7.35723 -2.162,1.88186 c -1.189,1.03501 -2.2,2.89444 -2.2468,4.13205 -0.091,2.43759 2.8272,5.93559 5.0044,5.99634 2.0317,0.0567 2.503,2.21318 3.0707,14.05166 0.5944,12.3986 -0.3444,22.70447 -3.0905,33.92778 -1.8628,7.61247 -1.9913,7.82849 -4.6152,7.75529 -3.3717,-0.0941 -6.6836,2.68783 -6.7977,5.7101 -0.051,1.31492 0.9557,3.25082 2.3567,4.53796 l 2.4434,2.24476 -5.8865,10.44511 c -6.8605,12.17355 -16.9831,25.63478 -23.2934,30.97633 -4.1206,3.48821 -4.6107,3.67028 -6.9682,2.58932 -3.2247,-1.47848 -6.9803,-0.18248 -8.6829,2.99647 -1.5243,2.84604 -4.2812,2.79265 -8.6656,-0.16787 z m 23.41,-82.74754 c 3.2559,0.0827 7.4466,-3.88752 6.9898,-6.62211 -0.4065,-2.43398 0.2573,-2.60654 4.8144,-1.25162 2.7149,0.80707 3.0683,0.68881 3.526,-1.17945 1.5921,-6.49841 -2.9144,-23.15287 -10.874,-40.18883 -4.4397,-9.50177 -4.7746,-10.68131 -3.4064,-11.99675 2.0069,-1.92919 2.0938,-6.15616 0.1696,-8.26663 -1.6948,-1.85918 -7.478,-2.47016 -8.5969,-0.90826 -0.4325,0.60381 -1.7778,-0.0855 -3.6244,-1.85752 -8.2117,-7.87923 -17.4064,-7.5297 -22.3558,0.84992 -4.0194,6.80531 -5.361,13.61666 -6.0414,30.67114 -0.6786,17.00979 0.2275,22.10612 5.5774,31.37994 5.3991,9.3592 16.3104,18.46483 23.8237,19.88126 l 3.4698,0.6541 2.1519,-5.61083 c 1.8161,-4.73544 2.4989,-5.602 4.3763,-5.55431 z m -591.11421,41.79241 c 0.11609,-3.07211 -1.8984,-5.254 -5.60117,-6.06662 -2.8437,-0.62409 -3.36853,-1.18113 -3.91859,-4.15901 -0.77488,-4.19481 -0.80518,-4.15466 11.7794,-15.62601 7.6033,-6.93073 10.67635,-10.49941 14.0468,-16.31212 2.37294,-4.09228 4.91692,-7.42368 5.6534,-7.40315 2.04833,0.0572 6.25365,-4.01324 6.33365,-6.13054 0.0392,-1.0351 -0.94093,-2.88558 -2.17784,-4.11221 -2.18173,-2.16348 -2.24279,-2.73684 -2.04169,-19.16294 0.17846,-14.57745 -0.10386,-18.24779 -2.03013,-26.38702 -1.5303,-6.46597 -1.91202,-9.73757 -1.20784,-10.35054 2.69922,-2.34968 0.30038,-9.5665 -3.21229,-9.66449 -1.37223,-0.0384 -6.33767,-19.50125 -6.13538,-24.04855 0.40381,-9.06911 3.87869,-14.1415 10.3018,-15.03623 l 3.46936,-0.48329 -0.53259,3.24676 c -0.70954,4.32567 1.55143,6.82866 6.28767,6.96079 l 3.5241,0.0984 2.80609,7.96232 c 3.78059,10.72741 5.66905,18.80828 8.49988,36.37068 4.82054,29.90748 5.41839,53.32303 1.71088,67.01085 -1.84536,6.81268 -1.90299,6.89311 -4.53953,6.32575 -2.02914,-0.43666 -3.28861,-0.0365 -5.24437,1.66583 -3.23529,2.8163 -3.36127,5.36469 -0.4103,8.2915 l 2.30626,2.28702 -3.04271,4.44436 c -10.26249,14.98967 -21.3084,22.72001 -32.1007,22.46534 -4.16855,-0.0984 -4.59576,-0.30486 -4.52464,-2.18682 z m 305.16172,9.90986 c -6.6984,-3.31818 -9.6225,-8.91074 -9.4195,-18.01455 0.1331,-5.98904 1.7359,-8.64488 7.1533,-11.85588 5.8433,-3.4633 6.431,-3.33415 6.2528,1.37466 -0.1571,4.15729 1.6349,9.48588 3.7861,11.25937 0.8104,0.66783 1.1605,-0.98533 1.3672,-6.45293 l 0.2778,-7.35072 2.7934,0.26486 c 6.1911,0.58703 11.0632,8.43961 10.7287,17.2916 -0.3864,10.22371 -4.1917,13.81892 -14.8703,14.04838 -3.6526,0.0785 -7.284,-0.17563 -8.0695,-0.56479 z m 519.43749,8.81402 c -6.0942,-1.52236 -14.2133,-5.56496 -14.1571,-7.04924 0.08,-2.12938 -3.3945,-5.09996 -6.0526,-5.17411 -1.7482,-0.0489 -3.4794,-1.50749 -6.6337,-5.58964 -12.063,-15.6115 -18.0995,-38.1769 -19.1777,-71.68777 -0.5891,-18.33083 0.6438,-38.64522 2.7465,-45.23077 1.1383,-3.56534 1.7225,-4.23186 3.6615,-4.17776 5.161,0.14398 8.1754,-6.05123 5.0868,-10.45432 -1.6782,-2.39248 -0.7146,-4.47968 3.352,-7.26104 5.1221,-3.50313 11.1408,-1.2113 16.548,6.30122 3.9873,5.53951 4.3878,10.19529 1.5632,18.16615 -1.1875,3.35083 -2.7794,8.43263 -3.5376,11.29293 -0.8858,3.34065 -1.9625,5.37359 -3.0108,5.68441 -4.8238,1.43005 -6.9319,6.76858 -3.9604,10.02826 1.0822,1.18684 1.156,2.53141 0.3512,6.38318 -1.274,6.09707 -0.4788,20.80812 1.5869,29.35845 l 1.5507,6.41911 -2.3537,1.82486 c -4.9165,3.81174 -1.898,11.60523 4.2384,10.94323 2.6578,-0.28676 3.1443,0.14826 6.3993,5.72079 6.2733,10.74037 14.0073,16.43832 23.7755,17.51613 5.5197,0.60906 6.4502,0.45798 9.5157,-1.54505 6.2159,-4.06129 10.864,-11.83028 15.0322,-25.12489 1.9189,-6.12052 3.3147,-8.9171 5.2157,-10.45078 3.1529,-2.54354 3.4763,-5.97865 0.8124,-8.62034 -1.2551,-1.24472 -1.7407,-2.60952 -1.3548,-3.80826 1.4629,-4.54551 0.2854,-47.74787 -1.9015,-69.77526 l -2.257,-22.73055 2.2629,-1.75426 c 2.8607,-2.21801 3.1504,-6.61802 0.6019,-9.14521 -1.0284,-1.01982 -2.4579,-1.87063 -3.1767,-1.89068 -0.9227,-0.0257 -1.8038,-3.55799 -2.9988,-12.02235 -0.9306,-6.59225 -3.1402,-19.73013 -4.9101,-29.1953 -4.3564,-23.29884 -4.4157,-24.45594 -1.505,-29.32555 2.0666,-3.45686 2.8928,-4.04837 6.2017,-4.44022 3.7257,-0.44118 6.4773,-2.46787 6.5667,-4.83664 0.03,-0.74923 1.2952,-1.14319 3.4798,-1.08224 5.3619,0.14957 7.4938,3.00616 9.5971,12.86066 2.9978,14.04523 7.5886,53.36103 9.1856,78.66767 1.941,30.75057 5.7826,64.94697 9.545,84.96338 3.297,17.54017 11.0213,42.06381 14.8667,47.1988 2.3939,3.19677 4.7557,4.52429 5.7083,3.2084 0.5267,-0.72753 5.5592,-0.99664 16.252,-0.86907 14.5546,0.17367 15.6252,0.0671 17.7452,-1.7677 1.2409,-1.07385 2.2883,-2.7994 2.3273,-3.83448 0.067,-1.78499 -3.0816,-5.71322 -5.2474,-6.54578 -1.2314,-0.47336 -11.6578,-19.66104 -14.1084,-25.96364 -7.4823,-19.2425 -9.7499,-31.78271 -8.4266,-46.59983 1.1363,-12.72508 1.4682,-13.53024 5.5284,-13.41698 5.898,0.16454 8.7485,-6.05563 4.723,-10.3071 l -1.9403,-2.04932 5.5678,-4.77008 c 10.5709,-9.05636 26.0552,-10.62511 39.0506,-3.95629 16.2538,8.34089 30.0739,30.4335 34.7031,55.47516 2.7993,15.14217 1.3839,36.4153 -2.4155,36.30931 -2.1526,-0.06 -5.3264,3.28225 -5.4178,5.70555 -0.048,1.23765 0.7775,3.1056 1.832,4.15107 l 1.9167,1.90084 -2.8609,5.05584 c -1.5732,2.78069 -3.0256,5.32353 -3.2275,5.65073 -0.2018,0.3272 2.5202,1.97865 6.0489,3.66985 5.2676,2.52463 7.9562,3.19974 15.0226,3.77231 l 8.6064,0.69735 5.2861,-4.86454 c 6.4666,-5.95125 8.3762,-10.72791 10.4097,-26.04115 1.3096,-9.86199 1.2553,-12.86501 -0.6427,-35.52996 -1.8525,-22.12338 -1.9117,-24.9127 -0.5554,-26.21641 2.3171,-2.22744 2.0991,-6.74364 -0.4219,-8.73926 -2.0503,-1.62306 -2.3432,-4.05305 -6.3014,-52.27587 -2.2832,-27.8155 -4.0882,-51.85604 -4.0113,-53.42339 0.2076,-4.23667 3.6577,-10.2888 7.1115,-12.47631 1.805,-1.14328 5.2209,-2.10418 8.3928,-2.36093 5.2621,-0.42597 5.3786,-0.38422 7.1682,2.57005 1.0008,1.65167 2.4586,5.8521 3.2399,9.33425 1.3192,5.87993 1.3005,6.50613 -0.2622,8.78484 -2.3777,3.46673 -2.1875,5.14349 0.909,8.01098 3.0044,2.78192 3.3422,4.89551 5.1674,32.31237 0.7208,10.82646 0.644,14.21497 -0.3735,16.47987 -1.0833,2.41171 -1.0357,3.28095 0.3095,5.63994 1.1714,2.05425 2.0093,8.76995 3.1815,25.4965 1.8234,26.01619 4.6279,56.48639 6.0163,65.35965 0.911,5.82164 0.8583,6.14391 -1.3116,8.03268 -1.2432,1.08222 -2.2924,2.81458 -2.3316,3.84968 -0.08,2.12452 3.8117,6.41357 5.8722,6.47106 0.8467,0.0237 1.9153,2.2708 2.8537,6.00066 1.8735,7.44826 8.9587,18.5283 14.3072,22.37438 3.6691,2.63861 4.5674,2.86623 12.1423,3.07757 6.7127,0.18728 8.6094,0.56341 10.5754,2.0971 2.9788,2.32398 5.0737,2.41747 8.1224,0.36252 1.6588,-1.1182 4.7821,-1.70047 10.3731,-1.93389 18.0769,-0.75471 27.4046,-5.59088 36.2501,-18.79492 l 2.8434,-4.24414 -5.5083,2.68103 c -5.1249,2.49435 -5.9244,2.62435 -11.4821,1.867 -20.6285,-2.81102 -37.5576,-16.26607 -45.8644,-36.45263 -7.209,-17.51796 -7.7959,-45.27558 -1.3853,-65.53523 0.9082,-2.87058 1.4484,-3.33847 3.7792,-3.27347 5.1603,0.14398 8.1822,-6.11741 4.7631,-9.86822 -2.1032,-2.30687 -0.9093,-4.60866 5.2283,-10.08034 8.7794,-7.82738 13.6909,-7.41301 31.212,2.63342 l 9.3145,5.34094 -5.1379,-5.20762 c -2.8259,-2.86419 -7.1785,-6.51392 -9.6724,-8.11049 -2.494,-1.5966 -4.3649,-3.05068 -4.1573,-3.23132 1.0216,-0.88934 11.1501,2.09857 16.1536,4.76538 7.5305,4.01358 12.8525,8.7933 19.3331,17.36243 6.9675,9.21313 14.4954,23.79047 12.9709,25.11755 -2.9298,2.55011 -0.3844,9.62959 3.5007,9.73797 1.7113,0.0477 4.6723,8.61612 6.6028,19.1059 1.7889,9.71828 1.0874,34.8358 -1.2823,45.9169 -2.2561,10.5503 -7.2219,24.00229 -11.6406,31.53255 -5.2714,8.9835 -7.2616,11.18972 -10.0241,11.11264 -3.0125,-0.0841 -6.3444,2.8002 -6.4494,5.58285 -0.06,1.58848 -1.3209,2.84311 -4.7875,4.76394 -12.6659,7.01833 -20.0746,7.9467 -52.8705,6.62506 -23.7691,-0.95785 -24.9071,-1.08533 -30.3151,-3.396 -8.617,-3.68167 -17.2982,-12.50717 -21.8382,-22.20178 l -3.6228,-7.73616 -1.2966,3.99477 c -3.3004,10.16764 -13.3319,20.86604 -23.1214,24.65853 -2.5118,0.97313 -7.5227,1.90092 -11.1351,2.06181 -6.1651,0.27453 -6.7077,0.14298 -8.8446,-2.14531 -2.5909,-2.77432 -5.7518,-3.19014 -9.0431,-1.18964 -1.4823,0.90094 -3.1518,1.14331 -4.8496,0.70408 -2.2589,-0.5843 -17.8679,-8.81136 -26.4356,-13.93322 l -2.9419,-1.75868 -5.6396,3.50602 c -7.7313,4.80634 -17.0716,8.26703 -27.0647,10.02759 -10.8452,1.91073 -14.2376,1.80629 -16.5738,-0.5103 -1.0283,-1.01982 -2.9599,-1.88463 -4.2921,-1.92181 -2.7216,-0.0759 -6.406,2.6805 -6.4881,4.85388 -0.046,1.17648 -0.7782,1.30174 -4.1492,0.70829 -13.2376,-2.33051 -23.3267,-12.92827 -25.9804,-27.28968 l -0.9171,-4.96345 -2.0866,6.65393 c -1.1474,3.65965 -3.4285,8.85904 -5.0691,11.5542 -2.6424,4.34091 -3.4025,4.95231 -6.6601,5.35625 -4.3356,0.53761 -6.3406,2.56477 -6.4917,6.56377 -0.096,2.51439 -0.7182,3.19466 -4.6747,5.10098 -7.2418,3.48953 -13.6044,4.66473 -23.2577,4.29595 -4.8308,-0.18459 -10.3527,-0.72759 -12.2711,-1.20674 z m 161.684,-80.5831 c 0.3176,-9.9695 0.045,-13.74293 -1.3022,-18.05699 -1.2861,-4.11705 -1.4495,-6.04504 -0.6669,-7.86634 1.4739,-3.43029 -0.2867,-6.92503 -3.8785,-7.69796 -2.1598,-0.46482 -3.8221,-2.10617 -7.049,-6.96023 -4.8447,-7.28816 -8.7462,-9.8192 -13.0206,-8.44711 -3.9299,1.26153 -5.6862,5.05282 -6.6995,14.46274 -0.7419,6.88724 -0.5875,9.71007 0.8555,15.65917 2.383,9.82608 12.1149,29.44862 18.718,37.7426 l 5.362,6.73488 3.64,-6.48374 3.6397,-6.48375 0.4015,-12.60326 z m 178.8334,3.11179 c 0.2323,-0.20212 0.4668,-3.89694 0.5214,-8.21073 0.055,-4.31382 0.6384,-8.94402 1.2973,-10.28937 1.1323,-2.31177 7.7882,-5.93505 10.7507,-5.85239 2.7127,0.0756 -2.13,-17.72175 -8.5066,-31.2644 -7.1098,-15.09933 -14.4298,-21.62673 -21.4743,-19.14877 -6.9031,2.42834 -11.0981,12.27398 -12.5281,29.40452 -1.0831,12.97647 -0.2995,18.77435 3.5938,26.58243 1.4761,2.96055 2.64,6.54084 2.5865,7.95621 -0.1153,3.05011 2.7921,6.25814 5.7463,6.34057 1.157,0.0322 2.8478,0.7262 3.7574,1.54202 3.5076,3.14672 12.0049,4.89908 14.2556,2.93991 z M 764.21507,303.45452 c -8.43852,-2.21289 -16.2309,-9.77869 -18.20583,-17.67633 -1.77043,-7.08032 0.95725,-15.39126 5.98909,-18.24793 l 2.55557,-1.45079 3.43952,7.62701 c 3.20311,7.10248 8.38915,14.40125 10.27013,14.45373 0.44824,0.0125 -0.1182,-2.13521 -1.25907,-4.77274 -2.52202,-5.83088 -5.26611,-15.99397 -4.49866,-16.66201 1.05295,-0.91658 8.82456,3.22145 11.97555,6.37639 4.57337,4.57929 7.43452,11.32871 7.22954,17.05506 -0.35782,10.00634 -7.97398,15.79459 -17.49584,13.29761 z m 805.12983,-44.66693 c 0.9793,-5.97031 -6.0329,-9.26365 -10.5983,-4.97743 -1.7966,1.68688 -2.5317,1.88872 -3.7228,1.02243 -5.5073,-4.00429 -5.7203,-15.37401 -0.4267,-22.76075 4.0051,-5.58882 7.9917,-7.50868 16.0811,-7.7447 5.4711,-0.15965 7.0649,0.1532 10.2724,2.01654 3.2873,1.90966 3.8528,2.73439 4.2162,6.14845 0.4165,3.91315 2.484,6.44465 5.3279,6.524 1.141,0.0319 1.2526,1.0591 0.5913,5.44529 -1.3392,8.88201 -5.6318,13.79176 -14.1321,16.16392 -7.2019,2.00981 -8.2006,1.76857 -7.609,-1.83775 z m 178.6291,-11.82892 c -4.2894,-1.30272 -9.9579,-6.36937 -11.829,-10.57321 -1.8178,-4.08458 -2.0057,-14.98675 -0.2572,-14.93797 1.9109,0.0533 5.9364,-4.25777 6.0192,-6.44621 0.1176,-3.11139 5.1761,-4.95877 12.9344,-4.72362 7.8244,0.2371 12.6359,2.80426 16.7544,8.93931 l 3.0053,4.47661 -2.9031,1.52639 c -5.1363,2.70068 -5.379,7.64609 -0.5198,10.58958 l 2.6646,1.61407 -2.6996,3.43447 c -4.8722,6.19865 -14.4995,8.73357 -23.1692,6.10058 z M 801.49793,203.13419 c 0.30531,-8.07839 5.19049,-12.36471 26.23168,-23.01578 10.70851,-5.4206 14.75232,-7.02197 17.53593,-6.94431 3.5966,0.10033 5.96306,-1.34013 7.26233,-4.42056 0.46202,-1.09575 21.79646,-12.53571 26.67754,-14.30513 2.46758,-0.89452 -0.8327,11.08545 -3.98301,14.45832 -2.90625,3.11152 -55.27761,28.86397 -56.45742,27.76166 -1.55016,-1.44839 -6.90612,-1.07709 -8.65044,0.59969 -0.91606,0.88071 -1.70378,2.60823 -1.75036,3.83894 -0.0626,1.67112 -0.9574,2.59405 -3.53249,3.64531 l -3.4481,1.40766 0.11434,-3.0258 z m 716.15117,-5.87225 c -2.7323,-1.10704 -3.0424,-0.80366 4.9304,-4.82324 3.535,-1.78216 9.7392,-5.27648 13.7875,-7.76514 5.901,-3.62763 7.8891,-4.41101 10.0269,-3.95094 3.3486,0.72051 8.0599,-2.95074 7.7503,-6.03899 -0.1435,-1.42577 1.2478,-3.21289 4.7725,-6.1327 l 4.9744,-4.12058 -4.4952,-3.84667 c -4.7103,-4.03066 -7.4397,-8.47711 -8.272,-13.4764 -0.9823,-5.89778 4.4665,-20.23659 8.0491,-21.18238 2.5422,-0.67115 5.2202,-4.37925 4.7042,-6.51353 -0.2789,-1.15315 0.634,-2.60409 2.7178,-4.31962 4.441,-3.65604 6.7925,-4.50005 12.1129,-4.34778 9.3376,0.26681 14.4714,6.3337 14.3847,16.9983 -0.044,5.37784 -0.268,6.01379 -2.714,7.68659 -2.886,1.97374 -3.6867,5.80098 -1.836,8.77292 0.8068,1.29543 0.5702,2.53933 -1.0897,5.72577 l -2.1203,4.07084 4.2867,3.05646 4.2868,3.05647 -0.9242,8.07645 c -0.5085,4.44206 -0.9684,9.24361 -1.0223,10.67012 -0.088,2.31474 -0.3026,2.48423 -1.9994,1.57616 -1.2452,-0.66625 -1.8668,-1.93868 -1.8007,-3.68605 0.1842,-4.87539 -4.8284,-7.78468 -9.6145,-5.58021 -1.4311,0.65924 -2.3374,0.60814 -3.303,-0.18621 -1.0767,-0.88596 -2.3422,-0.12606 -6.6356,3.98494 -19.2911,18.4706 -29.1137,23.93919 -42.1413,23.46176 -3.5902,-0.1316 -7.5575,-0.65642 -8.816,-1.16634 z m 60.3183,-59.61442 c -1.9215,-7.68467 -13.5161,-12.60316 -14.4178,-6.11614 -0.7213,5.19134 1.8132,8.78067 10.2911,14.5723 l 3.268,2.2325 0.8494,-3.66456 c 0.4671,-2.0155 0.4715,-5.17635 0.011,-7.0241 z m 121.5868,43.06812 -2.3862,-1.01451 3.9553,-1.9974 c 10.8045,-5.45622 22.4452,-12.65497 32.225,-19.92848 5.954,-4.42795 11.1641,-8.52372 11.5783,-9.1017 0.4647,-0.64891 -0.9248,-2.47241 -3.6332,-4.76729 -7.5682,-6.41307 -9.6698,-13.038 -7.0293,-22.15989 3.1473,-10.87295 12.1764,-23.39826 19.0777,-26.465409 3.9656,-1.762222 6.302,-1.425999 9.0538,1.302847 2.0141,1.9972 3.0021,2.328386 5.7525,1.928427 3.1314,-0.45537 3.4285,-0.269118 5.2087,3.265355 3.5098,6.96763 1.1641,23.47687 -4.7287,33.28485 -1.3358,2.22327 -1.2236,2.43506 2.8163,5.31549 4.0927,2.91801 4.1995,3.12747 3.9108,7.66614 -0.1629,2.56637 -0.6735,7.40293 -1.1335,10.74789 l -0.837,6.08173 -8.8531,-5.70121 -8.8534,-5.7012 -3.846,3.80008 c -3.4003,3.35951 -4.2359,3.7467 -7.2092,3.33965 -4.7137,-0.64533 -7.9623,2.18825 -7.3832,6.43976 0.3728,2.73609 -0.042,3.38975 -4.1422,6.53128 -7.5461,5.78106 -14.3651,8.1571 -23.3971,8.15226 -4.2677,-0.002 -8.8334,-0.46068 -10.1463,-1.01867 z m 60.4204,-59.61528 c -2.0231,-8.09045 -13.5781,-12.52668 -14.6649,-5.6302 -0.1874,1.18875 -0.8893,3.03171 -1.5601,4.09544 -1.8255,2.8955 -1.5805,4.5851 1.0424,7.18595 1.9731,1.95677 2.9784,2.27966 5.9894,1.92372 2.7281,-0.32247 4.1979,0.0216 5.9741,1.39864 l 2.3559,1.82635 0.8516,-3.72019 c 0.4685,-2.04609 0.4736,-5.23197 0.012,-7.07971 z"
       id="path4684"
       inkscape:connector-curvature="0" />
  </g>
</svg>
