<?xml version="1.0" encoding="UTF-8" standalone="no"?>
<!-- Created with Inkscape (http://www.inkscape.org/) -->

<svg
   xmlns:dc="http://purl.org/dc/elements/1.1/"
   xmlns:cc="http://creativecommons.org/ns#"
   xmlns:rdf="http://www.w3.org/1999/02/22-rdf-syntax-ns#"
   xmlns:svg="http://www.w3.org/2000/svg"
   xmlns="http://www.w3.org/2000/svg"
   xmlns:xlink="http://www.w3.org/1999/xlink"
   xmlns:sodipodi="http://sodipodi.sourceforge.net/DTD/sodipodi-0.dtd"
   xmlns:inkscape="http://www.inkscape.org/namespaces/inkscape"
   id="svg2"
   version="1.1"
   inkscape:version="0.92.1 renderfarm"
   width="2481"
   height="663"
   sodipodi:docname="Pepper-and-Carrot_by-David-Revoy_E01P00_092.svg"
   enable-background="new">
  <sodipodi:namedview pagecolor="#ffffff" bordercolor="#666666" inkscape:pageopacity="0" inkscape:pageshadow="2" inkscape:window-width="1813" inkscape:window-height="955" id="namedview70" showgrid="false" inkscape:zoom="0.4" inkscape:cx="1284.4231" inkscape:cy="2618.6204" inkscape:current-layer="layer1" /><metadata
     id="metadata8">
    <rdf:RDF>
      <cc:Work
         rdf:about="">
        <dc:format>image/svg+xml</dc:format>
        <dc:type
           rdf:resource="http://purl.org/dc/dcmitype/StillImage" />
        <dc:title />
      </cc:Work>
    </rdf:RDF>
  </metadata>
  <defs
     id="defs6">
    <filter
       inkscape:collect="always"
       id="filter4386">
      <feBlend
         inkscape:collect="always"
         mode="screen"
         in2="BackgroundImage"
         id="feBlend4388" />
    </filter>
  </defs>
  <sodipodi:namedview
     pagecolor="#ffffff"
     bordercolor="#666666"
     borderopacity="1"
     objecttolerance="10"
     gridtolerance="10"
     guidetolerance="10"
     inkscape:pageopacity="0"
     inkscape:pageshadow="2"
     inkscape:window-width="1920"
     inkscape:window-height="1026"
     id="namedview4"
     showgrid="false"
     inkscape:zoom="0.45053876"
     inkscape:cx="1216.788"
     inkscape:cy="-91.012086"
     inkscape:window-x="0"
     inkscape:window-y="27"
     inkscape:window-maximized="1"
     inkscape:current-layer="layer3"
     inkscape:snap-global="false">
    <inkscape:grid
       type="xygrid"
       id="grid4282" />
  </sodipodi:namedview>
  <g
     inkscape:groupmode="layer"
     id="layer1"
     inkscape:label="artwork"
     style="display:inline"
     sodipodi:insensitive="true">
    <image
       sodipodi:absref="/home/deevad/peppercarrot/webcomics/ep01_Potion-of-Flight/lang/cs/../gfx_Pepper-and-Carrot_by-David-Revoy_E01P00.png"
       xlink:href="../gfx_Pepper-and-Carrot_by-David-Revoy_E01P00.png"
       y="0"
       x="0"
       id="image3084"
       height="663"
       width="2481" />
  </g>
  <g
     inkscape:groupmode="layer"
     id="layer2"
     inkscape:label="speechbubble"
     style="opacity:0.70232556;display:inline;filter:url(#filter4386)" />
  <g
     inkscape:groupmode="layer"
     id="layer3"
     inkscape:label="txt"
     style="display:inline">
    <flowRoot
       xml:space="preserve"
       id="flowRoot3063"
       style="font-style:normal;font-variant:normal;font-weight:normal;font-stretch:normal;line-height:0.01%;font-family:Arial;-inkscape-font-specification:Arial;letter-spacing:0px;word-spacing:0px;display:inline;fill:#2a5953;fill-opacity:1;stroke:none"
       transform="matrix(0.73392641,0,0,0.73392641,452.17574,172.59834)"><flowRegion
         id="flowRegion3065"><rect
           id="rect3067"
           width="3013.1147"
           height="122.06646"
           x="-340.01984"
           y="476.76691"
           style="font-size:79.88847351px;fill:#2a5953;fill-opacity:1" /></flowRegion><flowPara
         id="flowPara3069"
         style="font-style:normal;font-variant:normal;font-weight:normal;font-stretch:normal;font-size:97.64146423px;line-height:1.25;font-family:Lavi;-inkscape-font-specification:Lavi;text-align:center;text-anchor:middle;fill:#2a5953;fill-opacity:1">Epizoda 1 : Lektvar létání</flowPara></flowRoot>    <path
       style="fill:#2a5953;fill-opacity:1;stroke:none"
       d="m 720.21691,505.30642 c -1.98144,-1.73974 -4.25774,-4.43004 -5.05842,-5.97827 l -1.45569,-2.81508 0,-4.11445 0,-4.11431 2.46598,-2.46612 2.46612,-2.46611 1.80395,-0.0323 c 0.99206,-0.0169 2.67557,-0.69133 3.74096,-1.49748 l 1.93714,-1.46537 0.75245,-5.28441 0.75246,-5.28429 0.0729,-22.92297 0.0729,-22.92299 -1.04001,-1.94345 -1.04,-1.94332 -1.79176,0 c -0.98547,0 -4.18848,-0.71179 -7.11795,-1.58173 l -5.3262,-1.58174 -2.3914,-2.39139 -2.39138,-2.39139 0,-1.55272 0,-1.55271 5.77708,-0.0421 5.77694,-0.0421 4.52117,-2.21923 4.52117,-2.21909 0.28713,-35.16469 0.28699,-35.16454 -1.19255,-4.34634 -1.19253,-4.34648 -2.10861,-1.36766 -2.10861,-1.36765 -8.7911,-0.70352 -8.79125,-0.70353 0,-1.20334 0,-1.20333 4.44364,-4.50729 4.44364,-4.50729 12.71601,-5.74764 12.71613,-5.74764 1.93505,0.61408 c 1.06425,0.33787 3.28909,1.75348 4.94387,3.14594 l 3.00856,2.5316 0,1.34592 c 0,0.74039 0.71053,2.05645 1.57892,2.92485 l 1.5788,1.57879 10.36526,0 10.36513,0 8.71007,2.52416 c 4.79064,1.38826 10.89074,3.62894 13.5558,4.97948 2.66492,1.35041 8.43667,5.16146 12.82606,8.46893 l 7.98047,6.01345 2.75801,3.97986 2.75801,3.97972 1.43818,4.77857 1.43803,4.77859 0,6.78372 0,6.78371 -1.88037,6.04164 -1.88035,6.04165 -3.71657,6.64589 -3.7167,6.64605 -6.04262,6.45957 -6.04262,6.45972 -6.69624,4.93475 c -3.68292,2.714 -8.95668,6.05356 -11.71959,7.42107 -2.76307,1.36751 -10.22297,4.20782 -16.57768,6.31181 -6.3547,2.10398 -12.57131,4.1945 -13.81461,4.64538 l -2.26058,0.82003 0,21.66834 0,21.66833 2.42518,2.42518 2.42518,2.42532 2.84956,0.60385 c 1.56716,0.33213 3.60903,1.0128 4.53758,1.51261 l 1.68814,0.90878 4.38097,-0.0884 c 2.40948,-0.0476 6.68909,0.22951 9.51019,0.61758 l 5.12922,0.70535 3.19193,-1.65072 3.19208,-1.65057 2.9585,0.64982 c 1.62716,0.35738 4.98509,0.64969 7.46201,0.64969 2.47691,0 4.50336,0.21156 4.50336,0.46995 0,0.25839 -1.63263,1.15202 -3.6281,1.98579 -3.66076,1.52958 -11.53355,6.4708 -16.8233,10.55889 l -2.86919,2.21726 -6.53711,1.81265 -6.53725,1.81278 -4.65954,2.96243 -4.65941,2.96256 -7.53533,2.12866 c -4.14445,1.17081 -9.83559,2.79096 -12.64716,3.60048 l -5.1117,1.47154 -4.14683,0 -4.14669,0 -3.60273,-3.1632 z m 44.37232,-107.80401 8.89331,-4.46859 8.09894,-6.50191 8.0988,-6.50178 4.85162,-5.85826 4.85161,-5.85826 2.87284,-6.02818 2.8727,-6.02818 8.4e-4,-4.31999 8.5e-4,-4.31983 -1.47098,-2.84452 c -0.80909,-1.56449 -2.87368,-4.02486 -4.58805,-5.46738 l -3.11692,-2.62272 -5.71021,-1.71494 -5.71035,-1.71492 -8.53986,-0.0266 -8.54,-0.0267 -5.55136,1.25479 -5.55123,1.25478 -3.23988,1.97024 -3.23988,1.97023 0,30.10599 0,30.10599 1.75825,1.02403 c 0.9671,0.56318 2.27741,1.03775 2.91196,1.05458 0.63454,0.0169 5.15571,-1.98033 10.047,-4.43818 z m 73.69671,109.38027 c -1.38154,-0.89321 -3.74614,-3.22334 -5.2547,-5.17815 l -2.74301,-3.55421 -0.61815,-3.29484 -0.61814,-3.29484 1.35181,-2.84844 1.35153,-2.84831 4.43957,-2.13047 4.43944,-2.13034 1.33751,-1.82934 1.33765,-1.82918 0,-27.81526 0,-27.81527 -5.27475,-0.58926 c -2.90102,-0.32414 -7.04604,-0.94691 -9.21101,-1.38391 l -3.93625,-0.79466 -0.31741,-1.00102 c -0.17455,-0.55057 0.0351,-1.55623 0.46532,-2.23451 l 0.7826,-1.23348 7.76652,-1.48599 c 4.27162,-0.81722 8.20717,-1.75824 8.74581,-2.09108 l 0.97917,-0.60524 0,-40.68099 0,-40.68115 -1.46607,-2.83499 -1.46608,-2.83498 -8.32984,-1.18315 c -4.58132,-0.65066 -9.79915,-1.40746 -11.59496,-1.68169 l -3.2654,-0.4987 0,-0.78413 c 0,-0.43112 1.01729,-1.71044 2.26058,-2.8427 2.46023,-2.24039 15.13894,-10.34802 16.18245,-10.34802 0.35401,0 4.6709,-1.81335 9.59319,-4.02977 l 8.94952,-4.02977 2.85518,1.08557 c 1.57038,0.59711 3.6473,1.80241 4.61538,2.67852 l 1.76007,1.59281 0,2.7412 0,2.74118 2.26059,0.60581 c 1.24343,0.33325 6.79087,0.61197 12.32793,0.61954 l 10.06706,0.014 7.20852,1.99757 c 3.96472,1.09874 9.78007,3.13487 12.92294,4.52481 l 5.71441,2.5271 6.64856,4.94725 c 3.65685,2.721 8.32172,6.67533 10.36668,8.78759 l 3.7181,3.84036 2.22932,5.0235 2.22946,5.02351 0.44948,7.58791 0.44962,7.58804 -2.94083,8.5316 -2.9407,8.53173 -3.86797,5.82727 c -2.1274,3.20511 -6.13432,8.30714 -8.90425,11.33784 l -5.03626,5.51056 -3.20399,-0.60118 -3.204,-0.60104 -1.04757,1.27526 c -0.57622,0.70143 -1.20404,2.40135 -1.39513,3.77769 l -0.34741,2.50229 -4.94374,3.23007 -4.94387,3.23007 -12.46869,4.56589 -12.46883,4.56576 -2.17913,0.0154 c -1.19857,0.014 -2.85728,0.44387 -3.68613,0.96766 l -1.50716,0.95209 0,21.55632 0,21.55631 2.39518,2.55038 2.39489,2.55038 5.21741,1.08319 5.2174,1.08304 9.9699,-0.028 c 5.48337,-0.0154 12.596,-0.0799 15.80574,-0.14371 l 5.83582,-0.11496 0.68628,0.68628 0.68642,0.68627 -2.00108,1.17376 c -1.10042,0.64562 -4.87755,2.4228 -8.39335,3.9493 l -6.39242,2.77554 -2.97827,2.50593 c -1.63796,1.37831 -3.55799,2.50594 -4.26657,2.50594 l -1.28857,0 -4.4114,3.87554 c -2.4263,2.13161 -6.34769,4.86102 -8.71413,6.06534 l -4.3026,2.18965 -9.7631,2.65398 -9.76326,2.65399 -5.0235,0.34152 -5.02365,0.34153 -2.51168,-1.62394 z m 40.97121,-108.38933 7.25703,-3.47781 7.28283,-5.40653 7.28283,-5.40653 7.03285,-7.45541 7.033,-7.45542 2.8155,-5.80779 2.81549,-5.80779 0.50879,-4.72824 0.50892,-4.72825 -1.81727,-3.49084 -1.81727,-3.49083 -4.01884,-2.79531 -4.01883,-2.79517 -7.53532,-1.59421 -7.5352,-1.59422 -6.53051,0.58281 c -3.59192,0.32036 -9.24339,1.27469 -12.55884,2.12053 l -6.02818,1.53785 -2.30419,2.60113 -2.30419,2.60114 0.29471,28.37479 0.29484,28.37466 1.37886,1.65969 1.37887,1.65955 1.66361,0 c 0.91495,0 4.92915,-1.56506 8.92051,-3.4778 z m 346.34165,77.89793 c -2.763,-0.9849 -7.3247,-2.95724 -10.1374,-4.38335 l -5.1139,-2.59258 -3.1689,-3.60903 c -1.7427,-1.98481 -4.1737,-5.51771 -5.4024,-7.85092 l -2.2337,-4.24203 -0.032,-7.53533 -0.034,-7.53519 3.1718,-6.69512 3.1721,-6.69496 7.7962,-8.16021 7.7962,-8.1602 -2.8224,-5.90508 -2.8224,-5.90509 0.6029,-3.01374 0.6027,-3.01374 -1.438,-1.19338 -1.4379,-1.19338 1.5595,-3.01557 1.5593,-3.01555 -2.2297,-2.37346 -2.2297,-2.37344 0.637,-4.64805 0.6371,-4.64805 2.0012,-4.52384 2.0011,-4.52397 4.2727,-5.10342 4.2728,-5.10328 4.4106,-2.79714 4.4106,-2.79713 5.4413,-1.21777 5.4413,-1.21763 5.2309,1.65253 5.2309,1.65254 5.7355,3.5922 5.7356,3.59207 3.6601,6.02509 3.66,6.02496 0.514,3.83278 0.5141,3.83265 -2.2179,7.02767 -2.218,7.0278 -3.8602,4.91528 c -2.123,2.70347 -5.5197,7.402 -7.5483,10.44126 -2.0285,3.03925 -5.042,6.72736 -6.6965,8.19581 l -3.0081,2.67011 0.8555,1.4592 c 0.4704,0.80264 4.9721,5.82979 10.0037,11.17142 l 9.1483,9.71207 1.1998,-1.44574 1.2,-1.44574 0.2011,-2.85097 0.2013,-2.85097 -3.7626,-0.31152 -3.7625,-0.31152 -2.5168,-3.29975 -2.5169,-3.29975 0,-2.09402 0,-2.09404 1.4392,-1.43914 1.4393,-1.4393 8.3565,-2.59804 c 4.5961,-1.42879 10.6172,-3.11147 13.3803,-3.73928 l 5.0234,-1.14151 12.0564,-0.39635 c 6.631,-0.21801 14.4301,-0.66525 17.3312,-0.99373 l 5.2746,-0.59711 -5e-4,1.32811 -5e-4,1.32825 -7.1452,6.53052 c -3.9298,3.59178 -8.5638,7.94219 -10.2977,9.66763 l -3.1523,3.13698 -4.9009,0.71151 c -2.6955,0.3913 -5.5213,0.94944 -6.2794,1.24035 l -1.3786,0.52912 0,4.87825 0,4.87841 -2.1436,5.72927 -2.1437,5.72927 2.8868,2.09487 c 1.5877,1.15217 4.6998,3.49028 6.9159,5.19568 l 4.0293,3.10094 -0.1866,1.42023 c -0.1024,0.78119 -0.8118,3.11216 -1.5759,5.18011 l -1.3891,3.75988 -2.367,2.51954 -2.367,2.51953 -3.0902,0 -3.0901,0 -3.2896,-2.00556 c -1.8093,-1.10268 -3.8959,-2.00514 -4.6369,-2.00514 -0.741,0 -2.4968,-0.90429 -3.9019,-2.00949 -1.4049,-1.10519 -3.1614,-1.99785 -3.903,-1.98369 -0.7418,0.014 -3.8354,1.61328 -6.8746,3.55351 l -5.5258,3.52785 -9.5047,2.97701 -9.5048,2.97715 -5.0633,-0.0729 -5.0636,-0.0729 -5.0235,-1.79063 z m 24.379,-24.31377 4.417,-2.13819 0.4918,-1.28199 0.492,-1.28199 -10.3687,-10.1373 -10.3687,-10.13716 -1.213,0 -1.2132,0 -2.8057,3.69834 c -1.5431,2.03402 -4.2751,5.05603 -6.071,6.71544 l -3.2653,3.0171 0,1.35868 0,1.35882 4.2699,4.35658 c 2.3486,2.39615 5.1742,4.8526 6.2794,5.45883 l 2.0096,1.1021 6.4642,0.0309 6.4648,0.0309 4.4169,-2.13819 z m -5.3747,-61.74829 7.7568,-6.61856 1.9374,-3.17735 1.9375,-3.17735 0,-3.18816 0,-3.18829 -2.4913,-2.96088 -2.4915,-2.96088 -3.0177,-1.24988 -3.0177,-1.25003 -3.4726,0.65151 -3.4726,0.65151 -2.7247,3.23104 c -1.4985,1.77718 -3.3342,4.68606 -4.0794,6.46421 l -1.3553,3.23301 0,3.8914 0,3.89138 1.4228,4.72755 c 1.4132,4.69544 3.1794,7.64819 4.5752,7.64819 0.4004,0 4.2188,-2.97827 8.4851,-6.61842 z m 178.1997,58.86719 c -3.1603,-0.40532 -8.95,-1.76723 -12.8661,-3.02637 l -7.12,-2.28932 -5.9657,-3.62375 c -3.2813,-1.99295 -8.278,-5.43204 -11.1039,-7.6423 l -5.1378,-4.01883 -5.8094,-6.83672 -5.8096,-6.83658 -3.0393,-5.72212 c -1.6717,-3.14721 -3.9635,-8.661 -5.0929,-12.25278 -1.1296,-3.59178 -3.0131,-11.72016 -4.1857,-18.06308 l -2.1322,-11.53258 0.4466,-4.54262 c 0.645,-6.56277 3.4846,-21.13838 6.2828,-32.25063 2.786,-11.06319 8.7446,-28.61819 11.7269,-34.54809 4.4425,-8.834 15.6193,-26.57506 22.4795,-35.68203 3.9799,-5.2833 10.3366,-12.77713 14.1263,-16.65295 3.7896,-3.87583 10.0533,-9.43842 13.9196,-12.3613 l 7.0293,-5.31428 8.331,-4.1282 8.331,-4.12818 10.7618,-0.0673 10.762,-0.0673 9.5446,3.85144 c 5.2497,2.11828 10.4489,3.92672 11.5541,4.01883 l 2.0093,0.16726 0.5024,-5.57127 0.5024,-5.57141 1.864,-2.84325 1.8638,-2.8434 5.5276,0.64968 5.5277,0.64955 5.4301,2.56889 5.4301,2.56888 3.5047,3.30535 3.5048,3.3055 0,5.03038 c 0,2.76685 -0.2827,6.44415 -0.6281,8.17184 l -0.6283,3.14118 -3.9631,4.50224 -3.9629,4.50211 0.6318,1.0222 0.6315,1.02205 1.8388,0 1.8389,0 2.3206,1.8791 2.3206,1.87911 -1.1931,13.94499 c -1.3733,16.04982 -2.4038,23.71722 -4.5503,33.85494 -0.8405,3.96935 -1.9661,9.47752 -2.5014,12.24059 -0.5354,2.76292 -1.7174,8.34708 -2.6271,12.40923 l -1.6535,7.38574 -2.4941,4.92187 -2.494,4.92186 -0.8706,0 -0.8707,0 -0.6058,-2.26058 c -0.3332,-1.2433 -0.612,-4.64875 -0.6196,-7.56758 l -0.014,-5.30699 -1.3577,-3.24914 -1.3575,-3.24928 -0.7408,-13.00481 -0.7408,-13.00468 -4.3052,-12.59907 -4.3051,-12.59893 -4.3264,-8.4364 -4.3267,-8.43653 -3.6097,-3.79466 -3.6099,-3.79465 -2.7835,-0.69876 -2.7837,-0.69862 -4.4005,1.68059 c -2.4202,0.92433 -7.2608,3.56836 -10.7568,5.87563 l -6.3565,4.19521 -9.364,9.49154 -9.3639,9.49155 -7.4016,11.12612 -7.4018,11.126 -7.0229,14.56819 c -7.5421,15.64505 -12.5939,28.57921 -16.7088,42.77908 l -2.58,8.90298 -0.6222,7.56534 -0.6221,7.56533 -2.3518,2.82966 -2.3516,2.82966 1.4782,2.85896 c 0.8133,1.57248 2.7666,3.91606 4.3409,5.20801 l 2.8623,2.34905 2.6913,4.71324 2.6912,4.71339 4.7647,4.87896 4.7646,4.87882 4.8678,2.34891 4.8681,2.34891 11.2073,-0.52645 11.2071,-0.52645 9.7293,-3.15184 c 5.3511,-1.73343 12.3288,-4.30134 15.5063,-5.70656 l 5.7768,-2.55472 1.7853,0.46672 1.7852,0.46687 2.8854,-2.75746 2.8855,-2.75746 7.0847,-2.70725 7.0847,-2.70727 1.8725,-2.06893 c 1.0298,-1.138 3.0531,-2.6795 4.4961,-3.42578 l 2.6238,-1.35686 1.1918,-2.81031 1.1921,-2.81031 5.6866,-3.45439 c 3.1277,-1.89999 7.3852,-4.98902 9.4613,-6.86447 l 3.7745,-3.41009 3.9874,-6.3139 3.9875,-6.31377 1.5027,-0.57665 1.5028,-0.57664 1.2294,1.48164 1.2297,1.48163 -1.1204,2.22624 c -0.6163,1.22451 -2.2311,6.83223 -3.5883,12.46167 l -2.4677,10.23517 -4.8491,8.85419 -4.8494,8.85405 -6.7151,6.72006 -6.7152,6.72007 -2.8825,1.49061 -2.8825,1.49061 -1.9369,-0.17301 -1.937,-0.17314 -2.7952,5.52598 -2.795,5.52585 -10.7908,6.72314 -10.7904,6.72316 -9.0424,3.0028 -9.0423,3.0028 -7.8592,1.07464 c -8.6069,1.1767 -13.2798,1.19254 -21.9996,0.0743 z m -947.57909,-17.47621 -3.8809,-1.45851 -2.99285,-2.84228 -2.99285,-2.84241 -1.97287,-3.83629 -1.97287,-3.83644 -0.56405,-4.76259 -0.56406,-4.76246 2.39654,-2.78619 2.39651,-2.78605 6.29566,-0.74237 6.29564,-0.74235 1.71025,-1.71016 1.71024,-1.7103 0.5153,-9.26428 0.51534,-9.26442 3.0141,-0.51327 3.0141,-0.51341 0.31185,-2.69521 0.31184,-2.69534 -2.82359,-1.79793 c -1.55298,-0.98883 -3.15576,-2.26044 -3.56175,-2.82587 l -0.73813,-1.02781 -0.0154,-28.91681 -0.0154,-28.91667 1.25588,-0.38696 c 0.69073,-0.21282 2.44933,-0.64674 3.908,-0.96443 l 2.65211,-0.57763 0.63805,-1.66277 0.6381,-1.66277 -1.2808,-1.71479 c -0.70442,-0.94312 -2.80269,-3.70268 -4.66283,-6.13235 l -3.38206,-4.41756 0.8122,-16.07519 c 0.4467,-8.84144 0.83834,-20.44789 0.87029,-25.79204 l 0.058,-9.71684 -2.42606,-2.58052 -2.42607,-2.58053 -5.61156,-2.09248 -5.61155,-2.09235 -2.17937,-2.03556 -2.17939,-2.03556 -2.13959,-4.9736 -2.13961,-4.9736 -0.16458,-5.93831 -0.16461,-5.93831 2.3531,-2.50481 2.35307,-2.50468 8.66107,-3.16599 8.66105,-3.16586 15.5729,-2.90578 15.57289,-2.90565 18.08465,0.021 18.08464,0.021 9.6612,0.94018 9.66119,0.94018 8.25613,3.01318 c 4.54088,1.65716 11.05155,4.5764 14.46816,6.48705 3.4166,1.91065 8.25938,5.27615 10.76166,7.47869 l 4.54977,4.00481 6.37363,8.88728 6.37363,8.88728 4.81489,10.04701 4.81503,10.04701 1.68744,6.53052 1.68759,6.53066 0.0897,7.53519 0.0897,7.53533 -1.30134,5.52584 -1.30134,5.52585 -3.92785,8.03766 -3.92783,8.03753 -5.77274,6.70745 c -3.17498,3.68923 -8.03332,8.71484 -10.79625,11.1682 -2.76292,2.45349 -8.56466,7.00074 -12.89275,10.10505 l -7.86926,5.64417 -12.2248,5.91476 c -15.41179,7.45668 -33.39612,14.65679 -41.86353,16.76021 -3.59182,0.89223 -8.20567,2.05225 -10.25299,2.57771 l -3.72243,0.95547 -1.55226,1.55215 -1.55227,1.5523 0,13.0351 0,13.03509 2.30454,2.30448 2.30455,2.3046 4.09554,0.65487 4.09555,0.65488 1.2582,1.51598 1.25821,1.51613 5.15167,0.014 5.15166,0.014 4.33674,1.51052 4.3367,1.51037 0.93062,-0.5751 c 0.87633,-0.54159 22.02586,-1.66628 28.57466,-1.51949 1.65776,0.0364 4.59652,0.0743 6.53056,0.0827 1.93405,0.014 4.13252,0.23511 4.88549,0.505 l 1.36904,0.4907 -1.24088,1.49509 -1.24088,1.49524 -1.56916,0 c -0.86308,0 -3.63343,0.96051 -6.1564,2.1344 -2.52294,1.1739 -7.29987,3.39522 -10.61541,4.93617 -3.3155,1.54093 -8.74091,3.56753 -12.05642,4.50336 -3.31553,0.93583 -7.51295,2.33153 -9.3276,3.10151 l -3.29938,1.39975 -3.76118,0 -3.76119,0 -2.19726,1.53912 c -3.28488,2.30082 -9.70791,4.38026 -20.35331,6.58968 l -9.54467,1.98088 -12.05643,0.50192 -12.05644,0.50192 -3.88089,-1.4585 z m 75.07896,-111.82284 8.90645,-3.51944 4.34804,0.65193 4.34803,0.65207 1.61072,-2.45827 1.61071,-2.45827 -0.60508,-2.41088 -0.60512,-2.41087 1.98274,-1.79442 1.98275,-1.79443 2.1572,1.15455 2.15718,1.15455 1.52945,-1.26937 1.52944,-1.26938 -0.55897,-2.79489 -0.55902,-2.79502 5.01866,-5.73516 c 6.26951,-7.1645 11.3256,-14.73769 14.82342,-22.20292 l 2.7025,-5.76796 7e-4,-9.04221 5.6e-4,-9.04234 -2.67291,-5.70193 -2.67287,-5.7018 -4.11137,-4.46032 -4.11137,-4.46032 -5.85824,-2.62903 -5.85826,-2.62889 -7.70969,-1.1467 -7.7097,-1.1467 -9.78885,1.18777 c -5.38388,0.65334 -10.54302,1.40565 -11.46477,1.67189 l -1.67593,0.48397 -3.48022,-3.05579 -3.48025,-3.05567 -2.09258,0 -2.09261,0 -1.04005,1.94346 c -0.57202,1.06874 -1.04004,3.02761 -1.04004,4.35279 l 0,2.40947 -3.68888,2.42897 c -2.02889,1.33582 -4.57476,3.63328 -5.65751,5.10538 l -1.96866,2.67642 -0.82681,15.9106 -0.82684,15.91046 -0.0461,28.6932 -0.0461,28.69319 1.25588,1.58342 c 0.69074,0.87092 1.93406,1.78713 2.76293,2.03584 l 1.50705,0.45229 11.5541,-2.4399 11.55408,-2.43976 8.90644,-3.51958 z m 94.5779,109.50463 c -1.65772,-0.21983 -5.42224,-1.07899 -8.36559,-1.90925 l -5.35158,-1.50953 -4.2367,-4.23671 -4.23671,-4.23657 -4.41307,-11.53705 -4.41322,-11.53692 -0.41934,-13.52412 -0.41919,-13.52411 1.19323,-7.39709 1.19325,-7.39723 2.41957,-7.11362 c 1.33064,-3.91256 4.04127,-10.06426 6.02356,-13.67048 4.31647,-7.85288 11.19062,-16.98831 17.73684,-23.57155 l 4.79007,-4.81727 8.32732,-3.9957 8.32732,-3.9957 5.12263,-0.60665 5.12263,-0.60678 5.21222,2.83695 5.21221,2.8368 5.33504,5.12613 5.33489,5.126 2.50551,4.97318 2.50551,4.97317 1.12974,5.32409 1.12959,5.32425 0,12.76043 0,12.76059 -1.04898,3.77713 -1.04897,3.77713 -2.21068,1.43453 -2.21067,1.43438 -7.033,1.15006 c -7.05136,1.15287 -41.69029,9.7561 -49.23039,12.22727 l -4.01883,1.31704 -1.75124,3.57972 -1.75124,3.57973 1.70357,4.45794 c 0.93695,2.45182 2.7583,6.16964 4.04743,8.26184 l 2.34387,3.80405 3.22965,2.03697 3.22964,2.03682 6.11833,-0.43756 6.11833,-0.4377 6.44051,-2.84031 c 3.54229,-1.56225 11.8633,-6.08469 18.49126,-10.04996 l 12.05075,-7.20951 1.36891,0.52533 1.36878,0.52519 -0.53711,3.31012 c -0.2954,1.82064 -1.44869,5.37064 -2.56258,7.88905 l -2.02547,4.5788 -2.49653,0 -2.49641,0 -1.64623,1.64609 -1.64609,1.64623 0.16053,4.13085 c 0.0883,2.27194 0.11917,4.62099 0.0673,5.22021 l -0.0925,1.08921 -8.8197,4.19128 -8.81957,4.19128 -7.00439,1.48374 c -6.93724,1.46958 -9.20077,1.59253 -15.0422,0.81779 z m 9.60342,-74.13721 16.51893,-3.71502 4.18399,-1.82177 4.18413,-1.82175 1.09061,-2.03781 1.09062,-2.03795 0,-10.59505 0,-10.59506 -1.61987,-4.04842 -1.61973,-4.04827 -2.37275,-0.59543 -2.37274,-0.59557 -4.53547,2.19553 -4.53534,2.19554 -7.50687,7.01055 c -4.12874,3.85593 -9.0485,9.13053 -10.93265,11.72143 -1.88428,2.59104 -5.3419,8.40555 -7.68367,12.92112 l -4.25772,8.21011 0.71179,1.15188 0.71193,1.15175 1.21302,-0.46547 c 0.66707,-0.25601 8.64641,-2.13721 17.73179,-4.18034 z m 318.3138,72.44625 c -1.99898,-0.71432 -5.28077,-2.31624 -7.29294,-3.55982 l -3.65822,-2.26086 -2.51394,-4.28971 c -1.38283,-2.35927 -4.20448,-8.98878 -6.27057,-14.73193 l -3.75654,-10.44224 0.0939,-16.07519 0.0939,-16.07534 2.17689,-8.03752 2.17688,-8.03767 4.07368,-8.54001 4.0736,-8.54 5.44189,-7.12034 c 2.99309,-3.91634 7.94497,-9.48776 11.00427,-12.3812 l 5.56229,-5.26059 7.56701,-3.49616 7.56695,-3.49603 4.89086,-0.5793 4.8907,-0.57932 4.3534,2.12572 4.3535,2.12571 6.2377,5.58263 6.2376,5.58276 3.3072,6.71208 3.3069,6.71222 0.3257,17.60883 0.3255,17.60885 -1.0343,2.71035 -1.0342,2.71049 -2.3054,1.49579 -2.3054,1.49565 -9.0732,1.56365 c -4.9903,0.85985 -17.6495,3.84695 -28.13173,6.63777 l -19.05851,5.07426 -4.52117,2.21712 -4.52117,2.21726 0.16893,6.19951 0.16884,6.19965 2.0503,4.63487 2.05011,4.63487 3.52563,1.47308 3.52572,1.47322 7.31635,-0.0169 7.31654,-0.0169 8.4732,-3.43617 8.47326,-3.43616 1.9084,1.0215 1.9085,1.02136 1.8355,-1.6611 c 1.0095,-0.91368 2.086,-2.64515 2.3922,-3.84778 l 0.5571,-2.18657 6.3206,-4.27007 6.3209,-4.26993 1.8489,0 1.8486,0 2.874,-2.04636 c 1.5804,-1.12552 4.9658,-2.97168 7.5226,-4.10281 l 4.6489,-2.05631 0.5252,0.52519 0.5252,0.52533 -1.684,4.40957 -1.684,4.40956 -3.9175,5.17591 c -2.1547,2.84676 -4.8199,6.94467 -5.9228,9.10641 l -2.0052,3.93065 -5.084,4.44742 -5.0841,4.44743 -9.2679,4.66446 -9.268,4.66445 -4.7812,1.25437 -4.78132,1.25437 -1.55499,-2.2202 -1.55508,-2.22022 -2.70601,0 -2.70583,0 -4.01887,2.47538 c -2.21035,1.36134 -4.69692,2.46948 -5.52578,2.46247 -0.82894,-0.014 -3.14273,-0.59725 -5.14189,-1.31157 z m 16.19345,-72.01696 c 7.46005,-1.65254 16.39396,-3.93556 19.85336,-5.0737 l 6.2896,-2.06921 1.1093,-2.07258 1.1093,-2.07271 0.1359,-11.65666 0.136,-11.65664 -2.0906,-3.51636 -2.0908,-3.5165 -3.5184,0.0995 -3.5184,0.0995 -6.1764,4.19437 -6.17646,4.19436 -2.38708,-0.59922 -2.3869,-0.59907 -1.65242,1.6524 -1.65233,1.6524 0.61543,2.45209 0.61552,2.45211 -3.98397,5.2617 c -2.19106,2.89387 -5.85834,8.70824 -8.14979,12.92055 l -4.1659,7.65913 0,2.254 0,2.25413 2.26058,-0.65473 c 1.24324,-0.36018 8.36402,-2.00682 15.82392,-3.65923 z m 624.19166,72.69763 -2.2404,-0.4328 -2.0295,-2.57995 -2.0294,-2.57997 0,-1.75096 0,-1.75082 -1.4188,-1.17768 -1.419,-1.17753 -6.0889,2.56271 c -3.3487,1.40958 -9.6049,3.72371 -13.9026,5.14254 l -7.8141,2.57982 -9.1228,0.57062 -9.1229,0.57061 -5.331,-1.77058 -5.331,-1.77073 -3.8763,-3.50192 -3.8764,-3.50205 -1.5127,-5.09417 -1.5127,-5.09417 0,-4.7954 0,-4.79554 2.4341,-6.70605 2.4343,-6.70619 3.7603,-5.45981 3.7603,-5.45966 5.6107,-4.05081 5.6108,-4.05065 12.0565,-5.87341 12.0564,-5.87354 8.8505,-2.20674 8.8507,-2.20675 2.11,-1.70848 2.1097,-1.70847 -1.1091,-9.76451 -1.1093,-9.76438 -1.8136,-3.71053 -1.8136,-3.71054 -8.0377,-0.28292 -8.0376,-0.28292 -8.0376,3.90709 -8.0376,3.9071 -7.5354,5.59089 c -4.1443,3.07501 -8.1125,6.19123 -8.8183,6.92518 -0.7056,0.73381 -2.3695,2.69073 -3.6978,4.34845 l -2.4148,3.01402 -1.2082,-1.18861 -1.2082,-1.18863 2.7111,-6.84905 c 1.491,-3.76689 4.1509,-9.26946 5.9107,-12.22811 l 3.1997,-5.37919 5.9014,-4.94962 c 3.2458,-2.72226 7.7818,-6.05145 10.08,-7.39835 2.2982,-1.34676 6.1982,-3.1674 8.6667,-4.04589 l 4.4883,-1.59716 7.2305,-0.0406 7.2306,-0.0406 5.374,2.46037 5.3742,2.46036 3.6811,3.23218 3.6813,3.23217 2.4372,5.20619 2.437,5.20619 1.1425,5.42938 1.1424,5.42938 0.9672,14.16231 c 0.5321,7.78938 0.974,18.11847 0.9821,22.95355 l 0.015,8.7911 0.9455,0 c 0.5198,0 1.2246,-0.45215 1.5662,-1.00467 l 0.621,-1.00468 2.0756,0 2.0758,0 -0.6521,3.26526 c -0.3586,1.79597 -1.9974,6.14175 -3.6421,9.65754 l -2.9899,6.39214 0,1.89662 0,1.89663 1.06,0 c 0.5832,0 3.635,-1.32054 6.782,-2.93439 8.433,-4.32502 14.7376,-7.11262 16.0857,-7.11262 l 1.1898,0 0,0.93359 c 0,0.51356 -1.8396,3.70339 -4.088,7.08851 l -4.0883,6.15478 -0.7743,4.8986 -0.7745,4.89858 -1.6277,2.48435 -1.6278,2.48434 -5.3151,3.01697 -5.3148,3.01696 -5.457,1.60108 c -3.0013,0.88046 -5.714,1.53926 -6.0282,1.46411 -0.3143,-0.0757 -1.5795,-0.33158 -2.8118,-0.56963 z m -35.9318,-22.87377 7.7185,-1.47672 5.6822,-2.5916 c 3.1253,-1.42542 7.3798,-3.76241 9.4544,-5.19344 l 3.772,-2.60197 2.005,-3.24422 2.0051,-3.24423 0,-4.19703 0,-4.19703 -2.4661,-2.46612 -2.4661,-2.46612 -1.9326,0 -1.9325,0 -1.5101,-2.26058 -1.5101,-2.26059 -1.9224,1.72727 -1.9227,1.72713 -6.8004,2.10047 -6.8004,2.10048 -3.7041,3.27409 c -2.0373,1.80073 -5.835,4.77704 -8.4395,6.61421 l -4.7352,3.34027 -2.4484,3.62389 c -1.3465,1.99323 -2.7571,4.66333 -3.1344,5.93368 l -0.6862,2.3098 1.6134,2.46262 1.6136,2.46247 5.4145,0 5.4141,0 7.7184,-1.47673 z m -509.2209,18.15716 -3.6863,-3.68642 -2.5117,-4.95649 -2.5117,-4.95663 0,-2.48589 0,-2.48574 1.2509,-0.7732 1.2508,-0.77307 8.5451,-0.0393 8.5449,-0.0393 0.605,-20.09417 0.6048,-20.09402 1.2335,-5.26017 1.2335,-5.26002 -0.3313,-12.99795 -0.3314,-12.9978 -2.225,-2.36545 -2.2253,-2.36546 0.5809,-2.22133 0.5809,-2.22133 -1.6888,-0.64815 -1.6889,-0.648 -2.1927,1.15398 -2.1927,1.15386 -5.0236,-1.9213 -5.0236,-1.92117 -0.3421,-1.70062 -0.3421,-1.70049 2.2305,-2.37415 2.2304,-2.37429 8.661,-3.18226 8.6611,-3.18225 5.5889,-0.11917 5.5887,-0.11917 2.784,1.82414 2.7838,1.82414 1.4232,3.40602 1.4231,3.40602 0,5.05575 0,5.05575 1.2558,-5.5e-4 1.2559,-5.7e-4 5.746,-6.42523 5.7457,-6.42522 4.3673,-2.11421 4.3672,-2.11408 4.6241,0 c 2.5433,0 5.3739,0.28768 6.2904,0.63931 l 1.6662,0.63945 0.9028,2.37471 0.9029,2.37471 2.851,0 2.851,0 2.5753,2.76292 2.5754,2.76293 4.1432,8.57533 4.1431,8.57519 -0.057,1.97415 c -0.032,1.08572 -0.8641,5.06599 -1.8492,8.84508 l -1.7912,6.87107 -4.4304,1.97934 -4.4301,1.97935 -2.6694,2.55094 -2.6693,2.5508 -5.9978,-2.69157 -5.9976,-2.69156 -1.091,-2.39447 -1.0908,-2.39434 0.8324,-0.51453 0.8326,-0.51454 1.797,1.98565 1.7971,1.9858 2.6664,0 2.6664,0 1.6455,-1.25591 1.6455,-1.25592 1.546,-4.52116 c 0.8503,-2.48659 1.5526,-5.33293 1.5606,-6.32499 l 0.015,-1.80395 -2.5118,-2.51168 c -1.3814,-1.38153 -2.5117,-2.86457 -2.5117,-3.29568 0,-0.43112 -1.0464,-1.76694 -2.3254,-2.96846 l -2.3253,-2.1846 -5.4887,0 -5.4889,0 -2.2549,1.5795 -2.255,1.57949 -2.8523,5.7046 c -1.5686,3.13754 -3.581,7.96519 -4.472,10.7281 -0.8911,2.76292 -2.7754,11.79545 -4.1876,20.0723 l -2.5675,15.04879 -0.101,7.78671 -0.1009,7.78656 1.7217,2.62722 1.7214,2.62734 4.3177,1.90995 4.3178,1.91009 0.5467,2.08996 0.5465,2.0901 2.0606,-1.10296 2.0607,-1.10281 1.9707,1.23067 1.9704,1.23054 2.4963,-1.33597 2.4964,-1.33596 2.8403,0.70899 c 1.5621,0.3899 3.5186,1.29111 4.3475,2.00275 0.8289,0.71166 2.7596,1.59156 4.2905,1.95552 l 2.7835,0.6616 2.0967,-1.12216 2.0967,-1.12202 0.9614,0.96136 0.9615,0.96148 -1.7215,1.72138 -1.7214,1.72137 -2.0366,-0.53248 -2.0368,-0.53261 -2.5858,1.39162 c -3.9294,2.11464 -12.1384,4.54108 -15.3637,4.54108 l -2.8751,0 -4.2301,2.18936 -4.2298,2.18951 -11.0519,0.74404 c -6.0783,0.40924 -15.3834,1.06776 -20.6776,1.46341 l -9.626,0.71922 -3.6864,-3.68641 z m 582.9633,0.76031 c -1.435,-1.57991 -3.3565,-3.99037 -4.27,-5.35662 l -1.6612,-2.4842 0,-2.79055 0,-2.79054 1.9698,-1.96981 1.9698,-1.96981 5.5641,-1.61763 5.564,-1.61749 0.5729,-2.28217 0.5727,-2.28204 -0.3201,-36.07683 -0.3203,-36.07697 -2.0638,-3.51299 -2.0636,-3.51299 -3.4622,-2.33321 -3.4622,-2.33307 0,-1.18679 0,-1.18665 9.5448,-3.23974 c 5.2494,-1.78181 10.4488,-3.25124 11.554,-3.26526 l 2.0095,-0.0252 2.6034,3.26526 2.6033,3.26525 1.2856,4.01883 c 0.7071,2.2104 1.6682,4.43327 2.1357,4.93995 l 0.8501,0.92126 7.3172,-7.60038 7.3175,-7.60053 4.2699,-1.14585 4.2701,-1.146 3.7896,1.02038 3.7896,1.02052 4.2631,3.13515 4.263,3.13501 2.3982,4.17207 c 1.3191,2.29452 2.6959,5.60127 3.0593,7.34844 l 0.6613,3.17638 -1.1327,6.3683 c -0.6231,3.50248 -2.2734,10.14263 -3.6677,14.75578 l -2.535,8.38774 -5.9425,6.09169 -5.9423,6.0917 -0.6173,-0.61717 -0.6169,-0.61716 1.7188,-7.01421 1.7189,-7.0142 -0.5715,-10.29152 -0.5717,-10.29153 -1.0142,-1.01406 -1.0142,-1.01421 -5.579,1.75866 -5.5793,1.75867 -3.094,4.20601 c -1.7016,2.31344 -3.7183,5.66156 -4.4816,7.44041 l -1.3877,3.23428 -2.5112,16.54528 -2.5112,16.54543 0,6.14132 0,6.14132 1.4697,2.84256 c 0.8086,1.56323 2.052,3.05972 2.7631,3.3254 0.7112,0.26568 6.7184,0.15983 13.3494,-0.23497 l 12.0566,-0.71811 0.908,0.81274 0.9081,0.81287 -2.7545,3.61128 c -1.515,1.98635 -4.2193,4.57164 -6.0097,5.74526 l -3.2553,2.13398 -2.1721,3.31335 -2.172,3.31349 -2.6276,1.72165 -2.6275,1.72166 -9.6905,0.72707 c -5.3297,0.4 -13.9855,1.04435 -19.2351,1.43214 l -9.5448,0.70493 -2.6086,-2.87255 z m 85.8182,1.01575 c -1.2047,-1.03341 -3.3523,-3.63735 -4.7724,-5.78676 l -2.5819,-3.90779 0,-1.94654 0,-1.94639 2.8148,-2.81494 2.8148,-2.8148 4.1603,-0.70282 4.1603,-0.70296 0.9697,-1.17727 0.9698,-1.17739 0.2141,-35.16455 0.2142,-35.16455 -1.0033,-4.80858 -1.0031,-4.80858 -1.7691,-1.95495 -1.7691,-1.95481 -5.1357,-1.91303 -5.1354,-1.91316 -0.274,-1.37047 -0.274,-1.37059 12.7386,-2.2732 12.7388,-2.2732 2.6058,1.6573 c 1.4331,0.91144 3.6069,2.83863 4.8305,4.28269 l 2.2246,2.62525 0.6501,3.26525 0.6502,3.26541 1.144,-0.014 1.144,-0.014 4.7211,-5.92106 4.7214,-5.92107 5.5231,-2.70235 5.5235,-2.70222 3.319,0.71488 c 1.8254,0.39327 4.6754,1.39036 6.3331,2.21572 3.8681,1.92607 8.3521,6.09478 10.0509,9.34448 l 1.3316,2.54729 -1.4341,13.02556 -1.4339,13.0257 -2.9756,4.52117 c -1.6365,2.48673 -3.749,5.99061 -4.6945,7.78644 l -1.7188,3.26525 -1.6266,0 -1.6267,0 -0.097,-8.28876 -0.098,-8.28877 -1.7084,-4.25073 -1.7082,-4.25072 -3.2825,-2.02869 -3.2826,-2.0287 -2.5206,0 -2.5206,0 -2.0095,4.77241 c -1.1053,2.62482 -2.7173,7.03286 -3.5823,9.79578 -1.7059,5.44887 -5.2061,26.80217 -6.2795,38.30881 l -0.6683,7.16296 1.1739,3.5573 c 0.6457,1.95635 1.7162,4.00004 2.3786,4.54135 l 1.2045,0.98406 5.5259,-0.98882 c 3.0392,-0.5437 8.2385,-1.11066 11.5539,-1.2597 3.3156,-0.14903 6.7738,-0.59375 7.685,-0.98827 l 1.6564,-0.71712 0.7113,1.1509 0.7113,1.15076 -6.6046,6.3498 -6.6047,6.34966 -1.5695,3.9228 -1.5696,3.92265 -3.2159,1.89971 -3.216,1.89971 -9.5648,0.70969 c -5.2605,0.39046 -13.6336,1.03594 -18.607,1.43439 l -9.0423,0.7247 -2.1903,-1.87897 z m 114.2147,0.0855 -5.5259,-1.51753 -5.3389,-3.65516 -5.3388,-3.65515 -3.9389,-4.60571 -3.9389,-4.60571 -2.9278,-6.02832 -2.9276,-6.02818 -1.1068,-5.3241 -1.1068,-5.32424 0.02,-9.24394 0.02,-9.24409 0.9769,-6.75497 0.9769,-6.75499 2.1576,-6.3062 c 2.8398,-8.30012 7.4455,-17.45027 11.1507,-22.15202 l 2.9861,-3.78946 6.3014,-4.4965 c 3.4659,-2.47313 8.772,-5.62777 11.7918,-7.01014 l 5.4904,-2.51365 7.447,-0.60692 7.4471,-0.60707 7.0105,1.64932 7.0105,1.64931 4.1976,2.45995 4.1973,2.45981 3.1064,3.92209 3.1063,3.9221 3.4875,7.39414 c 1.9181,4.06679 4.2073,10.10674 5.0872,13.42233 l 1.5999,6.02819 0.5615,9.54468 0.5616,9.54467 -1.6255,8.54 c -0.894,4.69698 -2.0892,10.19704 -2.6558,12.22236 l -1.0301,3.68235 -3.4928,2.06081 -3.4927,2.06079 0,1.55455 c 0,0.85508 0.5577,2.44761 1.2392,3.53906 l 1.2394,1.9844 -1.9929,3.7146 c -1.096,2.04313 -4.0999,6.02341 -6.6753,8.84508 l -4.6826,5.13061 -5.3645,2.96159 -5.3645,2.96158 -12.5588,0.24353 -12.5587,0.24367 -5.5259,-1.51752 z m 24.0691,-20.80219 5.5411,-1.25591 3.8444,-3.83012 3.8443,-3.83013 1.9529,-4.55593 1.9529,-4.55595 1.1072,-7.13631 1.1073,-7.13619 -0.6681,-14.11646 c -0.3675,-7.76399 -0.6496,-16.21665 -0.6268,-18.78371 l 0.04,-4.66726 -2.7139,-1.77802 c -1.4926,-0.97803 -5.12,-3.73801 -8.0608,-6.13333 l -5.3468,-4.35517 -3.295,0 -3.2952,0 -5.158,1.53183 -5.1584,1.53182 -3.2361,2.72311 -3.2365,2.72324 -3.8213,5.91223 -3.8212,5.91224 -0.6131,3.64744 c -0.3372,2.00598 -0.8236,4.41855 -1.0811,5.36097 -0.2575,0.94256 -2.2527,3.87302 -4.4335,6.51215 l -3.9652,4.79849 0,1.55341 0,1.55341 1.8542,1.58763 1.8543,1.58777 0.6902,5.87255 0.6902,5.87256 4.3433,9.16895 4.3435,9.1688 2.9448,2.09683 c 3.4754,2.47481 8.5431,4.05822 13.3911,4.18427 1.9178,0.0491 5.9804,-0.47458 9.0281,-1.16534 z m 89.6831,19.7647 -5.1972,-2.58991 -2.5833,-3.0701 c -1.4208,-1.68857 -3.4248,-4.71955 -4.4533,-6.73549 l -1.8698,-3.66539 -1.0963,-5.92962 -1.0961,-5.92976 -0.07,-26.69128 -0.07,-26.69128 -0.7857,-2.00934 -0.7856,-2.00949 -7.2508,0 -7.2506,0 -3.9495,-4.2311 -3.9495,-4.23095 0,-2.5644 0,-2.56426 -1.1633,-1.8627 -1.163,-1.86269 0.5474,-1.42725 0.5478,-1.42737 5.9273,-3.10698 5.927,-3.10682 5.7974,-1.29741 5.797,-1.29728 1.1989,-2.08799 1.1987,-2.088 -0.2577,-20.42351 -0.2578,-20.42349 -1.0678,-1.99532 -1.0679,-1.99534 1.1976,-1.44279 1.1973,-1.44294 2.0063,0 2.0061,0 5.8792,3.57145 5.8791,3.57146 2.1148,2.97 2.1149,2.96985 0.5847,15.21844 0.585,15.21829 1.8661,1.86606 1.8661,1.8662 2.7476,-0.66034 c 1.5112,-0.36312 4.33,-1.44335 6.2641,-2.4005 l 3.5164,-1.74031 7.8928,-0.72455 7.8927,-0.72455 3.6613,-1.56001 3.6613,-1.56014 5.2638,-0.10236 5.264,-0.10234 0.4923,1.28367 0.4923,1.28354 -1.7374,1.41616 c -0.9556,0.77895 -3.858,3.14006 -6.4499,5.24698 -2.5919,2.10693 -8.5474,7.25647 -13.2345,11.44354 l -8.5223,7.61259 -8.8687,3.35401 c -4.8779,1.8446 -9.5471,3.9727 -10.3759,4.72908 l -1.507,1.37522 -0.3236,27.84625 -0.3237,27.84639 0.6512,5.30741 0.6512,5.30755 2.3314,2.71049 2.3314,2.71034 3.0882,-1.48737 3.0881,-1.48725 11.4359,-11.18838 c 6.2898,-6.15352 12.4161,-11.71288 13.6142,-12.35401 l 2.1782,-1.16576 0.8577,0.5301 0.8577,0.5301 -0.8121,4.28871 c -0.4468,2.35872 -1.5342,6.00294 -2.4166,8.0981 l -1.6042,3.80951 -3.1182,2.78605 -3.1182,2.78606 1.1629,2.17268 1.1627,2.17268 -1.5776,3.79059 -1.5778,3.79058 -4.2223,4.39486 c -2.3224,2.41718 -6.2326,5.69506 -8.6892,7.28409 l -4.4667,2.88924 -5.6342,0 -5.6343,0 -5.1971,-2.58991 z"
       id="path4376"
       inkscape:connector-curvature="0" />
  </g>
</svg>
