<?xml version="1.0" encoding="UTF-8" standalone="no"?>
<!-- Created with Inkscape (http://www.inkscape.org/) -->

<svg
   xmlns:dc="http://purl.org/dc/elements/1.1/"
   xmlns:cc="http://creativecommons.org/ns#"
   xmlns:rdf="http://www.w3.org/1999/02/22-rdf-syntax-ns#"
   xmlns:svg="http://www.w3.org/2000/svg"
   xmlns="http://www.w3.org/2000/svg"
   xmlns:xlink="http://www.w3.org/1999/xlink"
   xmlns:sodipodi="http://sodipodi.sourceforge.net/DTD/sodipodi-0.dtd"
   xmlns:inkscape="http://www.inkscape.org/namespaces/inkscape"
   id="svg2"
   version="1.1"
   inkscape:version="0.92.1 renderfarm"
   width="2481"
   height="663"
   sodipodi:docname="Pepper-and-Carrot_by-David-Revoy_E01P00_092.svg"
   enable-background="new">
  <sodipodi:namedview pagecolor="#ffffff" bordercolor="#666666" inkscape:pageopacity="0" inkscape:pageshadow="2" inkscape:window-width="1813" inkscape:window-height="955" id="namedview70" showgrid="false" inkscape:zoom="0.4" inkscape:cx="1284.4231" inkscape:cy="2618.6204" inkscape:current-layer="layer1" /><metadata
     id="metadata8">
    <rdf:RDF>
      <cc:Work
         rdf:about="">
        <dc:format>image/svg+xml</dc:format>
        <dc:type
           rdf:resource="http://purl.org/dc/dcmitype/StillImage" />
        <dc:title />
      </cc:Work>
    </rdf:RDF>
  </metadata>
  <defs
     id="defs6">
    <filter
       inkscape:collect="always"
       id="filter4386">
      <feBlend
         inkscape:collect="always"
         mode="screen"
         in2="BackgroundImage"
         id="feBlend4388" />
    </filter>
  </defs>
  <sodipodi:namedview
     pagecolor="#ffffff"
     bordercolor="#666666"
     borderopacity="1"
     objecttolerance="10"
     gridtolerance="10"
     guidetolerance="10"
     inkscape:pageopacity="0"
     inkscape:pageshadow="2"
     inkscape:window-width="1920"
     inkscape:window-height="1026"
     id="namedview4"
     showgrid="false"
     inkscape:zoom="0.45053876"
     inkscape:cx="1645.3502"
     inkscape:cy="287.70723"
     inkscape:window-x="0"
     inkscape:window-y="27"
     inkscape:window-maximized="1"
     inkscape:current-layer="layer3"
     inkscape:snap-global="false">
    <inkscape:grid
       type="xygrid"
       id="grid4282" />
  </sodipodi:namedview>
  <g
     inkscape:groupmode="layer"
     id="layer1"
     inkscape:label="artwork"
     style="display:inline"
     sodipodi:insensitive="true">
    <image
       sodipodi:absref="/home/deevad/peppercarrot/webcomics/ep01_Potion-of-Flight/lang/de/../gfx_Pepper-and-Carrot_by-David-Revoy_E01P00.png"
       xlink:href="../gfx_Pepper-and-Carrot_by-David-Revoy_E01P00.png"
       width="2481"
       height="663"
       id="image3084"
       x="0"
       y="0" />
  </g>
  <g
     inkscape:groupmode="layer"
     id="layer2"
     inkscape:label="speechbubble"
     style="opacity:0.70232556;display:inline;filter:url(#filter4386)" />
  <g
     inkscape:groupmode="layer"
     id="layer3"
     inkscape:label="txt"
     style="display:inline">
    <flowRoot
       xml:space="preserve"
       id="flowRoot3063-8"
       style="font-style:normal;font-variant:normal;font-weight:normal;font-stretch:normal;line-height:0.01%;font-family:Arial;-inkscape-font-specification:Arial;letter-spacing:0px;word-spacing:0px;display:inline;fill:#2a5953;fill-opacity:1;stroke:none;enable-background:new"
       transform="matrix(21.180067,0,0,21.180067,627.97465,242.55337)"><flowRegion
         id="flowRegion3065-8"><rect
           id="rect3067-0"
           width="100.98825"
           height="4.0912075"
           x="-20.539219"
           y="13.270623"
           style="font-size:2.67756057px;fill:#2a5953;fill-opacity:1" /></flowRegion><flowPara
         id="flowPara3069-4"
         style="font-style:normal;font-variant:normal;font-weight:normal;font-stretch:normal;font-size:3.27257395px;line-height:1.25;font-family:Lavi;-inkscape-font-specification:Lavi;text-align:center;text-anchor:middle;fill:#2a5953;fill-opacity:1">Episode 1 : Der Flugtrank</flowPara></flowRoot>    <path
       style="display:inline;fill:#2a5953;fill-opacity:1;stroke:none;enable-background:new"
       d="m 717.25871,505.27133 c -1.97819,-1.73757 -4.25033,-4.42413 -5.0497,-5.9703 l -1.44344,-2.8114 0,-4.10897 0,-4.10897 2.45926,-2.46201 2.45938,-2.462 1.79106,-0.0268 c 0.9891,-0.0168 2.67312,-0.68968 3.73712,-1.49699 l 1.92473,-1.46226 0.74851,-5.27768 0.74838,-5.27715 0,-22.89296 0,-22.89298 -1.04244,-1.94073 -1.04256,-1.94075 -1.79107,0 c -0.9891,0 -4.18356,-0.71107 -7.10798,-1.57986 l -5.31974,-1.57986 -2.37906,-2.38715 -2.37918,-2.38717 0,-1.55045 0,-1.55046 5.77137,-0.0535 5.76876,-0.0535 4.51506,-2.21607 4.51506,-2.21608 0.29406,-35.11856 0.29405,-35.11883 -1.17622,-4.34073 -1.20296,-4.34073 -2.11185,-1.36601 -2.11174,-1.366 -8.77881,-0.70305 -8.77881,-0.70305 0,-1.20027 0,-1.20293 4.43757,-4.50139 4.43745,-4.50139 12.70034,-5.74016 12.69763,-5.74015 1.92474,0.61216 c 1.06929,0.33683 3.28536,1.75095 4.93735,3.14208 l 3.00474,2.52883 0,1.34463 c 0,0.74047 0.72177,2.05301 1.57722,2.921 l 1.57709,1.57718 10.35072,0 10.35319,0 8.69862,2.52082 c 4.78497,1.3874 10.87453,3.62431 13.53704,4.97294 2.67324,1.34997 8.42588,5.15473 12.80998,8.45799 l 7.96872,6.0056 2.75614,3.9745 2.75331,3.9745 1.44355,4.77247 1.44354,4.77219 0,6.77494 0,6.77468 -1.87125,6.03394 -1.87127,6.03366 -3.71297,6.63728 -3.71038,6.63728 -6.0361,6.45095 -6.03338,6.45121 -6.68839,4.9283 c -3.67835,2.71063 -8.94451,6.0457 -11.70323,7.41144 -2.76145,1.36599 -10.21164,4.20226 -16.55782,6.30366 -6.34616,2.10113 -12.55326,4.18889 -13.79637,4.63932 l -2.24539,0.818 0,21.64005 0,21.64004 2.43252,2.42192 2.43265,2.42191 2.84435,0.60415 c 1.57708,0.33146 3.60604,1.01046 4.53095,1.51034 l 1.68414,0.90889 4.3761,-0.0801 c 2.40579,-0.0535 6.68025,0.24058 9.49776,0.61751 l 5.12189,0.70304 3.18916,-1.64936 3.18644,-1.64936 2.95387,0.64959 c 1.63068,0.3582 4.98012,0.6496 7.4528,0.6496 2.48611,0 4.49904,0.21384 4.49904,0.47046 0,0.26733 -1.63068,1.14949 -3.62489,1.98351 -3.6542,1.52641 -11.51882,6.46219 -16.80099,10.54496 l -2.86566,2.21341 -6.52799,1.80975 -6.52788,1.80975 -4.65401,2.95842 -4.65402,2.9587 -7.5251,2.12518 c -4.1381,1.1682 -9.82397,2.78736 -12.63086,3.59599 l -5.10577,1.47026 -4.1408,0 -4.14081,0 -3.59804,-3.15918 z m 44.31623,-107.66263 8.88033,-4.4629 8.08907,-6.49346 8.08918,-6.49319 4.84374,-5.85056 4.84657,-5.85055 2.86824,-6.02029 2.86838,-6.02031 0,-4.31427 0,-4.31427 -1.47028,-2.8408 c -0.80197,-1.56115 -2.86837,-4.01968 -4.58183,-5.46028 l -3.11156,-2.61971 -5.7047,-1.71353 -5.70189,-1.71351 -8.53021,-0.0265 -8.52738,-0.0267 -5.54419,1.25373 -5.54432,1.25373 -3.23449,1.96746 -3.23721,1.96748 0,30.06648 0,30.06676 1.76421,1.02116 c 0.96237,0.56138 2.27225,1.0372 2.90853,1.05324 0.64146,0.0168 5.14851,-1.97816 10.03512,-4.43215 z m 73.59841,109.23688 c -1.39002,-0.89285 -3.7398,-3.21906 -5.24754,-5.17129 l -2.73998,-3.54946 -0.61487,-3.29071 -0.61487,-3.29043 1.36336,-2.84482 1.36335,-2.84455 4.43218,-2.12785 4.43482,-2.12787 1.33668,-1.8258 1.33642,-1.82579 0,-27.77876 0,-27.77878 -5.26607,-0.58809 c -2.89777,-0.32347 -7.03854,-0.94632 -9.2011,-1.38204 l -3.92971,-0.79394 -0.32068,-0.99978 c -0.26732,-0.55068 0,-1.55313 0.45434,-2.23212 l 0.77526,-1.23234 7.75765,-1.48363 c 4.26638,-0.81533 8.19603,-1.75628 8.73338,-2.08777 l 0.98892,-0.60413 0,-40.62775 0,-40.62775 -1.47004,-2.83144 -1.4703,-2.83117 -8.31913,-1.18156 c -4.57644,-0.64959 -9.7865,-1.4061 -11.58016,-1.67877 l -3.26134,-0.49722 0,-0.78324 c 0,-0.43037 1.01582,-1.70817 2.24551,-2.83893 2.45926,-2.23747 15.11958,-10.3343 16.1621,-10.3343 0.34751,0 4.66473,-1.81243 9.58066,-4.02449 l 8.9365,-4.0245 2.85244,1.08532 c 1.57712,0.59611 3.6435,1.79906 4.6085,2.67505 l 1.76434,1.59055 0,2.73762 0,2.73763 2.24545,0.60414 c 1.22961,0.33147 6.78459,0.61215 12.31276,0.6175 l 10.05377,0.0142 7.1991,1.9942 c 3.95894,1.09602 9.76775,3.13058 12.90608,4.51877 l 5.70725,2.5235 6.6402,4.94087 c 3.65164,2.7173 8.31111,6.66642 10.35332,8.77609 l 3.71313,3.83523 2.21878,5.01705 2.21866,5.01679 0.45445,7.57798 0.45445,7.57823 -2.93784,8.52027 -2.93784,8.52054 -3.86277,5.81982 c -2.13851,3.20088 -6.12689,8.29626 -8.89104,11.32285 l -5.03089,5.5033 -3.19982,-0.60147 -3.19982,-0.60146 -1.04252,1.27243 c -0.5882,0.70038 -1.20293,2.39786 -1.39015,3.77269 l -0.34751,2.49943 -4.93735,3.22575 -4.93748,3.226 -12.45426,4.55994 -12.45176,4.55968 -2.16531,0.0155 c -1.20307,0.0139 -2.85245,0.44376 -3.68094,0.9677 l -1.4971,0.95165 0,21.52804 0,21.52804 2.40587,2.54755 2.40587,2.54756 5.2101,1.08264 5.20997,1.08265 9.95773,-0.0267 c 5.4747,-0.0155 12.57736,-0.0802 15.78244,-0.13367 l 5.83022,-0.10695 0.69514,0.68435 0.69502,0.68433 -2.0049,1.17086 c -1.09599,0.64424 -4.87047,2.41925 -8.38311,3.94404 l -6.38361,2.7721 -2.97528,2.50211 c -1.63059,1.37669 -3.55271,2.5021 -4.261,2.5021 l -1.28321,0 -4.40538,3.87026 c -2.43267,2.12786 -6.33815,4.85479 -8.70395,6.05746 l -4.29581,2.18666 -9.74909,2.65183 -9.75186,2.65179 -5.01762,0.34217 -5.01487,0.34218 -2.51282,-1.62263 z m 40.91851,-108.24726 7.24705,-3.47329 7.27385,-5.39958 7.27373,-5.39933 7.02251,-7.44564 7.02502,-7.44565 2.80961,-5.8003 2.81224,-5.80003 0.50792,-4.72221 0.50793,-4.72192 -1.81781,-3.48637 -1.81781,-3.48612 -4.01517,-2.79189 -4.01242,-2.79134 -7.52492,-1.59323 -7.52519,-1.59322 -6.52248,0.58275 c -3.58752,0.3208 -9.23066,1.27244 -12.54268,2.11717 l -6.02007,1.53708 -2.29893,2.59835 -2.29892,2.59835 0.29403,28.33773 0.29403,28.33747 1.39016,1.65739 1.39003,1.65737 1.65725,0 c 0.90891,0 4.92408,-1.56382 8.90983,-3.47329 z m 345.88734,77.79583 c -2.7587,-0.98374 -7.3138,-2.95335 -10.1233,-4.37761 l -5.1084,-2.59033 -3.1625,-3.60427 c -1.7375,-1.98352 -4.1701,-5.51053 -5.3972,-7.84075 l -2.2187,-4.23648 0,-7.5253 0,-7.52532 3.1678,-6.68646 3.1676,-6.68619 7.7871,-8.1495 7.7842,-8.14951 -2.8175,-5.89733 -2.8176,-5.89733 0.6149,-3.00976 0.6149,-3.00974 -1.4435,-1.19225 -1.4435,-1.19224 1.5503,-3.01162 1.5506,-3.01163 -2.2187,-2.37113 -2.2188,-2.37112 0.6416,-4.64199 0.6415,-4.64201 2.0049,-4.51795 2.0049,-4.51798 4.2664,-5.09671 4.2691,-5.09671 4.4026,-2.7935 4.4055,-2.79348 5.4347,-1.21631 5.4345,-1.2163 5.2235,1.64936 5.2235,1.64936 5.7286,3.5877 5.7286,3.58742 3.6544,6.0171 3.6569,6.01709 0.5079,3.82775 0.5079,3.82748 -2.2188,7.01847 -2.2188,7.01875 -3.8547,4.90877 c -2.1119,2.69994 -5.5122,7.39247 -7.5385,10.4276 -2.0315,3.03542 -5.0335,6.71855 -6.6883,8.18507 l -3.0019,2.66785 0.8554,1.45688 c 0.4811,0.80196 4.9668,5.82221 9.9923,11.15683 l 9.1344,9.69944 1.2029,-1.44353 1.2029,-1.44353 0.2674,-2.84722 0.2674,-2.84722 -3.7586,-0.31008 -3.7559,-0.3101 -2.5128,-3.29524 -2.5127,-3.29552 0,-2.09044 0,-2.09043 1.4434,-1.43818 1.4435,-1.43819 8.3457,-2.59566 c 4.5899,-1.42748 10.6046,-3.10732 13.3634,-3.73445 l 5.0175,-1.13879 12.0401,-0.39562 c 6.6216,-0.21387 14.4112,-0.66564 17.309,-0.99177 l 5.2662,-0.59612 0,1.32591 0,1.3259 -7.1347,6.52179 c -3.9243,3.58716 -8.5543,7.93191 -10.2838,9.65506 l -3.1491,3.1327 -4.8946,0.71107 c -2.692,0.3903 -5.5147,0.94899 -6.2712,1.23769 l -1.3902,0.5293 0,4.87189 0,4.87217 -2.1385,5.7217 -2.1386,5.72172 2.8843,2.0931 c 1.5773,1.14947 4.6916,3.48584 6.905,5.18894 l 4.0258,3.09689 -0.2674,1.41947 c 0,0.78057 -0.802,3.10812 -1.5771,5.17344 l -1.3902,3.75503 -2.3522,2.51548 -2.3792,2.51547 -3.0849,0 -3.0875,0 -3.2853,-2.00222 c -1.8178,-1.10136 -3.8896,-2.00222 -4.6301,-2.00222 -0.7485,0 -2.4861,-0.90354 -3.8974,-2.00757 -1.3902,-1.10402 -3.1571,-1.9942 -3.8976,-1.98084 -0.7485,0.0139 -3.8307,1.61194 -6.8647,3.54868 l -5.5176,3.52325 -9.4925,2.97314 -9.4925,2.9734 -5.0577,-0.0803 -5.0576,-0.0801 -5.0149,-1.78837 z m 24.3475,-24.28196 4.4108,-2.13588 0.4812,-1.28045 0.4811,-1.28047 -10.3559,-10.12393 -10.356,-10.12391 -1.2029,0 -1.2029,0 -2.8016,3.69355 c -1.5505,2.03163 -4.269,5.0494 -6.0628,6.70652 l -3.2612,3.01321 0,1.35798 0,1.358 4.2638,4.35088 c 2.3522,2.39251 5.1671,4.84624 6.2712,5.45171 l 2.0049,1.10137 6.4558,0.0267 6.4557,0.0267 4.4109,-2.13587 z m -5.3678,-61.66738 7.7469,-6.61002 1.9247,-3.17308 1.9248,-3.17309 0,-3.18403 0,-3.18405 -2.4862,-2.95709 -2.4859,-2.95708 -3.0128,-1.24839 -3.0153,-1.24838 -3.4673,0.6496 -3.467,0.64958 -2.7213,3.22681 c -1.497,1.775 -3.3308,4.6797 -4.0741,6.45576 l -1.3632,3.22869 0,3.8863 0,3.88628 1.4167,4.7214 c 1.4168,4.68932 3.1759,7.63811 4.5686,7.63811 0.4009,0 4.213,-2.97445 8.474,-6.60974 z m 177.9679,58.78995 c -3.1569,-0.40364 -8.9391,-1.7643 -12.8499,-3.0223 l -7.1107,-2.28558 -5.9587,-3.61898 c -3.2772,-1.99154 -8.2682,-5.42498 -11.0883,-7.63224 l -5.1326,-4.01353 -5.8008,-6.82788 -5.8009,-6.8276 -3.0366,-5.71449 c -1.6574,-3.14314 -3.9591,-8.64966 -5.0872,-12.23682 -1.1228,-3.58714 -3.0073,-11.70485 -4.1781,-18.03951 l -2.1386,-11.51746 0.4544,-4.53668 c 0.6416,-6.55414 3.4805,-21.11076 6.2741,-32.20826 2.7827,-11.04883 8.7332,-28.58072 11.7111,-34.50292 4.4376,-8.82234 15.5983,-26.54028 22.4496,-35.63528 3.975,-5.27635 10.3239,-12.76049 14.1092,-16.63128 3.7851,-3.87052 10.0403,-9.42596 13.9005,-12.34508 l 7.0199,-5.30736 8.3216,-4.1226 8.3189,-4.12288 10.749,-0.0801 10.7462,-0.0801 9.5325,3.84647 c 5.2422,2.11449 10.4363,3.92158 11.5403,4.01352 l 2.0049,0.1604 0.5079,-5.564 0.5079,-5.56398 1.8713,-2.83974 1.8711,-2.83946 5.5203,0.64958 5.5227,0.6496 5.4212,2.56626 5.424,2.56627 3.4991,3.30086 3.502,3.30139 0,5.02373 c 0,2.76329 -0.294,6.43571 -0.6415,8.161 l -0.6417,3.13727 -3.9562,4.49631 -3.9592,4.49603 0.6417,1.02117 0.6415,1.02116 1.8445,0 1.8446,0 2.3256,1.87659 2.3257,1.87658 -1.2029,13.92681 c -1.3632,16.02874 -2.4059,23.68611 -4.5444,33.81056 -0.8287,3.96409 -1.9515,9.46497 -2.4861,12.22453 -0.5346,2.75926 -1.7109,8.33608 -2.6197,12.39293 l -1.6574,7.37613 -2.4861,4.91549 -2.4862,4.91518 -0.8819,0 -0.8823,0 -0.6148,-2.25884 c -0.3207,-1.24036 -0.6149,-4.64254 -0.6149,-7.55767 l -0.017,-5.30039 -1.3633,-3.24473 -1.3634,-3.245 -0.7485,-12.98769 -0.7485,-12.98773 -4.3011,-12.58274 -4.2986,-12.58244 -4.3225,-8.42512 -4.32,-8.42563 -3.6059,-3.78953 -3.6037,-3.78977 -2.78,-0.69772 -2.7801,-0.69771 -4.3947,1.67877 c -2.4059,0.92226 -7.2525,3.56364 -10.7437,5.86793 l -6.3461,4.1897 -9.3534,9.47916 -9.3509,9.47913 -7.3914,11.1114 -7.3941,11.11141 -7.0118,14.54913 c -7.533,15.62455 -12.5773,28.54196 -16.6887,42.72327 l -2.5663,8.89131 -0.6148,7.55525 -0.6149,7.55551 -2.3524,2.82583 -2.3524,2.8261 1.4703,2.85525 c 0.8018,1.57183 2.7614,3.91088 4.3333,5.20123 l 2.8602,2.34706 2.6867,4.70696 2.6892,4.70723 4.7582,4.87243 4.7583,4.87244 4.8598,2.34706 4.8626,2.34439 11.1926,-0.52662 11.1927,-0.52662 9.7171,-3.14768 c 5.3438,-1.73223 12.3129,-4.29583 15.4859,-5.69925 l 5.7687,-2.55024 1.791,0.46515 1.791,0.46513 2.8818,-2.75393 2.8817,-2.75392 7.076,-2.70368 7.0759,-2.70366 1.8712,-2.06637 c 1.0158,-1.13612 3.0501,-2.67614 4.491,-3.42142 l 2.6197,-1.35533 1.1762,-2.80657 1.2029,-2.80659 5.6778,-3.45004 c 3.1251,-1.89795 7.3754,-4.98229 9.45,-6.8554 l 3.7691,-3.40565 3.9831,-6.30553 3.9802,-6.30554 1.4971,-0.57473 1.497,-0.5774 1.2297,1.48094 1.2296,1.48096 -1.1226,2.22409 c -0.6149,1.22166 -2.2188,6.82333 -3.5822,12.44533 l -2.4593,10.22177 -4.8438,8.84265 -4.8438,8.8424 -6.7045,6.71131 -6.707,6.71133 -2.879,1.48897 -2.879,1.48896 -1.9248,-0.16039 -1.9247,-0.16039 -2.7908,5.51881 -2.7907,5.51854 -10.7784,6.71454 -10.7757,6.71425 -9.03,2.9988 -9.0301,2.99906 -7.8513,1.07194 c -8.5942,1.17621 -13.2616,1.19225 -21.9709,0.0802 z m -946.34026,-17.45328 -3.87607,-1.45688 -2.98861,-2.83841 -2.98872,-2.83866 -1.97808,-3.83123 -1.97819,-3.83148 -0.56138,-4.75642 -0.56138,-4.75616 2.40591,-2.78252 2.40579,-2.78252 6.28741,-0.74049 6.2874,-0.74047 1.71075,-1.70816 1.71088,-1.70818 0.50791,-9.25219 0.50791,-9.25219 3.01005,-0.51326 3.01003,-0.51326 0.32079,-2.69164 0.32067,-2.69189 -2.82021,-1.7964 c -1.55035,-0.9864 -3.15171,-2.25617 -3.55529,-2.82209 l -0.74849,-1.02651 -0.0166,-28.87906 -0.0131,-28.87878 1.25643,-0.38761 c 0.69503,-0.21386 2.43263,-0.64692 3.90292,-0.96235 l 2.64638,-0.57741 0.64158,-1.66005 0.64158,-1.66006 -1.28316,-1.71351 c -0.69504,-0.94098 -2.79877,-3.69784 -4.65673,-6.1243 l -3.37888,-4.41183 0.80197,-16.05414 c 0.45446,-8.82984 0.82871,-20.42107 0.88217,-25.7581 l 0,-9.70424 -2.43264,-2.57695 -2.43264,-2.57696 -5.60567,-2.09044 -5.60296,-2.09045 -2.16532,-2.0343 -2.19205,-2.03429 -2.13847,-4.96707 -2.13859,-4.96706 -0.26733,-5.93049 -0.26732,-5.93047 2.35245,-2.50211 2.35233,-2.50211 8.65045,-3.16185 8.64786,-3.1616 15.55257,-2.90202 15.5527,-2.90174 18.06283,0.0209 18.06,0.0212 9.64755,0.9383 9.65026,0.93829 8.24416,3.00921 c 4.53637,1.6547 11.03764,4.57037 14.44866,6.47849 3.41361,1.90867 8.24947,5.2694 10.74889,7.4689 l 4.54438,3.99965 6.36489,8.87552 6.36489,8.87581 4.80911,10.03384 4.809,10.03384 1.68414,6.5218 1.68414,6.52231 0,7.52531 0,7.52532 -1.30989,5.51854 -1.30988,5.51881 -3.92154,8.02707 -3.92423,8.02707 -5.76347,6.6985 c -3.17032,3.68446 -8.02218,8.70338 -10.78363,11.15363 -2.75872,2.45131 -8.55152,6.99147 -12.87415,10.09184 l -7.8592,5.6367 -12.20845,5.90723 c -15.39217,7.44671 -33.35338,14.63733 -41.80869,16.7382 -3.58743,0.89018 -8.19611,2.05034 -10.24108,2.57428 l -3.71568,0.95433 -1.55048,1.55046 -1.55047,1.55046 0,13.01791 0,13.01793 2.29898,2.30162 2.29887,2.30162 4.09005,0.65493 4.08993,0.65493 1.25642,1.51304 1.25642,1.51302 5.14592,0.0139 5.14321,0.0139 4.33052,1.50768 4.33335,1.50769 0.93564,-0.57475 c 0.88205,-0.53998 21.99766,-1.66272 28.53897,-1.51837 1.6574,0.0268 4.58983,0.0801 6.51986,0.0801 1.92472,0.0142 4.12749,0.24059 4.87859,0.50523 l 1.36336,0.48919 -1.22969,1.49432 -1.22968,1.49432 -1.57711,0 c -0.85543,0 -3.63017,0.95968 -6.14844,2.13054 -2.51271,1.17352 -7.29239,3.39068 -10.60178,4.92964 -3.31211,1.53976 -8.73065,3.56283 -12.04276,4.49738 -3.30939,0.93562 -7.50108,2.32836 -9.31346,3.09743 l -3.29608,1.39808 -3.75584,0 -3.75584,0 -2.19193,1.53709 c -3.28008,2.29894 -9.69571,4.37468 -20.32695,6.58114 l -9.53262,1.97816 -12.04015,0.4999 -12.04004,0.49988 -3.87608,-1.4569 z m 74.98049,-111.67644 8.89633,-3.51472 4.34136,0.65226 4.34384,0.65225 1.60393,-2.45398 1.60394,-2.454 -0.61484,-2.40856 -0.61485,-2.40854 1.9782,-1.79104 1.9782,-1.79105 2.16519,1.15216 2.16533,1.15215 1.52375,-1.26709 1.52374,-1.2671 -0.56138,-2.79109 -0.56138,-2.79134 5.01226,-5.72786 c 6.26326,-7.15507 11.31026,-14.71834 14.80407,-22.17361 l 2.69996,-5.76046 0,-9.03032 0,-9.03059 -2.67322,-5.69444 -2.67312,-5.69444 -4.10607,-4.45435 -4.10606,-4.45461 -5.84886,-2.62507 -5.85168,-2.62509 -7.69879,-1.14412 -7.70152,-1.14413 -9.77579,1.1869 c -5.3758,0.65226 -10.52713,1.40343 -11.44934,1.67075 l -1.68414,0.48384 -3.47509,-3.05198 -3.47521,-3.05171 -2.08511,0 -2.08502,0 -1.04255,1.94072 c -0.56139,1.06662 -1.04256,3.02366 -1.04256,4.34716 l 0,2.40588 -3.68365,2.42459 c -2.03167,1.33392 -4.56853,3.62859 -5.65113,5.09858 l -1.95147,2.67319 -0.82869,15.88974 -0.82871,15.88974 0,28.65557 0,28.65558 1.25642,1.58253 c 0.69504,0.86879 1.92473,1.78569 2.75873,2.03429 l 1.49701,0.45177 11.54014,-2.43794 11.53754,-2.43529 8.89375,-3.51498 z m 94.45459,109.36146 c -1.65729,-0.21386 -5.41584,-1.07731 -8.35368,-1.906 l -5.34636,-1.50768 -4.22901,-4.23113 -4.23172,-4.23087 -4.40801,-11.52201 -4.40813,-11.52199 -0.42773,-13.50632 -0.42771,-13.50631 1.20296,-7.38737 1.20295,-7.38764 2.4058,-7.1043 c 1.33661,-3.9074 4.03387,-10.0512 6.01477,-13.65253 4.3118,-7.84262 11.17661,-16.96623 17.71249,-23.54068 l 4.78509,-4.81095 8.31624,-3.99054 8.31635,-3.99055 5.11648,-0.60682 5.11648,-0.60681 5.2048,2.83331 5.20469,2.83305 5.32762,5.11944 5.32775,5.11917 2.51272,4.96679 2.51284,4.96653 1.12276,5.31726 1.12276,5.31725 0,12.74366 0,12.74391 -1.04256,3.77215 -1.04257,3.77214 -2.21879,1.43283 -2.21878,1.43283 -7.02507,1.14948 c -7.04121,1.15215 -41.63499,9.74326 -49.16539,12.21115 l -4.01245,1.31522 -1.73761,3.57484 -1.76433,3.57515 1.71087,4.4522 c 0.93563,2.44865 2.75332,6.16145 4.04189,8.25081 l 2.3256,3.79916 3.22661,2.0343 3.22648,2.03429 6.10828,-0.43573 6.11089,-0.43573 6.43177,-2.83679 c 3.53927,-1.56115 11.84761,-6.07671 18.46911,-10.03677 l 12.03474,-7.19999 1.36324,0.52394 1.36334,0.52395 -0.53463,3.30567 c -0.29406,1.81777 -1.44355,5.36377 -2.5662,7.87871 l -2.03166,4.57277 -2.48611,0 -2.48599,0 -1.6574,1.64401 -1.63068,1.64403 0.26732,4.12552 c 0,2.26954 0,4.615 0,5.21327 l 0,1.088 -8.80813,4.18595 -8.80824,4.18569 -6.99576,1.48095 c -6.92887,1.46758 -9.18768,1.59055 -15.02064,0.818 z m 9.59149,-74.04028 16.49623,-3.71013 4.17825,-1.82043 4.18084,-1.82046 1.09604,-2.03429 1.09601,-2.03431 0,-10.58105 0,-10.5813 -1.60394,-4.04293 -1.63066,-4.04322 -2.37908,-0.59344 -2.37917,-0.59345 -4.52837,2.19202 -4.52848,2.19202 -7.49825,7.00137 c -4.12479,3.85072 -9.03541,9.11853 -10.91728,11.70592 -1.87127,2.58764 -5.33575,8.39463 -7.67478,12.90431 l -4.25303,8.19922 0.72177,1.14947 0.72166,1.14948 1.20295,-0.46515 c 0.66832,-0.26731 8.63714,-2.1332 17.71001,-4.17499 z m 317.89636,72.35135 c -2.00489,-0.71375 -5.27421,-2.31232 -7.28173,-3.55508 l -3.65441,-2.25884 -2.51268,-4.28408 c -1.39016,-2.35508 -4.19977,-8.97684 -6.26339,-14.71246 l -3.75047,-10.42867 0,-16.05413 0,-16.05414 2.16521,-8.02707 2.16531,-8.02706 4.06865,-8.52882 4.06865,-8.52884 5.4345,-7.11123 c 2.98868,-3.91116 7.93418,-9.47514 10.98961,-12.36486 l 5.55484,-5.25363 7.55711,-3.49173 7.55712,-3.49146 4.88391,-0.57741 4.884,-0.57741 4.3493,2.12252 4.3466,2.12251 6.2312,5.57522 6.2286,5.57549 3.304,6.7033 3.3015,6.70329 0.3207,17.58589 0.3208,17.58588 -1.0425,2.70661 -1.0426,2.70713 -2.299,1.49432 -2.299,1.49432 -9.062,1.56115 c -4.9829,0.85809 -17.6244,3.84192 -28.09532,6.62925 l -19.0331,5.06757 -4.51508,2.2134 -4.51509,2.21341 0.26736,6.19138 0.26737,6.19166 2.05836,4.62891 2.05837,4.62863 3.52052,1.47026 3.52066,1.47025 7.3084,-0.0165 7.30604,-0.0168 8.46326,-3.43185 8.46065,-3.43159 1.8979,1.02117 1.8981,1.02117 1.8444,-1.66007 c 1.0158,-0.91156 2.0851,-2.64112 2.3792,-3.84271 l 0.5614,-2.18401 6.3113,-4.26428 6.3141,-4.26454 1.8445,0 1.8446,0 2.871,-2.045 c 1.5771,-1.12541 4.9587,-2.96777 7.5116,-4.09746 l 4.6435,-2.05302 0.5346,0.52395 0.5345,0.52394 -1.684,4.40382 -1.6842,4.40383 -3.9135,5.16916 c -2.1653,2.84294 -4.8119,6.93533 -5.9131,9.09447 l -2.005,3.92531 -5.079,4.44179 -5.0765,4.44151 -9.2572,4.6583 -9.2546,4.65831 -4.77428,1.25373 -4.77706,1.25373 -1.55031,-2.21608 -1.55058,-2.21608 -2.70266,0 -2.70254,0 -4.01517,2.47271 c -2.21866,1.36065 -4.6914,2.46736 -5.51741,2.45933 -0.82876,-0.0139 -3.13833,-0.59612 -5.13521,-1.30985 z M 985.68224,355.855 c 7.45017,-1.64936 16.37336,-3.93039 19.82716,-5.06705 l 6.2819,-2.06636 1.096,-2.06907 1.0961,-2.06904 0.2673,-11.64149 0.2673,-11.64124 -2.0851,-3.51177 -2.0851,-3.51205 -3.5152,0.10694 -3.5125,0.10695 -6.16988,4.18889 -6.16696,4.1889 -2.3792,-0.5988 -2.37921,-0.5988 -1.65725,1.64936 -1.65739,1.64936 0.61474,2.44865 0.61487,2.44866 -3.97774,5.2547 c -2.19198,2.89024 -5.85164,8.69696 -8.13992,12.90377 l -4.15944,7.64908 0,2.25083 0,2.25083 2.24546,-0.65493 c 1.22974,-0.36089 8.35382,-2.00491 15.80398,-3.65453 z m 623.37286,72.60237 -2.2453,-0.43307 -2.0317,-2.57696 -2.0317,-2.57696 0,-1.74826 0,-1.74828 -1.4168,-1.1762 -1.4167,-1.17621 -6.0816,2.55825 c -3.3441,1.40877 -9.5913,3.71868 -13.8845,5.13575 l -7.803,2.57694 -9.1104,0.5694 -9.1129,0.5694 -5.3223,-1.76699 -5.3251,-1.76697 -3.8707,-3.49735 -3.8708,-3.49761 -1.5238,-5.08735 -1.5235,-5.08762 0,-4.78903 0,-4.7893 2.4324,-6.69716 2.4327,-6.69742 3.7558,-5.45278 3.7558,-5.45251 5.6031,-4.04534 5.6031,-4.04536 12.04,-5.86579 12.0427,-5.86578 8.8376,-2.20272 8.8403,-2.20271 2.1119,-1.7055 2.1117,-1.7055 -1.096,-9.75155 -1.1227,-9.75154 -1.8178,-3.70586 -1.8178,-3.70558 -8.0276,-0.28335 -8.0276,-0.28335 -8.0249,3.90204 -8.0276,3.90181 -7.5251,5.58376 c -4.1408,3.07097 -8.1025,6.1831 -8.8081,6.91609 -0.695,0.73245 -2.3792,2.68709 -3.6917,4.3426 l -2.4059,3.01003 -1.2029,-1.1869 -1.203,-1.18691 2.7079,-6.83989 c 1.4971,-3.76199 4.1434,-9.25755 5.9025,-12.21223 l 3.1945,-5.37205 5.8943,-4.94328 c 3.2426,-2.71863 7.771,-6.04355 10.0673,-7.38869 2.2989,-1.34462 6.1884,-3.1632 8.6559,-4.04054 l 4.4801,-1.5959 7.223,-0.0535 7.2204,-0.0535 5.3677,2.45666 5.3652,2.45667 3.6783,3.22788 3.6757,3.22788 2.4325,5.19937 2.4326,5.19937 1.1494,5.4223 1.1496,5.42231 0.9623,14.14387 c 0.5346,7.77901 0.9623,18.0946 0.989,22.92345 l 0.017,8.77957 0.9354,0 c 0.508,0 1.2298,-0.45178 1.5505,-1.00244 l 0.6148,-1.00246 2.0852,0 2.0852,0 -0.6417,3.26102 c -0.3475,1.79373 -2.0049,6.13365 -3.6356,9.6449 l -2.9858,6.38386 0,1.89529 0,1.89528 1.0692,0 c 0.5881,0 3.6302,-1.31787 6.7712,-2.93061 8.4232,-4.31935 14.7186,-7.10321 16.0659,-7.10321 l 1.1762,0 0,0.93294 c 0,0.51326 -1.8445,3.69836 -4.082,7.07916 l -4.0819,6.14675 -0.7753,4.8922 -0.7752,4.89222 -1.6306,2.48073 -1.6307,2.48072 -5.3089,3.01323 -5.3063,3.01295 -5.4508,1.59857 c -2.9966,0.87948 -5.7071,1.53708 -6.0199,1.46223 -0.3208,-0.0801 -1.5773,-0.33146 -2.8097,-0.56939 z m -35.8822,-22.8438 7.7067,-1.47559 5.6752,-2.58765 c 3.1225,-1.42214 7.3701,-3.75745 9.4418,-5.18655 l 3.7665,-2.59833 2.0049,-3.23992 2.005,-3.24018 0,-4.19157 0,-4.1913 -2.4595,-2.46202 -2.4592,-2.46201 -1.9247,0 -1.9248,0 -1.497,-2.25884 -1.4969,-2.25885 -1.9246,1.72421 -1.9248,1.72421 -6.7926,2.09845 -6.79,2.09846 -3.6996,3.26985 c -2.0317,1.79906 -5.8277,4.77085 -8.4285,6.60547 l -4.729,3.33588 -2.4327,3.61923 c -1.3365,1.99153 -2.7532,4.65726 -3.1302,5.92594 l -0.695,2.30697 1.6039,2.45934 1.6039,2.45935 5.4079,0 5.4078,0 7.7095,-1.47561 z m -508.5565,18.13336 -3.6811,-3.68153 -2.5127,-4.94995 -2.5128,-4.95023 0,-2.48339 0,-2.4834 1.2564,-0.77255 1.2564,-0.77256 8.5355,-0.0268 8.5328,-0.0267 0.6149,-20.06794 0.6148,-20.06767 1.2296,-5.25337 1.2296,-5.2531 -0.3207,-12.98102 -0.3207,-12.98077 -2.2188,-2.36311 -2.2187,-2.3631 0.588,-2.21876 0.5881,-2.21874 -1.6841,-0.64692 -1.6842,-0.64691 -2.1919,1.15214 -2.192,1.15216 -5.0176,-1.91936 -5.0149,-1.91935 -0.3475,-1.69748 -0.3477,-1.69748 2.2188,-2.37113 2.2188,-2.37112 8.6479,-3.17789 8.6503,-3.17815 5.5817,-0.10695 5.5816,-0.10694 2.7802,1.82044 2.78,1.82312 1.4169,3.40138 1.4168,3.40164 0,5.04913 0,5.04912 1.2564,-5.2e-4 1.2564,-5.4e-4 5.7367,-6.41674 5.7393,-6.417 4.3627,-2.11183 4.3599,-2.11183 4.6193,0 c 2.5396,0 5.3651,0.28872 6.282,0.6389 l 1.6574,0.63889 0.9089,2.37112 0.9089,2.37114 2.8469,0 2.847,0 2.5663,2.75926 2.5661,2.75928 4.1382,8.56411 4.1381,8.56386 0,1.97281 c 0,1.08531 -0.8554,5.05928 -1.8445,8.83331 l -1.791,6.86208 -4.4241,1.97549 -4.4242,1.97548 -2.6731,2.54756 -2.6732,2.54755 -5.9907,-2.68816 -5.988,-2.68817 -1.096,-2.3925 -1.096,-2.38983 0.8288,-0.51326 0.8286,-0.51325 1.7911,1.98351 1.7909,1.98351 2.6733,0 2.6732,0 1.6572,-1.25373 1.6308,-1.25373 1.5504,-4.5153 c 0.8554,-2.48339 1.5506,-5.32579 1.5506,-6.31648 l 0.017,-1.80174 -2.5129,-2.50745 c -1.39,-1.37937 -2.5126,-2.86086 -2.5126,-3.2915 0,-0.4304 -1.0427,-1.76431 -2.3258,-2.96458 l -2.3257,-2.18132 -5.4827,0 -5.4801,0 -2.2455,1.57718 -2.2454,1.57718 -2.8496,5.69738 c -1.5772,3.13325 -3.5767,7.95463 -4.467,10.71391 -0.8821,2.75925 -2.7721,11.77995 -4.1808,20.04601 l -2.5663,15.02924 0,7.77632 0,7.77633 1.7107,2.62506 1.711,2.62508 4.3118,1.90866 4.3119,1.90867 0.5346,2.08776 0.5347,2.08776 2.0584,-1.10136 2.0583,-1.10135 1.9781,1.22967 1.9783,1.22966 2.486,-1.33391 2.486,-1.33392 2.8364,0.7084 c 1.5504,0.39027 3.5151,1.28846 4.3411,1.99953 0.8288,0.71108 2.7562,1.59056 4.2853,1.95412 l 2.7801,0.66027 2.085,-1.12007 2.0852,-1.12006 0.9624,0.95967 0.9622,0.95968 -1.7107,1.71886 -1.711,1.71888 -2.0316,-0.53198 -2.0317,-0.53196 -2.5929,1.39005 c -3.9242,2.11183 -12.1229,4.53509 -15.3442,4.53509 l -2.8709,0 -4.2237,2.18667 -4.2237,2.18666 -11.0376,0.74316 c -6.0708,0.409 -15.3628,1.06661 -20.6504,1.46223 l -9.6155,0.71909 -3.6809,-3.68151 z m 582.2004,0.75918 c -1.4435,-1.57718 -3.3523,-3.98518 -4.2638,-5.34959 l -1.6574,-2.48072 0,-2.78708 0,-2.78681 1.9782,-1.96747 1.978,-1.96748 5.5577,-1.61461 5.5576,-1.6146 0.5614,-2.28024 0.5612,-2.28024 -0.3206,-36.02958 -0.3208,-36.02984 -2.0584,-3.5083 -2.0584,-3.50831 -3.4565,-2.33102 -3.4563,-2.33103 0,-1.18422 0,-1.18423 9.5298,-3.23563 c 5.245,-1.78035 10.4361,-3.24686 11.5401,-3.26103 l 2.0051,-0.0251 2.5929,3.26103 2.5931,3.26103 1.283,4.01355 c 0.6951,2.20805 1.6575,4.42733 2.1386,4.93338 l 0.8554,0.91957 7.3058,-7.59054 7.3086,-7.59053 4.2637,-1.14413 4.2665,-1.14413 3.7827,1.01848 3.7851,1.01851 4.2585,3.13084 4.2557,3.1311 2.4058,4.16645 c 1.3098,2.29093 2.6946,5.59392 3.0554,7.33898 l 0.6683,3.17202 -1.1228,6.36006 c -0.6147,3.49787 -2.2721,10.12928 -3.6621,14.73652 l -2.5396,8.37672 -5.9345,6.08366 -5.9345,6.08366 -0.6147,-0.61751 -0.6149,-0.61752 1.7107,-7.0051 1.7109,-7.00484 -0.5614,-10.27816 -0.5614,-10.2779 -1.0157,-1.01314 -1.0157,-1.01313 -5.571,1.75628 -5.5737,1.75628 -3.0875,4.2004 c -1.7108,2.30963 -3.7157,5.65406 -4.4776,7.43068 l -1.39,3.23002 -2.513,16.52354 -2.5127,16.52383 0,6.13336 0,6.13313 1.4702,2.83893 c 0.802,1.56114 2.0584,3.05573 2.7588,3.32116 0.7218,0.26733 6.7098,0.1604 13.3313,-0.24057 l 12.04,-0.71641 0.9089,0.81265 0.909,0.81265 -2.7508,3.60641 c -1.5238,1.9835 -4.213,4.56581 -6.0014,5.73774 l -3.2505,2.13052 -2.1654,3.30889 -2.1653,3.30916 -2.6197,1.71885 -2.6198,1.71886 -9.6768,0.72711 c -5.3223,0.39831 -13.9676,1.04256 -19.2097,1.43016 l -9.5326,0.70305 -2.593,-2.86886 z m 85.7079,1.01582 c -1.2029,-1.03185 -3.3496,-3.6326 -4.7663,-5.77946 l -2.593,-3.90259 0,-1.94341 0,-1.94341 2.8122,-2.81113 2.8094,-2.81114 4.1542,-0.70304 4.1568,-0.70305 0.9624,-1.17622 0.9624,-1.1762 0.2672,-35.11829 0.2674,-35.11856 -0.9891,-4.80239 -0.9892,-4.80213 -1.7642,-1.95143 -1.7643,-1.95144 -5.1298,-1.91132 -5.1272,-1.91134 -0.2674,-1.36868 -0.2673,-1.36867 12.7217,-2.26954 12.7219,-2.26954 2.5928,1.65471 c 1.4437,0.91156 3.601,2.83492 4.8225,4.2771 l 2.2188,2.6224 0.6416,3.26103 0.6415,3.26104 1.1495,-0.0139 1.1494,-0.0142 4.7156,-5.9131 4.7155,-5.91338 5.5147,-2.69885 5.5176,-2.6986 3.3147,0.71375 c 1.8179,0.39297 4.6674,1.3874 6.3249,2.21341 3.8628,1.9247 8.3402,6.08687 10.0378,9.33238 l 1.3367,2.54489 -1.4437,13.00856 -1.4168,13.00856 -2.9725,4.5153 c -1.6307,2.4834 -3.7452,5.98287 -4.6888,7.77632 l -1.7109,3.26103 -1.6307,0 -1.6306,0 0,-8.27807 0,-8.27781 -1.7108,-4.24531 -1.7109,-4.24503 -3.2773,-2.02628 -3.28,-2.02629 -2.5128,0 -2.5128,0 -2.0049,4.76604 c -1.096,2.62241 -2.7133,7.02382 -3.5768,9.78309 -1.7107,5.44157 -5.1994,26.76696 -6.2712,38.2585 l -0.6684,7.15374 1.1763,3.55267 c 0.6415,1.95409 1.7108,3.99483 2.3792,4.53534 l 1.2028,0.98373 5.5174,-0.9864 c 3.0368,-0.54266 8.2282,-1.10938 11.5404,-1.25908 3.3093,-0.16039 6.7631,-0.59344 7.6747,-0.9864 l 1.6572,-0.71642 0.7218,1.14948 0.7218,1.14946 -6.5975,6.34136 -6.5947,6.34135 -1.5771,3.91757 -1.5773,3.91756 -3.2104,1.89798 -3.2132,1.89796 -9.5513,0.7084 c -5.2529,0.39028 -13.6172,1.03452 -18.5841,1.43283 l -9.0301,0.72444 -2.192,-1.87658 z m 114.0625,0.0801 -5.5176,-1.51569 -5.3329,-3.65052 -5.3304,-3.65025 -3.9348,-4.59978 -3.9324,-4.59976 -2.9245,-6.02029 -2.9244,-6.0203 -1.096,-5.31725 -1.096,-5.31726 0.021,-9.23188 0.018,-9.23187 0.9624,-6.74609 0.9623,-6.74606 2.1654,-6.29805 c 2.8362,-8.28931 7.4368,-17.42736 11.1365,-22.12308 l 2.9805,-3.78445 6.2954,-4.4907 c 3.4591,-2.47004 8.7601,-5.62039 11.7754,-7.00082 l 5.4827,-2.51014 7.4369,-0.60682 7.4369,-0.60681 7.0011,1.64669 7.0037,1.64668 4.1916,2.45667 4.1915,2.45666 3.1009,3.91704 3.1037,3.91703 3.483,7.38442 c 1.9248,4.0614 4.2023,10.09347 5.0791,13.40473 l 1.604,6.02031 0.5614,9.53209 0.5612,9.53207 -1.6304,8.52883 c -0.8823,4.69093 -2.0852,10.1838 -2.6466,12.20634 l -1.0425,3.67751 -3.4885,2.05835 -3.4858,2.05837 0,1.55314 c 0,0.85542 0.5614,2.44329 1.2295,3.53449 l 1.2297,1.98083 -1.9781,3.7096 c -1.096,2.03964 -4.0953,6.01548 -6.6669,8.83357 l -4.6755,5.12398 -5.3571,2.95762 -5.3597,2.95762 -12.5427,0.2406 -12.5399,0.24057 -5.5202,-1.5157 z m 24.0401,-20.775 5.5335,-1.25373 3.8386,-3.82507 3.8388,-3.82534 1.9514,-4.54978 1.9515,-4.55004 1.096,-7.12702 1.0959,-7.12673 -0.6682,-14.09817 c -0.3742,-7.75359 -0.6416,-16.19526 -0.6148,-18.75886 l 0,-4.66125 -2.7107,-1.775 c -1.4971,-0.97571 -5.1137,-3.73311 -8.049,-6.12536 l -5.3409,-4.34956 -3.2909,0 -3.2906,0 -5.1512,1.52907 -5.1513,1.52907 -3.2318,2.71944 -3.2319,2.71971 -3.8173,5.90454 -3.8148,5.90456 -0.6148,3.6425 c -0.3476,2.00221 -0.8287,4.41291 -1.0693,5.35413 -0.2672,0.94098 -2.2455,3.86785 -4.4294,6.50363 l -3.9591,4.79223 0,1.55046 0,1.55046 1.8446,1.58519 1.8444,1.58519 0.695,5.86473 0.6951,5.865 4.3386,9.15674 4.3359,9.15704 2.9433,2.09312 c 3.4698,2.47269 8.5301,4.05283 13.3713,4.17873 1.9246,0.0535 5.9744,-0.47315 9.0166,-1.16284 z m 89.5653,19.73861 -5.1912,-2.58766 -2.5664,-3.06588 c -1.4167,-1.6868 -3.4217,-4.71339 -4.4481,-6.72683 l -1.8713,-3.66067 -1.096,-5.92167 -1.0961,-5.92219 0,-26.65629 0,-26.6563 -0.7752,-2.00758 -0.7752,-2.00756 -7.2417,0 -7.2417,0 -3.9456,-4.22552 -3.943,-4.22552 0,-2.56092 0,-2.56093 -1.1494,-1.86053 -1.1495,-1.86054 0.5346,-1.42482 0.5346,-1.42481 5.9185,-3.10278 5.9212,-3.10278 5.7875,-1.29649 5.79,-1.2965 1.2031,-2.0851 1.2029,-2.08508 -0.2674,-20.39674 -0.2673,-20.39676 -1.0693,-1.99152 -1.0692,-1.9942 1.2029,-1.44086 1.2029,-1.44085 2.0049,0 2.0049,0 5.8703,3.56658 5.8731,3.56685 2.1118,2.96617 2.1117,2.96591 0.5882,15.19845 0.5881,15.19844 1.8713,1.86322 1.8713,1.86321 2.7452,-0.66027 c 1.4971,-0.36355 4.3226,-1.44086 6.2554,-2.39786 l 3.5125,-1.73757 7.8805,-0.72444 7.8834,-0.72445 3.6569,-1.55847 3.6569,-1.55847 5.2555,-0.10694 5.2582,-0.10695 0.4811,1.28312 0.4813,1.28313 -1.7377,1.41414 c -0.9623,0.7779 -3.852,3.13591 -6.4397,5.23999 -2.5929,2.1038 -8.5355,7.24703 -13.2189,11.42844 l -8.5115,7.60257 -8.8589,3.34951 c -4.8706,1.84182 -9.5327,3.96755 -10.3614,4.723 l -1.4969,1.37401 -0.3207,27.80979 -0.3209,27.80977 0.6416,5.30041 0.6415,5.30068 2.3257,2.70688 2.3258,2.70687 3.0847,-1.4863 3.0822,-1.48629 11.4227,-11.17367 c 6.2792,-6.14543 12.3982,-11.69765 13.5958,-12.33787 l 2.1653,-1.16285 0.8554,0.52931 0.8555,0.52929 -0.802,4.28324 c -0.4544,2.35509 -1.5238,5.99519 -2.4059,8.0875 l -1.604,3.80449 -3.1142,2.78252 -3.1142,2.78227 1.1494,2.17063 1.1495,2.17062 -1.5771,3.7858 -1.5773,3.7855 -4.2156,4.38912 c -2.3256,2.41389 -6.2259,5.68749 -8.6798,7.27456 l -4.459,2.88545 -5.6271,0 -5.6271,0 -5.1912,-2.58766 z"
       id="path4376-4"
       inkscape:connector-curvature="0" />
  </g>
</svg>
