<?xml version="1.0" encoding="UTF-8" standalone="no"?>
<!-- Created with Inkscape (http://www.inkscape.org/) -->

<svg
   xmlns:dc="http://purl.org/dc/elements/1.1/"
   xmlns:cc="http://creativecommons.org/ns#"
   xmlns:rdf="http://www.w3.org/1999/02/22-rdf-syntax-ns#"
   xmlns:svg="http://www.w3.org/2000/svg"
   xmlns="http://www.w3.org/2000/svg"
   xmlns:xlink="http://www.w3.org/1999/xlink"
   xmlns:sodipodi="http://sodipodi.sourceforge.net/DTD/sodipodi-0.dtd"
   xmlns:inkscape="http://www.inkscape.org/namespaces/inkscape"
   id="svg2"
   version="1.1"
   inkscape:version="0.48.4 r9939"
   width="2800"
   height="12658"
   sodipodi:docname="Pepper-and-Carrot_by-David-Revoy_E01P01.svg"
   enable-background="new">
  <metadata
     id="metadata8">
    <rdf:RDF>
      <cc:Work
         rdf:about="">
        <dc:format>image/svg+xml</dc:format>
        <dc:type
           rdf:resource="http://purl.org/dc/dcmitype/StillImage" />
        <dc:title />
      </cc:Work>
    </rdf:RDF>
  </metadata>
  <defs
     id="defs6">
    <linearGradient
       inkscape:collect="always"
       id="linearGradient4334">
      <stop
         style="stop-color:#737a64;stop-opacity:1;"
         offset="0"
         id="stop4336" />
      <stop
         style="stop-color:#737a64;stop-opacity:0;"
         offset="1"
         id="stop4338" />
    </linearGradient>
    <linearGradient
       inkscape:collect="always"
       xlink:href="#linearGradient4334"
       id="linearGradient4340"
       x1="37.732601"
       y1="9814.6045"
       x2="37.732601"
       y2="9890.5596"
       gradientUnits="userSpaceOnUse"
       gradientTransform="matrix(1.0009011,0,0,1.9984087,-2.5237315,-9735.7026)" />
    <filter
       inkscape:collect="always"
       id="filter4386">
      <feBlend
         inkscape:collect="always"
         mode="screen"
         in2="BackgroundImage"
         id="feBlend4388" />
    </filter>
    <filter
       inkscape:collect="always"
       id="filter3967"
       x="-0.48296311"
       width="1.9659262"
       y="-0.6434356"
       height="2.2868712">
      <feGaussianBlur
         inkscape:collect="always"
         stdDeviation="33.378222"
         id="feGaussianBlur3969" />
    </filter>
  </defs>
  <sodipodi:namedview
     pagecolor="#ffffff"
     bordercolor="#666666"
     borderopacity="1"
     objecttolerance="10"
     gridtolerance="10"
     guidetolerance="10"
     inkscape:pageopacity="0"
     inkscape:pageshadow="2"
     inkscape:window-width="1920"
     inkscape:window-height="1056"
     id="namedview4"
     showgrid="false"
     inkscape:zoom="0.2541779"
     inkscape:cx="1537.7084"
     inkscape:cy="11755.134"
     inkscape:window-x="0"
     inkscape:window-y="24"
     inkscape:window-maximized="1"
     inkscape:current-layer="layer3"
     inkscape:snap-global="false">
    <inkscape:grid
       type="xygrid"
       id="grid4282" />
  </sodipodi:namedview>
  <flowRoot
     xml:space="preserve"
     id="flowRoot2987"
     style="fill:black;stroke:none;stroke-opacity:1;stroke-width:1px;stroke-linejoin:miter;stroke-linecap:butt;fill-opacity:1;font-family:Lavi;font-style:normal;font-weight:normal;font-size:12px;line-height:125%;letter-spacing:0px;word-spacing:0px;-inkscape-font-specification:Lavi;font-stretch:normal;font-variant:normal"><flowRegion
       id="flowRegion2989"><rect
         id="rect2991"
         width="1016.5607"
         height="77.684769"
         x="838.99548"
         y="443.73529"
         style="-inkscape-font-specification:Lavi;font-family:Lavi;font-weight:normal;font-style:normal;font-stretch:normal;font-variant:normal" /></flowRegion><flowPara
       id="flowPara2993" /></flowRoot>  <g
     inkscape:groupmode="layer"
     id="layer1"
     inkscape:label="artwork"
     style="display:inline"
     sodipodi:insensitive="true">
    <image
       sodipodi:absref="/home/dimitrisax/Λήψεις/peppercarrot_ep01_translation-master/gr/../gfx_Pepper-and-Carrot_by-David-Revoy_E01P01.png"
       xlink:href="../gfx_Pepper-and-Carrot_by-David-Revoy_E01P01.png"
       y="0"
       x="0"
       id="image3084"
       height="12658"
       width="2800" />
  </g>
  <g
     inkscape:groupmode="layer"
     id="layer2"
     inkscape:label="speechbubble"
     style="opacity:0.70232556;display:inline;filter:url(#filter4386)">
    <path
       style="fill:#dfffd4;fill-opacity:1;stroke:none"
       d="m 1146.3556,803.20208 c 0,-48.89876 47.5535,-116.49409 280.7924,-119.37049 233.2388,-2.8764 314.7593,60.40433 317.0237,112.17948 2.2643,51.77514 -110.9584,106.42669 -287.5858,102.1121 -176.6274,-4.31459 -305.7015,-21.57298 -310.2303,-94.92109 z"
       id="path3071"
       inkscape:connector-curvature="0"
       sodipodi:nodetypes="csssc" />
    <path
       style="color:#000000;fill:#dfffd4;fill-opacity:1;fill-rule:nonzero;stroke:none;stroke-width:1px;marker:none;visibility:visible;display:inline;overflow:visible;enable-background:accumulate"
       d="m 1488.6608,866.19523 c 0,0 22.8388,6.71324 41.8713,25.17465 19.0323,18.46141 95.162,55.38422 78.0328,146.01292 28.5486,-100.69856 -28.5485,-134.26475 -39.9681,-151.04785 -11.4195,-16.7831 -32.3551,-45.31437 -32.3551,-45.31437 z"
       id="path3073"
       inkscape:connector-curvature="0"
       sodipodi:nodetypes="cscscc" />
    <path
       style="color:#000000;fill:#dfffd4;fill-opacity:1;fill-rule:nonzero;stroke:none;stroke-width:1px;marker:none;visibility:visible;display:inline;overflow:visible;enable-background:accumulate"
       d="m 1280.4354,2433.9708 c -2.3748,-84.6012 168.6076,-192.6028 287.3454,-181.8026 118.7377,10.8001 239.8503,86.4012 261.2231,142.202 21.3728,55.8008 94.99,160.2023 -258.8483,181.8026 -123.4874,5.4001 -299.2192,-57.6008 -289.7202,-142.202 z"
       id="path3097"
       inkscape:connector-curvature="0"
       sodipodi:nodetypes="csscc" />
    <path
       style="color:#000000;fill:#dfffd4;fill-opacity:1;fill-rule:nonzero;stroke:none;stroke-width:1px;marker:none;visibility:visible;display:inline;overflow:visible;enable-background:accumulate"
       d="m 1729.3304,2523.2744 c 21.2307,54.0416 34.741,59.8318 69.4821,61.7618 13.5104,-1.93 28.9508,9.6503 25.0907,30.8809 23.1607,-32.8109 -9.5958,-44.4021 -25.0363,-52.1223 -15.4404,-7.7203 -23.3132,-8.6581 -31.0334,-47.2592 -7.7203,-38.6011 -38.5031,6.7388 -38.5031,6.7388 z"
       id="path3105"
       inkscape:connector-curvature="0"
       sodipodi:nodetypes="cccssc" />
    <path
       style="color:#000000;fill:#dfffd4;fill-opacity:1;fill-rule:nonzero;stroke:none;stroke-width:1px;marker:none;visibility:visible;display:inline;overflow:visible;enable-background:accumulate"
       d="m 2080.6007,5668.9441 c 7.1076,-59.0415 88.8451,-114.5046 147.4828,-109.1373 58.6377,5.3674 152.8135,51.885 140.3752,139.5526 -12.4383,87.6676 -126.16,71.5654 -168.8056,66.1979 -42.6457,-5.3674 -117.2756,-30.4151 -119.0524,-96.6132 z"
       id="path3113"
       inkscape:connector-curvature="0"
       sodipodi:nodetypes="csssc" />
    <path
       style="color:#000000;fill:#dfffd4;fill-opacity:1;fill-rule:nonzero;stroke:none;stroke-width:1px;marker:none;visibility:visible;display:inline;overflow:visible;enable-background:accumulate"
       d="m 2182.8937,5743.0315 c -7.7203,42.4613 0.9413,65.6694 0.9413,79.1798 0,13.5104 -16.3653,60.6542 -76.8812,70.2158 -38.6011,7.7202 -68.8144,35.4666 -72.6745,48.977 34.741,-32.8109 58.3724,-35.6349 89.2533,-35.6349 30.8809,0 80.5917,-22.2668 82.5217,-95.6089 1.9301,-73.3422 1.9301,-113.8733 1.9301,-113.8733 z"
       id="path3121"
       inkscape:connector-curvature="0"
       sodipodi:nodetypes="csccsscc" />
    <path
       style="color:#000000;fill:#dfffd4;fill-opacity:1;fill-rule:nonzero;stroke:none;stroke-width:1px;marker:none;visibility:visible;display:inline;overflow:visible;enable-background:accumulate"
       d="m 1382.7844,7101.192 c 8.8425,-71.8011 125.5634,-152.3055 229.9048,-128.3718 104.3414,23.9337 192.7664,71.8013 199.8403,126.1961 7.0741,54.3948 -37.1383,180.5909 -217.5252,158.8329 -180.3869,-21.7579 -221.0624,-128.3718 -212.2199,-156.6572 z"
       id="path3129"
       inkscape:connector-curvature="0"
       sodipodi:nodetypes="csssc" />
    <path
       style="color:#000000;fill:#dfffd4;fill-opacity:1;fill-rule:nonzero;stroke:none;stroke-width:1px;marker:none;visibility:visible;display:inline;overflow:visible;enable-background:accumulate"
       d="m 1531.4997,7188.9925 c 6.6587,93.2217 -135.3934,133.1739 -135.3934,175.3456 0,42.1717 13.3174,39.9522 13.3174,39.9522 0,0 -13.3174,-15.537 2.2195,-42.1718 15.537,-26.6347 77.2181,-42.5911 122.076,-86.563 56.0846,-54.9769 75.4653,-102.1 75.4653,-102.1 z"
       id="path3137"
       inkscape:connector-curvature="0"
       sodipodi:nodetypes="cscsscc" />
    <path
       style="color:#000000;fill:#dfffd4;fill-opacity:1;fill-rule:nonzero;stroke:none;stroke-width:1px;marker:none;visibility:visible;display:inline;overflow:visible;enable-background:accumulate"
       d="m 578.95232,10352.311 c -3.02536,-94.185 145.21811,-123.616 184.54802,-129.504 39.3299,-5.888 396.32456,20.603 411.45136,111.844 15.1269,91.242 -172.4466,141.278 -353.9692,123.619 -181.52263,-17.661 -245.05554,-67.695 -242.03018,-105.959 z"
       id="path3145"
       inkscape:connector-curvature="0"
       sodipodi:nodetypes="ccssc" />
    <path
       style="color:#000000;fill:#dfffd4;fill-opacity:1;fill-rule:nonzero;stroke:none;stroke-width:1px;marker:none;visibility:visible;display:inline;overflow:visible;enable-background:accumulate"
       d="m 865.63025,10416.301 c 57.58036,48.193 -89.12226,148.958 -85.83967,186.808 1.10147,12.701 5.70794,39.133 17.04979,48.482 19.13648,15.774 55.47249,6.642 13.30076,135.377 -11.09783,28.854 36.77302,60.646 83.38388,58.426 17.75651,2.22 45.35087,21.478 5.39871,103.602 -6.6587,24.415 10.97249,53.988 36.05549,59.386 13.31738,2.219 39.40971,20.519 32.75101,49.373 8.87826,-46.611 -38.8089,-67.788 -46.96963,-79.846 -8.87826,-15.537 12.33605,-64.226 21.21431,-95.3 8.87826,-31.074 -37.07343,-55.593 -52.61038,-62.252 -15.53696,-6.659 -41.8097,-5.706 -46.24883,-23.462 -4.43913,-17.757 25.8699,-82.267 21.43077,-115.561 -4.43913,-33.293 -43.68839,-40.787 -45.90796,-71.861 -2.21956,-31.074 80.05517,-98.222 93.32672,-131.322 16.43818,-34.971 6.93458,-79.607 6.93458,-79.607 z"
       id="path3153"
       inkscape:connector-curvature="0"
       sodipodi:nodetypes="cssccccccsscssccc" />
    <flowRoot
       xml:space="preserve"
       id="flowRoot3115"
       style="font-size:40px;font-style:normal;font-weight:normal;line-height:125%;letter-spacing:0px;word-spacing:0px;fill:#000000;fill-opacity:1;stroke:none;font-family:Sans"><flowRegion
         id="flowRegion3117"><rect
           id="rect3119"
           width="639.91162"
           height="234.82996"
           x="419.75854"
           y="1171.8798" /></flowRegion><flowPara
         id="flowPara3121" /></flowRoot>    <text
       xml:space="preserve"
       style="font-size:75px;font-style:normal;font-variant:normal;font-weight:normal;font-stretch:expanded;text-align:center;line-height:100%;letter-spacing:0px;word-spacing:0px;writing-mode:lr-tb;text-anchor:middle;fill:#000000;fill-opacity:1;stroke:none;font-family:Pecita;-inkscape-font-specification:Pecita Expanded"
       x="2134.0171"
       y="5611.6338"
       id="text3937"
       sodipodi:linespacing="100%"><tspan
         sodipodi:role="line"
         id="tspan3939"
         x="2134.0171"
         y="5611.6338" /></text>
    <text
       xml:space="preserve"
       style="font-size:75px;font-style:normal;font-variant:normal;font-weight:normal;font-stretch:expanded;text-align:center;line-height:100%;letter-spacing:0px;word-spacing:0px;writing-mode:lr-tb;text-anchor:middle;fill:#3c4036;fill-opacity:1;stroke:none;filter:url(#filter3967);font-family:Pecita;-inkscape-font-specification:Pecita Expanded"
       x="2233.8201"
       y="5642.4551"
       id="text3941"
       sodipodi:linespacing="100%"><tspan
         sodipodi:role="line"
         id="tspan3943"
         x="2233.8201"
         y="5642.4551"
         style="opacity:0.60912057">Αχά...</tspan><tspan
         sodipodi:role="line"
         x="2233.8201"
         y="5717.4551"
         id="tspan3945"
         style="opacity:0.60912057">τέλεια</tspan></text>
    <text
       xml:space="preserve"
       style="font-size:75px;font-style:normal;font-variant:normal;font-weight:normal;font-stretch:expanded;text-align:center;line-height:100%;letter-spacing:0px;word-spacing:0px;writing-mode:lr-tb;text-anchor:middle;fill:#000000;fill-opacity:1;stroke:none;font-family:Pecita;-inkscape-font-specification:Pecita Expanded"
       x="2352.719"
       y="5377.7515"
       id="text3971"
       sodipodi:linespacing="100%"><tspan
         sodipodi:role="line"
         id="tspan3973"
         x="2352.719"
         y="5377.7515" /></text>
  </g>
  <g
     inkscape:groupmode="layer"
     id="layer4"
     inkscape:label="frame"
     style="display:inline"
     sodipodi:insensitive="true">
    <rect
       style="color:#000000;fill:#737a64;fill-opacity:1;fill-rule:nonzero;stroke:none;stroke-width:5.5999999;marker:none;visibility:visible;display:inline;overflow:visible;enable-background:accumulate"
       id="rect4280"
       width="2800.7141"
       height="543.51068"
       x="-0.02642878"
       y="-0.0098871691" />
    <rect
       style="color:#000000;fill:#737a64;fill-opacity:1;fill-rule:nonzero;stroke:none;stroke-width:5.5999999;marker:none;visibility:visible;display:inline;overflow:visible;enable-background:accumulate"
       id="rect4280-9"
       width="92.944519"
       height="9779.25"
       x="-2.4022834"
       y="-0.85613543" />
    <rect
       y="-0.85613543"
       x="2710.6973"
       height="9781.1719"
       width="98.454247"
       id="rect4320"
       style="color:#000000;fill:#737a64;fill-opacity:1;fill-rule:nonzero;stroke:none;stroke-width:5.5999999;marker:none;visibility:visible;display:inline;overflow:visible;enable-background:accumulate" />
    <rect
       y="2038.1833"
       x="-0.02642878"
       height="73.850784"
       width="2800.7141"
       id="rect4322"
       style="color:#000000;fill:#737a64;fill-opacity:1;fill-rule:nonzero;stroke:none;stroke-width:5.5999999;marker:none;visibility:visible;display:inline;overflow:visible;enable-background:accumulate" />
    <rect
       style="color:#000000;fill:#737a64;fill-opacity:1;fill-rule:nonzero;stroke:none;stroke-width:5.5999999;marker:none;visibility:visible;display:inline;overflow:visible;enable-background:accumulate"
       id="rect4324"
       width="2800.7141"
       height="73.850784"
       x="-0.02642878"
       y="3609.6301" />
    <rect
       y="5154.291"
       x="-0.02642878"
       height="73.850784"
       width="2800.7141"
       id="rect4326"
       style="color:#000000;fill:#737a64;fill-opacity:1;fill-rule:nonzero;stroke:none;stroke-width:5.5999999;marker:none;visibility:visible;display:inline;overflow:visible;enable-background:accumulate" />
    <rect
       style="color:#000000;fill:#737a64;fill-opacity:1;fill-rule:nonzero;stroke:none;stroke-width:5.5999999;marker:none;visibility:visible;display:inline;overflow:visible;enable-background:accumulate"
       id="rect4328"
       width="2800.7141"
       height="73.850784"
       x="-0.02642878"
       y="6712.3447" />
    <rect
       y="8221.291"
       x="-0.02642878"
       height="73.850784"
       width="2800.7141"
       id="rect4330"
       style="color:#000000;fill:#737a64;fill-opacity:1;fill-rule:nonzero;stroke:none;stroke-width:5.5999999;marker:none;visibility:visible;display:inline;overflow:visible;enable-background:accumulate" />
    <rect
       style="color:#000000;fill:url(#linearGradient4340);fill-opacity:1;fill-rule:nonzero;stroke:none;stroke-width:5.5999999;marker:none;visibility:visible;display:inline;overflow:visible;enable-background:accumulate"
       id="rect4332"
       width="2803.2378"
       height="470.9227"
       x="-2.550184"
       y="9751.2197" />
  </g>
  <g
     inkscape:groupmode="layer"
     id="layer3"
     inkscape:label="txt"
     style="display:inline;opacity:1">
    <flowRoot
       xml:space="preserve"
       id="flowRoot3063"
       style="font-size:90px;font-style:normal;font-variant:normal;font-weight:normal;font-stretch:normal;text-align:center;line-height:125%;letter-spacing:0px;word-spacing:0px;writing-mode:lr-tb;text-anchor:middle;fill:#cbba74;fill-opacity:1;stroke:none;display:inline;font-family:Purisa;-inkscape-font-specification:Purisa"
       transform="translate(-50.181464,1.9300563)"><flowRegion
         id="flowRegion3065"><rect
           id="rect3067"
           width="2718.8806"
           height="147.16573"
           x="90.567055"
           y="400.24826"
           style="font-size:90px;font-style:normal;font-variant:normal;font-weight:normal;font-stretch:normal;text-align:center;line-height:125%;writing-mode:lr-tb;text-anchor:middle;fill:#cbba74;fill-opacity:1;font-family:Purisa;-inkscape-font-specification:Purisa" /></flowRegion><flowPara
         id="flowPara3069"
         style="font-size:110px;font-style:normal;font-variant:normal;font-weight:normal;font-stretch:expanded;text-align:center;line-height:125%;writing-mode:lr-tb;text-anchor:middle;fill:#cbba74;fill-opacity:1;font-family:Pecita;-inkscape-font-specification:Pecita Expanded">Επεισόδιο <flowSpan
   style="font-size:100px;font-style:normal;font-variant:normal;font-weight:normal;font-stretch:normal;text-align:center;line-height:125%;writing-mode:lr-tb;text-anchor:middle;font-family:Lavi;-inkscape-font-specification:Lavi"
   id="flowSpan4047">1</flowSpan> : Φίλτρο αιώρησης</flowPara></flowRoot>    <flowRoot
       xml:space="preserve"
       id="flowRoot4133"
       style="font-size:12px;font-style:normal;font-variant:normal;font-weight:normal;font-stretch:normal;line-height:125%;letter-spacing:0.00204969000000000px;word-spacing:0px;fill:#d0a273;fill-opacity:1;stroke:#d0a273;stroke-width:1;stroke-opacity:1;display:inline;font-family:Arial;-inkscape-font-specification:Arial"
       transform="matrix(3.5750998,-2.9307873,0.92571031,6.9209784,-3865.9757,-2900.2338)"><flowRegion
         id="flowRegion4135"
         style="stroke-width:1"><rect
           id="rect4137"
           width="122.07606"
           height="106.53911"
           x="1125.3193"
           y="1078.5308"
           style="letter-spacing:0.00204969000000000px;fill:#d0a273;fill-opacity:1;stroke:#d0a273;stroke-width:1;stroke-opacity:1" /></flowRegion><flowPara
         id="flowPara4139"
         style="font-size:12.21404075999999961px;font-style:normal;font-variant:normal;font-weight:normal;font-stretch:normal;text-align:start;line-height:125%;letter-spacing:0.00204969000000000px;word-spacing:0.00204969000000000px;writing-mode:lr-tb;text-anchor:start;fill:#d0a273;fill-opacity:1;stroke:#d0a273;stroke-width:1.06872857000000021;stroke-miterlimit:4;stroke-opacity:1;stroke-dasharray:none;font-family:FreeSans;-inkscape-font-specification:FreeSans">σσς</flowPara></flowRoot>    <flowRoot
       xml:space="preserve"
       id="flowRoot4133-6"
       style="font-size:12px;font-style:normal;font-variant:normal;font-weight:normal;font-stretch:normal;line-height:125%;letter-spacing:0.00204969000000000px;word-spacing:0px;fill:#d0a273;fill-opacity:1;stroke:#d0a273;stroke-width:1.16579425000000003;stroke-opacity:1;display:inline;font-family:Arial;-inkscape-font-specification:Arial"
       transform="matrix(2.9165401,-2.4984557,0.71147664,6.3172617,-2795.0613,-2774.5869)"><flowRegion
         id="flowRegion4135-2"
         style="stroke-width:1.16579425"><rect
           id="rect4137-1"
           width="122.07606"
           height="106.53911"
           x="1125.3193"
           y="1078.5308"
           style="letter-spacing:0.00204969000000000px;fill:#d0a273;fill-opacity:1;stroke:#d0a273;stroke-width:1.16579425000000003;stroke-opacity:1" /></flowRegion><flowPara
         id="flowPara4139-2"
         style="font-size:12.45917606000000077px;font-style:normal;font-variant:normal;font-weight:normal;font-stretch:normal;text-align:start;line-height:125%;letter-spacing:0.00204969000000000px;word-spacing:0.00204969000000000px;writing-mode:lr-tb;text-anchor:start;fill:#d0a273;fill-opacity:1;stroke:#d0a273;stroke-width:1.24591756000000009;stroke-miterlimit:4;stroke-opacity:1;stroke-dasharray:none;font-family:FreeSans;-inkscape-font-specification:FreeSans">σσς</flowPara></flowRoot>    <flowRoot
       xml:space="preserve"
       id="flowRoot4133-6-9"
       style="font-size:12px;font-style:normal;font-variant:normal;font-weight:normal;font-stretch:normal;line-height:125%;letter-spacing:0.00204969000000000px;word-spacing:0px;fill:#daa761;fill-opacity:1;stroke:#daa761;stroke-width:1.08239222000000002;stroke-miterlimit:4;stroke-opacity:1;stroke-dasharray:none;display:inline;font-family:Arial;-inkscape-font-specification:Arial"
       transform="matrix(3.759262,0.51938408,-1.7217589,6.8825163,-802.18052,-3521.2896)"><flowRegion
         id="flowRegion4135-2-9"
         style="stroke-width:1.01278496"><rect
           id="rect4137-1-7"
           width="51.856533"
           height="24.039366"
           x="1125.3193"
           y="1078.5308"
           style="letter-spacing:0.00204969000000000px;fill:#daa761;fill-opacity:1;stroke:#daa761;stroke-width:1.08239222000000002;stroke-miterlimit:4;stroke-opacity:1;stroke-dasharray:none" /></flowRegion><flowPara
         id="flowPara4139-2-8"
         style="font-style:normal;font-variant:normal;font-weight:normal;font-stretch:normal;line-height:125%;letter-spacing:0.00204969000000000px;word-spacing:0.00204969000000000px;fill:#daa761;fill-opacity:1;stroke:#daa761;stroke-width:1.08239222000000002;stroke-miterlimit:4;stroke-opacity:1;stroke-dasharray:none;font-family:Lavi;-inkscape-font-specification:Lavi">Μπλούπ</flowPara></flowRoot>    <flowRoot
       xml:space="preserve"
       id="flowRoot4133-6-9-4-8"
       style="font-size:12px;font-style:normal;font-variant:normal;font-weight:normal;font-stretch:normal;line-height:125%;letter-spacing:0.00204969000000000px;word-spacing:0px;fill:#d9a73d;fill-opacity:1;stroke:#d9a83d;stroke-width:0.92601752000000004;stroke-miterlimit:4;stroke-opacity:1;stroke-dasharray:none;display:inline;font-family:Arial;-inkscape-font-specification:Arial"
       transform="matrix(4.0905644,-1.3826259,1.9956496,8.2658111,-5171.8489,1850.6595)"><flowRegion
         id="flowRegion4135-2-9-3-5"
         style="stroke-width:0.86646658"><rect
           id="rect4137-1-7-1-2"
           width="92.762215"
           height="30.001579"
           x="1125.3193"
           y="1078.5308"
           style="letter-spacing:0.00204969000000000px;fill:#d9a73d;fill-opacity:1;stroke:#d9a83d;stroke-width:0.92601752000000004;stroke-miterlimit:4;stroke-opacity:1;stroke-dasharray:none" /></flowRegion><flowPara
         id="flowPara4139-2-8-6-8"
         style="font-size:11.15563582999999959px;font-style:normal;font-variant:normal;font-weight:normal;font-stretch:normal;text-align:start;line-height:125%;letter-spacing:0.00204969000000000px;word-spacing:0.00204969000000000px;writing-mode:lr-tb;text-anchor:start;fill:#d9a73d;fill-opacity:1;stroke:#d9a83d;stroke-width:0.92601752000000004;stroke-miterlimit:4;stroke-opacity:1;stroke-dasharray:none;font-family:FreeSans;-inkscape-font-specification:FreeSans"><flowSpan
           style="font-size:7.93729305000000007px;font-style:normal;font-variant:normal;font-weight:normal;font-stretch:normal;text-align:start;line-height:125%;writing-mode:lr-tb;text-anchor:start;stroke-width:0.92601752000000004;stroke-miterlimit:4;stroke-dasharray:none;font-family:FreeSans;-inkscape-font-specification:FreeSans"
           id="flowSpan4001">Μ</flowSpan><flowSpan
           id="flowSpan4015"
           style="font-size:9.26017474999999912px;font-style:normal;font-variant:normal;font-weight:normal;font-stretch:normal;text-align:start;line-height:125%;writing-mode:lr-tb;text-anchor:start;stroke-width:0.92601752000000004;stroke-miterlimit:4;stroke-dasharray:none;font-family:FreeSans;-inkscape-font-specification:FreeSans">Π</flowSpan><flowSpan
           style="font-size:11.90593909999999944px;font-style:normal;font-variant:normal;font-weight:normal;font-stretch:normal;text-align:start;line-height:125%;writing-mode:lr-tb;text-anchor:start;stroke-width:0.92601752000000004;stroke-miterlimit:4;stroke-dasharray:none;font-family:FreeSans;-inkscape-font-specification:FreeSans"
           id="flowSpan3995">Λ</flowSpan><flowSpan
           id="flowSpan4021"
           style="font-size:13.22882174999999982px;font-style:normal;font-variant:normal;font-weight:normal;font-stretch:normal;text-align:start;line-height:125%;writing-mode:lr-tb;text-anchor:start;stroke-width:0.92601752000000004;stroke-miterlimit:4;stroke-dasharray:none;font-family:FreeSans;-inkscape-font-specification:FreeSans">Ο</flowSpan><flowSpan
           id="flowSpan4019"
           style="font-size:14.88242435000000086px;font-style:normal;font-variant:normal;font-weight:normal;font-stretch:normal;text-align:start;line-height:125%;writing-mode:lr-tb;text-anchor:start;stroke-width:0.92601752000000004;stroke-miterlimit:4;stroke-dasharray:none;font-family:FreeSans;-inkscape-font-specification:FreeSans">Υ</flowSpan><flowSpan
           id="flowSpan4017"
           style="font-size:16.37066649999999868px;font-style:normal;font-variant:normal;font-weight:normal;font-stretch:normal;text-align:start;line-height:125%;writing-mode:lr-tb;text-anchor:start;stroke-width:0.92601752000000004;stroke-miterlimit:4;stroke-dasharray:none;font-family:FreeSans;-inkscape-font-specification:FreeSans">Μ</flowSpan></flowPara></flowRoot>    <flowRoot
       xml:space="preserve"
       id="flowRoot3063-8-6-1-9-0"
       style="font-size:72px;font-style:normal;font-variant:normal;font-weight:normal;font-stretch:normal;line-height:125%;letter-spacing:0px;word-spacing:0px;opacity:0.34883722000000000;color:#000000;fill:#9adbf1;fill-opacity:1;fill-rule:nonzero;stroke:#95cde0;stroke-width:2.16507292000000007;stroke-opacity:1;marker:none;visibility:visible;display:inline;overflow:visible;enable-background:accumulate;font-family:Arial;-inkscape-font-specification:Arial"
       transform="matrix(0.55378887,0,-0.16146783,1.2162246,1855.6068,11703.719)"><flowRegion
         id="flowRegion3065-8-1-1-1-7"
         style="stroke-width:2.16507292"><rect
           id="rect3067-6-3-8-9-84"
           width="615.07123"
           height="310.30325"
           x="92.642677"
           y="425.30325"
           style="font-size:72px;color:#000000;fill:#9adbf1;fill-opacity:1;fill-rule:nonzero;stroke:#95cde0;stroke-width:2.16507292000000007;stroke-opacity:1;marker:none;visibility:visible;display:inline;overflow:visible;enable-background:accumulate" /></flowRegion><flowPara
         style="font-size:31.05892753999999911px;font-style:normal;font-variant:normal;font-weight:normal;font-stretch:normal;text-align:end;letter-spacing:7.18542146999999964px;text-anchor:end;color:#000000;fill:#9adbf1;fill-opacity:1;fill-rule:nonzero;stroke:#95cde0;stroke-width:2.80495786999999996;stroke-miterlimit:4;stroke-opacity:1;stroke-dasharray:none;marker:none;visibility:visible;display:inline;overflow:visible;enable-background:accumulate;font-family:Lavi;-inkscape-font-specification:Lavi"
         id="flowPara3300-48">WWW.PEPPERCARROT.COM</flowPara><flowPara
         style="font-size:31.05892753999999911px;font-style:normal;font-variant:normal;font-weight:normal;font-stretch:normal;text-align:end;letter-spacing:7.18542146999999964px;text-anchor:end;color:#000000;fill:#9adbf1;fill-opacity:1;fill-rule:nonzero;stroke:#95cde0;stroke-width:2.80495786999999996;stroke-miterlimit:4;stroke-opacity:1;stroke-dasharray:none;marker:none;visibility:visible;display:inline;overflow:visible;enable-background:accumulate;font-family:Lavi;-inkscape-font-specification:Lavi"
         id="flowPara4439">05/2014</flowPara></flowRoot>    <text
       xml:space="preserve"
       style="font-size:75px;font-style:normal;font-variant:normal;font-weight:normal;font-stretch:expanded;text-align:center;line-height:100%;letter-spacing:0px;word-spacing:0px;writing-mode:lr-tb;text-anchor:middle;fill:#000000;fill-opacity:1;stroke:none;font-family:Pecita;-inkscape-font-specification:Pecita Expanded"
       x="1440.7578"
       y="790.83008"
       id="text3129"
       sodipodi:linespacing="100%"><tspan
         sodipodi:role="line"
         id="tspan3131"
         x="1440.7578"
         y="790.83008"
         style="font-size:75px;font-style:normal;font-variant:normal;font-weight:normal;font-stretch:expanded;text-align:center;line-height:100%;writing-mode:lr-tb;text-anchor:middle;fill:#3c4036;fill-opacity:1;font-family:Pecita;-inkscape-font-specification:Pecita Expanded">Kαι... η τελευταία</tspan><tspan
         sodipodi:role="line"
         x="1440.7578"
         y="865.83008"
         id="tspan3133"
         style="font-size:75px;font-style:normal;font-variant:normal;font-weight:normal;font-stretch:expanded;text-align:center;line-height:100%;writing-mode:lr-tb;text-anchor:middle;fill:#3c4036;fill-opacity:1;font-family:Pecita;-inkscape-font-specification:Pecita Expanded">πινελιά</tspan></text>
    <text
       xml:space="preserve"
       style="font-size:75px;font-style:normal;font-variant:normal;font-weight:normal;font-stretch:expanded;text-align:center;line-height:100%;letter-spacing:0px;word-spacing:0px;writing-mode:lr-tb;text-anchor:middle;opacity:0.98999999000000005;fill:#000000;fill-opacity:1;stroke:none;font-family:Pecita;-inkscape-font-specification:Pecita Expanded"
       x="1563.5906"
       y="2348.3569"
       id="text3905"
       sodipodi:linespacing="100%"><tspan
         sodipodi:role="line"
         id="tspan3907"
         x="1563.5906"
         y="2348.3569"
         style="fill:#3c4036;fill-opacity:1">...Μμμ</tspan><tspan
         sodipodi:role="line"
         x="1581.2419"
         y="2423.3569"
         id="tspan3909"
         style="fill:#3c4036;fill-opacity:1">μάλλον δεν ειναι </tspan><tspan
         sodipodi:role="line"
         x="1563.5906"
         y="2498.3569"
         id="tspan3911"
         style="fill:#3c4036;fill-opacity:1">αρκετά δυνατό</tspan></text>
    <flowRoot
       xml:space="preserve"
       id="flowRoot3913"
       style="font-size:75px;font-style:normal;font-variant:normal;font-weight:normal;font-stretch:expanded;text-align:center;line-height:100%;letter-spacing:0px;word-spacing:0px;writing-mode:lr-tb;text-anchor:middle;fill:#000000;fill-opacity:1;stroke:none;font-family:Pecita;-inkscape-font-specification:Pecita Expanded"><flowRegion
         id="flowRegion3915"><rect
           id="rect3917"
           width="512.22278"
           height="218.68506"
           x="1203.5035"
           y="2277.0483" /></flowRegion><flowPara
         id="flowPara3919" /></flowRoot>    <flowRoot
       xml:space="preserve"
       id="flowRoot3921"
       style="font-size:75px;font-style:normal;font-variant:normal;font-weight:normal;font-stretch:expanded;text-align:center;line-height:100%;letter-spacing:0px;word-spacing:0px;writing-mode:lr-tb;text-anchor:middle;fill:#000000;fill-opacity:1;stroke:none;font-family:Pecita;-inkscape-font-specification:Pecita Expanded"><flowRegion
         id="flowRegion3923"><rect
           id="rect3925"
           width="290.60208"
           height="211.34695"
           x="1458.8811"
           y="2326.9497" /></flowRegion><flowPara
         id="flowPara3927" /></flowRoot>    <flowRoot
       xml:space="preserve"
       id="flowRoot3929"
       style="font-size:75px;font-style:normal;font-variant:normal;font-weight:normal;font-stretch:expanded;text-align:center;line-height:100%;letter-spacing:0px;word-spacing:0px;writing-mode:lr-tb;text-anchor:middle;fill:#000000;fill-opacity:1;stroke:none;font-family:Pecita;-inkscape-font-specification:Pecita Expanded"><flowRegion
         id="flowRegion3931"><rect
           id="rect3933"
           width="579.73645"
           height="306.74643"
           x="1169.7467"
           y="2233.0178" /></flowRegion><flowPara
         id="flowPara3935" /></flowRoot>    <text
       xml:space="preserve"
       style="font-size:75px;font-style:normal;font-variant:normal;font-weight:normal;font-stretch:expanded;text-align:center;line-height:100%;letter-spacing:0px;word-spacing:0px;writing-mode:lr-tb;text-anchor:middle;fill:#3c4036;fill-opacity:1;stroke:none;font-family:Pecita;-inkscape-font-specification:Pecita Expanded"
       x="2227.1436"
       y="5647.5825"
       id="text3975"
       sodipodi:linespacing="100%"><tspan
         sodipodi:role="line"
         id="tspan3977"
         x="2227.1436"
         y="5647.5825">Αχά...</tspan><tspan
         sodipodi:role="line"
         x="2227.1436"
         y="5722.5825"
         id="tspan3979">τέλεια</tspan></text>
    <text
       xml:space="preserve"
       style="font-size:75px;font-style:normal;font-variant:normal;font-weight:normal;font-stretch:expanded;text-align:center;line-height:100%;letter-spacing:0px;word-spacing:0px;writing-mode:lr-tb;text-anchor:middle;fill:#000000;fill-opacity:1;stroke:none;font-family:Pecita;-inkscape-font-specification:Pecita Expanded"
       x="1596.8436"
       y="7049.9673"
       id="text3981"
       sodipodi:linespacing="100%"><tspan
         sodipodi:role="line"
         id="tspan3983"
         x="1596.8436"
         y="7049.9673"
         style="fill:#3c4036;fill-opacity:1">ΟΧΙ!</tspan><tspan
         sodipodi:role="line"
         x="1596.8436"
         y="7124.9673"
         id="tspan3985"
         style="fill:#3c4036;fill-opacity:1">Ούτε να το</tspan><tspan
         sodipodi:role="line"
         x="1596.8436"
         y="7199.9673"
         id="tspan3987"
         style="fill:#3c4036;fill-opacity:1">σκεύτεσαι</tspan></text>
    <text
       xml:space="preserve"
       style="font-size:75px;font-style:normal;font-variant:normal;font-weight:normal;font-stretch:expanded;text-align:center;line-height:100%;letter-spacing:0px;word-spacing:0px;writing-mode:lr-tb;text-anchor:middle;fill:#000000;fill-opacity:1;stroke:none;font-family:Pecita;-inkscape-font-specification:Pecita Expanded"
       x="392.29279"
       y="10735.973"
       id="text4023"
       sodipodi:linespacing="100%"><tspan
         sodipodi:role="line"
         id="tspan4025"
         x="392.29279"
         y="10735.973" /></text>
    <text
       xml:space="preserve"
       style="font-size:75px;font-style:normal;font-variant:normal;font-weight:normal;font-stretch:expanded;text-align:center;line-height:100%;letter-spacing:0px;word-spacing:0px;writing-mode:lr-tb;text-anchor:middle;fill:#000000;fill-opacity:1;stroke:none;font-family:Pecita;-inkscape-font-specification:Pecita Expanded"
       x="872.51135"
       y="10360.657"
       id="text4027"
       sodipodi:linespacing="100%"><tspan
         sodipodi:role="line"
         x="890.16272"
         y="10360.657"
         id="tspan4031"
         style="fill:#3c4036;fill-opacity:1">Ευχαριστημένος;;! </tspan></text>
    <flowRoot
       xml:space="preserve"
       id="flowRoot4133-6-9-6"
       style="font-size:12px;font-style:normal;font-variant:normal;font-weight:normal;font-stretch:normal;line-height:125%;letter-spacing:0.00204969000000000px;word-spacing:0px;fill:#daa761;fill-opacity:1;stroke:#daa761;stroke-width:1.08239222000000002;stroke-miterlimit:4;stroke-opacity:1;stroke-dasharray:none;display:inline;font-family:Arial;-inkscape-font-specification:Arial"
       transform="matrix(3.3573208,-1.7692393,2.6127902,6.5959693,-5568.4089,-572.82368)"><flowRegion
         id="flowRegion4135-2-9-2"
         style="stroke-width:1.01278496"><rect
           id="rect4137-1-7-0"
           width="51.856533"
           height="24.039366"
           x="1125.3193"
           y="1078.5308"
           style="letter-spacing:0.00204969000000000px;fill:#daa761;fill-opacity:1;stroke:#daa761;stroke-width:1.08239222000000002;stroke-miterlimit:4;stroke-opacity:1;stroke-dasharray:none" /></flowRegion><flowPara
         id="flowPara4139-2-8-4"
         style="font-style:normal;font-variant:normal;font-weight:normal;font-stretch:normal;line-height:125%;letter-spacing:0.00204969000000000px;word-spacing:0.00204969000000000px;fill:#daa761;fill-opacity:1;stroke:#daa761;stroke-width:1.08239222000000002;stroke-miterlimit:4;stroke-opacity:1;stroke-dasharray:none;font-family:Lavi;-inkscape-font-specification:Lavi">Μπλούπ</flowPara></flowRoot>    <path
       style="fill:#cbba74;fill-opacity:1"
       d="m 821.67114,415.32555 c -2.18097,-5.7932 -1.58237,-70.651 0.96336,-104.3799 4.3243,-57.2935 12.28072,-94.00707 20.37284,-94.00707 4.7615,0 5.31793,-1.7299 2.18182,-6.78316 -2.87481,-4.63222 3.57442,-15.33331 13.36253,-22.17221 5.4519,-3.80923 10.9786,-5.47955 18.1304,-5.47955 11.9599,0 15.6932,2.9067 15.6932,12.21853 0,5.90385 0.4347,6.34126 3.6221,3.64493 3.0794,-2.60495 4.0986,-2.39974 6.8027,1.36972 8.4112,11.72475 10.9591,48.59421 4.6449,67.21281 -4.3747,12.8996 -12.5713,24.8945 -19.0758,27.9153 -14.3643,6.671 -32.8502,-0.1346 -41.64759,-15.3325 l -4.93763,-8.5301 -3.03415,16.0118 c -1.74077,9.1863 -2.86862,28.4117 -2.64581,45.1007 0.2836,21.2432 -0.61612,32.6108 -3.33584,42.1468 -2.87192,10.0696 -3.178,14.6548 -1.33748,20.0364 1.31271,3.8382 2.38673,9.717 2.38673,13.0638 0,9.9235 -9.14994,15.9226 -12.14628,7.9637 z m 64.93865,-143.1391 c 5.0906,-5.7335 10.0452,-19.9725 10.1711,-29.2304 0.054,-3.9982 1.3658,-7.7054 2.9142,-8.2382 3.5815,-1.2322 -1.7998,-13.46863 -10.624,-24.15786 -4.7099,-5.70527 -7.8854,-7.39538 -13.8952,-7.39538 -9.9206,0 -17.0718,7.55327 -23.35363,24.66674 -3.98477,10.8557 -4.2659,13.8459 -1.97149,20.9712 3.32177,10.3156 12.03492,24.6661 15.94662,26.264 6.8026,2.7789 17.0466,1.3613 20.8124,-2.8801 z m 699.37721,143.2356 c -2.244,-2.7559 -2.5389,-13.9371 -1.3387,-50.7464 3.3673,-103.2697 13.0328,-152.20588 34.1914,-173.10905 6.2262,-6.15111 9.8315,-7.71233 19.7448,-8.55027 l 12.1277,-1.02512 1.4479,7.37899 c 0.7963,4.05844 0.8858,8.30593 0.1988,9.43887 -0.6869,1.13294 0.2808,2.05988 2.1504,2.05988 1.8696,0 4.4625,-1.80783 5.7618,-4.0174 2.2172,-3.77024 2.5766,-3.73493 5.8417,0.57391 1.9135,2.52523 5.0886,10.23181 7.0557,17.12573 6.6094,23.16396 -0.4224,66.66596 -10.7761,66.66596 -3.0262,0 -4.2599,1.6387 -4.2599,5.6583 0,6.8397 -5.7824,10.4113 -16.8555,10.4113 -10.5881,0 -19.4181,-4.8017 -27.7292,-15.0789 -3.6861,-4.5583 -7.2687,-7.3533 -7.9612,-6.2113 -0.6924,1.1421 -2.454,18.001 -3.9146,37.4644 -2.0156,26.8591 -3.4891,36.0093 -6.1141,37.9657 -3.0959,2.3075 -3.0666,3.148 0.2791,8.0168 2.8674,4.1728 3.7376,10.6999 3.7376,28.0358 0,12.4282 -1.0492,24.5949 -2.3315,27.0371 -2.8081,5.3481 -7.342,5.713 -11.2561,0.9057 z m 64.4147,-142.7226 c 6.5253,-6.6512 10.2645,-18.9257 10.2645,-33.6949 0,-23.67199 -6.8145,-35.83994 -20.0716,-35.83994 -10.1372,0 -20.5109,10.82819 -25.4361,26.55074 -3.133,10.0012 -3.1757,12.5398 -0.3555,21.1635 4.4915,13.7342 16.0874,25.7469 24.8537,25.7469 3.7911,0 8.6263,-1.7668 10.745,-3.9263 z m 615.3234,135.3529 c -6.816,-15.615 -7.5023,-39.2342 -2.6338,-90.6409 5.5464,-58.5641 5.7065,-95.57507 0.4284,-98.98566 -3.0306,-1.95828 -5.0244,-1.34745 -9.4574,2.89745 -3.5221,3.37261 -7.028,4.82701 -9.3998,3.89941 -3.1759,-1.2423 -3.5678,-0.3855 -2.4438,5.3428 0.9067,4.621 -0.3895,10.7455 -4.0172,18.9805 -2.9457,6.6869 -8.5798,20.1641 -12.5203,29.9494 -5.2903,13.137 -8.2532,17.7914 -11.3259,17.7914 -4.7242,0 -5.477,-0.9703 -7.5221,-9.6954 -1.1303,-4.8228 -0.7388,-5.9678 1.7131,-5.0088 5.6199,2.1982 6.5608,-3.8989 1.647,-10.6734 -2.856,-3.9374 -4.7854,-10.0671 -4.8088,-15.2774 -0.023,-4.786 -1.5418,-15.9327 -3.3783,-24.7705 -1.8366,-8.8378 -3.3393,-19.03054 -3.3393,-22.65046 0,-5.3873 -0.7942,-6.36998 -4.3765,-5.41512 -6.0642,1.61641 -11.8953,-5.6112 -10.9948,-13.62809 0.5169,-4.60245 2.1424,-6.72115 5.5348,-7.21434 10.1845,-1.4806 25.8276,26.4918 29.1678,52.15661 0.8355,6.4198 2.1486,11.6446 2.9181,11.6106 0.7694,-0.034 4.3489,-6.7918 7.9544,-15.0175 3.6055,-8.2257 10.5328,-19.56146 15.3939,-25.19057 10.8447,-12.55781 20.9972,-14.0173 29.8417,-4.28992 11.188,12.30489 11.8273,28.26609 4.3232,107.93209 -4.6327,49.1817 -4.5883,76.2126 0.1459,88.8482 3.0069,8.0254 3.2916,11.325 1.3039,15.1107 -4.0925,7.7944 -9.0291,5.6804 -14.1543,-6.0611 z M 1050.2314,301.66165 c -2.331,-3.9068 -5.506,-11.913 -7.0556,-17.7914 -1.5497,-5.8784 -3.5131,-11.4976 -4.3632,-12.4871 -0.8501,-0.9895 -4.35,2.7232 -7.7776,8.2504 -15.8004,25.479 -42.48627,23.1088 -51.74777,-4.5961 -4.7017,-14.0648 -4.8253,-42.7089 -0.2011,-46.6206 1.8581,-1.5718 3.3783,-6.38814 3.3783,-10.70299 0,-8.93914 7.577,-25.61156 12.5177,-27.54406 1.8179,-0.71105 4.7874,-0.0391 6.59877,1.49328 2.7013,2.28512 3.7736,1.71212 5.9634,-3.18666 5.233,-11.70669 18.7413,-5.88327 27.6092,11.90228 l 5.3248,10.67951 2.8946,-13.70336 c 2.7795,-13.15785 12.9074,-28.37737 16.4684,-24.74764 4.4878,4.57438 -1.4104,36.83815 -7.5531,41.31617 -7.2921,5.31587 -2.6765,43.85697 8.8409,73.82417 6.9305,18.0322 -1.7944,29.172 -10.8977,13.9141 z m -34.5063,-30.2079 c 2.6218,-2.8446 7.4443,-11.133 10.7167,-18.4186 l 5.9498,-13.2467 -4.6658,-14.0824 c -7.8474,-23.68566 -15.9423,-28.43123 -25.7241,-15.08054 -7.61207,10.38941 -11.30927,23.40054 -11.34367,39.92014 -0.036,17.3354 4.6542,26.0801 13.98797,26.0801 3.6363,0 8.3329,-2.1925 11.0791,-5.172 z m 543.5364,28.5822 c -2.4828,-4.9605 -5.6969,-13.8067 -7.1424,-19.6582 -1.4455,-5.8514 -3.291,-10.639 -4.1009,-10.639 -0.81,0 -3.4472,3.7371 -5.8604,8.3045 -9.9852,18.8991 -31.1976,25.5466 -43.0309,13.4851 -3.1072,-3.1671 -4.9804,-6.8619 -4.1626,-8.2107 0.8178,-1.3487 -0.563,-4.3988 -3.0684,-6.7779 -3.2081,-3.0465 -5.0114,-8.6669 -6.0975,-19.0047 -2.7421,-26.0987 6.6574,-56.26574 21.4969,-68.9932 8.5794,-7.35825 9.8385,-7.44291 12.9829,-0.87295 l 2.4721,5.16524 1.5131,-5.16524 c 0.8322,-2.84088 2.8101,-5.16524 4.3954,-5.16524 3.595,0 15.9545,14.12903 17.9415,20.51011 2.5557,8.20763 4.9989,5.22173 7.8599,-9.60572 3.2467,-16.82633 5.78,-22.38269 10.2049,-22.38269 8.8793,0 9.4488,21.66485 0.6567,24.98 -4.0899,1.54212 -4.2004,2.07149 -1.0931,5.23872 3.1073,3.16722 2.9745,5.37549 -1.3144,21.85317 l -4.771,18.3299 5.7901,21.6167 c 3.1845,11.8892 7.1642,25.0004 8.8438,29.136 2.2518,5.5449 2.4114,8.5589 0.6077,11.4783 -4.4246,7.1617 -9.3594,5.8961 -14.1234,-3.6222 z m -32.0603,-31.445 c 3.8066,-4.4191 7.8979,-8.0348 9.0916,-8.0348 2.1284,0 2.8166,-5.5809 2.9927,-24.2718 0.1283,-13.62639 -9.2352,-31.76526 -16.8731,-32.6862 -4.7572,-0.57359 -7.011,1.00901 -11.4422,8.03482 -8.2129,13.02148 -11.095,24.74008 -10.0801,40.98548 1.5137,24.2314 13.1251,31.2802 26.3111,15.9725 z m 768.8745,37.6472 c -1.5484,-1.6405 -2.8153,-5.4707 -2.8153,-8.5116 0,-4.6665 0.8306,-5.3164 5.325,-4.1666 3.5538,0.9091 7.0394,-0.1534 10.4796,-3.1947 2.8351,-2.5062 7.5659,-4.5568 10.513,-4.5568 7.7983,0 20.9792,-6.1418 20.9792,-9.7755 0,-1.7176 -5.5907,-8.0426 -12.4238,-14.0556 -6.833,-6.013 -14.4343,-14.9498 -16.8917,-19.8595 -8.829,-17.64 -3.9489,-46.4056 9.5019,-56.0086 4.7284,-3.37579 5.311,-3.21732 9.9917,2.71787 4.3035,5.45692 5.1717,5.77833 6.4697,2.3952 0.8245,-2.14911 0.8428,-4.98999 0.041,-6.31306 -3.6374,-5.9989 9.0479,-1.60925 16.0888,5.56742 8.41,8.57219 9.337,16.06073 2.5267,20.41147 -3.0024,1.91805 -4.9996,1.34314 -9.1541,-2.63512 -13.8138,-13.22768 -31.0241,2.19191 -23.3478,20.91842 1.7989,4.3882 6.4043,10.3401 10.2344,13.2264 4.9118,3.7015 6.9637,7.1498 6.9637,11.703 0,3.5504 1.0135,6.4553 2.2522,6.4553 1.2388,0 2.2523,-1.6761 2.2523,-3.7246 0,-6.9939 6.1188,1.0117 8.6717,11.3457 4.161,16.8436 -1.3643,28.8449 -16.0343,34.8279 -12.7556,5.2022 -37.9198,7.1568 -41.6234,3.233 z m -1051.5304,-13.1627 -3.8672,-11.0982 -6.5938,7.6547 c -17.0303,19.7706 -35.663,-1.4717 -28.7819,-32.8128 5.3178,-24.2205 22.2412,-34.46059 31.4482,-19.0289 4.5803,7.6769 5.6265,7.1305 8.0067,-4.1818 1.7425,-8.2818 4.9935,-11.44382 8.3004,-8.0731 1.4129,1.4401 0.5609,8.7146 -2.4095,20.5729 -4.3182,17.2388 -4.3833,19.0928 -1.0798,30.7444 5.8419,20.6047 6.426,27.3211 2.3762,27.3211 -2.1877,0 -5.0042,-4.2245 -7.3993,-11.0983 z m -12.5626,-18.0776 c 4.7122,-8.7239 4.9536,-10.5667 2.4846,-18.9665 -3.1031,-10.5569 -6.6935,-14.5056 -11.4853,-12.6313 -4.785,1.8715 -10.7904,16.019 -10.7904,25.4197 0,19.1841 10.9239,22.5942 19.7911,6.1781 z m -789.93982,17.9126 c -3.67167,-6.9928 -3.01461,-27.6531 0.92851,-29.1953 2.85139,-1.1153 2.81301,-2.036 -0.28577,-6.8566 -3.09806,-4.8194 -3.37784,-11.5057 -2.08036,-49.71813 3.27636,-96.49282 5.98507,-138.123411 9.32695,-143.347081 4.82796,-7.54657 38.3364,-15.280855 78.75027,-18.176825 17.77897,-1.274 20.72521,-0.94782 23.62676,2.61576 3.71315,4.560345 5.19497,52.437786 5.46244,176.489776 0.13572,62.9518 -0.17754,68.8279 -3.79345,71.1538 -6.47921,4.1676 -11.71527,-0.9862 -12.53169,-12.3349 -0.38913,-5.409 0.32356,-10.8856 1.58375,-12.1701 1.55353,-1.5835 1.53783,-3.7704 -0.0488,-6.7921 -2.77956,-5.2938 -5.62257,-49.55549 -3.02409,-47.08086 0.98591,0.93893 3.16909,-0.29601 4.8515,-2.74431 2.64531,-3.84953 2.44535,-5.47725 -1.47873,-12.03762 -4.09385,-6.84417 -4.53849,-11.53717 -4.54609,-47.98148 -0.005,-22.21742 -0.6747,-49.96296 -1.48904,-61.656741 l -1.48063,-21.26144 -10.64901,1.43989 c -8.36499,1.13105 -10.93062,0.69182 -11.96204,-2.04785 -1.79582,-4.77008 -7.57812,-4.39143 -10.23582,0.67029 -1.45211,2.76563 -6.85626,5.04383 -16.13805,6.80325 -7.67516,1.45487 -14.47628,3.17671 -15.11359,3.82632 -0.63731,0.6496 -1.64781,6.36905 -2.24556,12.70987 -0.59774,6.340821 -1.90307,11.528771 -2.90072,11.528771 -3.81147,0 -4.4528,9.2468 -1.09972,15.85598 2.96203,5.8384 3.32375,14.4403 2.34579,55.78452 -2.01312,85.10761 -3.33053,112.64931 -5.51681,115.33441 -1.16933,1.4361 -5.67314,2.8546 -10.00847,3.1522 -5.8742,0.4033 -8.48499,-0.6065 -10.24757,-3.9635 z m 141.64881,-0.789 c -7.20702,-7.7417 -8.75655,-13.6132 -10.17754,-38.5648 -1.18291,-20.7712 1.61587,-58.65459 4.99679,-67.63505 0.80139,-2.12868 3.37897,-3.36971 6.15901,-2.9654 4.14372,0.60263 4.72143,2.07202 4.33496,11.02577 -2.78299,64.47568 -2.76547,67.12898 0.49558,75.08428 3.26296,7.96 3.46835,8.0595 13.47647,6.5297 9.2283,-1.4105 10.34858,-1.0651 12.1806,3.7556 2.63241,6.9269 -2.09586,14.7442 -8.35167,13.8079 -2.51283,-0.3761 -5.22514,0.3987 -6.02735,1.7218 -2.52358,4.162 -12.0801,2.6185 -17.08685,-2.7598 z m 52.79544,-0.8143 c -0.8098,-3.2887 -0.32236,-20.7454 1.0832,-38.7926 3.43073,-44.05003 3.39211,-45.57703 -1.10823,-43.81679 -5.29425,2.07078 -9.84955,-2.76443 -9.84955,-10.45478 0,-4.94552 1.50977,-7.35627 5.87729,-9.38462 5.06914,-2.3542 6.32579,-2.11068 9.13898,1.77096 2.96933,4.09707 3.45145,4.15951 5.37854,0.69658 1.35964,-2.44324 3.81245,-3.35194 6.85714,-2.54039 2.78706,0.74289 5.53946,-0.0545 6.67979,-1.93517 2.55213,-4.20907 56.15733,-6.30161 56.15733,-2.19218 0,1.45095 1.77363,2.33455 3.9414,1.96354 5.30174,-0.90736 6.43853,7.93051 1.64816,12.81328 -2.0125,2.0513 -6.02946,3.72963 -8.92659,3.72963 -4.99161,0 -5.35269,1.04213 -6.89351,19.89634 -1.05805,12.9468 -0.62168,26.3776 1.24934,38.4523 4.42326,28.5456 4.21173,34.5 -1.25398,35.2974 -3.3871,0.4941 -5.7411,-1.6304 -8.90291,-8.0348 -4.29052,-8.6908 -5.21571,-20.0873 -5.52161,-68.01573 l -0.11479,-17.98724 -17.45476,1.62287 c -9.60012,0.89258 -17.62352,1.75551 -17.82978,1.91761 -0.91969,0.72282 -5.50463,61.11209 -5.39455,71.05289 0.0674,6.089 -0.92288,13.0621 -2.20067,15.4957 -3.43485,6.5419 -10.79078,5.6313 -12.56024,-1.5548 z m 113.38585,1.3903 c -3.4355,-2.7545 -5.33039,-6.1963 -4.73956,-8.6088 0.54143,-2.2106 -1.58023,-7.0209 -4.71479,-10.6895 -3.54708,-4.1514 -5.66187,-9.3527 -5.60034,-13.774 0.12702,-9.1191 5.11733,-23.3725 10.17936,-29.0739 3.27303,-3.6864 3.50269,-5.449 1.34026,-10.28652 -3.78541,-8.46832 -3.20051,-30.05868 1.06237,-39.21532 4.49153,-9.6477 12.20225,-15.85507 14.65997,-11.80171 1.22756,2.02454 2.77786,1.71465 5.91937,-1.1832 10.43288,-9.6237 29.34785,2.43598 22.94556,14.62947 -2.20214,4.19409 -3.83573,4.59586 -13.29508,3.26978 -9.89423,-1.38705 -11.18082,-0.99822 -15.58642,4.7106 -2.64108,3.42236 -4.78646,9.44055 -4.76749,13.37377 0.0345,7.15384 2.57938,13.45559 5.28482,13.08653 5.60629,-0.76476 8.35309,0.40864 10.49182,4.48197 3.63109,6.91563 0.50263,13.68813 -7.99475,17.30693 -9.33935,3.9775 -14.57306,11.3343 -14.57306,20.4848 0,18.4621 16.31264,22.7168 39.47737,10.2965 14.42268,-7.7331 19.08053,-6.5999 19.08053,4.6423 0,6.6164 -7.66532,13.7569 -14.76805,13.7569 -2.01597,0 -6.24232,2.0661 -9.39188,4.5914 -7.91772,6.3481 -27.09343,6.3493 -35.01001,0 z m 190.30601,-0.011 c -4.0567,-2.5211 -8.4347,-7.4223 -9.7287,-10.8916 -1.2941,-3.4693 -3.9576,-8.1152 -5.9189,-10.3242 -3.0441,-3.4286 -3.3692,-8.8047 -2.2215,-36.7348 1.4799,-36.01408 5.0076,-51.08388 11.9583,-51.08388 3.4984,0 4.402,1.96478 4.9594,10.78462 0.4239,6.70612 -0.7024,13.51277 -2.9782,17.99857 -2.1217,4.18212 -2.9574,8.81529 -1.9885,11.02419 0.9193,2.0956 1.7547,12.5911 1.8564,23.3233 0.1113,11.7297 1.3861,21.6652 3.1961,24.9085 2.6893,4.8187 4.0748,5.2327 12.9664,3.8736 9.01234,-1.3776 10.13874,-1.0188 11.89124,3.7873 2.2373,6.1356 0.9043,11.0229 -4.0893,14.9926 -5.12684,4.0755 -11.53544,3.5415 -19.90274,-1.6584 z m 189.74601,-26.9646 c 0.885,-17.3609 2.5697,-32.5897 3.7438,-33.8418 4.179,-4.4567 6.6914,4.3883 5.3743,18.92 -0.7153,7.8914 -0.8532,14.3479 -0.3065,14.3479 0.5467,0 4.1597,-4.3905 8.0289,-9.7566 9.1599,-12.7037 24.1212,-24.6783 30.8335,-24.6783 7.2258,0 6.9667,6.8082 -0.5309,13.9477 -7.9845,7.6031 -12.1733,16.4658 -12.1733,25.7566 0,14.1909 13.2674,19.9747 24.7745,10.8002 6.8424,-5.4554 10.3433,-5.7493 12.1246,-1.0177 1.5724,4.1767 -8.1491,14.2634 -15.5788,16.1641 -17.0989,4.3743 -27.9446,-4.4317 -29.8083,-24.2023 l -1.1024,-11.6937 -4.8467,6.6961 c -2.6658,3.6829 -7.2689,11.9672 -10.2293,18.4096 -2.9604,6.4425 -6.8518,11.7136 -8.6475,11.7136 -2.7716,0 -3.0218,-4.7705 -1.6559,-31.5654 z m 132.8909,26.9168 c -7.8115,-8.798 -6.7784,-60.7778 1.2079,-60.7778 2.7675,0 3.3473,4.5725 3.3473,26.4001 l 0,26.4001 6.7567,0.083 c 5.6572,0.07 6.7567,1.0035 6.7567,5.7392 0,4.6255 -1.2522,5.781 -6.8718,6.3414 -4.7454,0.4733 -8.2101,-0.822 -11.1968,-4.186 z m 96.1641,1.6886 c -5.0066,-6.1489 -7.3323,-24.8793 -8.6826,-69.9273 l -1.3934,-46.48713 6.2744,0 6.2744,0 -6.032,-6.14835 -6.0321,-6.14836 1.5202,-34.59963 c 0.8361,-19.0298 2.422,-36.383661 3.5242,-38.564151 1.2777,-2.52788 1.0105,-5.58603 -0.7376,-8.43915 -3.5433,-5.78302 -0.1081,-20.58092 5.595,-24.10201 3.3306,-2.05636 4.9333,-1.4636 8.7022,3.2186 4.3362,5.38691 4.5214,7.57084 3.0183,35.58275 -0.8809,16.413971 -2.6398,31.133961 -3.9088,32.711091 -1.58,1.96348 -1.5364,4.85844 0.138,9.18264 1.345,3.47333 2.7352,9.66244 3.0894,13.75358 0.6338,7.32135 1.1117,6.92225 30.3622,-25.35455 16.345,-18.03615 35.8039,-40.659961 43.2419,-50.275131 15.8394,-20.47568 16.7351,-21.18239 22.7129,-17.92143 3.3221,1.8122 4.5439,4.78545 4.5246,11.01055 -0.023,6.95169 -2.5512,11.77428 -13.6862,26.09117 -11.8575,15.245851 -15.0086,17.909381 -23.8823,20.186911 -10.0132,2.56997 -10.1397,2.71702 -6.1773,7.17991 3.9324,4.42905 3.7941,4.82668 -4.956,14.248 -44.5487,47.9662 -55.1794,62.12706 -53.2209,70.89454 0.5129,2.29616 8.1536,6.81154 19.2207,11.35872 36.1685,14.86073 73.7195,46.89123 73.7195,62.88163 0,7.8062 -3.4324,12.6271 -8.9904,12.6271 -1.9718,0 -8.1035,-4.7415 -13.626,-10.5367 -5.5225,-5.7952 -14.3482,-13.5927 -19.6128,-17.3278 -5.2646,-3.735 -9.572,-8.6101 -9.572,-10.8333 0,-2.2232 -1.3918,-5.9824 -3.0929,-8.3537 -2.9785,-4.1519 -3.1527,-4.1195 -4.7079,0.8751 -0.8883,2.8526 -2.7903,4.6865 -4.2268,4.0754 -1.4365,-0.6111 -7.9566,-3.4162 -14.4891,-6.2337 -6.5325,-2.8174 -12.4424,-4.5465 -13.1332,-3.8424 -0.6908,0.7041 0.01,11.1282 1.553,23.1647 2.2799,17.7625 2.2624,22.5558 -0.093,25.4484 -3.5274,4.3322 -9.9434,4.6254 -13.2177,0.604 z m 346.3848,-2.2053 c -8.8731,-6.1212 -17.1286,-21.7695 -19.0751,-36.1566 -2.7159,-20.0746 5.6709,-53.9633 14.0603,-56.8137 1.5193,-0.51619 3.9061,1.62014 5.304,4.74739 1.9985,4.47069 1.7402,8.14548 -1.2084,17.19399 -4.4205,13.56552 -4.2775,49.43342 0.1901,47.68602 1.4424,-0.5642 4.3951,0.9706 6.5616,3.4107 7.66,8.6274 30.7007,2.7062 37.132,-9.5426 1.2666,-2.4124 4.4027,-4.3862 6.9691,-4.3862 3.5818,0 4.2762,-0.9336 2.9881,-4.0174 -0.923,-2.2096 -1.4752,-11.3515 -1.2272,-20.3154 0.4049,-14.63613 -0.1579,-17.03547 -5.5198,-23.53052 -6.7406,-8.16529 -16.8863,-9.69363 -25.1561,-3.78952 -5.8792,4.19733 -11.0674,2.52203 -12.7726,-4.12427 -1.5834,-6.17167 3.7309,-14.74334 11.3282,-18.27165 4.8473,-2.25115 6.222,-2.02769 8.6899,1.41255 2.7517,3.83566 3.0643,3.8454 5.0885,0.15863 1.6173,-2.94571 3.7245,-3.52702 8.4256,-2.32435 13.8919,3.55388 25.853,26.02833 25.853,48.57673 0,24.4074 -15.1369,53.1798 -32.3602,61.5104 -11.2182,5.4261 -26.2192,4.8204 -35.271,-1.4242 z m 139.7025,0.5817 c -4.3355,-2.4092 -9.6034,-4.893 -11.7064,-5.5195 -7.8703,-2.3445 -11.9457,-15.0214 -11.8814,-36.958 0.052,-17.8908 0.8829,-22.3021 6.1937,-32.90179 3.3731,-6.73246 6.133,-12.67248 6.133,-13.20005 0,-0.52757 -5.5743,-0.95922 -12.3873,-0.95922 -9.5094,0 -12.3872,-0.8 -12.3872,-3.44349 0,-4.15099 -2.6279,-4.43798 -6.3063,-0.6887 -3.9728,4.04947 -7.7183,-0.77682 -6.8201,-8.7882 l 0.7391,-6.59273 24.7745,-0.64357 c 23.6965,-0.61557 24.8725,-0.42224 27.0267,4.44281 3.2227,7.27798 6.6017,7.52149 10.1663,0.73265 2.4573,-4.68017 4.5259,-5.76163 9.9801,-5.21785 5.6691,0.56521 7.0081,1.82176 7.6062,7.13785 0.8914,7.92475 -2.2747,12.11437 -10.4081,13.77242 -23.9229,4.87684 -40.214,50.79597 -23.9153,67.40897 5.2632,5.3647 6.9545,5.7923 17.7801,4.4954 9.6959,-1.1615 12.2221,-0.7465 13.3274,2.1896 3.8309,10.1756 -2.1935,20.2898 -8.7711,14.7256 -2.7669,-2.3406 -3.3783,-2.1837 -3.3783,0.8668 0,4.8943 -6.0003,4.5674 -15.7656,-0.859 z m 63.0624,0.8293 c -7.8058,-5.6421 -10.8031,-9.5924 -16.1718,-21.3137 -11.0167,-24.0524 -0.5171,-82.60958 12.7934,-71.34982 5.3487,4.52466 3.501,22.95662 -2.3013,22.95662 -2.1767,0 -2.625,3.5866 -1.7937,14.3479 1.5041,19.4688 4.4708,28.3348 11.3185,33.8251 7.5066,6.0185 16.4062,5.8561 28.4488,-0.5192 8.5037,-4.5019 10.2321,-6.7763 13.8012,-18.162 4.0401,-12.8878 4.2902,-15.5515 3.4901,-37.17042 -0.3602,-9.73296 -0.9505,-10.97847 -4.7262,-9.97208 -2.3729,0.63252 -4.882,0.21398 -5.5758,-0.93011 -2.0418,-3.36753 -14.2123,-2.38395 -20.2298,1.6349 -6.9686,4.65404 -12.2968,1.08727 -12.2968,-8.23166 0,-9.16695 7.1463,-14.47917 20.868,-15.5123 14.7977,-1.11414 24.1191,4.29561 31.3893,18.21711 7.3138,14.00489 7.4016,46.18946 0.1696,62.19406 -4.3381,9.6004 -5.5356,10.7236 -9.2644,8.6895 -5.6099,-3.0602 -7.3222,-1.0244 -4.8079,5.7163 4.9549,13.2838 -31.0734,25.7266 -45.1113,15.5798 z m 124.476,-0.8371 c -4.3061,-5.1261 -8.785,-5.9739 -10.1126,-1.914 -1.6967,5.188 -13.0258,-10.7294 -17.4065,-24.4559 -7.2207,-22.6259 -11.7578,-69.55304 -7.753,-80.19056 2.0608,-5.4739 9.7199,-4.39697 11.9888,1.68572 2.6303,7.0517 3.8247,54.07004 1.5456,60.84444 -1.4503,4.3106 -0.8899,5.5667 2.939,6.5873 2.6021,0.6936 5.3406,3.7366 6.0856,6.7622 0.745,3.0257 3.9111,7.5509 7.0358,10.0562 13.8828,11.1308 27.4324,1.4975 33.5739,-23.87 3.3323,-13.7636 3.4359,-18.1391 0.879,-37.1213 -3.1581,-23.44606 -2.4451,-28.57581 3.972,-28.57581 7.1093,0 10.2052,10.89035 11.2125,39.44172 1.0078,28.56299 -1.6959,42.55899 -11.3846,58.93429 -8.6983,14.7014 -25.1414,20.6656 -32.5755,11.8157 z m 57.2036,3.0609 c -3.3431,-3.4075 -1.037,-13.0809 7.8127,-32.772 8.5226,-18.963 9.767,-20.6089 14.6395,-19.3623 4.9658,1.2703 5.3253,0.7114 5.3253,-8.281 0,-6.1139 1.6216,-11.7448 4.4308,-15.38488 l 4.4308,-5.7415 -6.7734,-14.13372 c -11.1724,-23.31312 -13.68,-27.58527 -20.596,-35.0891 -12.3355,-13.38395 -4.1261,-28.85134 8.7877,-16.55688 7.6639,7.29645 11.2348,14.86258 13.1462,27.85465 1.3561,9.21717 2.2599,10.73258 5.7315,9.6095 5.2808,-1.70838 6.5601,0.85649 28.0115,56.16083 9.4274,24.305 16.8297,46.4157 16.4495,49.135 -0.4284,3.0634 -2.5791,5.2178 -5.6543,5.6636 -4.0579,0.5884 -6.1586,-1.7139 -11.5203,-12.6261 -3.6066,-7.3402 -9.4572,-21.3519 -13.0013,-31.1371 -3.5441,-9.7853 -7.1548,-17.7914 -8.0236,-17.7914 -2.3938,0 -16.8711,25.1358 -25.7164,44.6496 -5.535,12.2106 -9.0571,17.3333 -11.9178,17.3333 -2.2335,0 -4.7366,-0.6887 -5.5624,-1.5305 z M 1011.6837,154.842 c -2.2201,-4.22829 -1.1987,-8.09116 6.7512,-25.53176 5.152,-11.30233 10.7176,-27.12835 12.3681,-35.168901 3.4372,-16.74504 4.7431,-19.53374 9.1469,-19.53374 12.7008,0 6.394,38.282551 -11.9085,72.284651 -6.8666,12.75667 -12.4174,15.45434 -16.3577,7.94975 z m 1015.8404,0.16409 c -3.8039,-7.24467 6.6817,-30.07739 13.0349,-28.38395 4.0188,1.07121 4.3578,0.22598 3.5182,-8.77101 -1.2916,-13.83826 5.8885,-41.817801 10.9855,-42.808891 2.4581,-0.47798 4.9029,1.44489 6.5653,5.16375 2.3037,5.1538 1.9626,6.66966 -2.6201,11.64177 -4.3668,4.73792 -4.6232,5.71645 -1.4977,5.71645 4.8791,0 4.7525,3.071211 -0.8096,19.641271 -6.4361,19.17353 -18.3622,41.03166 -22.8573,41.8927 -2.0842,0.39923 -4.9278,-1.44221 -6.3192,-4.09209 z"
       id="path3110"
       inkscape:connector-curvature="0" />
  </g>
</svg>
