<?xml version="1.0" encoding="UTF-8" standalone="no"?>
<!-- Created with Inkscape (http://www.inkscape.org/) -->

<svg
   xmlns:dc="http://purl.org/dc/elements/1.1/"
   xmlns:cc="http://creativecommons.org/ns#"
   xmlns:rdf="http://www.w3.org/1999/02/22-rdf-syntax-ns#"
   xmlns:svg="http://www.w3.org/2000/svg"
   xmlns="http://www.w3.org/2000/svg"
   xmlns:xlink="http://www.w3.org/1999/xlink"
   xmlns:sodipodi="http://sodipodi.sourceforge.net/DTD/sodipodi-0.dtd"
   xmlns:inkscape="http://www.inkscape.org/namespaces/inkscape"
   id="svg2"
   version="1.1"
   inkscape:version="0.92.1 renderfarm"
   width="2481"
   height="663"
   sodipodi:docname="Pepper-and-Carrot_by-David-Revoy_E01P00_092.svg"
   enable-background="new">
  <sodipodi:namedview pagecolor="#ffffff" bordercolor="#666666" inkscape:pageopacity="0" inkscape:pageshadow="2" inkscape:window-width="1813" inkscape:window-height="955" id="namedview70" showgrid="false" inkscape:zoom="0.4" inkscape:cx="1284.4231" inkscape:cy="2618.6204" inkscape:current-layer="layer1" /><metadata
     id="metadata8">
    <rdf:RDF>
      <cc:Work
         rdf:about="">
        <dc:format>image/svg+xml</dc:format>
        <dc:type
           rdf:resource="http://purl.org/dc/dcmitype/StillImage" />
        <dc:title />
      </cc:Work>
    </rdf:RDF>
  </metadata>
  <defs
     id="defs6">
    <filter
       inkscape:collect="always"
       id="filter4386">
      <feBlend
         inkscape:collect="always"
         mode="screen"
         in2="BackgroundImage"
         id="feBlend4388" />
    </filter>
  </defs>
  <sodipodi:namedview
     pagecolor="#ffffff"
     bordercolor="#666666"
     borderopacity="1"
     objecttolerance="10"
     gridtolerance="10"
     guidetolerance="10"
     inkscape:pageopacity="0"
     inkscape:pageshadow="2"
     inkscape:window-width="1920"
     inkscape:window-height="1026"
     id="namedview4"
     showgrid="false"
     inkscape:zoom="0.29623656"
     inkscape:cx="1176.7968"
     inkscape:cy="769.01517"
     inkscape:window-x="0"
     inkscape:window-y="27"
     inkscape:window-maximized="1"
     inkscape:current-layer="layer3"
     inkscape:snap-global="false">
    <inkscape:grid
       type="xygrid"
       id="grid4282" />
  </sodipodi:namedview>
  <g
     inkscape:groupmode="layer"
     id="layer1"
     inkscape:label="artwork"
     style="display:inline"
     sodipodi:insensitive="true">
    <image
       sodipodi:absref="/home/deevad/peppercarrot/webcomics/ep01_Potion-of-Flight/lang/br/../gfx_Pepper-and-Carrot_by-David-Revoy_E01P00.png"
       xlink:href="../gfx_Pepper-and-Carrot_by-David-Revoy_E01P00.png"
       width="2481"
       height="663"
       id="image3084"
       x="0"
       y="0" />
  </g>
  <g
     inkscape:groupmode="layer"
     id="layer2"
     inkscape:label="speechbubbles"
     style="opacity:0.70232556;display:inline;filter:url(#filter4386)" />
  <g
     inkscape:groupmode="layer"
     id="layer3"
     inkscape:label="txt"
     style="display:inline">
    <flowRoot
       xml:space="preserve"
       id="flowRoot3063"
       style="font-style:normal;font-variant:normal;font-weight:normal;font-stretch:normal;line-height:0.01%;font-family:Arial;-inkscape-font-specification:Arial;letter-spacing:0px;word-spacing:0px;display:inline;fill:#285953;fill-opacity:1;stroke:none"
       transform="matrix(0.90919283,0,0,0.90919283,-58.606843,134.95097)"><flowRegion
         id="flowRegion3065"><rect
           id="rect3067"
           width="2715.5891"
           height="110.01318"
           x="92.642677"
           y="425.30325"
           style="font-size:72px;fill:#285953;fill-opacity:1" /></flowRegion><flowPara
         id="flowPara3069"
         style="font-style:normal;font-variant:normal;font-weight:normal;font-stretch:normal;font-size:88px;line-height:1.25;font-family:Lavi;-inkscape-font-specification:Lavi;text-align:center;text-anchor:middle;fill:#285953;fill-opacity:1">Rann 1: Dramm nijal</flowPara></flowRoot>    <path
       style="fill:#285953;fill-opacity:1;stroke:none"
       d="m 719.76235,504.30155 c -1.96554,-1.72578 -4.22353,-4.39435 -5.01773,-5.93017 l -1.444,-2.79239 0,-4.08124 0,-4.08122 2.44623,-2.44622 2.44622,-2.44623 1.78938,-0.0318 c 0.98415,-0.0175 2.65404,-0.68586 3.71087,-1.48539 l 1.92152,-1.45369 0.74641,-5.24173 0.74639,-5.24174 0.0728,-22.73839 0.0728,-22.7384 -1.03167,-1.92769 -1.03167,-1.92771 -1.77727,0 c -0.97751,0 -4.15476,-0.70604 -7.06057,-1.56897 l -5.28329,-1.56896 -2.37216,-2.37218 -2.37218,-2.37217 0,-1.54023 0,-1.5402 5.7305,-0.041 5.73051,-0.041 4.48476,-2.2013 4.48473,-2.20129 0.28476,-34.88134 0.28476,-34.88136 -1.18296,-4.31139 -1.18295,-4.31139 -2.09162,-1.35666 -2.09165,-1.35664 -8.72034,-0.69782 -8.72033,-0.69783 0,-1.19366 0,-1.19366 4.40781,-4.47097 4.40781,-4.47097 12.61364,-5.70139 12.61364,-5.70141 1.91952,0.60925 c 1.05574,0.33507 3.26252,1.73929 4.90398,3.12047 l 2.98444,2.51126 0,1.33514 c 0,0.73431 0.70475,2.03988 1.56612,2.90123 l 1.56609,1.56609 10.28173,0 10.28174,0 8.63993,2.50377 c 4.75198,1.37707 10.80289,3.5998 13.44649,4.9394 2.64359,1.33962 8.36882,5.11994 12.72276,8.40072 l 7.91623,5.96506 2.73579,3.94774 2.73578,3.94775 1.42656,4.74008 1.42655,4.74007 0,6.72909 0,6.72908 -1.86521,5.99292 -1.8652,5.99293 -3.68673,6.59248 -3.68672,6.59247 -5.99398,6.40758 -5.99397,6.40758 -6.64223,4.895 c -3.65323,2.69226 -8.88461,6.00485 -11.62527,7.36132 -2.74069,1.35648 -10.14053,4.17392 -16.44407,6.26099 -6.30357,2.08705 -12.4701,4.16068 -13.7034,4.60803 l -2.24238,0.81338 0,21.49378 0,21.49379 2.4057,2.40569 2.4057,2.4057 2.82651,0.59903 c 1.55459,0.32946 3.58004,1.00468 4.50104,1.50047 l 1.67454,0.90142 4.3457,-0.0872 c 2.39013,-0.0479 6.63524,0.22767 9.43357,0.61254 l 5.08787,0.69975 3.16634,-1.63738 3.16632,-1.63737 2.93468,0.64458 c 1.61408,0.35451 4.94491,0.64456 7.40184,0.64456 2.45694,0 4.46715,0.20975 4.46715,0.46612 0,0.25635 -1.61948,1.14276 -3.59886,1.9698 -3.63128,1.51723 -11.44062,6.41861 -16.68783,10.47375 l -2.84601,2.19945 -6.48456,1.79812 -6.48457,1.7981 -4.62196,2.93865 -4.62197,2.93864 -7.47458,2.11156 c -4.11102,1.16138 -9.75637,2.7685 -12.54522,3.5714 l -5.07064,1.45976 -4.11333,0 -4.11331,0 -3.57373,-3.13776 z m 44.01493,-106.93559 8.82165,-4.43271 8.03364,-6.44944 8.03364,-6.44944 4.8125,-5.81108 4.81249,-5.81108 2.8497,-5.97965 2.84967,-5.97966 7.9e-4,-4.28509 7.9e-4,-4.28507 -1.45913,-2.82164 c -0.80252,-1.5519 -2.85047,-3.99237 -4.55102,-5.42329 l -3.09189,-2.60168 -5.66424,-1.70105 -5.66423,-1.7011 -8.47119,-0.0263 -8.47119,-0.0263 -5.50658,1.24469 -5.50659,1.24471 -3.21374,1.95439 -3.21376,1.95441 0,29.86343 0,29.86343 1.74405,1.01583 c 0.95925,0.55871 2.25909,1.02945 2.88854,1.04613 0.62944,0.0167 5.11419,-1.96441 9.9661,-4.4024 z m 73.103,108.49912 c -1.37034,-0.88598 -3.7159,-3.19737 -5.21238,-5.13641 l -2.72086,-3.52555 -0.61313,-3.26831 -0.61314,-3.26831 1.34078,-2.82545 1.34077,-2.82545 4.4037,-2.11325 4.4037,-2.11326 1.3268,-1.81452 1.32681,-1.81451 0,-27.59119 0,-27.59119 -5.2322,-0.58454 c -2.87771,-0.3215 -6.98926,-0.93924 -9.1368,-1.37278 l -3.90459,-0.78823 -0.31481,-0.993 c -0.17313,-0.54616 0.0345,-1.54359 0.46152,-2.21651 l 0.77629,-1.22347 7.70399,-1.47402 c 4.2372,-0.81072 8.14108,-1.74416 8.6753,-2.07432 l 0.9713,-0.60029 0,-40.3534 0,-40.35338 -1.45423,-2.81216 -1.45424,-2.81218 -8.26271,-1.17359 c -4.54449,-0.64547 -9.72025,-1.39617 -11.5017,-1.66824 l -3.23898,-0.49465 0,-0.77772 c 0,-0.42776 1.00906,-1.69668 2.24237,-2.81983 2.44037,-2.2224 15.01702,-10.26467 16.05209,-10.26467 0.35112,0 4.63325,-1.79879 9.51584,-3.99729 l 8.87744,-3.99729 2.83226,1.07681 c 1.55774,0.59226 3.61795,1.78785 4.5782,2.65685 l 1.74583,1.58002 0,2.71912 0,2.71913 2.2424,0.60094 c 1.23336,0.33052 6.73614,0.60707 12.22857,0.61454 l 9.98609,0.0137 7.15047,1.98149 c 3.93274,1.08982 9.70124,3.10956 12.81875,4.48829 l 5.66839,2.50683 6.59505,4.90735 c 3.62732,2.69905 8.25468,6.6216 10.28321,8.71678 l 3.68799,3.80943 2.21151,4.98304 2.21139,4.98305 0.44587,7.52685 0.44611,7.52684 -2.91712,8.46295 -2.91711,8.46293 -3.83682,5.78043 c -2.11018,3.17925 -6.08487,8.24017 -8.83251,11.24652 l -4.99566,5.46607 -3.17825,-0.59624 -3.17815,-0.59623 -1.03915,1.26501 c -0.57151,0.69577 -1.19426,2.382 -1.38384,3.74716 l -0.3446,2.48214 -4.90394,3.20409 -4.90403,3.20409 -12.3683,4.52902 -12.36839,4.52905 -2.16163,0.0152 c -1.18883,0.008 -2.83423,0.44028 -3.65645,0.95978 l -1.49492,0.9445 0,21.38265 0,21.38265 2.37578,2.52986 2.3757,2.52986 5.17536,1.0744 5.17538,1.07441 9.88962,-0.0284 c 5.4392,-0.0156 12.49448,-0.0797 15.67837,-0.14258 l 5.78884,-0.11416 0.68081,0.6808 0.68082,0.68082 -1.98488,1.16427 c -1.09167,0.64035 -4.83837,2.40322 -8.32587,3.91744 l -6.3409,2.75319 -2.95421,2.48576 c -1.62477,1.36714 -3.52938,2.48573 -4.23231,2.48573 l -1.27808,0 -4.37598,3.84438 c -2.40669,2.1144 -6.29646,4.82178 -8.64382,6.0164 l -4.26794,2.17204 -9.68455,2.63262 -9.68464,2.63261 -4.98303,0.33878 -4.98309,0.33877 -2.49153,-1.61087 z m 40.64118,-107.51621 7.19855,-3.4498 7.22423,-5.36297 7.22414,-5.36298 6.9763,-7.39539 6.97628,-7.39538 2.79277,-5.76101 2.79287,-5.76099 0.50476,-4.69018 0.50476,-4.69015 -1.80261,-3.46274 -1.8027,-3.46273 -3.98643,-2.77269 -3.98644,-2.77271 -7.47463,-1.58136 -7.47454,-1.58135 -6.47795,0.578 c -3.56295,0.3179 -9.16883,1.26449 -12.45766,2.10352 l -5.97961,1.52552 -2.28564,2.58015 -2.28564,2.58014 0.29237,28.14621 0.29247,28.14619 1.36776,1.64625 1.36775,1.64623 1.65024,0 c 0.90752,0 4.88942,-1.5524 8.8486,-3.44978 z m 343.55204,77.2704 c -2.7407,-0.97686 -7.2657,-2.93343 -10.0558,-4.34794 l -5.0727,-2.5718 -3.1433,-3.57984 c -1.7286,-1.96892 -4.1401,-5.4734 -5.3589,-7.78773 l -2.2157,-4.20788 -0.032,-7.47458 -0.033,-7.47458 3.1464,-6.64111 3.1462,-6.64109 7.7335,-8.0945 7.7334,-8.09447 -2.7996,-5.85754 -2.7996,-5.85753 0.5979,-2.98945 0.5979,-2.98944 -1.4264,-1.18379 -1.4264,-1.18377 1.5469,-2.99127 1.5469,-2.9913 -2.2118,-2.35427 -2.2118,-2.3543 0.6321,-4.61059 0.6319,-4.6106 1.985,-4.48752 1.985,-4.48753 4.2383,-5.06223 4.2384,-5.06224 4.375,-2.77457 4.3752,-2.77458 5.3974,-1.20791 5.3974,-1.2079 5.1888,1.6392 5.1887,1.6392 5.6894,3.56325 5.6895,3.56328 3.6304,5.97646 3.6306,5.97648 0.5099,3.80186 0.51,3.80187 -2.2002,6.97105 -2.2,6.97108 -3.8291,4.87577 c -2.106,2.68168 -5.4754,7.34238 -7.4876,10.35713 -2.0122,3.01474 -5.0014,6.67318 -6.6425,8.12986 l -2.9839,2.6485 0.8486,1.44751 c 0.4666,0.79614 4.9321,5.78276 9.9231,11.08141 l 9.0746,9.63388 1.1902,-1.43412 1.1903,-1.43414 0.1996,-2.82797 0.1996,-2.82799 -3.7323,-0.309 -3.7322,-0.30901 -2.4965,-3.27321 -2.4967,-3.27319 0,-2.07711 0,-2.07712 1.4277,-1.42768 1.4277,-1.42769 8.2892,-2.57701 c 4.5591,-1.41735 10.5316,-3.08651 13.2724,-3.70925 l 4.983,-1.13224 11.9593,-0.39323 c 6.5776,-0.21628 14.3139,-0.65981 17.1915,-0.98563 l 5.2323,-0.59238 -6e-4,1.31747 -5e-4,1.31748 -7.0877,6.47795 c -3.8981,3.56288 -8.4947,7.87827 -10.2146,9.58974 l -3.1271,3.11176 -4.8612,0.7057 c -2.6739,0.38814 -5.477,0.94183 -6.2289,1.23045 l -1.3675,0.52476 0,4.83905 0,4.83903 -2.1265,5.68316 -2.1263,5.68315 2.8636,2.07796 c 1.5748,1.14288 4.662,3.46212 6.8603,5.15387 l 3.9966,3.07589 -0.185,1.40884 c -0.102,0.77487 -0.8053,3.08715 -1.5631,5.13843 l -1.3781,3.72958 -2.3478,2.49923 -2.3479,2.49922 -3.0654,-0.003 -3.0652,-0.003 -3.2631,-1.9895 c -1.7947,-1.0937 -3.8645,-1.98897 -4.5995,-1.98897 -0.7351,0 -2.4767,-0.89695 -3.8704,-1.99322 -1.3938,-1.09627 -3.1361,-1.98175 -3.8717,-1.96771 -0.7358,0.014 -3.8045,1.60022 -6.8192,3.52488 l -5.4813,3.49939 -9.4282,2.95307 -9.4282,2.95308 -5.0226,-0.0729 -5.0227,-0.0729 -4.983,-1.77612 z m 24.1827,-24.11789 4.3813,-2.12101 0.488,-1.27165 0.488,-1.27165 -10.2852,-10.05554 -10.2853,-10.05556 -1.2033,-0.006 -1.2033,-0.006 -2.7831,3.66851 c -1.5307,2.01769 -4.2407,5.0153 -6.0221,6.66136 l -3.239,2.99281 0,1.34779 0,1.34778 4.2355,4.32157 c 2.3296,2.37685 5.1326,4.81352 6.2289,5.4148 l 1.9933,1.09324 6.4123,0.0304 6.4126,0.0304 4.3814,-2.121 z m -5.3315,-61.25094 7.6944,-6.56519 1.9217,-3.15177 1.922,-3.15178 0,-3.16251 0,-3.16251 -2.4714,-2.93704 -2.4713,-2.93703 -2.9934,-1.2399 -2.9934,-1.2399 -3.4447,0.64623 -3.4447,0.64621 -2.7027,3.20509 c -1.4864,1.76281 -3.3072,4.64825 -4.0464,6.41206 l -1.3445,3.20699 0,3.86006 0,3.86005 1.4115,4.68945 c 1.4017,4.65768 3.1538,7.58666 4.5382,7.58666 0.3974,0 4.1849,-2.95434 8.4168,-6.56517 z m 176.7643,58.39309 c -3.1347,-0.40209 -8.8779,-1.753 -12.7623,-3.00202 l -7.0626,-2.27094 -5.9178,-3.59444 c -3.2549,-1.97694 -8.2113,-5.38833 -11.0145,-7.58087 l -5.0964,-3.98644 -5.7626,-6.78156 -5.7627,-6.78155 -3.0149,-5.67607 c -1.6581,-3.12183 -3.9315,-8.59116 -5.0519,-12.15403 -1.1204,-3.56289 -2.9888,-11.62581 -4.1519,-17.91761 l -2.1151,-11.43963 0.443,-4.50613 c 0.6398,-6.5099 3.4566,-20.96801 6.2322,-31.99082 2.7635,-10.97409 8.6743,-28.38769 11.6324,-34.26985 4.4067,-8.76278 15.4935,-26.36097 22.2986,-35.39463 3.9478,-5.24073 10.2533,-12.67416 14.0124,-16.51875 3.759,-3.84459 9.9724,-9.36235 13.8074,-12.26167 l 6.9727,-5.27154 8.2639,-4.09493 8.264,-4.09493 10.675,-0.0671 10.6752,-0.0671 9.4679,3.82044 c 5.2073,2.10125 10.3648,3.89514 11.4611,3.98645 l 1.9931,0.16599 0.4984,-5.52644 0.4983,-5.52646 1.8489,-2.82048 1.8488,-2.82048 5.4831,0.64443 5.4832,0.64444 5.3864,2.54815 5.3864,2.54815 3.4764,3.27879 3.4766,3.27881 0,4.98994 c 0,2.74447 -0.2805,6.39216 -0.6232,8.10594 l -0.6232,3.11598 -3.931,4.4659 -3.9312,4.46589 0.6267,1.01389 0.6266,1.01389 1.824,0 1.8241,0 2.3019,1.86395 2.3018,1.86397 -1.1835,13.83264 c -1.3623,15.92053 -2.3844,23.52621 -4.5137,33.58221 -0.8337,3.93741 -1.9502,9.40128 -2.4811,12.14196 -0.5311,2.74068 -1.7037,8.27988 -2.606,12.30936 l -1.6402,7.32628 -2.474,4.88218 -2.4739,4.88218 -0.8636,0 -0.8636,0 -0.6009,-2.24238 c -0.3307,-1.23331 -0.6071,-4.61125 -0.6147,-7.50658 l -0.014,-5.26421 -1.3467,-3.22303 -1.3466,-3.22303 -0.7349,-12.90005 -0.7348,-12.90004 -4.2705,-12.49745 -4.2704,-12.49745 -4.2917,-8.36854 -4.2918,-8.36851 -3.5806,-3.76414 -3.5808,-3.76413 -2.7611,-0.69302 -2.7612,-0.69301 -4.365,1.66701 c -2.4008,0.91685 -7.2024,3.53962 -10.6703,5.82834 l -6.3054,4.16134 -9.2884,9.41511 -9.2886,9.41511 -7.3419,11.03646 -7.3421,11.03644 -6.9664,14.45085 c -7.4813,15.51907 -12.4924,28.34899 -16.5743,42.43442 l -2.5591,8.83135 -0.6173,7.50439 -0.617,7.50441 -2.3329,2.80687 -2.3327,2.80688 1.4665,2.83594 c 0.8066,1.55977 2.7443,3.88447 4.3058,5.166 l 2.8393,2.33006 2.6696,4.67542 2.6694,4.67541 4.7263,4.83958 4.7261,4.83959 4.8288,2.32999 4.8287,2.33001 11.1171,-0.52228 11.117,-0.52227 9.6509,-3.12632 c 5.308,-1.71948 12.2295,-4.26675 15.3813,-5.6606 l 5.7304,-2.53425 1.7709,0.46307 1.7707,0.46307 2.8623,-2.73526 2.8622,-2.73528 7.0276,-2.68543 7.0278,-2.68545 1.8573,-2.05229 c 1.0216,-1.12876 3.0285,-2.65794 4.46,-3.39817 l 2.6026,-1.34589 1.1823,-2.78767 1.1823,-2.78769 5.6408,-3.42659 c 3.1025,-1.88461 7.3257,-4.94877 9.3851,-6.80921 l 3.7441,-3.38262 3.9554,-6.26296 3.9553,-6.26295 1.4907,-0.57198 1.4906,-0.57198 1.2196,1.46965 1.2197,1.46966 -1.1115,2.20839 c -0.6113,1.21462 -2.213,6.77716 -3.5593,12.36119 l -2.4478,10.15279 -4.8101,8.78281 -4.8102,8.78278 -6.6612,6.66595 -6.6609,6.66596 -2.8594,1.47858 -2.8593,1.47858 -1.9213,-0.17165 -1.9214,-0.17164 -2.7726,5.48135 -2.7726,5.48136 -10.7038,6.66903 -10.7035,6.66903 -8.9695,2.9786 -8.9696,2.97861 -7.7958,1.06593 c -8.5377,1.16732 -13.1729,1.18294 -21.8225,0.0736 z m -939.94651,-17.33542 -3.84964,-1.44675 -2.96873,-2.81949 -2.96876,-2.81949 -1.95697,-3.80544 -1.95698,-3.80545 -0.55951,-4.72419 -0.55951,-4.72419 2.37722,-2.76368 2.37722,-2.76369 6.24494,-0.73633 6.24493,-0.73634 1.69647,-1.69647 1.69647,-1.69646 0.51116,-9.18973 0.51118,-9.18974 2.98982,-0.50921 2.98983,-0.50923 0.30933,-2.67352 0.30934,-2.67355 -2.80087,-1.78346 c -1.54046,-0.9809 -3.13034,-2.24228 -3.53305,-2.80307 l -0.73219,-1.01964 -0.0153,-28.6838 -0.0153,-28.68382 1.24578,-0.38379 c 0.68516,-0.21109 2.4296,-0.64162 3.87652,-0.95674 l 2.63074,-0.57294 0.63293,-1.64939 0.63293,-1.6494 -1.27046,-1.70093 c -0.69875,-0.93551 -2.78013,-3.67285 -4.62529,-6.08294 l -3.35481,-4.382 0.80565,-15.94576 c 0.44311,-8.77017 0.83159,-20.2831 0.86329,-25.58427 l 0.0576,-9.63851 -2.40653,-2.55977 -2.40651,-2.55978 -5.56636,-2.07552 -5.56636,-2.07551 -2.16182,-2.01917 -2.16183,-2.01917 -2.12236,-4.93355 -2.12237,-4.93357 -0.16326,-5.89049 -0.16328,-5.89051 2.33413,-2.48456 2.33413,-2.48457 8.5913,-3.14042 8.59129,-3.14044 15.44746,-2.8823 15.44746,-2.88231 17.93898,0.0212 17.93898,0.0212 9.58338,0.93262 9.58336,0.93261 8.18963,2.98886 c 4.50429,1.64386 10.96252,4.53953 14.35162,6.43481 3.38909,1.8953 8.19285,5.23362 10.67502,7.41852 l 4.51303,3.97253 6.32232,8.81566 6.32231,8.81568 4.77618,9.9661 4.77619,9.9661 1.67391,6.47795 1.67394,6.47798 0.0895,7.47458 0.0895,7.47456 -1.29089,5.48136 -1.29089,5.48135 -3.89616,7.97289 -3.89619,7.97288 -5.72623,6.65343 c -3.14942,3.65937 -7.96859,8.64457 -10.70927,11.07821 -2.74068,2.43364 -8.4957,6.94425 -12.78892,10.02359 l -7.80588,5.59879 -12.12632,5.86707 c -15.28767,7.39661 -33.12714,14.53869 -41.52634,16.62519 -3.56288,0.88508 -8.13956,2.03571 -10.1704,2.55696 l -3.69246,0.94774 -1.53974,1.53974 -1.53977,1.53978 0,12.93004 0,12.93006 2.28598,2.28598 2.28599,2.28598 4.06254,0.64962 4.06257,0.64963 1.24805,1.50384 1.24808,1.50384 5.11016,0.0144 5.11019,0.0145 4.30179,1.49831 4.30179,1.49831 0.92311,-0.57052 c 0.86929,-0.53724 21.84846,-1.6528 28.34449,-1.5072 1.64441,0.0369 4.55949,0.0735 6.47797,0.0812 1.91847,0.008 4.09923,0.23323 4.84614,0.50093 l 1.35801,0.48673 -1.23088,1.48313 -1.23089,1.48312 -1.55653,0 c -0.85611,0 -3.60416,0.95276 -6.1068,2.11727 -2.50261,1.16449 -7.24108,3.36789 -10.5299,4.89644 -3.28881,1.52853 -8.67051,3.53872 -11.95932,4.46706 -3.28882,0.92834 -7.45243,2.31273 -9.25246,3.07644 l -3.27282,1.38857 -3.73088,0 -3.73088,0 -2.17957,1.52663 c -3.25842,2.28229 -9.62973,4.34511 -20.18936,6.53666 l -9.46779,1.96494 -11.95931,0.49788 -11.95934,0.49786 -3.84964,-1.44672 z m 74.4742,-110.92213 8.83472,-3.49119 4.313,0.64677 4.31303,0.64678 1.59773,-2.43846 1.59776,-2.43846 -0.60023,-2.39151 -0.60024,-2.3915 1.96677,-1.7799 1.96677,-1.7799 2.13984,1.1452 2.13981,1.14522 1.51712,-1.25911 1.51712,-1.2591 -0.55448,-2.77247 -0.55451,-2.77248 4.97826,-5.68891 c 6.21899,-7.10681 11.23436,-14.61898 14.70399,-22.02412 l 2.68075,-5.72146 6.5e-4,-8.96949 6.4e-4,-8.9695 -2.65139,-5.6559 -2.65139,-5.6559 -4.07824,-4.42439 -4.07825,-4.42437 -5.81106,-2.60784 -5.81107,-2.60785 -7.64759,-1.13745 -7.6476,-1.13743 -9.71,1.1783 c -5.34051,0.64806 -10.45809,1.3943 -11.37243,1.65833 l -1.66242,0.48005 -3.4522,-3.03108 -3.4522,-3.03106 -2.07574,0 -2.07575,0 -1.03167,1.9277 c -0.56743,1.06023 -1.03167,3.00323 -1.03167,4.31776 l 0,2.39007 -3.65916,2.40935 c -2.01255,1.32514 -4.53792,3.60407 -5.61194,5.0643 l -1.95279,2.65494 -0.82017,15.78234 -0.82017,15.78234 -0.0458,28.46206 -0.0458,28.46205 1.24576,1.57077 c 0.68517,0.86391 1.91848,1.77262 2.74069,2.01936 l 1.4949,0.44862 11.46103,-2.42015 11.46101,-2.42016 8.83472,-3.49117 z m 93.81612,108.62256 c -1.64439,-0.21809 -5.37862,-1.07035 -8.29825,-1.89389 l -5.30843,-1.49735 -4.20255,-4.20256 -4.20255,-4.20255 -4.37764,-11.44405 -4.37762,-11.44406 -0.41593,-13.41515 -0.41592,-13.41515 1.18366,-7.33757 1.18368,-7.33757 2.40001,-7.05634 c 1.32001,-3.88098 4.00881,-9.98316 5.9751,-13.56038 4.2817,-7.78959 11.10042,-16.85141 17.59394,-23.38166 l 4.75154,-4.77843 8.26026,-3.96354 8.26027,-3.96356 5.0813,-0.60179 5.0813,-0.60181 5.17027,2.81401 5.17024,2.814 5.29203,5.08479 5.29203,5.08479 2.4853,4.93311 2.4853,4.93311 1.12058,5.28125 1.12057,5.28126 -0.006,12.65772 -0.006,12.65773 -1.0405,3.74671 -1.04049,3.74671 -2.19293,1.42296 -2.19293,1.42295 -6.97627,1.1407 c -6.99453,1.14367 -41.35448,9.67757 -48.8339,12.12878 l -3.98644,1.30643 -1.7371,3.55092 -1.73712,3.55092 1.68985,4.42196 c 0.92942,2.43208 2.73609,6.12001 4.01479,8.19538 l 2.32493,3.77339 3.20367,2.02049 3.20369,2.02051 6.06903,-0.43412 6.06906,-0.43411 6.38858,-2.81752 c 3.51373,-1.54963 11.76775,-6.03568 18.34228,-9.96895 l 11.95371,-7.15143 1.35785,0.52105 1.35786,0.52106 -0.53285,3.28344 c -0.29305,1.80589 -1.43694,5.32732 -2.54195,7.82541 l -2.00912,4.54194 -2.47638,0 -2.47638,0 -1.63289,1.6329 -1.63288,1.63289 0.1592,4.0976 c 0.0876,2.2537 0.11763,4.58386 0.0668,5.17813 l -0.0924,1.08049 -8.74856,4.15753 -8.74858,4.15755 -6.94804,1.47179 c -6.88132,1.45764 -9.12654,1.5797 -14.92091,0.81118 z m 9.52608,-73.54011 16.3858,-3.68506 4.15036,-1.80708 4.15036,-1.80709 1.08184,-2.02146 1.08183,-2.02143 0,-10.50976 0,-10.50976 -1.60676,-4.01569 -1.60676,-4.01568 -2.35363,-0.59074 -2.35365,-0.59072 -4.49882,2.17784 -4.4988,2.17784 -7.44643,6.95414 c -4.09555,3.82478 -8.97565,9.05695 -10.84469,11.62705 -1.86903,2.5701 -5.29881,8.33772 -7.62172,12.81692 l -4.22349,8.14401 0.70616,1.14258 0.70615,1.14258 1.20323,-0.46173 c 0.66178,-0.25395 8.57684,-2.11999 17.58902,-4.14676 z m 315.7499,71.86279 c -1.98307,-0.70862 -5.23839,-2.29762 -7.23432,-3.53111 l -3.62874,-2.24272 -2.49373,-4.25516 c -1.37158,-2.34035 -4.17059,-8.91632 -6.21995,-14.61327 l -3.72633,-10.3581 0.0927,-15.94576 0.0927,-15.94576 2.15935,-7.97288 2.15935,-7.97289 4.04078,-8.47118 4.04077,-8.47118 5.3981,-7.06312 c 2.96892,-3.88472 7.88104,-9.41133 10.91567,-12.28136 l 5.51748,-5.21826 7.5061,-3.46797 7.50587,-3.46798 4.85137,-0.57458 4.8515,-0.57458 4.3184,2.10855 4.3183,2.10854 6.1875,5.53776 6.1874,5.53774 3.2805,6.65805 3.2803,6.65805 0.3229,17.46704 0.323,17.46703 -1.0259,2.68856 -1.026,2.68854 -2.2868,1.48375 -2.2869,1.48372 -9,1.55095 c -4.9501,0.85302 -17.5074,3.81598 -27.90507,6.58436 l -18.90509,5.03341 -4.48467,2.19928 -4.4848,2.1993 0.1676,6.14968 0.16747,6.14971 2.03372,4.59751 2.0336,4.59752 3.49732,1.46126 3.49731,1.46125 7.25738,-0.0168 7.25749,-0.0168 8.40503,-3.40847 8.40511,-3.40847 1.893,1.01314 1.8932,1.01314 1.8207,-1.6477 c 1.0012,-0.90623 2.0691,-2.62376 2.373,-3.81673 l 0.5524,-2.16902 6.2698,-4.23559 6.2699,-4.23559 1.8339,0 1.8339,0 2.8507,-2.02987 c 1.5678,-1.11643 4.9257,-2.94781 7.4621,-4.06972 l 4.6113,-2.03984 0.5211,0.52103 0.521,0.52103 -1.6705,4.37405 -1.6705,4.37404 -3.8859,5.13423 c -2.1373,2.82381 -4.7809,6.88873 -5.875,9.03317 l -1.9891,3.89893 -5.0431,4.41157 -5.043,4.41158 -9.1934,4.62689 -9.1931,4.62689 -4.74281,1.24429 -4.74279,1.24429 -1.54252,-2.2023 -1.54253,-2.2023 -2.68415,0.005 -2.68416,0.005 -3.98641,2.4553 c -2.19262,1.35042 -4.65923,2.44963 -5.48143,2.44269 -0.8222,-0.007 -3.11739,-0.59243 -5.10034,-1.30106 z m 16.06296,-71.43698 c 7.39993,-1.63912 16.26185,-3.90385 19.69335,-5.03273 l 6.239,-2.05252 1.1004,-2.056 1.1004,-2.05599 0.1351,-11.56273 0.1352,-11.56272 -2.074,-3.48814 -2.0739,-3.48814 -3.4899,0.0989 -3.4901,0.0989 -6.12668,4.16057 -6.12676,4.16058 -2.36775,-0.59428 -2.36774,-0.59427 -1.63907,1.63908 -1.63919,1.63909 0.61057,2.43231 0.61045,2.4323 -3.95177,5.21934 c -2.17337,2.87064 -5.81116,8.63811 -8.0841,12.81661 l -4.13245,7.59735 0,2.2359 0,2.23592 2.24245,-0.64951 c 1.23331,-0.35724 8.29678,-1.99062 15.69649,-3.62975 z m 619.16405,72.11215 -2.2225,-0.4293 -2.0132,-2.55921 -2.013,-2.55922 0,-1.73678 0,-1.73679 -1.4075,-1.16809 -1.4074,-1.16808 -6.0398,2.54206 c -3.3217,1.39817 -9.5276,3.69366 -13.7908,5.10113 l -7.751,2.55902 -9.0495,0.56603 -9.0494,0.566 -5.2879,-1.75639 -5.2881,-1.7564 -3.845,-3.47378 -3.8451,-3.47381 -1.5007,-5.05313 -1.5005,-5.0531 0,-4.75683 0,-4.75683 2.4146,-6.65212 2.4146,-6.65212 3.73,-5.4158 3.7299,-5.41579 5.5657,-4.01806 5.5656,-4.01808 11.9592,-5.82614 11.9594,-5.82616 8.7793,-2.18901 8.7794,-2.189 2.0929,-1.69472 2.0927,-1.69473 -1.1002,-9.68576 -1.1003,-9.68575 -1.799,-3.68067 -1.799,-3.68065 -7.973,-0.28061 -7.9728,-0.28061 -7.9728,3.87559 -7.973,3.87561 -7.4746,5.54583 c -4.111,3.05021 -8.0472,6.14145 -8.7472,6.86941 -0.7,0.72797 -2.3505,2.669 -3.668,4.31342 l -2.3953,2.98982 -1.1986,-1.17911 -1.1986,-1.1791 2.6894,-6.79377 c 1.4791,-3.73657 4.1175,-9.19492 5.8631,-12.12966 l 3.1738,-5.33588 5.8541,-4.90972 c 3.2196,-2.70034 7.7191,-6.00276 9.9986,-7.33872 2.2797,-1.33595 6.1484,-3.14195 8.597,-4.01332 l 4.4521,-1.58431 7.1723,-0.0402 7.1722,-0.0402 5.3309,2.44054 5.3308,2.44054 3.6515,3.20611 3.6516,3.20612 2.4176,5.16429 2.4175,5.1643 1.1332,5.38565 1.1332,5.38563 0.9594,14.04825 c 0.5278,7.72656 0.9662,17.97242 0.9743,22.76861 l 0.015,8.72034 0.9379,0 c 0.5157,0 1.2149,-0.44847 1.5537,-0.99661 l 0.6159,-0.99661 2.0589,0 2.059,0 -0.6468,3.23898 c -0.3556,1.78144 -1.9813,6.0923 -3.6127,9.57969 l -2.9659,6.34071 0,1.88131 0,1.88134 1.0516,0 c 0.5784,0 3.6056,-1.30983 6.7273,-2.91073 8.365,-4.29011 14.6189,-7.05537 15.9562,-7.05537 l 1.1802,0 0,0.92614 c 0,0.50937 -1.825,3.67348 -4.0552,7.03136 l -4.0552,6.10524 -0.7682,4.85912 -0.7682,4.85911 -1.6146,2.46439 -1.6148,2.46437 -5.2721,2.99268 -5.2721,2.99266 -5.413,1.58805 c -2.9772,0.87343 -5.668,1.527 -5.9797,1.45234 -0.3117,-0.0746 -1.5666,-0.32891 -2.789,-0.56501 z m -35.6425,-22.68956 7.6564,-1.46487 5.6365,-2.5707 c 3.1,-1.41388 7.3203,-3.73211 9.3782,-5.15163 l 3.7415,-2.58096 1.989,-3.21806 1.9888,-3.21807 0,-4.16326 0,-4.16326 -2.4463,-2.44622 -2.4462,-2.44623 -1.917,0 -1.9169,0 -1.498,-2.24238 -1.4979,-2.24236 -1.9069,1.71326 -1.9072,1.71327 -6.7456,2.08351 -6.7457,2.08352 -3.6743,3.24773 c -2.0208,1.78623 -5.788,4.73868 -8.3714,6.561 l -4.6971,3.31333 -2.4286,3.59473 c -1.3357,1.9771 -2.7349,4.62576 -3.1093,5.88589 l -0.6807,2.29118 1.6006,2.44272 1.6006,2.44273 5.3707,0 5.3707,0 7.6561,-1.46487 z m -505.1192,18.01089 -3.6567,-3.6567 -2.4914,-4.91661 -2.4914,-4.9166 0,-2.46586 0,-2.46584 1.2408,-0.76686 1.2407,-0.76687 8.4762,-0.0394 8.4762,-0.0394 0.6,-19.93221 0.5999,-19.93219 1.2236,-5.21777 1.2236,-5.21776 -0.3287,-12.89315 -0.3287,-12.89314 -2.2071,-2.34642 -2.2072,-2.34639 0.5761,-2.20345 0.5763,-2.20347 -1.6753,-0.64283 -1.6752,-0.64285 -2.1751,1.14463 -2.1751,1.14462 -4.9831,-1.90578 -4.983,-1.90578 -0.3394,-1.68685 -0.3393,-1.68685 2.2124,-2.35506 2.2124,-2.35506 8.5913,-3.15663 8.5913,-3.15662 5.5439,-0.11772 5.5438,-0.11771 2.7614,1.80939 2.7615,1.80938 1.4117,3.37861 1.4117,3.37861 0,5.01506 0,5.01506 1.2457,-5.7e-4 1.2458,-5.4e-4 5.6996,-6.37352 5.6995,-6.37353 4.3321,-2.0971 4.3321,-2.09711 4.5869,0 c 2.5227,0 5.3305,0.28539 6.2396,0.63422 l 1.6528,0.63423 0.8955,2.3556 0.8957,2.35561 2.828,0 2.828,0 2.5546,2.74067 2.5547,2.74068 4.1098,8.5062 4.1097,8.50622 -0.057,1.95819 c -0.031,1.07701 -0.8571,5.02525 -1.8344,8.77386 l -1.7767,6.81566 -4.3946,1.96342 -4.3946,1.96345 -2.6479,2.5303 -2.6477,2.53032 -5.9495,-2.66991 -5.9493,-2.66991 -1.0822,-2.37508 -1.082,-2.3751 0.8257,-0.51039 0.8259,-0.51041 1.7825,1.96973 1.7826,1.96973 2.645,0 2.6448,0 1.6323,-1.24577 1.6322,-1.24577 1.5336,-4.48474 c 0.8434,-2.46661 1.54,-5.28995 1.548,-6.27411 l 0.015,-1.78937 -2.4916,-2.49153 c -1.3703,-1.37034 -2.4915,-2.84143 -2.4915,-3.26911 0,-0.42767 -1.0379,-1.75271 -2.3065,-2.94454 l -2.3067,-2.16701 -5.4446,0 -5.4444,0 -2.2369,1.5668 -2.2369,1.56678 -2.8292,5.65863 c -1.556,3.11224 -3.5523,7.901 -4.4361,10.64169 -0.8838,2.74066 -2.753,11.70048 -4.1537,19.91067 l -2.547,14.9276 -0.1,7.72386 -0.1,7.72384 1.7077,2.60617 1.7075,2.60616 4.283,1.89459 4.283,1.89459 0.5422,2.07319 0.5422,2.07319 2.0441,-1.09395 2.0441,-1.09396 1.9547,1.22072 1.9546,1.2207 2.4762,-1.32523 2.4763,-1.32525 2.8174,0.70327 c 1.5496,0.38679 3.4903,1.28079 4.3125,1.98668 0.8222,0.70587 2.7373,1.57873 4.256,1.93968 l 2.7611,0.65628 2.0798,-1.11306 2.0798,-1.11305 0.9536,0.95369 0.9538,0.95368 -1.7077,1.70754 -1.7075,1.70756 -2.0203,-0.5283 -2.0202,-0.52832 -2.5652,1.38047 c -3.8976,2.09764 -12.0406,4.50443 -15.2398,4.50443 l -2.852,0 -4.1959,2.17185 -4.196,2.17184 -10.9626,0.73807 c -6.0295,0.40593 -15.2596,1.05912 -20.5112,1.45154 l -9.5485,0.71349 -3.6568,-3.6567 z m 578.2675,0.75426 c -1.4233,-1.56717 -3.3292,-3.95829 -4.2354,-5.31356 l -1.6479,-2.46412 0,-2.76808 0,-2.76808 1.954,-1.95396 1.9538,-1.95398 5.5195,-1.60449 5.5192,-1.6045 0.5681,-2.26374 0.5682,-2.26375 -0.3176,-35.78626 -0.3178,-35.78625 -2.0472,-3.48474 -2.0469,-3.48475 -3.4343,-2.31436 -3.4343,-2.31433 0,-1.17719 0,-1.17718 9.4678,-3.21361 c 5.2073,-1.76748 10.3648,-3.22501 11.4611,-3.23895 l 1.9932,-0.0253 2.5825,3.23895 2.5824,3.23896 1.2752,3.98644 c 0.7013,2.19254 1.6546,4.39763 2.1185,4.9002 l 0.8433,0.91377 7.2583,-7.53921 7.2584,-7.53919 4.2357,-1.13671 4.2355,-1.13671 3.7591,1.01222 3.759,1.01222 4.2288,3.10986 4.2288,3.10986 2.3788,4.13836 c 1.3085,2.27611 2.6741,5.55626 3.0347,7.28925 l 0.656,3.15085 -1.1237,6.31695 c -0.618,3.4743 -2.2551,10.06095 -3.6382,14.63699 l -2.5145,8.32009 -5.8946,6.04267 -5.8944,6.04268 -0.6123,-0.61217 -0.6121,-0.61219 1.705,-6.95775 1.7051,-6.95775 -0.5669,-10.20859 -0.5671,-10.20861 -1.006,-1.00597 -1.0059,-1.00598 -5.5342,1.74451 -5.5344,1.74452 -3.0689,4.17215 c -1.688,2.29468 -3.6885,5.61585 -4.4457,7.38039 l -1.3765,3.20824 -2.491,16.41208 -2.4909,16.41209 0,6.09188 0,6.09187 1.4579,2.81956 c 0.8021,1.55077 2.0354,3.03517 2.7408,3.29869 0.7055,0.2635 6.6642,0.1586 13.242,-0.23314 l 11.9592,-0.71224 0.9008,0.80623 0.9009,0.80624 -2.7324,3.58228 c -1.5028,1.97025 -4.1854,4.53478 -5.9613,5.69896 l -3.2291,2.11669 -2.1545,3.28675 -2.1545,3.28675 -2.6065,1.70782 -2.6064,1.70782 -9.6124,0.72121 c -5.2867,0.39667 -13.8729,1.0359 -19.0802,1.42052 l -9.4677,0.6993 -2.5879,-2.84944 z m 85.1271,1.00757 c -1.195,-1.02507 -3.3254,-3.60814 -4.7339,-5.74014 l -2.5613,-3.87635 0,-1.93082 0,-1.93081 2.7922,-2.79217 2.7922,-2.79218 4.1267,-0.69721 4.1268,-0.69719 0.9619,-1.16787 0.9621,-1.16784 0.2123,-34.88136 0.2125,-34.88135 -0.9952,-4.76982 -0.9951,-4.76981 -1.7548,-1.93916 -1.7549,-1.93913 -5.0942,-1.89767 -5.0941,-1.89767 -0.2718,-1.35947 -0.2718,-1.35948 12.636,-2.25491 12.6362,-2.25491 2.5847,1.64395 c 1.4217,0.90416 3.5779,2.81581 4.7916,4.24812 l 2.2068,2.60419 0.6449,3.23899 0.6448,3.23898 1.1349,-0.008 1.1348,-0.008 4.683,-5.87336 4.6833,-5.87336 5.4788,-2.68056 5.4789,-2.68055 3.2921,0.70922 c 1.8109,0.39008 4.6378,1.37912 6.2822,2.19788 3.8369,1.91047 8.285,6.04569 9.9701,9.26917 l 1.3208,2.5267 -1.4226,12.92075 -1.4224,12.92076 -2.9516,4.48475 c -1.6233,2.4666 -3.7187,5.94229 -4.6567,7.72373 l -1.705,3.23898 -1.6136,0 -1.6133,0 -0.096,-8.22204 -0.096,-8.22203 -1.6946,-4.21646 -1.6945,-4.21644 -3.256,-2.01236 -3.2561,-2.01235 -2.5003,0 -2.5004,0 -1.9933,4.73388 c -1.0963,2.60365 -2.6954,6.97627 -3.5535,9.71695 -1.6921,5.40493 -5.164,26.58628 -6.2288,38.00021 l -0.663,7.1053 1.1645,3.52854 c 0.6406,1.94069 1.7023,3.96783 2.3594,4.50476 l 1.1948,0.97619 5.4813,-0.9808 c 3.0148,-0.53944 8.1723,-1.10178 11.461,-1.24965 3.2888,-0.14784 6.7191,-0.58896 7.6229,-0.98023 l 1.6433,-0.7114 0.7055,1.14159 0.7056,1.14156 -6.5516,6.29861 -6.5514,6.29861 -1.5569,3.8911 -1.5569,3.8911 -3.19,1.8844 -3.1901,1.8844 -9.4877,0.70404 c -5.2181,0.38724 -13.5238,1.02752 -18.4571,1.42282 l -8.9695,0.71878 -2.1726,-1.86379 z m 113.2947,0.0845 -5.4814,-1.50526 -5.2959,-3.62571 -5.2958,-3.62572 -3.9072,-4.56866 -3.9072,-4.56868 -2.9041,-5.97965 -2.904,-5.97966 -1.0981,-5.28127 -1.0978,-5.28125 0.02,-9.16959 0.02,-9.16959 0.9691,-6.70057 0.969,-6.70057 2.1401,-6.25535 c 2.8169,-8.23335 7.3857,-17.30977 11.0609,-21.9736 l 2.9621,-3.75892 6.2507,-4.46035 c 3.4379,-2.45321 8.7014,-5.58237 11.6968,-6.9537 l 5.4461,-2.49333 7.3871,-0.60213 7.3872,-0.60215 6.9539,1.63608 6.9541,1.63608 4.1637,2.44005 4.1635,2.44005 3.0815,3.89046 3.0811,3.89045 3.4595,7.3346 c 1.9027,4.03403 4.1734,10.02545 5.0463,13.31426 l 1.587,5.97966 0.557,9.4678 0.5569,9.46779 -1.6123,8.47119 c -0.8869,4.65915 -2.0723,10.11491 -2.6344,12.12389 l -1.0218,3.6527 -3.4648,2.0442 -3.4645,2.04419 0,1.54204 c 0,0.84814 0.5532,2.42786 1.2293,3.51049 l 1.2293,1.96844 -1.9768,3.68473 c -1.0872,2.0266 -4.0669,5.97485 -6.6215,8.77389 l -4.645,5.08915 -5.3211,2.93775 -5.3214,2.93773 -12.4576,0.24164 -12.4575,0.24166 -5.4814,-1.50526 z m 23.8752,-20.6347 5.4964,-1.24576 3.8135,-3.79928 3.8135,-3.79928 1.937,-4.51921 1.9372,-4.5192 1.0983,-7.07881 1.0984,-7.07882 -0.6627,-14.0027 c -0.3647,-7.70147 -0.6444,-16.08605 -0.6218,-18.63237 l 0.041,-4.62966 -2.6919,-1.7638 c -1.4806,-0.97009 -5.0787,-3.70785 -7.9959,-6.0839 l -5.3037,-4.32011 -3.2684,0 -3.2686,0 -5.1167,1.51948 -5.1166,1.51949 -3.2102,2.70127 -3.2103,2.70126 -3.7905,5.8646 -3.7905,5.8646 -0.6081,3.61804 c -0.3345,1.98992 -0.8171,4.38296 -1.0724,5.31787 -0.2555,0.93491 -2.2345,3.84177 -4.3978,6.45971 l -3.9333,4.75985 0,1.54084 0,1.54085 1.8393,1.57493 1.8394,1.57491 0.6846,5.8253 0.6846,5.82529 4.3084,9.09501 4.3084,9.09501 2.9211,2.07994 c 3.4474,2.45482 8.4743,4.02552 13.2833,4.1505 1.9024,0.0495 5.9323,-0.47071 8.9553,-1.15588 z m 88.9607,19.60556 -5.1553,-2.56902 -2.5624,-3.04541 c -1.4095,-1.67498 -3.3973,-4.68155 -4.4175,-6.68125 l -1.8549,-3.63583 -1.0873,-5.88192 -1.0873,-5.88193 -0.07,-26.47629 -0.071,-26.47628 -0.7793,-1.99322 -0.7794,-1.99322 -7.1922,0 -7.1923,0 -3.9177,-4.197 -3.9176,-4.197 0,-2.54364 0,-2.54365 -1.154,-1.84767 -1.1536,-1.84768 0.5431,-1.41581 0.5432,-1.41581 5.8795,-3.08192 5.8795,-3.08193 5.7504,-1.28688 5.7506,-1.2869 1.1891,-2.07113 1.1891,-2.07112 -0.2556,-20.25902 -0.2557,-20.25903 -1.0592,-1.97924 -1.0592,-1.97926 1.1877,-1.4312 1.1878,-1.43122 1.99,0 1.99,0 5.8318,3.54265 5.8318,3.54265 2.0977,2.94603 2.0979,2.94603 0.5801,15.09579 0.5802,15.0958 1.8511,1.85104 1.851,1.85103 2.7254,-0.6549 c 1.4991,-0.36019 4.2953,-1.43172 6.2137,-2.3812 l 3.4882,-1.72628 7.8291,-0.71873 7.8292,-0.71873 3.6319,-1.54751 3.6318,-1.54752 5.2214,-0.10164 5.2215,-0.10165 0.4883,1.27325 0.4884,1.27328 -1.7234,1.40473 c -0.9479,0.77261 -3.8269,3.11473 -6.3979,5.20472 -2.5709,2.08997 -8.4785,7.19806 -13.128,11.3513 l -8.4535,7.55135 -8.7975,3.32692 c -4.8384,1.82981 -9.47,3.94077 -10.2922,4.69105 l -1.4949,1.36413 -0.3209,27.62201 -0.3213,27.62199 0.6461,5.26473 0.6459,5.26471 2.3127,2.68864 2.3126,2.68864 3.0634,-1.4754 3.0631,-1.47538 11.3439,-11.09818 c 6.239,-6.104 12.316,-11.61855 13.5045,-12.25457 l 2.1606,-1.15638 0.8508,0.52583 0.8509,0.52583 -0.8056,4.25416 c -0.4433,2.33978 -1.5219,5.9546 -2.3972,8.03292 l -1.5913,3.77878 -3.093,2.76363 -3.093,2.76364 1.1533,2.15517 1.1535,2.15517 -1.565,3.76005 -1.5651,3.76005 -4.1882,4.35949 c -2.3037,2.39773 -6.1824,5.64917 -8.6193,7.22542 l -4.4308,2.86593 -5.5887,0 -5.5888,0 -5.1555,-2.56901 z"
       id="path4376"
       inkscape:connector-curvature="0" />
  </g>
</svg>
