<?xml version="1.0" encoding="UTF-8" standalone="no"?>
<!-- Created with Inkscape (http://www.inkscape.org/) -->

<svg
   xmlns:dc="http://purl.org/dc/elements/1.1/"
   xmlns:cc="http://creativecommons.org/ns#"
   xmlns:rdf="http://www.w3.org/1999/02/22-rdf-syntax-ns#"
   xmlns:svg="http://www.w3.org/2000/svg"
   xmlns="http://www.w3.org/2000/svg"
   xmlns:xlink="http://www.w3.org/1999/xlink"
   xmlns:sodipodi="http://sodipodi.sourceforge.net/DTD/sodipodi-0.dtd"
   xmlns:inkscape="http://www.inkscape.org/namespaces/inkscape"
   id="svg2"
   version="1.1"
   inkscape:version="0.91 r"
   width="2481"
   height="3503"
   sodipodi:docname="Pepper-and-Carrot_by-David-Revoy_E01P01.svg"
   enable-background="new">
  <metadata
     id="metadata8">
    <rdf:RDF>
      <cc:Work
         rdf:about="">
        <dc:format>image/svg+xml</dc:format>
        <dc:type
           rdf:resource="http://purl.org/dc/dcmitype/StillImage" />
        <dc:title />
      </cc:Work>
    </rdf:RDF>
  </metadata>
  <defs
     id="defs6">
    <filter
       inkscape:collect="always"
       id="filter4386">
      <feBlend
         inkscape:collect="always"
         mode="screen"
         in2="BackgroundImage"
         id="feBlend4388" />
    </filter>
  </defs>
  <sodipodi:namedview
     pagecolor="#ffffff"
     bordercolor="#666666"
     borderopacity="1"
     objecttolerance="10"
     gridtolerance="10"
     guidetolerance="10"
     inkscape:pageopacity="0"
     inkscape:pageshadow="2"
     inkscape:window-width="1366"
     inkscape:window-height="705"
     id="namedview4"
     showgrid="false"
     inkscape:zoom="0.25606623"
     inkscape:cx="1240.5"
     inkscape:cy="1751.5"
     inkscape:window-x="-8"
     inkscape:window-y="-8"
     inkscape:window-maximized="1"
     inkscape:current-layer="layer3"
     inkscape:snap-global="false">
    <inkscape:grid
       type="xygrid"
       id="grid4282" />
  </sodipodi:namedview>
  <g
     inkscape:groupmode="layer"
     id="layer1"
     inkscape:label="artwork"
     style="display:inline"
     sodipodi:insensitive="true">
    <image
       sodipodi:absref="/home/deevad/peppercarrot/webcomics/New/lang/si/../gfx_Pepper-and-Carrot_by-David-Revoy_E01P01.png"
       xlink:href="../gfx_Pepper-and-Carrot_by-David-Revoy_E01P01.png"
       width="2481"
       height="3503"
       id="image3084"
       x="0"
       y="0" />
  </g>
  <g
     inkscape:groupmode="layer"
     id="layer2"
     inkscape:label="speechbubble"
     style="opacity:0.70232556;display:inline;filter:url(#filter4386)">
    <path
       style="fill:#dfffd4;fill-opacity:1;stroke:none"
       d="m 1117.3105,286.10613 c 0,-40.5144 25.0236,-96.5196 147.7584,-98.9028 122.7348,-2.3832 165.6324,50.0472 166.824,92.9448 1.1916,42.8976 -58.3884,88.1784 -151.3332,84.6036 -92.9448,-3.5748 -160.866,-17.874 -163.2492,-78.6456 z"
       id="path3071"
       inkscape:connector-curvature="0"
       sodipodi:nodetypes="csssc" />
    <path
       style="color:#000000;display:inline;overflow:visible;visibility:visible;fill:#dfffd4;fill-opacity:1;fill-rule:nonzero;stroke:none;stroke-width:1px;marker:none;enable-background:accumulate"
       d="m 1303.2001,342.11133 c 0,0 16.2155,4.7664 29.7286,17.874 13.5129,13.1076 67.565,39.3228 55.4033,103.6691 20.2695,-71.4959 -20.2695,-95.3279 -28.3774,-107.2439 -8.1078,-11.916 -22.9721,-32.1732 -22.9721,-32.1732 z"
       id="path3073"
       inkscape:connector-curvature="0"
       sodipodi:nodetypes="cscscc" />
    <path
       style="color:#000000;display:inline;overflow:visible;visibility:visible;fill:#dfffd4;fill-opacity:1;fill-rule:nonzero;stroke:none;stroke-width:1px;marker:none;enable-background:accumulate"
       d="m 1126.4253,1446.627 c -1.3704,-64.406 97.2941,-146.6265 165.8111,-138.4044 68.517,8.222 138.4044,65.7763 150.7374,108.2569 12.3331,42.4805 54.8136,121.9602 -149.367,138.4043 -71.2577,4.111 -172.6629,-43.8509 -167.1815,-108.2568 z"
       id="path3097"
       inkscape:connector-curvature="0"
       sodipodi:nodetypes="csscc" />
    <path
       style="color:#000000;display:inline;overflow:visible;visibility:visible;fill:#dfffd4;fill-opacity:1;fill-rule:nonzero;stroke:none;stroke-width:1px;marker:none;enable-background:accumulate"
       d="m 1388.1602,1506.9219 c 15.0738,38.3695 24.6661,42.4806 49.3323,43.8509 9.5924,-1.3703 20.555,6.8517 17.8144,21.9254 16.4441,-23.2957 -6.813,-31.5255 -17.7758,-37.0068 -10.9627,-5.4815 -16.5524,-6.1473 -22.0337,-33.5541 -5.4814,-27.4068 -27.3372,4.7846 -27.3372,4.7846 z"
       id="path3105"
       inkscape:connector-curvature="0"
       sodipodi:nodetypes="cccssc" />
  </g>
  <g
     inkscape:groupmode="layer"
     id="layer3"
     inkscape:label="txt"
     style="display:inline">
    <flowRoot
       xml:space="preserve"
       id="flowRoot3063-8"
       style="color:#000000;font-style:normal;font-variant:normal;font-weight:normal;font-stretch:normal;font-size:72px;line-height:125%;font-family:Arial;-inkscape-font-specification:Arial;letter-spacing:0px;word-spacing:0px;display:inline;overflow:visible;visibility:visible;fill:#3c4036;fill-opacity:1;fill-rule:nonzero;stroke:none;marker:none;enable-background:accumulate"
       transform="matrix(0.62578859,0,0,0.65468471,1035.8314,-47.800572)"><flowRegion
         id="flowRegion3065-8"><rect
           id="rect3067-6"
           width="569.74268"
           height="228.46191"
           x="92.642677"
           y="425.30325"
           style="color:#000000;font-size:72px;display:inline;overflow:visible;visibility:visible;fill:#3c4036;fill-opacity:1;fill-rule:nonzero;stroke:none;marker:none;enable-background:accumulate" /></flowRegion><flowPara
         style="color:#000000;font-style:normal;font-variant:normal;font-weight:bold;font-stretch:normal;font-size:54.07581329px;font-family:BhashitaComplex;-inkscape-font-specification:'BhashitaComplex Bold';text-align:center;text-anchor:middle;display:inline;overflow:visible;visibility:visible;fill:#3c4036;fill-opacity:1;fill-rule:nonzero;stroke:none;marker:none;enable-background:accumulate"
         id="flowPara3188">...ඊළඟට අන්තිම </flowPara><flowPara
         style="color:#000000;font-style:normal;font-variant:normal;font-weight:bold;font-stretch:normal;font-size:54.07581329px;font-family:BhashitaComplex;-inkscape-font-specification:'BhashitaComplex Bold';text-align:center;text-anchor:middle;display:inline;overflow:visible;visibility:visible;fill:#3c4036;fill-opacity:1;fill-rule:nonzero;stroke:none;marker:none;enable-background:accumulate"
         id="flowPara3582">චුට්ට</flowPara></flowRoot>    <flowRoot
       xml:space="preserve"
       id="flowRoot3063-8-6"
       style="color:#000000;font-style:normal;font-variant:normal;font-weight:normal;font-stretch:normal;font-size:72px;line-height:125%;font-family:Arial;-inkscape-font-specification:Arial;letter-spacing:0px;word-spacing:0px;display:inline;overflow:visible;visibility:visible;fill:#3c4036;fill-opacity:1;fill-rule:nonzero;stroke:none;marker:none;enable-background:accumulate"
       transform="matrix(0.62578859,0,0,0.65468471,1064.3753,1080.196)"><flowRegion
         id="flowRegion3065-8-1"><rect
           id="rect3067-6-3"
           width="526.9325"
           height="288.6394"
           x="92.642677"
           y="425.30325"
           style="color:#000000;font-size:72px;display:inline;overflow:visible;visibility:visible;fill:#3c4036;fill-opacity:1;fill-rule:nonzero;stroke:none;marker:none;enable-background:accumulate" /></flowRegion><flowPara
         style="color:#000000;font-style:normal;font-variant:normal;font-weight:bold;font-stretch:normal;font-size:55.46237183px;font-family:BhashitaComplex;-inkscape-font-specification:'BhashitaComplex Bold';text-align:center;text-anchor:middle;display:inline;overflow:visible;visibility:visible;fill:#3c4036;fill-opacity:1;fill-rule:nonzero;stroke:none;marker:none;enable-background:accumulate"
         id="flowPara3224">...ම්ම්ම්</flowPara><flowPara
         style="color:#000000;font-style:normal;font-variant:normal;font-weight:bold;font-stretch:normal;font-size:55.46237183px;font-family:BhashitaComplex;-inkscape-font-specification:'BhashitaComplex Bold';text-align:center;text-anchor:middle;display:inline;overflow:visible;visibility:visible;fill:#3c4036;fill-opacity:1;fill-rule:nonzero;stroke:none;marker:none;enable-background:accumulate"
         id="flowPara3593">පේනවිදියට සැර </flowPara><flowPara
         style="color:#000000;font-style:normal;font-variant:normal;font-weight:bold;font-stretch:normal;font-size:55.46237183px;font-family:BhashitaComplex;-inkscape-font-specification:'BhashitaComplex Bold';text-align:center;text-anchor:middle;display:inline;overflow:visible;visibility:visible;fill:#3c4036;fill-opacity:1;fill-rule:nonzero;stroke:none;marker:none;enable-background:accumulate"
         id="flowPara3591">මදි වගේ</flowPara></flowRoot>    <path
       style="fill:#d0a273;fill-opacity:1"
       d="m 1073.188,685.58736 c -4.3462,-0.9881 -5.9706,-4.9539 -4.8821,-11.9189 0.6267,-4.0097 1.8969,-7.4684 4.6721,-12.7222 l 1.528,-2.8928 -0.8714,-0.995 c -0.9957,-1.1366 -2.1031,-2.0338 -2.5076,-2.0315 -0.1519,0 -0.563,0.3503 -0.9136,0.7765 -0.569,0.692 -0.596,0.7994 -0.2513,1.0026 0.2124,0.1251 0.4944,0.064 0.6268,-0.1356 0.7897,-1.1914 2.0079,0.3938 1.7704,2.3036 -0.2427,1.9516 -2.1075,3.7131 -3.2536,3.0735 -1.4644,-0.8171 -1.7624,-5.9437 -0.4875,-8.3883 0.6019,-1.1544 2.041,-2.1943 3.2867,-2.375 1.0374,-0.1505 1.1149,-0.1014 2.4992,1.5804 1.2424,1.5095 1.5603,1.7431 2.4394,1.7933 1.1758,0.067 1.6617,0.6277 1.4753,1.7024 -0.071,0.4116 -1.4004,2.7674 -2.9533,5.2353 -1.553,2.4678 -3.0331,5.0001 -3.2894,5.6272 -0.453,1.1089 -1.119,4.3664 -1.119,5.4728 0,0.9742 0.9939,2.3686 2.4803,3.4799 1.3071,0.9774 1.6528,1.092 3.5004,1.1612 2.8534,0.1068 4.4958,-0.6437 7.209,-3.2943 2.8292,-2.7641 4.2668,-5.9673 4.3136,-9.6122 0.024,-1.8097 -0.045,-2.1258 -0.8245,-3.8196 -1.331,-2.8919 -1.4502,-2.915 -3.6502,-0.7075 -0.4885,0.4902 -0.9803,0.8912 -1.0928,0.8912 -0.1125,0 -0.2596,0.2164 -0.3269,0.4808 -0.067,0.2644 -0.051,0.4807 0.036,0.4807 0.087,0 0.4666,0.4246 0.8432,0.9435 0.6356,0.8757 0.6847,1.0914 0.6847,3.0056 0,2.3923 -0.3989,4.054 -1.2882,5.3653 -1.6681,2.4598 -5.8932,3.8187 -7.3624,2.3679 -0.6989,-0.6901 -0.9711,-1.6823 -0.9711,-3.5384 0,-3.636 1.7128,-6.7128 5.6903,-10.2219 l 2.5371,-2.2382 -1.1394,-0.3817 c -1.8786,-0.6292 -1.9595,-1.4747 -0.3602,-3.7627 0.6285,-0.8993 1.4467,-2.3222 1.8181,-3.162 0.5874,-1.3278 0.6356,-1.5869 0.3699,-1.9876 -0.2538,-0.3828 -0.3323,-3.319 -0.4639,-17.34 -0.1648,-17.571 -0.1236,-19.5898 0.4243,-20.8513 0.426,-0.9807 0.8174,-0.9615 1.4524,0.072 0.4849,0.7887 0.649,0.8406 3.1425,0.9941 1.4471,0.089 2.7815,0.2829 2.9654,0.4308 0.8045,0.6471 1.0858,5.0017 0.5116,7.9187 -0.8012,4.0692 -4.9425,6.4853 -5.1635,3.0124 -0.088,-1.3748 0.7979,-3.4753 1.5916,-3.7758 0.4402,-0.1667 0.6549,-0.05 0.9623,0.5225 0.3847,0.7167 0.404,0.7203 0.6978,0.1285 0.4895,-0.9864 0.6196,-2.3805 0.2711,-2.9063 -0.2685,-0.4049 -0.4131,-0.3903 -1.1375,0.1156 -0.4565,0.3187 -0.8618,0.6877 -0.9008,0.8199 -0.1161,0.3942 -1.6273,0.2723 -1.9868,-0.1602 -0.1831,-0.2204 -0.4375,-0.6891 -0.5653,-1.0417 -0.171,-0.4715 -0.2329,3.384 -0.2342,14.5829 0,14.478 0.016,15.1898 0.3654,14.5301 0.2019,-0.3817 0.7156,-0.9837 1.1416,-1.3378 2.1297,-1.771 3.3266,-1.3733 3.9154,1.301 0.5954,2.7044 -0.041,6.1408 -1.6695,9.0237 l -0.7021,1.2422 1.1972,1.8058 c 1.6313,2.4609 1.9921,4.1164 1.8511,8.4929 -0.1186,3.6804 -0.6956,6.4208 -1.954,9.2807 -0.7394,1.6803 -2.0931,3.9441 -3.1001,5.1844 -0.8118,0.9998 -2.7309,2.7188 -3.0353,2.7188 -0.1502,0 -0.3677,0.1428 -0.4834,0.3172 -0.2281,0.3442 -3.4081,1.8515 -4.4427,2.106 -1.0103,0.2484 -4.1868,0.4142 -4.8868,0.2551 z m 7.6808,-15.6504 c 0.8287,-0.6241 1.3492,-1.7783 1.3492,-2.9921 0,-0.9973 -0.2978,-1.4901 -1.5526,-2.5699 -0.94,-0.8089 -1.0815,-0.8371 -1.46,-0.2908 -0.1544,0.2229 -0.6899,0.8874 -1.1901,1.4768 -1.5565,1.8341 -1.9615,4.1724 -0.8371,4.8328 0.6874,0.4038 2.9139,0.1283 3.6906,-0.4568 z m 6.0067,-17.0586 c 0.3681,-0.6701 0.9224,-1.9944 1.2316,-2.9429 0.5206,-1.5975 0.5386,-1.7867 0.2441,-2.5641 -0.4018,-1.0606 -0.9138,-0.9527 -1.8453,0.3888 -0.6443,0.9279 -2.5882,5.3714 -2.5882,5.9163 0,0.127 0.5149,0.2734 1.1442,0.3255 1.0963,0.091 1.1721,0.044 1.8136,-1.1236 z m 7.7232,23.1637 c -1.6266,-2.0645 -1.3659,-6.1638 0.5826,-9.1623 2.2033,-3.3909 5.0965,-1.8519 5.0965,2.7109 0,2.3117 -0.822,4.5042 -2.4616,6.5654 -0.2005,0.2522 -0.8565,0.52 -1.4578,0.5952 -0.945,0.1182 -1.1836,0.022 -1.7597,-0.7092 z m 10.9785,-3.693 c -0.9954,-0.4556 -1.4165,-0.9461 -1.7659,-2.0571 -0.7138,-2.2689 -0.2018,-5.5099 1.2229,-7.7416 1.1266,-1.7646 2.3284,-2.3654 3.4469,-1.7232 2.5853,1.4843 2.265,7.2009 -0.6008,10.7266 -0.2291,0.2818 -1.6643,1.1667 -1.7382,1.0717 -0.011,-0.016 -0.266,-0.1396 -0.5649,-0.2764 z m 9.8404,-4.4956 c -1.42,-0.5084 -2.0554,-2.1075 -1.9243,-4.8421 0.2126,-4.4332 3.1086,-8.0272 5.2234,-6.4822 1.0245,0.7485 1.4166,1.8886 1.4119,4.105 -0.01,2.2116 -0.4994,3.9023 -1.613,5.5124 -0.5767,0.834 -2.1003,2.1226 -2.3488,1.9866 -0.033,-0.018 -0.3702,-0.1439 -0.7492,-0.2797 z"
       id="path3563"
       inkscape:connector-curvature="0" />
    <path
       style="display:inline;fill:#d0a273;fill-opacity:1"
       d="m 1132.0735,651.56896 c -4.3462,-0.9881 -5.9706,-4.954 -4.8821,-11.9189 0.6267,-4.0098 1.8969,-7.4685 4.672,-12.7223 l 1.5281,-2.8928 -0.8715,-0.995 c -0.9956,-1.1365 -2.103,-2.0338 -2.5075,-2.0314 -0.1519,0 -0.5631,0.3503 -0.9136,0.7765 -0.5691,0.692 -0.596,0.7994 -0.2513,1.0025 0.2124,0.1251 0.4944,0.064 0.6268,-0.1355 0.7897,-1.1914 2.0079,0.3938 1.7704,2.3036 -0.2427,1.9516 -2.1075,3.7131 -3.2536,3.0735 -1.4644,-0.8171 -1.7624,-5.9437 -0.4875,-8.3884 0.6019,-1.1544 2.041,-2.1942 3.2867,-2.3749 1.0374,-0.1505 1.1149,-0.1015 2.4991,1.5804 1.2425,1.5094 1.5604,1.7431 2.4395,1.7933 1.1758,0.067 1.6617,0.6277 1.4753,1.7024 -0.071,0.4115 -1.4004,2.7674 -2.9533,5.2353 -1.553,2.4678 -3.0332,5.0001 -3.2894,5.6272 -0.453,1.1088 -1.119,4.3664 -1.119,5.4728 0,0.9742 0.9939,2.3685 2.4803,3.4799 1.3071,0.9773 1.6528,1.092 3.5003,1.1611 2.8535,0.1069 4.4959,-0.6436 7.209,-3.2942 2.8293,-2.7642 4.2668,-5.9674 4.3137,-9.6122 0.023,-1.8097 -0.045,-2.1258 -0.8245,-3.8196 -1.3311,-2.892 -1.4502,-2.915 -3.6503,-0.7075 -0.4884,0.4902 -0.9802,0.8912 -1.0927,0.8912 -0.1125,0 -0.2596,0.2163 -0.3269,0.4808 -0.068,0.2644 -0.051,0.4807 0.036,0.4807 0.087,0 0.4665,0.4245 0.8432,0.9434 0.6356,0.8758 0.6847,1.0915 0.6847,3.0057 0,2.3923 -0.3989,4.054 -1.2882,5.3653 -1.6681,2.4598 -5.8932,3.8186 -7.3624,2.3678 -0.6989,-0.69 -0.9712,-1.6822 -0.9712,-3.5383 0,-3.636 1.7128,-6.7128 5.6904,-10.2219 l 2.5371,-2.2383 -1.1395,-0.3817 c -1.8785,-0.6292 -1.9594,-1.4746 -0.3601,-3.7627 0.6285,-0.8993 1.4467,-2.3222 1.8181,-3.1619 0.5873,-1.3278 0.6355,-1.5869 0.3699,-1.9876 -0.2538,-0.3829 -0.3323,-3.319 -0.4639,-17.3401 -0.1648,-17.5709 -0.1237,-19.5897 0.4242,-20.8513 0.4261,-0.9807 0.8175,-0.9615 1.4525,0.072 0.4849,0.7888 0.6489,0.8407 3.1425,0.9942 1.4471,0.089 2.7815,0.2829 2.9654,0.4308 0.8045,0.6471 1.0858,5.0017 0.5116,7.9186 -0.8012,4.0693 -4.9425,6.4853 -5.1635,3.0124 -0.087,-1.3748 0.7979,-3.4753 1.5916,-3.7758 0.4402,-0.1666 0.6549,-0.05 0.9623,0.5226 0.3847,0.7167 0.404,0.7202 0.6978,0.1284 0.4895,-0.9863 0.6196,-2.3805 0.2711,-2.9062 -0.2685,-0.405 -0.4131,-0.3903 -1.1376,0.1156 -0.4564,0.3187 -0.8617,0.6877 -0.9007,0.8199 -0.1161,0.3942 -1.6274,0.2723 -1.9868,-0.1603 -0.1831,-0.2203 -0.4375,-0.6891 -0.5653,-1.0416 -0.171,-0.4715 -0.2329,3.384 -0.2342,14.5828 0,14.4781 0.016,15.1898 0.3654,14.5301 0.2019,-0.3816 0.7156,-0.9836 1.1416,-1.3378 2.1297,-1.7709 3.3265,-1.3733 3.9153,1.3011 0.5955,2.7043 -0.04,6.1407 -1.6694,9.0237 l -0.7021,1.2422 1.1971,1.8057 c 1.6314,2.461 1.9922,4.1165 1.8512,8.493 -0.1186,3.6803 -0.6956,6.4208 -1.954,9.2807 -0.7394,1.6803 -2.0931,3.9441 -3.1001,5.1844 -0.8118,0.9998 -2.7309,2.7187 -3.0353,2.7187 -0.1502,0 -0.3677,0.1428 -0.4834,0.3173 -0.2281,0.3442 -3.4081,1.8515 -4.4428,2.106 -1.0102,0.2484 -4.1867,0.4142 -4.8867,0.2551 z m 7.6808,-15.6504 c 0.8287,-0.6241 1.3491,-1.7784 1.3491,-2.9921 0,-0.9973 -0.2977,-1.4902 -1.5525,-2.5699 -0.94,-0.8089 -1.0815,-0.8371 -1.46,-0.2908 -0.1544,0.2228 -0.69,0.8874 -1.1902,1.4768 -1.5564,1.834 -1.9614,4.1723 -0.837,4.8328 0.6874,0.4038 2.9139,0.1282 3.6906,-0.4568 z m 6.0067,-17.0586 c 0.3681,-0.6701 0.9223,-1.9944 1.2315,-2.943 0.5207,-1.5974 0.5386,-1.7866 0.2441,-2.564 -0.4017,-1.0606 -0.9137,-0.9527 -1.8452,0.3888 -0.6443,0.9279 -2.5882,5.3714 -2.5882,5.9163 0,0.1269 0.5149,0.2734 1.1442,0.3254 1.0963,0.091 1.1721,0.044 1.8136,-1.1235 z m 7.7231,23.1637 c -1.6265,-2.0646 -1.3658,-6.1638 0.5827,-9.1623 2.2033,-3.3909 5.0965,-1.852 5.0965,2.7108 0,2.3117 -0.822,4.5043 -2.4616,6.5655 -0.2005,0.2522 -0.8565,0.52 -1.4578,0.5952 -0.945,0.1182 -1.1837,0.022 -1.7598,-0.7092 z m 10.9786,-3.693 c -0.9954,-0.4556 -1.4165,-0.9461 -1.766,-2.0571 -0.7137,-2.269 -0.2017,-5.51 1.223,-7.7417 1.1266,-1.7645 2.3284,-2.3653 3.4469,-1.7231 2.5853,1.4842 2.265,7.2009 -0.6008,10.7266 -0.2291,0.2818 -1.6643,1.1667 -1.7382,1.0717 -0.011,-0.016 -0.266,-0.1396 -0.5649,-0.2764 z m 9.8403,-4.4956 c -1.4199,-0.5084 -2.0553,-2.1075 -1.9242,-4.8421 0.2126,-4.4333 3.1086,-8.0272 5.2234,-6.4822 1.0245,0.7485 1.4166,1.8885 1.4118,4.1049 -0.01,2.2117 -0.4993,3.9024 -1.6129,5.5125 -0.5767,0.8339 -2.1004,2.1226 -2.3489,1.9866 -0.033,-0.018 -0.3701,-0.144 -0.7492,-0.2797 z"
       id="path3563-3"
       inkscape:connector-curvature="0" />
    <path
       style="fill:#daa761;fill-opacity:1"
       d="m 1443.4363,3043.1989 c -2.2173,-1.2544 -3.6867,-3.0481 -4.8056,-5.8664 -1.4375,-3.621 -1.8871,-7.2294 -1.6135,-12.9523 0.3952,-8.2658 1.8897,-13.5583 5.0175,-17.7688 1.1522,-1.5511 1.7379,-2.111 2.8655,-2.739 2.736,-1.5236 5.5941,-1.1411 8.046,1.0771 2.5891,2.3423 3.8071,5.7931 3.9894,11.3035 0.1878,5.6755 -1.1809,10.0338 -4.3058,13.711 -3.1159,3.6665 -6.7523,3.1076 -8.4386,-1.2971 -0.2729,-0.7127 -0.5143,-1.6595 -0.5362,-2.1042 -0.022,-0.4447 -0.055,-0.9644 -0.073,-1.1551 -0.1241,-1.3224 1.1159,-4.0792 2.4746,-5.5017 0.9277,-0.9712 0.8974,-1.1015 -0.17,-0.7314 -1.3748,0.4768 -2.4841,-0.3223 -2.8317,-2.04 -0.3642,-1.7992 -0.036,-3.267 0.7866,-3.5166 0.3323,-0.1007 0.6923,-0.2235 0.7997,-0.2726 0.1099,-0.05 0.1976,0.2012 0.2004,0.5752 0.01,1.0918 0.7713,1.2079 2.5494,0.3877 1.6722,-0.7714 4.1234,-1.6302 4.185,-1.4663 0.063,0.1686 0.2599,4.268 0.2268,4.7294 -0.018,0.2384 -0.2321,0.4644 -0.4793,0.5033 -1.3563,0.2146 -3.5019,2.1244 -4.0995,3.6487 -0.3731,0.9516 -0.4888,2.707 -0.2359,3.5779 0.2803,0.9651 1.2426,2.117 2.1275,2.5467 1.4569,0.7076 2.6233,-0.4145 3.7486,-3.6056 1.5255,-4.3263 1.4684,-9.751 -0.1475,-13.9928 -1.8893,-4.9595 -5.6895,-5.6783 -8.4463,-1.5978 -2.0834,3.0839 -3.6632,9.0327 -3.9282,14.7918 -0.1625,3.5341 -0.057,5.3377 0.4883,8.3182 0.5714,3.1255 1.7168,5.9835 3.0429,7.5924 0.7754,0.9409 1.0615,1.1237 2.2341,1.4268 1.1009,0.2847 1.513,0.2593 2.2733,-0.1407 1.4003,-0.7367 2.0791,-1.6878 4.0255,-5.6386 0.9781,-1.9857 1.884,-3.7263 2.0131,-3.8679 0.1832,-0.201 0.4268,0.1985 1.1108,1.8223 l 0.8763,2.0798 -1.2443,2.4834 c -1.2391,2.4734 -2.1034,3.7577 -3.1404,4.6663 -0.9132,0.8002 -2.4521,1.6056 -3.4876,1.8254 -0.9745,0.2067 -4.2073,-0.3081 -5.0981,-0.812 z m -19.6009,-16.978 c -2.2893,-1.5415 -4.0867,-4.6486 -4.4111,-7.6249 -0.4835,-4.4384 1.0086,-9.2854 4.6068,-14.9648 2.1411,-3.3794 3.7267,-4.6861 5.8755,-4.8421 2.1308,-0.1546 3.9189,0.6605 5.3207,2.4257 0.6116,0.7702 3.9528,6.5513 3.8592,6.6771 -0.032,0.043 -0.8637,0.5083 -1.8484,1.0342 l -1.7904,0.9562 -1.4732,-2.5682 c -1.9534,-3.4053 -2.7972,-4.3612 -4.2174,-4.777 -0.9924,-0.291 -1.1963,-0.2518 -1.9716,0.3756 -0.8931,0.7229 -2.6977,3.0525 -3.5541,4.5882 -0.2686,0.4817 -0.7624,1.6433 -1.0974,2.5816 -1.2148,3.4027 -1.0725,6.5131 0.4388,9.5868 2.0319,4.1332 4.8292,5.4544 6.4061,3.0258 0.7614,-1.1726 1.0573,-2.4514 1.1568,-5.0014 0.1446,-3.7056 -0.5713,-6.1988 -1.8812,-6.5511 -0.8689,-0.2321 -1.4189,0.913 -2.5366,5.2863 -0.1607,0.629 -0.3335,1.1326 -0.3838,1.1192 -0.05,-0.014 -0.4411,-0.9594 -0.8684,-2.102 l -0.777,-2.0775 0.6147,-1.432 c 1.3936,-3.2461 3.3755,-5.3157 5.0456,-5.2691 1.4708,0.041 3.3247,2.7586 3.9188,5.7445 0.8981,4.5139 -0.1503,9.8039 -2.5257,12.7442 -1.1781,1.4582 -2.4274,2.252 -3.6762,2.336 -1.1777,0.079 -3.069,-0.4892 -4.2305,-1.2713 z m 35.5484,9.204 c -0.8,-0.5789 -1.5306,-1.0083 -1.6234,-0.954 -0.093,0.054 0.1857,-0.292 0.6189,-0.7695 1.2697,-1.3998 3.2821,-4.284 4.4364,-6.3583 3.0155,-5.419 4.2607,-9.6261 3.7799,-12.7718 -0.2176,-1.4236 -0.5044,-2.1532 -1.1815,-3.0062 -1.3917,-1.7531 -3.0694,-0.9037 -4.1497,2.1008 l -0.4663,1.2967 -1.2379,-0.3304 c -1.0064,-0.2686 -1.232,-0.4112 -1.2067,-0.7625 0.1224,-1.7051 1.7377,-3.973 3.6285,-5.0943 2.9923,-1.775 5.4458,-0.9425 6.8546,2.3256 1.1511,2.6706 1.2704,6.6162 0.3102,10.2583 -0.9975,3.7837 -3.696,9.3511 -6.1991,12.7894 -0.9882,1.3574 -1.8669,2.4368 -1.9529,2.3984 -0.086,-0.038 -0.8108,-0.5435 -1.611,-1.1222 z m -56.118,-15.1319 c -2.3523,-1.0604 -4.3193,-3.6514 -4.5756,-6.0273 -0.089,-0.8234 -0.042,-1.2321 0.2513,-2.1996 0.2951,-0.9732 0.8266,-1.7305 2.9358,-4.1832 1.4166,-1.6471 3.1679,-3.8368 3.8918,-4.8659 1.4568,-2.0705 1.5662,-2.5954 0.8817,-4.2334 -0.3232,-0.7736 -0.4402,-0.8424 -2.6798,-1.5777 -2.0133,-0.6611 -2.3832,-0.8568 -2.6362,-1.395 -0.5238,-1.1149 -0.1381,-3.2858 0.9677,-5.4461 0.4834,-0.9445 0.4899,-0.9472 1.6023,-0.6503 0.8686,0.2319 1.0694,0.3621 0.9028,0.5859 -0.3218,0.4327 -0.3285,1.2908 -0.011,1.3853 0.1516,0.047 1.1375,0.5564 2.1905,1.1361 1.5101,0.8313 2.0573,1.2661 2.5914,2.059 0.854,1.2678 1.5206,3.8441 1.4064,5.4348 -0.1994,2.7756 -1.9482,5.352 -5.4946,8.0944 -0.7498,0.5798 -1.7066,1.495 -2.1264,2.0337 -0.7098,0.9112 -0.7536,1.0351 -0.6265,1.7742 0.2878,1.6744 2.5378,3.6152 5.4439,4.696 2.0341,0.7564 3.7551,0.7771 4.991,0.06 1.993,-1.1562 2.3064,-3.2521 1.3128,-8.7786 -0.7404,-4.1186 -0.9222,-5.6321 -0.8302,-6.9125 0.1036,-1.4436 0.7827,-3.1122 1.707,-4.1948 0.77,-0.9018 0.7852,-0.9434 0.3843,-1.0505 -0.4032,-0.1076 -0.4134,-0.1674 -0.3005,-1.7416 0.2595,-3.6128 1.7669,-12.9326 2.6397,-16.3203 0.6678,-2.5916 0.8194,-2.7615 2.7851,-3.1195 2.4126,-0.4392 2.4444,-0.4417 1.9779,-0.158 -1.0138,0.6171 -2.7958,7.5986 -4.1257,16.1633 l -0.7169,4.6172 0.5707,0.01 c 0.4433,0 0.7428,0.246 1.3421,1.0927 l 0.7715,1.0894 -1.2922,1.3494 c -1.7447,1.822 -2.275,2.804 -2.4911,4.6128 -0.1722,1.442 -0.1074,2.2548 0.6596,8.2758 0.7945,6.2368 -0.6916,9.4219 -4.7118,10.098 -2.4524,0.4123 -6.4767,-0.3041 -9.589,-1.707 z m 70.9905,18.9505 c -2.3524,-1.0604 -4.3193,-3.6514 -4.5756,-6.0271 -0.089,-0.8236 -0.043,-1.2321 0.2513,-2.1997 0.2951,-0.9732 0.8266,-1.7304 2.9358,-4.1832 1.4166,-1.6471 3.1678,-3.8368 3.8918,-4.866 1.4568,-2.0704 1.5662,-2.5954 0.8818,-4.2334 -0.3232,-0.7735 -0.4401,-0.8423 -2.6799,-1.5777 -2.0133,-0.6609 -2.3831,-0.8568 -2.636,-1.3949 -0.524,-1.115 -0.1383,-3.2859 0.9675,-5.4463 0.4835,-0.9445 0.4899,-0.9472 1.6023,-0.6502 0.8687,0.232 1.0693,0.3622 0.9029,0.5861 -0.3218,0.4326 -0.3286,1.2907 -0.011,1.3852 0.1518,0.047 1.1376,0.5565 2.1905,1.136 2.3457,1.2913 3.0625,2.2145 3.6727,4.7301 0.9674,3.9886 -0.2884,6.8071 -4.6347,10.4018 -2.4852,2.0555 -3.2083,2.8845 -3.2705,3.7498 -0.1041,1.4494 1.1816,3.0179 3.5997,4.3914 2.6398,1.4998 5.1761,1.8259 6.8183,0.8769 1.9924,-1.1514 2.3062,-3.2493 1.3126,-8.7765 -0.7405,-4.1185 -0.9223,-5.6321 -0.8303,-6.9125 0.1037,-1.4434 0.7827,-3.1123 1.7071,-4.1948 0.77,-0.9017 0.7852,-0.9434 0.3843,-1.0504 -0.4032,-0.1077 -0.4136,-0.1674 -0.3006,-1.7417 0.2596,-3.6127 1.7669,-12.9325 2.6398,-16.3202 0.6677,-2.5918 0.8194,-2.7614 2.785,-3.1194 2.4126,-0.4394 2.4444,-0.4419 1.9779,-0.158 -1.0074,0.6132 -2.5766,6.62 -3.9193,15.0027 -0.4248,2.6533 -0.8147,5.0388 -0.8661,5.3013 -0.08,0.409 -0.01,0.4755 0.5159,0.4661 0.4195,-0.01 0.7287,0.1648 0.9924,0.5533 0.2107,0.3104 0.5492,0.8084 0.7523,1.107 l 0.3693,0.5426 -0.9184,0.9323 c -3.0966,3.144 -3.3889,4.4774 -2.4597,11.2191 0.9589,6.9585 0.3711,9.8742 -2.308,11.4451 -2.4054,1.4105 -7.3627,0.9988 -11.7411,-0.9748 z"
       id="path3610"
       inkscape:connector-curvature="0" />
    <path
       style="display:inline;fill:#daa761;fill-opacity:1"
       d="m 974.51135,3059.531 c -2.2002,0.035 -3.6582,-0.8667 -4.7684,-2.9495 -1.4265,-2.6761 -1.8727,-5.8931 -1.6012,-11.5474 0.3922,-8.1665 1.8752,-14.0905 4.9788,-19.8881 1.1433,-2.1359 1.7245,-3.0018 2.8434,-4.2366 2.7148,-2.9958 5.5509,-4.2276 7.9838,-3.4676 2.5692,0.8025 3.7777,3.438 3.9586,8.6327 0.1863,5.3504 -1.1717,10.3058 -4.2725,15.5893 -3.0918,5.2682 -6.7002,6.7662 -8.3735,3.476 -0.2708,-0.5323 -0.5102,-1.3074 -0.532,-1.7226 -0.022,-0.415 -0.054,-0.8963 -0.072,-1.0697 -0.1233,-1.2018 1.1071,-4.5455 2.4554,-6.6732 0.9205,-1.4528 0.8904,-1.5612 -0.1687,-0.608 -1.3642,1.2277 -2.4649,1.0803 -2.8099,-0.3762 -0.3614,-1.5257 -0.035,-3.1203 0.7805,-3.8205 0.3298,-0.2828 0.687,-0.6023 0.7936,-0.7097 0.1091,-0.1102 0.196,0.083 0.1988,0.4408 0.01,1.0452 0.7654,0.7294 2.5297,-1.0541 1.6594,-1.6774 4.0916,-3.8746 4.1528,-3.7518 0.063,0.1268 0.2579,3.9572 0.225,4.4193 -0.017,0.239 -0.2304,0.5763 -0.4756,0.7521 -1.3458,0.9654 -3.475,4.0019 -4.0679,5.8016 -0.3702,1.1234 -0.485,2.8756 -0.234,3.5711 0.2781,0.771 1.2329,1.3397 2.111,1.2575 1.4458,-0.1354 2.6031,-1.8667 3.7197,-5.5638 1.5137,-5.0125 1.457,-10.195 -0.1464,-13.368 -1.8746,-3.71 -5.6456,-2.2741 -8.381,3.1911 -2.0673,4.1305 -3.6349,10.7328 -3.8978,16.4169 -0.1614,3.4881 -0.056,5.1626 0.4844,7.7226 0.567,2.6846 1.7036,4.7908 3.0194,5.5952 0.7694,0.4704 1.0534,0.4861 2.2168,0.1213 1.0923,-0.3425 1.5013,-0.5976 2.2558,-1.4077 1.3895,-1.4918 2.0631,-2.7859 3.9944,-7.6729 0.9705,-2.4561 1.8695,-4.6363 1.9975,-4.8446 0.1819,-0.2957 0.4235,-0.048 1.1023,1.13 l 0.8695,1.5088 -1.2346,3.0835 c -1.2296,3.071 -2.0872,4.7892 -3.1162,6.2429 -0.9061,1.2803 -2.4332,2.9158 -3.4607,3.7066 -0.9669,0.7441 -4.1747,2.0584 -5.0587,2.0727 z m -19.4495,-5.3503 c -2.2717,-0.2006 -4.0553,-2.1813 -4.377,-4.8606 -0.4799,-3.9957 1.0008,-9.4901 4.5711,-16.963 2.1247,-4.4468 3.6979,-6.5902 5.8302,-7.9427 2.1143,-1.3411 3.8886,-1.5583 5.2796,-0.6461 0.6069,0.3981 3.9222,4.0851 3.8293,4.2586 -0.032,0.059 -0.8569,0.9718 -1.8339,2.0284 l -1.7767,1.9211 -1.4619,-1.6441 c -1.9383,-2.1801 -2.7756,-2.6266 -4.1848,-2.2315 -0.9847,0.2757 -1.187,0.4275 -1.9563,1.4643 -0.8863,1.1948 -2.677,4.4441 -3.5267,6.3996 -0.2665,0.6133 -0.7566,2.0063 -1.089,3.0957 -1.2054,3.9507 -1.0641,6.8609 0.4355,8.9696 2.0162,2.8359 4.7919,2.5403 6.3567,-0.6766 0.7555,-1.5533 1.049,-2.9481 1.1478,-5.4549 0.1435,-3.643 -0.5669,-5.6388 -1.8667,-5.2445 -0.8622,0.2632 -1.408,1.6717 -2.5169,6.501 -0.1596,0.6946 -0.331,1.2753 -0.381,1.2907 -0.05,0.015 -0.4377,-0.6754 -0.8617,-1.5345 l -0.771,-1.5622 0.6101,-1.7205 c 1.3828,-3.9003 3.3493,-6.9989 5.0065,-7.8886 1.4595,-0.7836 3.2991,0.7909 3.8886,3.3286 0.8912,3.8363 -0.1491,9.508 -2.5062,13.6637 -1.1689,2.0612 -2.4087,3.5234 -3.6478,4.303 -1.1686,0.7353 -3.0454,1.2473 -4.1978,1.1455 z m 35.2738,-11.0475 c -0.7938,-0.1087 -1.5188,-0.1126 -1.6108,-0.01 -0.092,0.1039 0.1843,-0.3845 0.6141,-1.086 1.2598,-2.0561 3.2567,-5.9548 4.4021,-8.5947 2.9923,-6.8967 4.2279,-11.6375 3.7507,-14.3922 -0.2159,-1.2467 -0.5004,-1.7875 -1.1724,-2.2285 -1.3808,-0.9063 -3.0456,0.8491 -4.1176,4.3418 l -0.4627,1.5075 -1.2283,0.3751 c -0.9986,0.305 -1.2226,0.2942 -1.1975,-0.058 0.1216,-1.7075 1.7244,-4.7916 3.6005,-6.9276 2.9692,-3.3808 5.4039,-3.9537 6.8017,-1.6007 1.14215,1.923 1.26055,5.6489 0.30775,9.6871 -0.98975,4.1954 -3.66745,11.0573 -6.15115,15.763 -0.9805,1.858 -1.8526,3.3872 -1.9378,3.3985 -0.085,0.011 -0.8045,-0.069 -1.5986,-0.1771 z m -55.6847,16.8614 c -2.3342,0.2969 -4.2858,-1.0927 -4.5402,-3.233 -0.088,-0.7418 -0.041,-1.161 0.2493,-2.2551 0.2929,-1.1005 0.8202,-2.1259 2.9131,-5.664 1.4057,-2.3762 3.1435,-5.461 3.8619,-6.8554 1.4454,-2.8056 1.554,-3.3714 0.8748,-4.5628 -0.3207,-0.5627 -0.4367,-0.5633 -2.6591,-0.016 -1.9977,0.4914 -2.3647,0.5103 -2.6158,0.1345 -0.5198,-0.7785 -0.1371,-3.0812 0.9602,-5.7766 0.4797,-1.1785 0.4861,-1.1846 1.5899,-1.5218 0.8619,-0.2634 1.0611,-0.2504 0.8959,0.058 -0.3194,0.596 -0.326,1.4246 -0.011,1.3379 0.1504,-0.04 1.1287,-0.1017 2.1735,-0.1338 1.4985,-0.046 2.0414,0.066 2.5715,0.5288 0.8474,0.7407 1.5089,2.8441 1.3954,4.4371 -0.1977,2.7795 -1.9331,6.2349 -5.452,10.8557 -0.7441,0.9771 -1.6936,2.3923 -2.11,3.145 -0.7044,1.273 -0.7478,1.4168 -0.6217,2.0561 0.2856,1.4484 2.5182,2.0547 5.4019,1.4672 2.0184,-0.4113 3.7261,-1.3546 4.9524,-2.7356 1.9776,-2.2268 2.2886,-4.4168 1.3027,-9.1732 -0.7347,-3.5445 -0.9152,-4.8976 -0.8238,-6.1799 0.1028,-1.4456 0.7766,-3.4296 1.6939,-4.9876 0.7639,-1.2977 0.7791,-1.3462 0.3812,-1.2248 -0.4,0.1222 -0.4103,0.07 -0.2981,-1.506 0.2575,-3.6179 1.7533,-13.4202 2.6193,-17.165 0.6625,-2.865 0.8131,-3.1131 2.7635,-4.5572 2.3941,-1.7725 2.4255,-1.7927 1.9627,-1.2589 -1.0059,1.1605 -2.7742,8.8688 -4.0938,17.8458 l -0.7114,4.8395 0.5662,-0.313 c 0.4399,-0.248 0.7371,-0.1792 1.3318,0.2992 l 0.7656,0.6154 -1.2823,2.0204 c -1.7312,2.7277 -2.2573,3.9684 -2.4718,5.8281 -0.1709,1.4824 -0.1065,2.2275 0.6544,7.5859 0.7885,5.5504 -0.6862,9.4438 -4.6754,12.3436 -2.4334,1.7688 -6.4267,3.3324 -9.5149,3.7257 z m 70.44225,-21.5143 c -2.3342,0.297 -4.2859,-1.0925 -4.5401,-3.2328 -0.088,-0.7419 -0.042,-1.1606 0.2493,-2.255 0.2928,-1.1007 0.8202,-2.1259 2.9131,-5.6641 1.4056,-2.3761 3.1434,-5.4612 3.8618,-6.8555 1.4455,-2.8054 1.5541,-3.3713 0.8749,-4.5628 -0.3207,-0.5627 -0.4367,-0.5633 -2.6592,-0.016 -1.9977,0.4914 -2.3647,0.5101 -2.6157,0.1344 -0.5199,-0.7786 -0.1371,-3.0811 0.9601,-5.7767 0.4798,-1.1785 0.4861,-1.1846 1.5899,-1.5217 0.862,-0.2632 1.0611,-0.2503 0.8959,0.058 -0.3193,0.596 -0.3259,1.4245 -0.011,1.3378 0.1506,-0.04 1.1288,-0.1016 2.1736,-0.1339 2.3275,-0.072 3.0388,0.4147 3.6442,2.4911 0.96,3.2928 -0.286,6.7049 -4.5988,12.5926 -2.4661,3.3667 -3.1836,4.5684 -3.2452,5.4348 -0.1033,1.4516 1.1724,2.2397 3.5718,2.2067 2.6194,-0.035 5.1362,-1.1418 6.7657,-2.973 1.977,-2.2218 2.2884,-4.4141 1.3024,-9.171 -0.7348,-3.5444 -0.9151,-4.8976 -0.8238,-6.1798 0.1028,-1.4456 0.7767,-3.4298 1.6939,-4.9877 0.764,-1.2976 0.7792,-1.3464 0.3813,-1.2247 -0.4001,0.1221 -0.4104,0.07 -0.2982,-1.506 0.2576,-3.618 1.7533,-13.4203 2.6194,-17.165 0.6626,-2.865 0.813,-3.113 2.7635,-4.5572 2.394,-1.7726 2.4254,-1.7927 1.9626,-1.2588 -0.9997,1.1532 -2.5567,7.8054 -3.8889,16.6146 -0.4217,2.7883 -0.8085,5.2995 -0.8596,5.5806 -0.08,0.4381 -0.01,0.4609 0.512,0.1593 0.4162,-0.2443 0.7231,-0.2494 0.9847,-0.023 0.2091,0.1804 0.5449,0.4698 0.7464,0.6431 l 0.3664,0.3149 -0.9111,1.4101 c -3.0727,4.7551 -3.3627,6.2005 -2.4407,12.1609 0.9515,6.1521 0.3681,9.2838 -2.2902,12.2932 -2.3869,2.7019 -7.3059,5.0807 -11.6506,5.634 z"
       id="path3610-2"
       inkscape:connector-curvature="0" />
  </g>
</svg>
