<?xml version="1.0" encoding="UTF-8" standalone="no"?>
<!-- Created with Inkscape (http://www.inkscape.org/) -->

<svg
   xmlns:dc="http://purl.org/dc/elements/1.1/"
   xmlns:cc="http://creativecommons.org/ns#"
   xmlns:rdf="http://www.w3.org/1999/02/22-rdf-syntax-ns#"
   xmlns:svg="http://www.w3.org/2000/svg"
   xmlns="http://www.w3.org/2000/svg"
   xmlns:xlink="http://www.w3.org/1999/xlink"
   xmlns:sodipodi="http://sodipodi.sourceforge.net/DTD/sodipodi-0.dtd"
   xmlns:inkscape="http://www.inkscape.org/namespaces/inkscape"
   id="svg2"
   version="1.1"
   inkscape:version="0.48.4 r9939"
   width="2800"
   height="12658"
   sodipodi:docname="Pepper-and-Carrot_by-David-Revoy_E01P01.svg"
   enable-background="new">
  <metadata
     id="metadata8">
    <rdf:RDF>
      <cc:Work
         rdf:about="">
        <dc:format>image/svg+xml</dc:format>
        <dc:type
           rdf:resource="http://purl.org/dc/dcmitype/StillImage" />
        <dc:title />
      </cc:Work>
    </rdf:RDF>
  </metadata>
  <defs
     id="defs6">
    <linearGradient
       inkscape:collect="always"
       id="linearGradient4334">
      <stop
         style="stop-color:#737a64;stop-opacity:1;"
         offset="0"
         id="stop4336" />
      <stop
         style="stop-color:#737a64;stop-opacity:0;"
         offset="1"
         id="stop4338" />
    </linearGradient>
    <linearGradient
       inkscape:collect="always"
       xlink:href="#linearGradient4334"
       id="linearGradient4340"
       x1="37.732601"
       y1="9814.6045"
       x2="37.732601"
       y2="9890.5596"
       gradientUnits="userSpaceOnUse"
       gradientTransform="matrix(1.0009011,0,0,1.9984087,-2.5237315,-9735.7026)" />
    <filter
       inkscape:collect="always"
       id="filter4386">
      <feBlend
         inkscape:collect="always"
         mode="screen"
         in2="BackgroundImage"
         id="feBlend4388" />
    </filter>
    <filter
       style="color-interpolation-filters:sRGB"
       inkscape:label="Drop Shadow"
       id="filter3777">
      <feFlood
         flood-opacity="0.498039"
         flood-color="rgb(0,0,0)"
         result="flood"
         id="feFlood3779" />
      <feComposite
         in="flood"
         in2="SourceGraphic"
         operator="in"
         result="composite1"
         id="feComposite3781" />
      <feGaussianBlur
         in="composite1"
         stdDeviation="6.8"
         result="blur"
         id="feGaussianBlur3783" />
      <feOffset
         dx="0"
         dy="5.96042"
         result="offset"
         id="feOffset3785" />
      <feComposite
         in="SourceGraphic"
         in2="offset"
         operator="over"
         result="fbSourceGraphic"
         id="feComposite3787" />
      <feColorMatrix
         result="fbSourceGraphicAlpha"
         in="fbSourceGraphic"
         values="0 0 0 -1 0 0 0 0 -1 0 0 0 0 -1 0 0 0 0 1 0"
         id="feColorMatrix3921" />
      <feFlood
         id="feFlood3923"
         flood-opacity="0.552941"
         flood-color="rgb(0,0,0)"
         result="flood"
         in="fbSourceGraphic" />
      <feComposite
         id="feComposite3925"
         in2="fbSourceGraphic"
         in="flood"
         operator="in"
         result="composite1" />
      <feGaussianBlur
         id="feGaussianBlur3927"
         in="composite1"
         stdDeviation="7.8"
         result="blur" />
      <feOffset
         id="feOffset3929"
         dx="0"
         dy="6"
         result="offset" />
      <feComposite
         id="feComposite3931"
         in2="offset"
         in="fbSourceGraphic"
         operator="over"
         result="fbSourceGraphic" />
      <feColorMatrix
         result="fbSourceGraphicAlpha"
         in="fbSourceGraphic"
         values="0 0 0 -1 0 0 0 0 -1 0 0 0 0 -1 0 0 0 0 1 0"
         id="feColorMatrix4101" />
      <feFlood
         id="feFlood4103"
         flood-opacity="0.494118"
         flood-color="rgb(0,0,0)"
         result="flood"
         in="fbSourceGraphic" />
      <feComposite
         id="feComposite4105"
         in2="fbSourceGraphic"
         in="flood"
         operator="in"
         result="composite1" />
      <feGaussianBlur
         id="feGaussianBlur4107"
         in="composite1"
         stdDeviation="13.5"
         result="blur" />
      <feOffset
         id="feOffset4109"
         dx="0"
         dy="2.10938"
         result="offset" />
      <feComposite
         id="feComposite4111"
         in2="offset"
         in="fbSourceGraphic"
         operator="over"
         result="composite2" />
    </filter>
  </defs>
  <sodipodi:namedview
     pagecolor="#ffffff"
     bordercolor="#666666"
     borderopacity="1"
     objecttolerance="10"
     gridtolerance="10"
     guidetolerance="10"
     inkscape:pageopacity="0"
     inkscape:pageshadow="2"
     inkscape:window-width="1600"
     inkscape:window-height="1181"
     id="namedview4"
     showgrid="false"
     inkscape:zoom="0.34067204"
     inkscape:cx="1928.9129"
     inkscape:cy="1768.1392"
     inkscape:window-x="1920"
     inkscape:window-y="0"
     inkscape:window-maximized="1"
     inkscape:current-layer="layer3"
     inkscape:snap-global="false">
    <inkscape:grid
       type="xygrid"
       id="grid4282" />
  </sodipodi:namedview>
  <flowRoot
     xml:space="preserve"
     id="flowRoot2987"
     style="fill:black;stroke:none;stroke-opacity:1;stroke-width:1px;stroke-linejoin:miter;stroke-linecap:butt;fill-opacity:1;font-family:Lavi;font-style:normal;font-weight:normal;font-size:12px;line-height:125%;letter-spacing:0px;word-spacing:0px;-inkscape-font-specification:Lavi;font-stretch:normal;font-variant:normal"><flowRegion
       id="flowRegion2989"><rect
         id="rect2991"
         width="1016.5607"
         height="77.684769"
         x="838.99548"
         y="443.73529"
         style="-inkscape-font-specification:Lavi;font-family:Lavi;font-weight:normal;font-style:normal;font-stretch:normal;font-variant:normal" /></flowRegion><flowPara
       id="flowPara2993" /></flowRoot>  <g
     inkscape:groupmode="layer"
     id="layer1"
     inkscape:label="artwork"
     style="display:inline"
     sodipodi:insensitive="true">
    <image
       sodipodi:absref="/home/deevad/Pepper-and-Carrot/webcomic/2014-05-04_ep01_Potion-of-flight/lang/si/../gfx_Pepper-and-Carrot_by-David-Revoy_E01P01.png"
       xlink:href="../gfx_Pepper-and-Carrot_by-David-Revoy_E01P01.png"
       width="2800"
       height="12658"
       id="image3084"
       x="0"
       y="0" />
  </g>
  <g
     inkscape:groupmode="layer"
     id="layer2"
     inkscape:label="speechbubble"
     style="opacity:0.70232556;display:inline;filter:url(#filter4386)">
    <path
       style="fill:#dfffd4;fill-opacity:1;stroke:none"
       d="m 1168.137,787.31467 c 0,-57.06253 44.1169,-135.94309 260.4995,-139.29971 216.3826,-3.35662 292.0116,70.48901 294.1123,130.90816 2.1008,60.41915 -102.9393,124.19493 -266.802,119.16 -163.8624,-5.03493 -283.6082,-25.17465 -287.8098,-110.76845 z"
       id="path3071"
       inkscape:connector-curvature="0"
       sodipodi:nodetypes="csssc" />
    <path
       style="color:#000000;fill:#dfffd4;fill-opacity:1;fill-rule:nonzero;stroke:none;stroke-width:1px;marker:none;visibility:visible;display:inline;overflow:visible;enable-background:accumulate"
       d="m 1488.6608,866.19523 c 0,0 22.8388,6.71324 41.8713,25.17465 19.0323,18.46141 95.162,55.38422 78.0328,146.01292 28.5486,-100.69856 -28.5485,-134.26475 -39.9681,-151.04785 -11.4195,-16.7831 -32.3551,-45.31437 -32.3551,-45.31437 z"
       id="path3073"
       inkscape:connector-curvature="0"
       sodipodi:nodetypes="cscscc" />
    <path
       style="color:#000000;fill:#dfffd4;fill-opacity:1;fill-rule:nonzero;stroke:none;stroke-width:1px;marker:none;visibility:visible;display:inline;overflow:visible;enable-background:accumulate"
       d="m 1313.7522,2426.6105 c -2.1135,-90.7127 150.058,-206.5161 255.7327,-194.9357 105.6746,11.5803 213.4628,92.6427 232.4842,152.4744 19.0214,59.8318 84.5397,171.775 -230.3707,194.9357 -109.9017,5.7902 -266.3001,-61.7618 -257.8462,-152.4744 z"
       id="path3097"
       inkscape:connector-curvature="0"
       sodipodi:nodetypes="csscc" />
    <path
       style="color:#000000;fill:#dfffd4;fill-opacity:1;fill-rule:nonzero;stroke:none;stroke-width:1px;marker:none;visibility:visible;display:inline;overflow:visible;enable-background:accumulate"
       d="m 1729.3304,2523.2744 c 21.2307,54.0416 34.741,59.8318 69.4821,61.7618 13.5104,-1.93 28.9508,9.6503 25.0907,30.8809 23.1607,-32.8109 -9.5958,-44.4021 -25.0363,-52.1223 -15.4404,-7.7203 -23.3132,-8.6581 -31.0334,-47.2592 -7.7203,-38.6011 -38.5031,6.7388 -38.5031,6.7388 z"
       id="path3105"
       inkscape:connector-curvature="0"
       sodipodi:nodetypes="cccssc" />
    <path
       style="color:#000000;fill:#dfffd4;fill-opacity:1;fill-rule:nonzero;stroke:none;stroke-width:1px;marker:none;visibility:visible;display:inline;overflow:visible;enable-background:accumulate"
       d="m 2012.5224,5672.6571 c 10.9073,-70.2686 136.3399,-136.2783 226.3243,-129.8904 89.9843,6.3881 234.5046,61.7512 215.4171,166.0893 -19.0876,104.3381 -193.6029,85.174 -259.0458,78.7859 -65.4433,-6.3881 -179.9689,-36.1989 -182.6956,-114.9848 z"
       id="path3113"
       inkscape:connector-curvature="0"
       sodipodi:nodetypes="csssc" />
    <path
       style="color:#000000;fill:#dfffd4;fill-opacity:1;fill-rule:nonzero;stroke:none;stroke-width:1px;marker:none;visibility:visible;display:inline;overflow:visible;enable-background:accumulate"
       d="m 2182.8937,5743.0315 c -7.7203,42.4613 0.9413,65.6694 0.9413,79.1798 0,13.5104 -16.3653,60.6542 -76.8812,70.2158 -38.6011,7.7202 -68.8144,35.4666 -72.6745,48.977 34.741,-32.8109 58.3724,-35.6349 89.2533,-35.6349 30.8809,0 80.5917,-22.2668 82.5217,-95.6089 1.9301,-73.3422 1.9301,-113.8733 1.9301,-113.8733 z"
       id="path3121"
       inkscape:connector-curvature="0"
       sodipodi:nodetypes="csccsscc" />
    <path
       style="color:#000000;fill:#dfffd4;fill-opacity:1;fill-rule:nonzero;stroke:none;stroke-width:1px;marker:none;visibility:visible;display:inline;overflow:visible;enable-background:accumulate"
       d="m 1327.4147,7081.9817 c 11.9999,-80.4678 170.3993,-170.6893 311.9988,-143.8667 141.5995,26.8226 261.5991,80.4679 271.199,141.4284 9.6,60.9605 -50.3998,202.3889 -295.1989,178.0046 -244.7991,-24.3841 -299.9989,-143.8667 -287.9989,-175.5663 z"
       id="path3129"
       inkscape:connector-curvature="0"
       sodipodi:nodetypes="csssc" />
    <path
       style="color:#000000;fill:#dfffd4;fill-opacity:1;fill-rule:nonzero;stroke:none;stroke-width:1px;marker:none;visibility:visible;display:inline;overflow:visible;enable-background:accumulate"
       d="m 1531.4997,7188.9925 c 6.6587,93.2217 -135.3934,133.1739 -135.3934,175.3456 0,42.1717 13.3174,39.9522 13.3174,39.9522 0,0 -13.3174,-15.537 2.2195,-42.1718 15.537,-26.6347 77.2181,-42.5911 122.076,-86.563 56.0846,-54.9769 75.4653,-102.1 75.4653,-102.1 z"
       id="path3137"
       inkscape:connector-curvature="0"
       sodipodi:nodetypes="cscsscc" />
    <path
       style="color:#000000;fill:#dfffd4;fill-opacity:1;fill-rule:nonzero;stroke:none;stroke-width:1px;marker:none;visibility:visible;display:inline;overflow:visible;enable-background:accumulate"
       d="m 650.33476,10356.311 c -2.28706,-71.026 109.77872,-93.221 139.51047,-97.66 29.73174,-4.44 299.60447,15.536 311.03977,84.343 11.4352,68.806 -130.36227,106.539 -267.5857,93.222 -137.22341,-13.318 -185.2516,-51.05 -182.96454,-79.905 z"
       id="path3145"
       inkscape:connector-curvature="0"
       sodipodi:nodetypes="ccssc" />
    <path
       style="color:#000000;fill:#dfffd4;fill-opacity:1;fill-rule:nonzero;stroke:none;stroke-width:1px;marker:none;visibility:visible;display:inline;overflow:visible;enable-background:accumulate"
       d="m 865.63025,10416.301 c 57.58036,48.193 -89.12226,148.958 -85.83967,186.808 1.10147,12.701 5.70794,39.133 17.04979,48.482 19.13648,15.774 55.47249,6.642 13.30076,135.377 -11.09783,28.854 36.77302,60.646 83.38388,58.426 17.75651,2.22 45.35087,21.478 5.39871,103.602 -6.6587,24.415 10.97249,53.988 36.05549,59.386 13.31738,2.219 39.40971,20.519 32.75101,49.373 8.87826,-46.611 -38.8089,-67.788 -46.96963,-79.846 -8.87826,-15.537 12.33605,-64.226 21.21431,-95.3 8.87826,-31.074 -37.07343,-55.593 -52.61038,-62.252 -15.53696,-6.659 -41.8097,-5.706 -46.24883,-23.462 -4.43913,-17.757 25.8699,-82.267 21.43077,-115.561 -4.43913,-33.293 -43.68839,-40.787 -45.90796,-71.861 -2.21956,-31.074 80.05517,-98.222 93.32672,-131.322 16.43818,-34.971 6.93458,-79.607 6.93458,-79.607 z"
       id="path3153"
       inkscape:connector-curvature="0"
       sodipodi:nodetypes="cssccccccsscssccc" />
  </g>
  <g
     inkscape:groupmode="layer"
     id="layer4"
     inkscape:label="frame"
     style="display:inline"
     sodipodi:insensitive="true">
    <rect
       style="color:#000000;fill:#737a64;fill-opacity:1;fill-rule:nonzero;stroke:none;stroke-width:5.5999999;marker:none;visibility:visible;display:inline;overflow:visible;enable-background:accumulate"
       id="rect4280"
       width="2800.7141"
       height="543.51068"
       x="-0.02642878"
       y="-0.0098871691" />
    <rect
       style="color:#000000;fill:#737a64;fill-opacity:1;fill-rule:nonzero;stroke:none;stroke-width:5.5999999;marker:none;visibility:visible;display:inline;overflow:visible;enable-background:accumulate"
       id="rect4280-9"
       width="92.944519"
       height="9779.25"
       x="-2.4022834"
       y="-0.85613543" />
    <rect
       y="-0.85613543"
       x="2710.6973"
       height="9781.1719"
       width="98.454247"
       id="rect4320"
       style="color:#000000;fill:#737a64;fill-opacity:1;fill-rule:nonzero;stroke:none;stroke-width:5.5999999;marker:none;visibility:visible;display:inline;overflow:visible;enable-background:accumulate" />
    <rect
       y="2038.1833"
       x="-0.02642878"
       height="73.850784"
       width="2800.7141"
       id="rect4322"
       style="color:#000000;fill:#737a64;fill-opacity:1;fill-rule:nonzero;stroke:none;stroke-width:5.5999999;marker:none;visibility:visible;display:inline;overflow:visible;enable-background:accumulate" />
    <rect
       style="color:#000000;fill:#737a64;fill-opacity:1;fill-rule:nonzero;stroke:none;stroke-width:5.5999999;marker:none;visibility:visible;display:inline;overflow:visible;enable-background:accumulate"
       id="rect4324"
       width="2800.7141"
       height="73.850784"
       x="-0.02642878"
       y="3609.6301" />
    <rect
       y="5154.291"
       x="-0.02642878"
       height="73.850784"
       width="2800.7141"
       id="rect4326"
       style="color:#000000;fill:#737a64;fill-opacity:1;fill-rule:nonzero;stroke:none;stroke-width:5.5999999;marker:none;visibility:visible;display:inline;overflow:visible;enable-background:accumulate" />
    <rect
       style="color:#000000;fill:#737a64;fill-opacity:1;fill-rule:nonzero;stroke:none;stroke-width:5.5999999;marker:none;visibility:visible;display:inline;overflow:visible;enable-background:accumulate"
       id="rect4328"
       width="2800.7141"
       height="73.850784"
       x="-0.02642878"
       y="6712.3447" />
    <rect
       y="8221.291"
       x="-0.02642878"
       height="73.850784"
       width="2800.7141"
       id="rect4330"
       style="color:#000000;fill:#737a64;fill-opacity:1;fill-rule:nonzero;stroke:none;stroke-width:5.5999999;marker:none;visibility:visible;display:inline;overflow:visible;enable-background:accumulate" />
    <rect
       style="color:#000000;fill:url(#linearGradient4340);fill-opacity:1;fill-rule:nonzero;stroke:none;stroke-width:5.5999999;marker:none;visibility:visible;display:inline;overflow:visible;enable-background:accumulate"
       id="rect4332"
       width="2803.2378"
       height="470.9227"
       x="-2.550184"
       y="9751.2197" />
  </g>
  <g
     inkscape:groupmode="layer"
     id="layer3"
     inkscape:label="txt"
     style="display:inline">
    <flowRoot
       xml:space="preserve"
       id="flowRoot3063"
       style="font-style:normal;font-variant:normal;font-weight:normal;font-stretch:normal;font-size:72px;line-height:125%;font-family:Arial;-inkscape-font-specification:Arial;letter-spacing:0px;word-spacing:0px;display:inline;fill:#cbba74;fill-opacity:1;stroke:none"
       transform="translate(-50.181464,-0.0699437)"><flowRegion
         id="flowRegion3065"><rect
           id="rect3067"
           width="2715.5891"
           height="110.01318"
           x="92.642677"
           y="425.30325"
           style="font-size:72px;fill:#cbba74;fill-opacity:1" /></flowRegion><flowPara
         id="flowPara3069"
         style="font-style:normal;font-variant:normal;font-weight:normal;font-stretch:normal;font-size:88px;font-family:Lavi;-inkscape-font-specification:Lavi;text-align:center;text-anchor:middle;fill:#cbba74;fill-opacity:1">1වන කතාංගය : ඉගිලීමේ මායා වඩිය</flowPara></flowRoot>    <flowRoot
       xml:space="preserve"
       id="flowRoot3063-8"
       style="color:#000000;font-style:normal;font-variant:normal;font-weight:normal;font-stretch:normal;font-size:72px;line-height:125%;font-family:Arial;-inkscape-font-specification:Arial;letter-spacing:0px;word-spacing:0px;display:inline;overflow:visible;visibility:visible;fill:#3c4036;fill-opacity:1;fill-rule:nonzero;stroke:none;marker:none;enable-background:accumulate"
       transform="matrix(0.88139238,0,0,0.92209114,1114.0852,317.02358)"><flowRegion
         id="flowRegion3065-8"><rect
           id="rect3067-6"
           width="569.74268"
           height="228.46191"
           x="92.642677"
           y="425.30325"
           style="color:#000000;font-size:72px;display:inline;overflow:visible;visibility:visible;fill:#3c4036;fill-opacity:1;fill-rule:nonzero;stroke:none;marker:none;enable-background:accumulate" /></flowRegion><flowPara
         style="color:#000000;font-style:normal;font-variant:normal;font-weight:normal;font-stretch:normal;font-size:64px;font-family:Lavi;-inkscape-font-specification:Lavi;text-align:center;text-anchor:middle;display:inline;overflow:visible;visibility:visible;fill:#3c4036;fill-opacity:1;fill-rule:nonzero;stroke:none;marker:none;enable-background:accumulate"
         id="flowPara3188">...ඊළඟට අන්තිම </flowPara><flowPara
         style="color:#000000;font-style:normal;font-variant:normal;font-weight:normal;font-stretch:normal;font-size:64px;font-family:Lavi;-inkscape-font-specification:Lavi;text-align:center;text-anchor:middle;display:inline;overflow:visible;visibility:visible;fill:#3c4036;fill-opacity:1;fill-rule:nonzero;stroke:none;marker:none;enable-background:accumulate"
         id="flowPara3582">චුට්ට</flowPara></flowRoot>    <flowRoot
       xml:space="preserve"
       id="flowRoot3063-8-6"
       style="font-size:72px;font-style:normal;font-variant:normal;font-weight:normal;font-stretch:normal;line-height:125%;letter-spacing:0px;word-spacing:0px;color:#000000;fill:#3c4036;fill-opacity:1;fill-rule:nonzero;stroke:none;marker:none;visibility:visible;display:inline;overflow:visible;enable-background:accumulate;font-family:Arial;-inkscape-font-specification:Arial"
       transform="matrix(0.88139238,0,0,0.92209114,1247.0062,1911.9935)"><flowRegion
         id="flowRegion3065-8-1"><rect
           id="rect3067-6-3"
           width="526.9325"
           height="288.6394"
           x="92.642677"
           y="425.30325"
           style="font-size:72px;color:#000000;fill:#3c4036;fill-opacity:1;fill-rule:nonzero;stroke:none;marker:none;visibility:visible;display:inline;overflow:visible;enable-background:accumulate" /></flowRegion><flowPara
         style="font-size:64px;font-style:normal;font-variant:normal;font-weight:normal;font-stretch:normal;text-align:center;text-anchor:middle;color:#000000;fill:#3c4036;fill-opacity:1;fill-rule:nonzero;stroke:none;marker:none;visibility:visible;display:inline;overflow:visible;enable-background:accumulate;font-family:Lavi;-inkscape-font-specification:Lavi"
         id="flowPara3224">...ම්ම්ම්</flowPara><flowPara
         style="font-size:64px;font-style:normal;font-variant:normal;font-weight:normal;font-stretch:normal;text-align:center;text-anchor:middle;color:#000000;fill:#3c4036;fill-opacity:1;fill-rule:nonzero;stroke:none;marker:none;visibility:visible;display:inline;overflow:visible;enable-background:accumulate;font-family:Lavi;-inkscape-font-specification:Lavi"
         id="flowPara3593">පේනවිදියට සැර </flowPara><flowPara
         style="font-size:64px;font-style:normal;font-variant:normal;font-weight:normal;font-stretch:normal;text-align:center;text-anchor:middle;color:#000000;fill:#3c4036;fill-opacity:1;fill-rule:nonzero;stroke:none;marker:none;visibility:visible;display:inline;overflow:visible;enable-background:accumulate;font-family:Lavi;-inkscape-font-specification:Lavi"
         id="flowPara3591">මදි වගේ</flowPara></flowRoot>    <flowRoot
       xml:space="preserve"
       id="flowRoot3063-8-6-1"
       style="font-size:72px;font-style:normal;font-variant:normal;font-weight:normal;font-stretch:normal;line-height:125%;letter-spacing:0px;word-spacing:0px;color:#000000;fill:#3c4036;fill-opacity:1;fill-rule:nonzero;stroke:none;marker:none;visibility:visible;display:inline;overflow:visible;enable-background:accumulate;font-family:Arial;-inkscape-font-specification:Arial"
       transform="matrix(0.88139238,0,0,0.92209114,1927.0182,5196.481)"><flowRegion
         id="flowRegion3065-8-1-1"><rect
           id="rect3067-6-3-8"
           width="526.9325"
           height="288.6394"
           x="92.642677"
           y="425.30325"
           style="font-size:72px;color:#000000;fill:#3c4036;fill-opacity:1;fill-rule:nonzero;stroke:none;marker:none;visibility:visible;display:inline;overflow:visible;enable-background:accumulate" /></flowRegion><flowPara
         style="font-size:64px;font-style:normal;font-variant:normal;font-weight:normal;font-stretch:normal;text-align:center;text-anchor:middle;color:#000000;fill:#3c4036;fill-opacity:1;fill-rule:nonzero;stroke:none;marker:none;visibility:visible;display:inline;overflow:visible;enable-background:accumulate;font-family:Lavi;-inkscape-font-specification:Lavi"
         id="flowPara3264">හා...</flowPara><flowPara
         style="font-size:64px;font-style:normal;font-variant:normal;font-weight:normal;font-stretch:normal;text-align:center;text-anchor:middle;color:#000000;fill:#3c4036;fill-opacity:1;fill-rule:nonzero;stroke:none;marker:none;visibility:visible;display:inline;overflow:visible;enable-background:accumulate;font-family:Lavi;-inkscape-font-specification:Lavi"
         id="flowPara3629">අංගසම්පූර්ණයි</flowPara></flowRoot>    <flowRoot
       xml:space="preserve"
       id="flowRoot3063-8-6-1-9"
       style="font-size:72px;font-style:normal;font-variant:normal;font-weight:normal;font-stretch:normal;line-height:125%;letter-spacing:0px;word-spacing:0px;color:#000000;fill:#3c4036;fill-opacity:1;fill-rule:nonzero;stroke:none;marker:none;visibility:visible;display:inline;overflow:visible;enable-background:accumulate;font-family:Arial;-inkscape-font-specification:Arial"
       transform="matrix(0.88139238,0,0,0.92209114,1271.311,6600.1681)"><flowRegion
         id="flowRegion3065-8-1-1-1"><rect
           id="rect3067-6-3-8-9"
           width="615.07123"
           height="310.30325"
           x="92.642677"
           y="425.30325"
           style="font-size:72px;color:#000000;fill:#3c4036;fill-opacity:1;fill-rule:nonzero;stroke:none;marker:none;visibility:visible;display:inline;overflow:visible;enable-background:accumulate" /></flowRegion><flowPara
         style="font-size:64px;font-style:normal;font-variant:normal;font-weight:normal;font-stretch:normal;text-align:center;text-anchor:middle;color:#000000;fill:#3c4036;fill-opacity:1;fill-rule:nonzero;stroke:none;marker:none;visibility:visible;display:inline;overflow:visible;enable-background:accumulate;font-family:Lavi;-inkscape-font-specification:Lavi"
         id="flowPara3300">බෑ!</flowPara><flowPara
         style="font-size:64px;font-style:normal;font-variant:normal;font-weight:normal;font-stretch:normal;text-align:center;text-anchor:middle;color:#000000;fill:#3c4036;fill-opacity:1;fill-rule:nonzero;stroke:none;marker:none;visibility:visible;display:inline;overflow:visible;enable-background:accumulate;font-family:Lavi;-inkscape-font-specification:Lavi"
         id="flowPara3636">ඒ ගැන හිතන්නවත් </flowPara><flowPara
         style="font-size:64px;font-style:normal;font-variant:normal;font-weight:normal;font-stretch:normal;text-align:center;text-anchor:middle;color:#000000;fill:#3c4036;fill-opacity:1;fill-rule:nonzero;stroke:none;marker:none;visibility:visible;display:inline;overflow:visible;enable-background:accumulate;font-family:Lavi;-inkscape-font-specification:Lavi"
         id="flowPara3638">එපා</flowPara></flowRoot>    <flowRoot
       xml:space="preserve"
       id="flowRoot3063-8-6-1-9-6"
       style="font-size:72px;font-style:normal;font-variant:normal;font-weight:normal;font-stretch:normal;line-height:125%;letter-spacing:0px;word-spacing:0px;color:#000000;fill:#3c4036;fill-opacity:1;fill-rule:nonzero;stroke:none;marker:none;visibility:visible;display:inline;overflow:visible;enable-background:accumulate;font-family:Arial;-inkscape-font-specification:Arial"
       transform="matrix(0.88139238,0,0,0.92209114,511.64397,9921.2912)"><flowRegion
         id="flowRegion3065-8-1-1-1-9"><rect
           id="rect3067-6-3-8-9-8"
           width="615.07123"
           height="310.30325"
           x="92.642677"
           y="425.30325"
           style="font-size:72px;color:#000000;fill:#3c4036;fill-opacity:1;fill-rule:nonzero;stroke:none;marker:none;visibility:visible;display:inline;overflow:visible;enable-background:accumulate" /></flowRegion><flowPara
         style="font-size:64px;font-style:normal;font-variant:normal;font-weight:normal;font-stretch:normal;text-align:center;text-anchor:middle;color:#000000;fill:#3c4036;fill-opacity:1;fill-rule:nonzero;stroke:none;marker:none;visibility:visible;display:inline;overflow:visible;enable-background:accumulate;font-family:Lavi;-inkscape-font-specification:Lavi"
         id="flowPara3300-4">සතුටුද?!...</flowPara></flowRoot>    <flowRoot
       xml:space="preserve"
       id="flowRoot3063-8-6-1-9-0"
       style="font-size:72px;font-style:normal;font-variant:normal;font-weight:normal;font-stretch:normal;line-height:125%;letter-spacing:0px;word-spacing:0px;opacity:0.34883722;color:#000000;fill:#9adbf1;fill-opacity:1;fill-rule:nonzero;stroke:#95cde0;stroke-width:2.16507292;stroke-opacity:1;marker:none;visibility:visible;display:inline;overflow:visible;enable-background:accumulate;font-family:Arial;-inkscape-font-specification:Arial"
       transform="matrix(0.55378887,0,-0.16146783,1.2162246,1855.6068,11703.719)"><flowRegion
         id="flowRegion3065-8-1-1-1-7"
         style="stroke-width:2.16507292"><rect
           id="rect3067-6-3-8-9-84"
           width="615.07123"
           height="310.30325"
           x="92.642677"
           y="425.30325"
           style="font-size:72px;color:#000000;fill:#9adbf1;fill-opacity:1;fill-rule:nonzero;stroke:#95cde0;stroke-width:2.16507292;stroke-opacity:1;marker:none;visibility:visible;display:inline;overflow:visible;enable-background:accumulate" /></flowRegion><flowPara
         style="font-size:31.05892754px;font-style:normal;font-variant:normal;font-weight:normal;font-stretch:normal;text-align:end;letter-spacing:7.18542147px;text-anchor:end;color:#000000;fill:#9adbf1;fill-opacity:1;fill-rule:nonzero;stroke:#95cde0;stroke-width:2.80495787;stroke-miterlimit:4;stroke-opacity:1;stroke-dasharray:none;marker:none;visibility:visible;display:inline;overflow:visible;enable-background:accumulate;font-family:Lavi;-inkscape-font-specification:Lavi"
         id="flowPara3300-48">WWW.PEPPERCARROT.COM</flowPara><flowPara
         style="font-size:31.05892754px;font-style:normal;font-variant:normal;font-weight:normal;font-stretch:normal;text-align:end;letter-spacing:7.18542147px;text-anchor:end;color:#000000;fill:#9adbf1;fill-opacity:1;fill-rule:nonzero;stroke:#95cde0;stroke-width:2.80495787;stroke-miterlimit:4;stroke-opacity:1;stroke-dasharray:none;marker:none;visibility:visible;display:inline;overflow:visible;enable-background:accumulate;font-family:Lavi;-inkscape-font-specification:Lavi"
         id="flowPara4439">05/2014</flowPara></flowRoot>    <path
       style="fill:#cbba74;fill-opacity:1"
       d="m 1453.0813,373.12113 c -0.2275,-0.22755 0.4764,-0.79078 1.5642,-1.25161 1.8957,-0.80308 1.929,-0.87389 0.8026,-1.70541 -0.6465,-0.47715 -1.9567,-0.86754 -2.9117,-0.86754 -0.9551,0 -1.5886,-0.23929 -1.4078,-0.53176 0.1807,-0.29246 -0.5525,-0.72234 -1.6293,-0.95528 l -1.958,-0.42354 1.5137,-0.62503 c 0.8325,-0.34376 3.5372,-1.14338 6.0104,-1.77692 2.4732,-0.63355 7.4574,-2.51079 11.0759,-4.17165 3.6186,-1.66086 6.8091,-3.01975 7.0901,-3.01975 0.281,0 3.072,-2.42385 6.2023,-5.38634 6.5056,-6.15692 8.2929,-9.19226 10.1812,-17.29077 1.301,-5.57958 1.6476,-18.49921 0.6422,-23.94406 -1.2994,-7.03844 -1.935,-9.22456 -4.1399,-14.24105 l -2.3679,-5.38744 2.0278,-1.91254 c 1.5298,-1.4427 2.0279,-2.41967 2.0279,-3.97685 0,-5.16583 -6.0907,-7.74693 -9.719,-4.11866 l -1.2116,1.21164 -2.6224,-1.53683 c -7.3993,-4.33629 -16.3571,-4.55963 -24.0165,-0.59879 -3.058,1.58136 -5.9354,3.72028 -7.4165,5.51306 -3.4338,4.15642 -13.7445,18.12192 -13.7445,18.61647 0,0.15302 2.2478,1.50494 4.9951,3.00426 7.801,4.25736 9.8017,5.94292 11.7405,9.89144 1.6192,3.29752 1.7294,3.99546 1.7044,10.79118 -0.024,6.34982 -0.2383,7.86524 -1.7045,12.02268 -3.538,10.03209 -11.3133,18.02942 -22.4799,23.12194 -6.5899,3.00537 -14.0871,4.51156 -22.4627,4.51282 -12.2822,0.002 -22.3017,-2.5279 -30.3152,-7.65409 -3.03,-1.93824 -3.1672,-2.14024 -3.0722,-4.52218 0.081,-2.04201 -0.2045,-2.75471 -1.5795,-3.93742 -0.9233,-0.79426 -2.1752,-1.44411 -2.7819,-1.44411 -1.5107,0 -2.0617,-0.87916 -3.4155,-5.44922 -0.938,-3.16649 -1.161,-5.76948 -1.1409,-13.32034 0.029,-10.95493 0.7675,-14.30097 4.982,-22.57899 2.1562,-4.23507 3.8187,-6.43177 8.1341,-10.74709 2.9831,-2.9832 5.6648,-5.42399 5.9593,-5.42399 0.2945,0 1.8125,-0.80996 3.3735,-1.79991 2.3756,-1.50652 2.6504,-1.86119 1.6861,-2.17589 -5.5188,-1.80106 -8.8542,-4.24236 -10.6992,-7.83086 -0.8775,-1.70681 -1.3246,-3.97877 -1.5144,-7.69492 -0.2376,-4.65505 -0.1129,-5.52581 1.0639,-7.42996 2.892,-4.67929 8.1732,-6.9544 16.1741,-6.96758 9.2264,-0.0152 18.345,4.19986 18.345,8.47997 0,1.98697 1.3859,3.62224 3.0699,3.62224 0.6419,0 2.3226,1.12147 3.735,2.49215 2.7291,2.64846 4.4833,3.56255 6.8371,3.56255 2.6699,0 5.6623,1.88668 6.3639,4.01241 1.0022,3.03679 -0.8138,5.55787 -4.8691,6.75964 -2.6843,0.79547 -9.4331,2.68264 -14.5313,4.06339 -19.3646,5.24453 -27.8153,10.47786 -32.3355,20.02467 -2.122,4.4816 -2.4841,6.6216 -2.4511,14.48568 0.025,6.10081 0.1696,6.92504 1.7155,9.814 4.3418,8.11421 13.7156,12.2832 27.6221,12.28493 10.3951,10e-4 19.345,-2.9801 25.6766,-8.55345 3.0989,-2.72771 5.8076,-7.7128 5.8076,-10.68824 0,-0.99242 0.5286,-2.23978 1.2109,-2.85724 1.5285,-1.38321 1.6132,-4.78991 0.1514,-6.08586 -0.5828,-0.51665 -2.5581,-1.94707 -4.3897,-3.17872 l -3.33,-2.23935 -6.8643,0 c -6.4833,0 -6.9286,-0.0794 -8.0225,-1.42938 -0.637,-0.78617 -1.1582,-1.78292 -1.1582,-2.21502 0,-0.8092 3.1519,-4.91327 9.0585,-11.79508 1.8578,-2.16456 4.9372,-6.25148 6.8431,-9.08205 11.762,-17.46917 22.8051,-26.16397 36.5766,-28.7989 10.7526,-2.05731 21.8762,-0.33012 30.1684,4.68439 3.2248,1.95009 9.3736,7.61012 9.4016,8.65435 0.01,0.34438 0.8267,1.69642 1.8165,3.00452 0.9897,1.30811 1.7995,2.7415 1.7995,3.18532 0,0.44382 0.504,1.96193 1.12,3.37359 2.3527,5.39213 3.1183,10.28922 3.1183,19.94608 0,6.32181 -0.2915,10.4286 -0.9082,12.79639 -0.4995,1.91776 -0.9082,3.97343 -0.9082,4.56815 0,0.59472 -0.8174,1.80961 -1.8164,2.69975 -1.8903,1.68425 -2.1987,2.79077 -1.2645,4.53647 0.4029,0.75261 -0.1336,2.41926 -1.9848,6.16627 -2.208,4.46943 -4.3716,7.94868 -11.282,18.14259 -2.9903,4.41119 -6.2213,7.881 -7.3386,7.881 -0.6258,0 -1.138,0.27246 -1.138,0.60547 0,0.65998 1.7465,0.83571 6.2261,0.62647 1.5927,-0.0744 4.5312,0.0546 6.5299,0.28651 3.2055,0.37203 3.591,0.55727 3.2693,1.5708 -0.3231,1.01827 -0.033,1.15123 2.5521,1.16829 5.5734,0.0368 1.3347,1.49421 -8.3874,2.8839 -5.1049,0.72972 -12.6359,2.14604 -16.7354,3.14736 -6.3785,1.55799 -8.6129,1.8206 -15.49,1.8206 -4.4199,0 -8.2224,-0.18618 -8.45,-0.41373 z m -57.6475,-88.53024 c 0.1853,-0.29995 2.3811,-1.17989 4.8795,-1.95541 2.4983,-0.77552 4.5424,-1.56694 4.5424,-1.7587 0,-0.78248 -6.7528,-8.46441 -8.8403,-10.05657 -2.0364,-1.55328 -2.7036,-1.71333 -7.1723,-1.72074 -3.9356,-0.007 -5.2874,0.23552 -6.718,1.20278 l -1.791,1.21094 4.2383,0.30274 c 4.403,0.3145 6.0216,1.06177 8.1441,3.76015 1.0098,1.28374 1.1903,2.26285 1.0249,5.55918 -0.1484,2.9593 0,4.001 0.5773,4.001 0.4279,0 0.9297,-0.24541 1.1151,-0.54537 z m -145.8811,85.68291 c -3.7478,-0.9114 -8.2474,-3.3445 -11.7368,-6.34656 l -2.6546,-2.28392 1.5951,-1.59508 c 2.5961,-2.5961 1.9683,-6.29626 -1.2978,-7.64913 -1.202,-0.4979 -2.2085,-0.53327 -3.3056,-0.11615 -1.4394,0.54727 -1.6399,0.43058 -2.2936,-1.33497 -0.394,-1.06406 -0.8004,-5.26016 -0.9031,-9.32467 -0.1683,-6.66435 -0.024,-7.91287 1.4748,-12.71486 0.9139,-2.92867 2.2811,-6.68717 3.0383,-8.35221 0.7573,-1.66504 1.752,-3.89243 2.2104,-4.94975 l 0.8336,-1.92241 -1.6542,0.49898 c -0.9099,0.27444 -2.604,0.91035 -3.7649,1.41314 -1.3828,0.59893 -2.462,0.72614 -3.1295,0.3689 -0.7081,-0.37898 -2.0032,-0.087 -4.2467,0.95745 -1.7754,0.82649 -3.8082,1.50538 -4.5174,1.50863 -0.7092,0.003 -3.1539,0.94429 -5.4326,2.09119 -2.2788,1.1469 -4.2311,1.99747 -4.3384,1.89016 -0.1073,-0.10732 1.5903,-1.61584 3.7726,-3.35227 2.1821,-1.73644 4.3059,-3.61307 4.7195,-4.17028 3.0655,-4.13044 12.5575,-10.07665 25.3062,-15.85288 8.2157,-3.7224 9.5286,-4.32812 19.9477,-9.20325 3.1636,-1.48025 6.137,-2.817 6.6076,-2.97057 1.1477,-0.37452 -7.0523,-8.49113 -9.9838,-9.88222 -2.7588,-1.30909 -5.5649,-0.84928 -7.8733,1.29016 l -1.7096,1.58434 2.6322,1.02913 c 3.4392,1.34468 4.2722,2.60034 4.2722,6.43986 0,2.73006 -0.2574,3.42521 -1.8629,5.03077 -1.6374,1.63734 -2.2742,1.86298 -5.2581,1.86298 -7.1033,0 -11.0498,-3.91107 -11.0371,-10.93825 0.01,-5.55964 3.997,-12.67507 7.1023,-12.67507 2.1351,0 3.6014,-0.98149 4.0325,-2.69942 0.4971,-1.98059 2.3366,-2.4648 9.0313,-2.37736 l 5.3381,0.0697 7.6795,7.59036 c 6.1644,6.0928 8.1808,7.72447 10.2203,8.27009 2.9451,0.78787 5.0276,3.0851 5.0276,5.54581 0,3.03514 -5.6074,7.02058 -16.1668,11.49064 -8.5793,3.63182 -12.6363,6.22385 -17.5434,11.20856 -6.0109,6.10607 -8.8133,10.60504 -11.6887,18.76525 -0.934,2.65068 -0.975,3.37771 -0.3011,5.33794 1.4139,4.1129 4.4454,6.46015 11.7427,9.09244 9.2189,3.32547 18.384,1.59252 23.9869,-4.53546 1.343,-1.46881 4.2937,-5.32912 6.5572,-8.57847 2.2634,-3.24935 4.6568,-6.19767 5.3186,-6.55183 1.7355,-0.92883 3.4302,0.40453 5.9325,4.66769 4.6413,7.90733 6.1705,9.85384 9.0029,11.45992 9.81,5.56266 19.5493,5.13826 26.0462,-1.13496 3.7446,-3.61567 4.948,-6.26007 4.9307,-10.834 -0.01,-2.09457 -0.2891,-4.89816 -0.6249,-6.23019 -0.3356,-1.33204 -0.7487,-3.0654 -0.9178,-3.85192 -1.0985,-5.10883 -8.2275,-13.87952 -13.7046,-16.86055 -1.8991,-1.03362 -2.9024,-1.9787 -2.9024,-2.73415 0,-2.23977 -1.1612,-3.49679 -3.2303,-3.49679 -1.0871,0 -2.2571,0.28039 -2.5998,0.62309 -0.4271,0.42713 -2.7977,-0.25029 -7.5381,-2.15408 -6.6977,-2.68989 -10.2451,-5.04993 -10.2451,-6.81594 0,-1.30175 3.4798,-4.27246 7.2333,-6.17502 1.8494,-0.9374 4.0436,-2.45115 4.8761,-3.36389 0.8325,-0.91274 3.5069,-3.25597 5.943,-5.20718 3.3708,-2.69986 4.9024,-3.54765 6.4087,-3.54765 1.4257,0 2.4217,-0.49643 3.5604,-1.7744 1.9202,-2.15508 5.2635,-2.79646 11.7283,-2.24998 11.1185,0.93985 16.4409,7.89923 15.8118,20.6748 -0.2999,6.09168 -2.2342,11.46301 -4.7666,13.23679 -2.1026,1.47276 -4.9219,1.2598 -6.5718,-0.49645 -1.5021,-1.599 -1.5001,-3.35015 0.01,-9.41026 1.7389,-6.97545 1.2812,-10.38112 -1.7118,-12.73538 -3.4275,-2.6961 -11.1678,-0.6871 -18.3032,4.75063 -2.4975,1.90334 -4.5058,3.72927 -4.4628,4.05764 0.043,0.32836 1.6909,1.15238 3.662,1.83114 1.9711,0.67876 4.4302,1.83672 5.4646,2.57325 1.0343,0.73652 2.1354,1.33913 2.4469,1.33913 1.2327,0 12.3161,11.67279 15.3266,16.14173 11.1166,16.50226 13.1114,30.91537 6.2202,44.94395 -2.6236,5.34088 -8.6331,11.98635 -13.1349,14.52478 -5.9543,3.35745 -17.5151,5.02405 -18.3582,2.64652 -1.0827,-3.05309 -3.6856,-4.04012 -5.7433,-2.17793 -1.0298,0.93197 -1.2748,0.92459 -3.5633,-0.10738 -3.4309,-1.54712 -8.2697,-7.03979 -11.3659,-12.90166 -1.4408,-2.7276 -2.8731,-4.80253 -3.1831,-4.61096 -0.31,0.19157 -1.0113,1.21654 -1.5587,2.27769 -1.6737,3.24505 -7.8425,11.00371 -10.8623,13.66182 -3.5304,3.10762 -9.181,5.92608 -13.4949,6.7312 -4.2896,0.80057 -11.7226,0.69009 -15.5082,-0.23051 z m 553.0966,-0.11907 c -13.5477,-3.57425 -24.2821,-15.1629 -27.8569,-30.07375 -2.3017,-9.60099 -1.3718,-25.67841 2.2066,-38.15 4.6379,-16.16423 14.0377,-32.10185 26.7782,-45.40317 l 3.9146,-4.08692 -8.6001,0 c -9.683,0 -12.5491,-0.84515 -14.2912,-4.21416 -2.9592,-5.72234 0.269,-8.28534 11.225,-8.9122 l 6.5601,-0.37535 2.1721,1.9071 c 1.2988,1.14034 2.833,1.90619 3.816,1.90483 1.807,-0.002 5.5796,-2.04186 5.5796,-3.01618 0,-0.87075 8.9179,-0.69092 11.4705,0.2313 2.8262,1.02109 4.383,3.3062 4.7329,6.9475 0.4828,5.02569 0.043,5.75033 -6.3601,10.47942 -11.9978,8.86111 -22.0626,20.95354 -28.4688,34.20451 -2.7592,5.70729 -2.7671,5.74205 -3.0465,13.48039 -0.3229,8.94052 0.4905,13.65028 3.747,21.69675 1.1921,2.9455 1.7841,5.15758 1.4375,5.37177 -0.3241,0.20029 -0.9835,1.30789 -1.4655,2.46132 -1.7516,4.19213 1.0263,8.04801 5.798,8.04801 2.1231,0 2.767,0.37208 5.2647,3.04239 1.5652,1.6733 4.4394,4.01042 6.3871,5.19358 2.9336,1.78206 4.2936,2.20561 7.9256,2.46822 4.3735,0.31624 4.3906,0.31149 7,-1.9471 1.4387,-1.24527 4.4887,-5.05563 6.7778,-8.46746 2.2891,-3.41183 4.9222,-6.80127 5.8513,-7.53209 2.1342,-1.67879 4.7606,-1.29041 6.7755,1.00193 1.2922,1.47006 1.4065,2.05553 1.1533,5.90398 -0.7365,11.19393 -11.7359,22.15357 -27.3378,27.23898 -5.5679,1.81482 -13.5819,2.06445 -19.1465,0.5964 z m -88.3985,-20.34495 c -1.4986,-0.31111 -3.8145,-0.64198 -5.1465,-0.73527 -4.1135,-0.28809 -6.9629,-1.06733 -6.9629,-1.90417 0,-0.44001 -0.56,-0.97774 -1.2443,-1.19494 -1.7048,-0.54108 -1.2246,-1.50145 1.5186,-3.03721 3.4853,-1.95116 9.4932,-6.92869 9.1104,-7.54797 -0.1851,-0.29957 0.1719,-0.81681 0.7934,-1.14943 0.6215,-0.33261 6.2694,-7.76078 12.551,-16.50703 14.2849,-19.88968 14.4622,-20.29842 14.0112,-32.29476 -0.3958,-10.52634 -2.0793,-17.22875 -6.6663,-26.53988 l -3.2314,-6.55938 1.0747,-2.21993 c 1.3034,-2.69267 0.9492,-4.9754 -1.0883,-7.01288 -1.7074,-1.70745 -3.3641,-2.11548 -5.8898,-1.45059 -1.6226,0.42714 -2.1749,0.0722 -6.8069,-4.37476 -8.4015,-8.06577 -17.7223,-13.29395 -28.6636,-16.07789 -3.7011,-0.9417 -6.613,-1.14788 -15.7422,-1.11459 -10.5996,0.0386 -11.576,0.14281 -18.1786,1.93936 -8.5633,2.33006 -16.7463,6.0824 -23.7825,10.90562 l -5.3301,3.65373 2.1329,1.62683 c 2.9854,2.27706 8.7064,3.9397 15.7254,4.5701 7.8322,0.70344 15.3946,2.63125 20.6536,5.26503 20.21,10.12158 27.5801,22.75261 26.7624,45.86581 -0.3376,9.54145 -1.479,14.39574 -4.7352,20.13781 -5.9852,10.55466 -15.8309,17.44475 -28.8965,20.22188 -4.801,1.02047 -7.1981,1.18459 -13.414,0.91839 -6.8193,-0.29203 -8.0178,-0.51924 -12.1094,-2.29575 -6.5727,-2.85376 -11.7405,-7.16142 -15.8954,-13.24987 -1.0227,-1.49853 -1.9347,-2.82134 -2.0267,-2.93956 -0.092,-0.11822 -1.0647,0.83539 -2.1614,2.11915 -4.9014,5.73699 -11.294,11.93601 -13.4483,13.04108 -7.5638,3.87987 -19.0012,3.95843 -28.0145,0.19242 -2.0805,-0.86927 -2.1486,-0.98333 -1.2082,-2.02244 1.8855,-2.08344 1.1595,-5.11844 -1.5609,-6.52519 -1.4685,-0.75943 -2.1285,-0.79956 -3.5392,-0.21522 -0.9538,0.39505 -1.8978,1.23391 -2.0978,1.86411 -0.2,0.6302 -0.6859,1.14465 -1.0797,1.14323 -0.3938,-10e-4 -4.0223,-3.07187 -8.0632,-6.8232 -9.4348,-8.75872 -9.7438,-8.92657 -13.273,-7.21194 -6.1272,2.97681 -10.4084,0.61101 -10.6632,-5.89254 -0.1413,-3.60527 1.8917,-6.26246 13.9406,-18.22101 11.6375,-11.55016 24.918,-23.13827 47.9979,-41.88146 l 14.913,-12.11078 -1.9443,-6.15001 c -4.1443,-13.10904 -7.6475,-17.12121 -15.5258,-17.7817 -3.4201,-0.28673 -4.6078,-0.65585 -5.7339,-1.78198 -1.5879,-1.5879 -2.5417,-1.73618 -4.7361,-0.73633 -4.432,2.01931 -2.6962,8.39803 2.2852,8.39803 1.2721,0 1.5939,0.36189 1.934,2.17454 0.6369,3.39521 -0.1653,8.07785 -1.8096,10.56256 -0.8834,1.33497 -2.6413,2.80984 -4.3143,3.61972 -2.4434,1.18282 -3.4662,1.32272 -7.5995,1.03941 -4.1926,-0.28736 -5.072,-0.5617 -7.1979,-2.2454 -3.437,-2.72217 -4.9237,-6.39038 -5.3073,-13.09503 -0.3861,-6.74695 0.6601,-10.44056 4.0469,-14.28824 4.575,-5.19748 12.4038,-7.72459 23.9478,-7.73036 10.8817,-0.005 16.6506,2.26212 23.663,9.30112 4.6289,4.6465 6.585,7.61802 9.6387,14.6426 l 1.9617,4.51281 3.8625,-2.85361 c 14.7795,-10.91927 32.0351,-19.31351 47.6157,-23.16333 l 5.5464,-1.37048 1.6184,1.273 c 2.3697,1.86402 4.666,1.6464 6.5758,-0.62317 l 1.5955,-1.89618 11.0218,0.34122 c 7.9011,0.24461 12.479,0.68443 16.1683,1.55334 23.6287,5.56506 37.5872,18.94831 44.4399,42.60852 2.9775,10.28011 3.5177,14.89594 3.8362,32.77758 0.2641,14.83103 0.1711,17.3632 -0.7675,20.88871 -2.0682,7.76906 -7.291,16.92553 -17.3632,30.44134 -3.6519,4.90055 -6.5913,9.10804 -6.5318,9.34996 0.059,0.24193 -0.3249,0.68224 -0.8543,0.97849 -0.5293,0.29623 -0.9624,0.93376 -0.9624,1.41673 0,0.93255 0.069,0.96788 2.4219,1.24753 5.0875,0.60456 7.0231,1.15566 7.9112,2.25238 0.9123,1.12667 1.2423,1.16384 4.5086,0.50786 4.4039,-0.88442 9.1782,-0.91387 9.706,-0.0599 0.2202,0.35635 0.9579,0.8541 1.6392,1.10612 1.1402,0.42182 1.0695,0.56274 -0.8903,1.77398 -1.2969,0.80152 -3.1185,1.31576 -4.6608,1.31576 -1.3925,0 -3.2676,0.37265 -4.1669,0.82813 -2.4398,1.23579 -10.9159,2.962 -12.5412,2.55409 -0.7803,-0.19584 -5.1082,0.32535 -9.6176,1.1582 -8.7839,1.62233 -9.5071,1.66445 -13.6851,0.79705 z m -67.147,-37.0748 c 9.4811,-2.87772 16.2395,-9.62406 18.6886,-18.65517 0.5196,-1.91622 0.6801,-5.22021 0.4852,-9.99025 -0.4841,-11.84545 -3.5464,-18.31114 -10.2916,-21.72921 -1.6673,-0.84483 -9.3337,-3.66373 -17.0367,-6.26424 -7.703,-2.6005 -16.6476,-5.96289 -19.877,-7.47197 l -5.8717,-2.7438 -31.1676,27.04497 c -17.1422,14.87473 -31.1882,27.22129 -31.2134,27.43681 -0.047,0.4011 8.75,6.20395 14.1828,9.35578 3.0266,1.75585 3.0301,1.7563 13.6231,1.7563 8.9225,0 11.0856,-0.18184 13.6975,-1.15151 5.2839,-1.9616 8.3495,-4.6873 12.6771,-11.2715 2.9595,-4.50255 4.5747,-6.36397 6.2752,-7.23153 2.1804,-1.11234 2.388,-1.11913 4.3345,-0.14165 2.7744,1.39323 4.3645,3.9753 6.6233,10.75543 1.5825,4.75011 2.3037,6.06295 4.2096,7.66311 1.265,1.06203 3.2163,2.26255 4.3362,2.66782 2.825,1.02233 12.9197,1.00416 16.3249,-0.0294 z m -1022.02462,25.0436 c -11.05552,-1.98559 -25.00945,-8.99667 -35.10287,-17.63727 -1.70345,-1.45827 -1.83351,-1.79874 -1.26163,-3.30291 1.44676,-3.80527 -1.30899,-9.38783 -5.4888,-11.11917 -1.00608,-0.41672 -3.01183,-0.62439 -4.45723,-0.46147 -2.56878,0.28953 -2.669,0.23331 -4.44813,-2.49564 -6.52729,-10.01197 -9.25296,-19.54487 -9.24906,-32.34809 0.003,-9.05769 1.09105,-16.83307 3.3624,-24.02317 2.4577,-7.78002 3.60872,-10.09306 5.22426,-10.49854 0.78909,-0.19805 2.23911,-1.1997 3.22226,-2.22588 1.49606,-1.56156 1.80076,-2.39931 1.86867,-5.13775 0.0717,-2.89106 0.37172,-3.61904 2.5773,-6.25336 11.02059,-13.16288 26.42302,-22.07124 44.89513,-25.96618 7.4089,-1.56219 29.00026,-1.55223 36.32819,0.0168 15.6456,3.34991 28.15053,9.98175 39.53304,20.96588 l 6.01136,5.80097 -0.76242,2.54473 c -1.527,5.09671 2.1082,10.37341 7.8939,11.45842 2.53476,0.47536 2.83965,0.74299 4.3756,3.84104 2.33429,4.70828 3.98996,9.19142 5.59017,15.13675 l 1.38519,5.14649 1.6151,-3.63282 c 0.8883,-1.99805 1.93414,-4.36244 2.32409,-5.25419 0.38996,-0.89176 0.91567,-1.49365 1.16825,-1.33755 0.25259,0.15611 0.633,-0.40846 0.84537,-1.2546 0.21237,-0.84615 0.66974,-1.53844 1.01639,-1.53844 0.89976,0 0.11507,18.05694 -0.99984,23.00785 -1.16336,5.16609 -5.88697,16.44539 -7.87802,18.81162 -0.86416,1.027 -1.5712,2.13718 -1.5712,2.46708 0,0.33848 -0.56792,0.41957 -1.30347,0.18611 -1.02673,-0.32587 -1.70808,0.0682 -3.2092,1.85624 -1.68009,2.00117 -2.04711,2.18164 -3.09987,1.52418 -1.33838,-0.83584 -2.68044,-3.33199 -2.68044,-4.98544 0,-0.59962 -0.4087,-1.09023 -0.90821,-1.09023 -0.70307,0 -0.90611,-0.78635 -0.89893,-3.48145 0.007,-2.47116 0.17959,-3.2179 0.5962,-2.57325 0.43061,0.66634 0.58939,0.23341 0.5962,-1.62562 0.005,-1.39361 0.26596,-3.20899 0.5797,-4.03418 0.81714,-2.14925 -0.27062,-14.82601 -1.77434,-20.67813 -1.52148,-5.9212 -4.8173,-13.08076 -8.3159,-18.06476 -9.33155,-13.29342 -26.2787,-24.31478 -43.51095,-28.29679 -7.70267,-1.77993 -19.10061,-1.40244 -26.58853,0.88058 -15.61064,4.75959 -26.1852,16.63284 -30.75099,34.52757 -1.0232,4.01024 -1.25796,6.87532 -1.2944,15.79715 -0.0396,9.68848 0.11448,11.46984 1.38747,16.04495 4.63917,16.67315 16.56386,29.34929 31.86886,33.87711 6.72525,1.9896 18.09044,2.44917 23.45583,0.94849 5.71489,-1.59844 9.23253,-3.62402 13.08049,-7.53218 3.60619,-3.66261 6.38069,-8.22935 8.48927,-13.97308 1.76903,-4.81877 3.10926,-10.43031 3.10926,-13.01841 0,-1.91655 -0.15618,-2.1785 -1.05957,-1.77711 -6.52236,2.89798 -11.67473,4.08592 -18.92093,4.36244 -8.68693,0.3315 -12.74679,-0.43901 -19.20911,-3.64562 -5.06902,-2.51527 -9.72569,-7.50979 -11.28851,-12.10754 -1.55362,-4.57068 -1.18403,-12.31996 0.78022,-16.35897 2.98523,-6.13841 11.40559,-11.8643 20.63535,-14.03215 5.07085,-1.19102 13.90132,-1.19779 18.44567,-0.0141 12.48687,3.25241 21.23262,14.49332 24.00041,30.84771 0.45816,2.70721 0.58739,7.3875 0.35942,13.0176 -0.29922,7.38959 -0.64803,9.75564 -2.18856,14.84534 -6.0348,19.93809 -21.27158,35.95406 -40.01147,42.05763 -5.22042,1.70028 -6.64719,1.89733 -15.43948,2.13227 -5.32813,0.14237 -11.15517,-0.005 -12.94896,-0.3269 z m 43.90715,-71.72195 c 4.57731,-1.53656 10.5165,-4.28731 10.5165,-4.87074 0,-0.7729 -2.5557,-4.98311 -4.09231,-6.74159 -0.9286,-1.06269 -3.18044,-2.62668 -5.00409,-3.47554 -6.44185,-2.99851 -18.99983,-1.77492 -22.83161,2.22462 -1.43162,1.49428 -1.67557,2.25351 -1.67557,5.2148 0,6.3894 3.84802,9.04671 13.21358,9.12487 4.18432,0.0349 6.32472,-0.28514 9.8735,-1.47642 z m 465.52707,71.1458 c -6.5827,-0.67115 -14.5604,-2.91499 -21.1914,-5.96038 -16.1004,-7.39429 -27.58,-20.84777 -32.3665,-37.93194 -1.6511,-5.89308 -1.9101,-7.91953 -2.2483,-17.59442 -0.9408,-26.91428 5.1204,-49.397 18.109,-67.17136 2.4494,-3.35192 3.441,-5.21672 3.2194,-6.0547 -0.1761,-0.66601 -0.3441,-27.77593 -0.3733,-60.24425 -0.05,-55.718703 -0.1102,-58.910263 -1.0679,-56.841793 -2.198,4.74737 -6.2872,7.92243 -11.1407,8.65026 -1.7091,0.25629 -4.9169,0.0453 -8.3399,-0.54864 -4.2638,-0.73977 -6.0297,-0.81098 -7.563,-0.30496 -3.8874,1.28297 -4.2305,6.30735 -0.7407,10.847973 l 1.8665,2.42857 2.0424,-3.03278 c 3.1649,-4.699623 7.0709,-5.498613 11.7071,-2.39479 7.906,5.29278 7.4051,14.72474 -0.9515,17.91615 -3.7741,1.44132 -13.9821,0.98389 -17.9824,-0.80581 -7.019,-3.14025 -10.2297,-9.19396 -10.6515,-20.083433 -0.3007,-7.76094 0.3865,-12.06565 2.6638,-16.68606 1.9517,-3.95996 4.4043,-5.55736 11.5835,-7.54453 5.8533,-1.62017 5.8838,-1.62204 6.8579,-0.41918 1.9907,2.45851 6.6304,1.02285 7.467,-2.31055 0.2994,-1.19304 1.1745,-1.62588 5.6551,-2.79751 5.4894,-1.43539 6.2672,-1.95924 10.8362,-7.29838 2.4665,-2.88224 4.1467,-3.73288 6.501,-3.29122 2.109,0.39565 3.471,2.40931 4.5857,6.78019 0.9356,3.66787 0.9903,13.16952 0.4162,72.267133 l -0.5203,53.56396 12.9324,-12.60469 c 7.1129,-6.93258 18.0611,-17.95821 24.3294,-24.5014 12.4422,-12.98781 14.6223,-16.25937 17.2783,-25.92871 1.1026,-4.01414 1.1167,-4.37555 0.1849,-4.75303 -0.8597,-0.34826 -0.8052,-0.48691 0.3688,-0.93943 1.1358,-0.43776 1.3067,-0.82539 0.9745,-2.20987 -0.4966,-2.06917 -0.5781,-2.16494 -1.9249,-2.26416 -0.5974,-0.044 -1.7477,-0.54339 -2.5563,-1.10974 -1.2319,-0.86283 -3.0061,-1.02971 -10.9472,-1.02971 -9.1783,0 -13.2709,-0.35059 -13.2524,-1.13525 0.013,-0.5484 6.4284,-2.94184 15.1278,-5.64376 4.1626,-1.29284 9.7481,-3.04592 12.4121,-3.89573 7.7299,-2.46573 7.3876,-2.39874 6.4567,-1.26344 -0.8837,1.07791 -0.4872,2.25067 0.761,2.25067 0.4338,0 2.5914,-0.81739 4.7947,-1.81641 2.2033,-0.99903 4.3732,-1.81641 4.8219,-1.81641 1.4945,0 3.2901,2.68603 4.0475,6.05469 0.4118,1.83155 1.1267,3.93354 1.5887,4.6711 1.0204,1.62881 1.0588,3.7255 0.151,8.24553 -0.6089,3.03213 -0.8588,3.43106 -2.1491,3.43106 -3.6379,0 -7.4502,3.87284 -7.4502,7.56837 0,0.99903 0.5541,2.7253 1.2313,3.83616 l 1.2314,2.01975 -3.343,4.64042 c -5.3179,7.38188 -9.5872,11.77461 -32.663,33.60729 -21.402,20.24901 -21.6917,20.55487 -19.0723,20.13429 20.2681,-3.25436 32.9071,-2.88297 43.529,1.2791 5.0034,1.9605 11.0188,5.54658 10.5571,6.29359 -0.6526,1.05595 0.4033,4.07272 1.976,5.64538 1.2355,1.23555 2.152,1.55783 4.4297,1.55783 2.6443,0 3.0389,0.2039 4.9809,2.57392 6.6592,8.12666 12.1362,19.53197 14.8207,30.86246 1.4933,6.30304 1.6169,7.8271 1.609,19.84497 -0.01,12.70028 -0.056,13.19997 -1.9603,20.49907 -4.7697,18.28326 -16.2309,35.84796 -28.8022,44.14037 -2.9387,1.93852 -3.0041,1.95132 -4.2383,0.83028 -3.0827,-2.80012 -6.1266,-3.21669 -9.3124,-1.2744 -2.0726,1.26367 -3.7477,4.32049 -3.7477,6.8392 0,1.31685 -0.3712,1.50569 -4.2036,2.1386 -4.513,0.7453 -16.4406,0.78847 -23.3453,0.0845 z m 21.3865,-36.84598 c 20.5486,-6.56976 32.803,-27.49423 32.803,-56.0113 0,-11.06614 -2.2516,-17.61377 -8.3217,-24.19903 -5.3109,-5.76164 -11.0914,-9.27061 -18.7287,-11.36886 -4.2026,-1.15462 -5.7608,-1.26414 -13.8188,-0.97122 -10.6418,0.38684 -17.6075,1.81819 -24.8242,5.10101 -5.3601,2.43827 -12.7178,7.8642 -14.8615,10.9597 -0.7626,1.10114 -2.2726,2.37227 -3.3554,2.82472 -2.4111,1.00742 -3.4871,2.87158 -3.1078,5.38435 0.1766,1.16957 -0.1546,2.77034 -0.8627,4.17014 -3.9478,7.80426 -6.0715,29.58171 -3.8581,39.56183 3.1281,14.10418 11.7285,22.22913 27.2564,25.74969 3.9767,0.9016 6.7406,1.05393 15.4395,0.85088 9.7139,-0.22673 11.0654,-0.39751 16.24,-2.05191 z m 742.4137,36.84721 c -11.2292,-1.2456 -24.0744,-6.30998 -32.5283,-12.82466 -8.3533,-6.43716 -15.9921,-16.71861 -19.2212,-25.87072 -0.8029,-2.27566 -0.7818,-2.43784 0.3634,-2.80133 2.9903,-0.94906 4.4494,-6.47733 2.6355,-9.98503 -0.9072,-1.75429 -3.6534,-3.61301 -5.3383,-3.61301 -1.3175,0 -1.5971,-1.95376 -1.6061,-11.2242 -0.019,-20.00934 4.1253,-37.94846 12.2351,-52.9556 5.417,-10.02405 8.5053,-13.55127 37.108,-42.38289 28.1011,-28.326 33.2169,-33.8372 35.4221,-38.15962 2.7629,-5.41574 5.7337,-15.54285 5.2704,-17.96627 -0.1465,-0.76656 -0.031,-1.39374 0.2551,-1.39374 0.2868,0 0.5215,-0.35839 0.5215,-0.79642 0,-0.5146 -1.4462,-1.0293 -4.0869,-1.45452 -2.2478,-0.36194 -5.9941,-1.26093 -8.3252,-1.99774 -3.6084,-1.14057 -5.7439,-1.35182 -14.3691,-1.42147 -5.5719,-0.045 -9.795,-0.19195 -9.3848,-0.32657 1.0361,-0.3399 11.0011,-6.10184 15.859,-9.1699 6.0696,-3.833333 13.6268,-6.047223 22.4262,-6.569833 6.5785,-0.3907 7.6378,-0.30495 11.2012,0.90675 3.8962,1.32488 3.9464,1.37059 5.0226,4.575173 0.5979,1.78032 1.3212,5.24822 1.6072,7.70647 0.2861,2.45824 0.7986,4.64168 1.1391,4.85209 0.8981,0.55506 -0.6314,8.68798 -2.5073,13.33223 -3.5111,8.69271 -11.1286,19.26817 -20.8615,28.96244 -3.8627,3.8473 -6.0638,5.6006 -7.0314,5.6006 -2.4501,0 -5.4403,2.52157 -6.4313,5.42351 -0.7602,2.22619 -3.0988,4.73377 -14.356,15.39318 -7.3963,7.00357 -13.3696,12.81194 -13.2741,12.9075 0.096,0.0956 4.1036,-0.39027 8.9068,-1.07963 11.3625,-1.63076 24.52,-1.37387 31.4382,0.61382 20.3649,5.85109 35.7312,23.83238 41.6306,48.71499 1.4671,6.18833 1.5944,7.77205 1.5865,19.74556 -0.01,12.71528 -0.054,13.19238 -1.9714,20.54308 -6.0432,23.16911 -20.5038,41.79839 -38.1461,49.14289 -9.0985,3.78773 -21.7095,5.06815 -35.1895,3.57287 z m 21.6452,-30.52697 c 1.5412,-1.68182 1.9681,-2.67806 1.9681,-4.59337 0,-2.09786 0.2317,-2.53385 1.629,-3.06509 0.8959,-0.34063 3.6333,-1.86856 6.0829,-3.39538 7.7252,-4.81488 14.3296,-13.58097 18.257,-24.23255 3.8424,-10.42121 5.5241,-29.44563 3.3532,-37.93431 -3.0052,-11.75082 -13.5592,-21.63534 -26.5975,-24.91004 -6.0323,-1.51508 -20.6854,-0.93803 -28.4571,1.12067 -18.6137,4.93077 -29.89,16.75256 -34.1836,35.83733 -1.9425,8.63368 -2.4111,23.68892 -0.9435,30.30384 3.8866,17.51722 17.6028,26.8871 39.359,26.8871 5.8623,0 6.9693,0.14764 6.9693,0.9295 0,1.56478 1.9614,4.03045 3.9068,4.91115 3.0049,1.36041 6.3679,0.63824 8.6564,-1.85885 z M 801.80773,335.01998 c -1.16553,-0.1314 -4.74266,-0.52224 -7.94919,-0.86852 -33.06018,-3.5703 -53.27209,-16.41383 -57.79034,-36.72251 -1.49874,-6.73653 -0.90749,-19 1.27863,-26.52123 4.11143,-14.14514 13.74144,-26.09339 27.22451,-33.77834 5.78025,-3.29456 15.06721,-7.08348 21.92863,-8.94649 3.18855,-0.86576 4.83493,-1.59058 4.58413,-2.01817 -2.15042,-3.66641 -7.89441,-11.67653 -9.58657,-13.3687 -3.8299,-3.8299 -8.52707,-4.81819 -15.38084,-3.23615 l -3.08806,0.71281 2.58776,1.29947 c 3.84138,1.92898 5.31238,4.47515 5.31238,9.19524 0,7.64739 -3.37783,10.87962 -10.81369,10.34759 -5.22124,-0.37358 -7.53431,-1.86878 -9.53371,-6.16272 -1.10983,-2.38348 -1.43827,-4.12316 -1.44022,-7.62862 -0.004,-6.64395 0.79892,-8.87811 4.47954,-12.46893 4.04162,-3.94301 7.27836,-5.09115 15.57286,-5.524 7.47634,-0.39015 14.03021,0.86066 16.82305,3.21068 0.92393,0.77743 3.6402,4.25219 6.03617,7.72169 4.63155,6.70676 7.80039,9.7639 15.16343,14.62894 2.95533,1.95268 4.9934,3.79611 5.74132,5.19299 1.1424,2.13364 1.1424,2.20074 0,4.54102 l -1.15954,2.37538 -11.50393,0.36713 c -6.32715,0.20192 -12.32131,0.56949 -13.32033,0.8168 -6.88588,1.70466 -12.67407,4.79352 -19.05783,10.17019 -5.7642,4.85485 -9.81106,9.86016 -12.54616,15.51757 -2.75435,5.69724 -3.45214,13.19099 -1.68572,18.10325 1.48636,4.13343 4.48767,8.08309 8.58742,11.30084 3.36757,2.64308 3.4504,2.77957 3.28814,5.41813 -0.0915,1.48871 0.13353,3.26728 0.50017,3.95236 0.99669,1.86233 4.1053,3.25758 6.28608,2.82142 2.06597,-0.41319 4.63765,-2.53351 4.63765,-3.82369 0,-0.46112 0.28195,-0.66414 0.62656,-0.45116 0.92753,0.57324 8.14942,2.61949 12.99651,3.68242 11.96705,2.6243 17.92739,3.35781 30.01186,3.69341 14.75201,0.40968 19.33194,-0.22704 32.04879,-4.45549 9.53158,-3.16933 16.20556,-6.55132 21.40835,-10.84853 7.03605,-5.81136 10.03916,-11.95939 10.06171,-20.59851 0.015,-5.71846 -0.88463,-9.41872 -3.5689,-14.68031 -1.83699,-3.6008 -7.58055,-9.14499 -11.70461,-11.29831 -2.6532,-1.38533 -3.47914,-2.13745 -3.48024,-3.16916 -6e-4,-0.74402 -0.76881,-2.2116 -1.70671,-3.26129 -1.40341,-1.57068 -2.15797,-1.90852 -4.26274,-1.90852 -1.76477,0 -2.97699,0.39411 -3.91091,1.27148 -1.28441,1.20664 -1.53791,1.22997 -4.97067,0.45749 -1.98948,-0.4477 -7.91228,-0.98643 -13.16178,-1.19718 -10.93572,-0.43904 -13.85025,-1.23519 -15.38475,-4.20259 l -0.96672,-1.86942 3.36868,-3.13557 c 1.85278,-1.72456 5.36346,-4.64848 7.80152,-6.49761 2.43805,-1.84913 5.10358,-4.39931 5.92339,-5.66706 3.66922,-5.67405 9.97871,-13.63501 12.8587,-16.22437 5.45269,-4.90244 6.78037,-5.33895 17.13516,-5.63371 10.80191,-0.30749 14.43748,0.34571 13.89755,2.49696 -0.43931,1.75037 0.49525,4.18576 2.22448,5.79678 1.51182,1.40848 5.8421,1.76789 7.02677,0.58322 1.24063,-1.24063 2.61131,0.004 4.57939,4.15903 1.79994,3.79988 1.93976,4.55368 1.93887,10.45264 -10e-4,7.21801 -0.69095,9.14277 -4.24968,11.85714 -1.70942,1.30384 -2.98981,1.68806 -6.4504,1.93566 -7.06212,0.5053 -10.18766,-2.16981 -10.18766,-8.71949 0,-5.72496 2.53948,-8.86158 8.77931,-10.84371 1.07826,-0.34251 0.88574,-0.68102 -1.75716,-3.08946 -3.8392,-3.49862 -6.25798,-4.46196 -11.18301,-4.45392 -6.56291,0.0107 -12.60553,2.36033 -17.37391,6.75567 -2.28178,2.10327 -11.76607,13.8677 -11.76607,14.59478 0,0.1415 2.52027,0.43401 5.60059,0.65003 10.76938,0.75522 21.24593,4.46834 29.16692,10.33741 8.66352,6.41923 13.98114,13.83931 17.1367,23.91212 1.4853,4.74124 1.63084,6.07758 1.65422,15.18888 0.029,11.30457 -0.7577,15.59071 -4.3898,23.91605 -3.31491,7.59832 -10.37661,17.19297 -15.56893,21.15335 l -2.05733,1.56921 -1.99675,-1.21739 c -2.50514,-1.52736 -6.21375,-1.56819 -8.95401,-0.0986 -2.3444,1.25732 -4.8494,5.38718 -4.8494,7.99496 0,1.53258 -0.34232,1.77008 -4.38965,3.04551 -4.22049,1.32999 -5.28801,1.38807 -27.70025,1.50696 -12.82082,0.068 -24.2642,0.0162 -25.42973,-0.11525 z m 168.92608,-0.24157 c -6.5645,-0.65419 -13.13446,-1.66295 -18.27944,-2.80664 -3.53176,-0.78508 -4.20474,-1.1612 -5.25118,-2.93472 -0.66014,-1.11883 -1.90632,-2.4969 -2.76935,-3.06237 -2.31665,-1.51795 -6.42004,-1.81434 -8.71175,-0.62926 -1.83899,0.95099 -2.03226,0.92784 -5.09543,-0.61038 -11.93084,-5.99127 -20.04239,-15.78751 -22.60314,-27.2976 -1.50526,-6.76587 -0.94651,-18.60736 1.24187,-26.31874 l 1.60696,-5.66257 2.67126,0.21246 c 2.3114,0.18383 2.91774,-0.034 4.50099,-1.61729 2.3349,-2.3349 2.47492,-5.30151 0.36839,-7.80499 l -1.46136,-1.73673 3.51141,-4.21306 c 8.11125,-9.73204 21.85656,-17.73299 37.99039,-22.11363 3.18852,-0.86576 4.83492,-1.59058 4.58413,-2.01817 -2.15045,-3.66641 -7.89442,-11.67653 -9.58658,-13.3687 -3.8299,-3.8299 -8.52708,-4.81819 -15.38087,-3.23615 l -3.08802,0.71281 2.58772,1.29947 c 3.8414,1.92898 5.31239,4.47515 5.31239,9.19524 0,7.64739 -3.3778,10.87962 -10.81369,10.34759 -5.22124,-0.37358 -7.53431,-1.86878 -9.53371,-6.16272 -1.10983,-2.38348 -1.43827,-4.12316 -1.44022,-7.62862 -0.004,-6.64395 0.79892,-8.87811 4.47954,-12.46893 4.04162,-3.94301 7.27835,-5.09115 15.57286,-5.524 7.47634,-0.39015 14.03019,0.86066 16.82304,3.21068 0.92395,0.77743 3.64021,4.25219 6.03617,7.72169 4.63154,6.70676 7.80039,9.7639 15.16345,14.62894 2.9553,1.95268 4.99337,3.79611 5.74131,5.19299 1.1424,2.13364 1.1424,2.20074 0,4.54102 l -1.15954,2.37538 -11.50393,0.36713 c -6.32716,0.20192 -12.32131,0.56949 -13.32033,0.8168 -6.88589,1.70466 -12.67406,4.79352 -19.05783,10.17019 -5.76105,4.85217 -9.79453,9.84006 -12.60644,15.58929 -2.12484,4.34443 -2.22144,4.81625 -2.23151,10.89846 -0.013,7.8248 1.14243,10.62586 6.61827,16.04495 10.19103,10.08539 33.7659,16.92768 60.92219,17.68185 14.75207,0.40968 19.33197,-0.22704 32.04877,-4.45549 21.0867,-7.01149 31.4269,-16.9984 31.4701,-30.39485 0.012,-3.85536 0.2177,-4.69527 1.528,-6.25252 1.6932,-2.01221 1.8219,-2.789 0.8248,-4.97745 -0.6454,-1.41635 -3.6736,-3.06265 -4.3639,-2.37239 -0.1716,0.17158 -0.8872,-0.81559 -1.5902,-2.19371 -2.0587,-4.03526 -7.6583,-9.15463 -13.0455,-11.92666 -9.2841,-4.7772 -17.1775,-6.63128 -30.4397,-7.15005 -10.62603,-0.41565 -13.54167,-1.22228 -15.06485,-4.1678 l -0.96669,-1.86942 3.36865,-3.13557 c 1.8528,-1.72456 5.36349,-4.64848 7.80149,-6.49761 2.4381,-1.84913 5.1036,-4.39931 5.9234,-5.66706 3.6693,-5.67405 9.9788,-13.63501 12.8587,-16.22437 5.8127,-5.22611 6.5691,-5.44723 18.6489,-5.45172 l 10.5957,-0.004 3.9356,1.87537 c 5.5336,2.63689 9.7093,6.60192 11.8616,11.26304 1.5912,3.44608 1.7613,4.42915 1.7605,10.17218 0,7.21801 -0.691,9.14277 -4.2497,11.85714 -1.7094,1.30384 -2.9898,1.68806 -6.4504,1.93566 -7.0621,0.5053 -10.1877,-2.16981 -10.1877,-8.71949 0,-5.72496 2.5395,-8.86158 8.7793,-10.84371 1.0783,-0.34251 0.8858,-0.68102 -1.7571,-3.08946 -3.7402,-3.40839 -6.2545,-4.46047 -10.6597,-4.46047 -1.9194,0 -4.2701,-0.40702 -5.224,-0.90448 -0.9538,-0.49746 -2.1743,-0.90615 -2.7121,-0.9082 -1.4369,-0.005 -4.1686,2.33777 -4.1686,3.57585 0,0.58839 -0.6807,1.37993 -1.5126,1.75898 -2.5217,1.14898 -6.6805,5.35929 -11.4854,11.62777 -2.5083,3.27239 -4.5606,6.06557 -4.5606,6.20708 0,0.1415 2.5202,0.43401 5.6006,0.65003 10.7693,0.75522 21.2459,4.46834 29.1669,10.33741 8.6635,6.41923 13.9812,13.83931 17.1367,23.91212 1.4853,4.74124 1.6308,6.07758 1.6542,15.18887 0.02,7.88528 -0.2169,10.94706 -1.1255,14.53128 -3.22,12.70233 -10.8915,24.41053 -21.0938,32.19309 -5.1673,3.94171 -10.0765,6.38728 -18.3215,9.12705 l -5.4493,1.81075 -23.61327,0.18198 c -12.98733,0.1001 -25.92925,-0.0488 -28.75982,-0.33089 z m 1075.91989,-1.20166 c -19.5939,-3.0238 -35.7295,-8.89776 -46.5292,-16.93839 -10.5082,-7.82363 -15.6268,-16.46818 -17.1586,-28.97827 -0.5182,-4.23256 -0.4553,-6.51334 0.3246,-11.78342 1.2789,-8.64093 5.5693,-27.10452 7.2887,-31.36671 6.1736,-15.30371 34.8044,-40.58975 55.0625,-48.62981 14.603,-5.79567 28.2841,-3.09044 24.9133,4.92623 -1.1842,2.81634 -4.2723,4.67384 -10.7807,6.48441 -23.2611,6.47112 -45.4141,23.62829 -53.9174,41.75842 -3.3507,7.14402 -4.3107,11.74232 -4.3107,20.64757 0,9.99134 1.0629,13.03401 6.5607,18.77963 3.646,3.81037 3.7276,3.96827 3.5297,6.83304 -0.1693,2.45111 0.057,3.24173 1.3821,4.81584 1.7969,2.13546 5.1368,3.46863 7.3181,2.92115 0.8087,-0.20298 2.394,-1.18 3.5229,-2.17115 2.0516,-1.80128 2.0539,-1.8017 5.0062,-0.9099 9.9004,2.99051 15.2249,3.63301 29.8972,3.60767 13.2315,-0.0228 14.6995,-0.13662 20.9501,-1.62364 19.6511,-4.67499 36.6757,-17.36872 43.8465,-32.69248 3.5047,-7.48943 4.3211,-11.39349 4.6561,-22.26528 0.2598,-8.43325 0.1099,-11.08832 -0.9617,-17.03587 -2.9864,-16.57484 -9.8272,-29.69738 -21.5681,-41.37318 -7.4429,-7.40173 -13.5582,-11.83338 -23.9757,-17.37479 -15.8109,-8.41036 -33.7821,-13.24508 -54.0554,-14.54228 -9.4404,-0.60406 -11.6861,-0.56286 -17.5586,0.3221 -15.9448,2.40282 -21.5694,2.34708 -24.3244,-0.24108 -1.9346,-1.81742 -2.0173,-5.22121 -0.1751,-7.19861 1.881,-2.01902 6.6776,-3.97413 12.7843,-5.2109 l 5.3115,-1.07571 -2.3199,-1.56755 c -12.6963,-8.57888 -16.4137,-17.54357 -15.7025,-37.86742 0.2911,-8.320873 0.5823,-10.498223 2.0283,-15.165073 5.3985,-17.42315 19.7213,-28.35919 42.4652,-32.4238 9.0503,-1.61742 28.5496,-2.27936 35.9385,-1.21999 15.6332,2.24136 23.9661,6.08889 43.2176,19.95471 9.0817,6.54106 9.0821,6.54142 9.4016,9.25933 0.1758,1.4949 0.81,3.46649 1.4094,4.38129 1.164,1.7764 4.7027,3.57941 6.3529,3.23682 1.2258,-0.25446 3.0616,2.29665 6.1367,8.527523 5.1972,10.53081 7.2967,20.78028 7.7211,37.69364 0.2732,10.88559 -0.058,15.41414 -1.3799,18.85856 -0.3189,0.83126 -0.085,1.05822 1.0891,1.05822 0.8224,0 2.5315,0.82354 3.7981,1.83009 1.2666,1.00655 2.9388,1.96016 3.7161,2.11915 0.7773,0.15898 2.0637,0.42278 2.8587,0.58622 0.7951,0.16345 2.7148,0.0601 4.2661,-0.22976 2.773,-0.51804 2.8025,-0.50697 1.7497,0.65636 -1.0551,1.16583 -1.0131,1.17703 2.8482,0.75899 2.1555,-0.23335 4.9982,-0.78659 6.3172,-1.22941 l 2.3981,-0.80514 -1.7927,1.50023 c -5.6317,4.71296 -22.8526,10.55497 -31.1149,10.55538 -1.142,6e-5 -2.9631,0.32082 -4.0471,0.71279 -2.2396,0.80988 -3.867,-0.0137 -3.867,-1.95696 0,-0.6028 -0.545,-1.26895 -1.211,-1.48034 -1.3549,-0.43003 -1.5974,-1.28392 -0.4713,-1.65931 0.4684,-0.15613 0.1154,-0.8708 -0.9627,-1.94884 -1.0093,-1.00942 -1.4472,-1.85991 -1.0757,-2.08952 0.6997,-0.43243 1.3829,-4.35223 2.8587,-16.40198 3.7132,-30.31774 -7.4305,-53.083403 -31.9035,-65.176063 -3.1654,-1.56411 -8.6317,-3.58036 -12.342,-4.55237 -5.9313,-1.55384 -8.0186,-1.78351 -19.0723,-2.09861 -13.279,-0.37853 -19.9705,0.28568 -28.5485,2.83378 -3.07,0.91193 -4.4104,1.05048 -5.6401,0.58296 -5.1422,-1.95506 -10.6162,1.8865 -10.6162,7.45029 0,0.79326 -0.8027,2.5503 -1.7837,3.90455 -2.7689,3.82238 -4.4403,10.135223 -4.1831,15.799363 0.1959,4.31391 0.4227,5.04322 2.5767,8.28745 4.5255,6.81592 12.4464,13.34985 23.6733,19.52808 3.6631,2.01582 8.8399,4.42336 11.504,5.3501 2.664,0.92674 5.7016,2.26427 6.75,2.97228 1.0485,0.70802 4.5905,2.27302 7.8712,3.47778 26.3269,9.66813 27.5233,10.19812 36.2751,16.07025 6.655,4.46525 16.2905,12.96715 21.8542,19.28293 8.5535,9.70993 13.3129,18.61678 19.0764,35.70002 l 2.6264,7.78462 -0.017,17.86136 c -0.015,16.07828 -0.1532,18.53952 -1.3819,24.65467 -4.3011,21.40841 -16.392,39.7914 -33.0073,50.18433 l -3.3456,2.09265 -2.0128,-1.22717 c -2.3912,-1.45789 -5.3386,-1.57812 -7.7769,-0.31723 -2.1262,1.09951 -3.1376,2.80476 -3.5875,6.04844 -0.3329,2.39999 -0.3813,2.43976 -5.3626,4.39981 -9.888,3.89087 -15.5922,4.99256 -25.4645,4.91822 -5.118,-0.0386 -11.8071,-0.52088 -15.8273,-1.14129 z"
       id="path3550"
       inkscape:connector-curvature="0" />
    <path
       style="fill:#d0a273;fill-opacity:1"
       d="m 1164.7001,1349.9643 c -6.1213,-1.3917 -8.4092,-6.9774 -6.8761,-16.7872 0.8826,-5.6475 2.6716,-10.5189 6.5803,-17.9186 l 2.1522,-4.0744 -1.2274,-1.4014 c -1.4023,-1.6008 -2.962,-2.8645 -3.5318,-2.8612 -0.2139,0 -0.793,0.4934 -1.2867,1.0937 -0.8015,0.9746 -0.8395,1.1259 -0.354,1.412 0.2992,0.1762 0.6964,0.09 0.8828,-0.1909 1.1123,-1.678 2.8281,0.5546 2.4936,3.2445 -0.3419,2.7487 -2.9683,5.2297 -4.5826,4.3289 -2.0625,-1.1509 -2.4822,-8.3714 -0.6866,-11.8146 0.8478,-1.6259 2.8747,-3.0905 4.6292,-3.345 1.4611,-0.212 1.5703,-0.1429 3.5199,2.2259 1.7499,2.126 2.1977,2.4551 3.4358,2.5258 1.6561,0.094 2.3405,0.8841 2.0779,2.3977 -0.1005,0.5797 -1.9724,3.8978 -4.1596,7.3737 -2.1873,3.4758 -4.272,7.0424 -4.6329,7.9256 -0.638,1.5618 -1.5761,6.1499 -1.5761,7.7082 0,1.3721 1.3999,3.336 3.4934,4.9013 1.841,1.3765 2.3279,1.538 4.9301,1.6354 4.0189,0.1505 6.3322,-0.9066 10.1535,-4.6398 3.9849,-3.8932 6.0096,-8.4047 6.0756,-13.5383 0.033,-2.5489 -0.063,-2.9941 -1.1613,-5.3797 -1.8747,-4.0732 -2.0425,-4.1057 -5.1412,-0.9965 -0.688,0.6904 -1.3806,1.2552 -1.5391,1.2552 -0.1584,0 -0.3656,0.3047 -0.4604,0.6772 -0.095,0.3724 -0.072,0.677 0.051,0.677 0.1227,0 0.6571,0.598 1.1876,1.3288 0.8952,1.2335 0.9644,1.5373 0.9644,4.2333 0,3.3695 -0.5619,5.7099 -1.8144,7.5568 -2.3495,3.4645 -8.3003,5.3784 -10.3696,3.335 -0.9843,-0.9719 -1.3678,-2.3694 -1.3678,-4.9836 0,-5.1211 2.4124,-9.4546 8.0146,-14.397 l 3.5734,-3.1525 -1.6049,-0.5376 c -2.6458,-0.8862 -2.7598,-2.077 -0.5073,-5.2996 0.8853,-1.2666 2.0377,-3.2707 2.5608,-4.4534 0.8272,-1.8702 0.8951,-2.2351 0.5209,-2.7995 -0.3574,-0.5392 -0.468,-4.6746 -0.6533,-24.4226 -0.2321,-24.7478 -0.1742,-27.5912 0.5975,-29.368 0.6001,-1.3813 1.1513,-1.3542 2.0457,0.1007 0.6829,1.1109 0.914,1.184 4.4261,1.4002 2.0381,0.1254 3.9175,0.3985 4.1766,0.6068 1.1331,0.9114 1.5293,7.0446 0.7205,11.153 -1.1284,5.7313 -6.9612,9.1342 -7.2725,4.2428 -0.1232,-1.9363 1.1238,-4.8948 2.2417,-5.318 0.62,-0.2347 0.9224,-0.071 1.3553,0.736 0.5419,1.0094 0.569,1.0144 0.9828,0.1809 0.6895,-1.3892 0.8727,-3.3528 0.3819,-4.0933 -0.3782,-0.5704 -0.5819,-0.5497 -1.6022,0.1628 -0.6429,0.4489 -1.2137,0.9686 -1.2686,1.1548 -0.1636,0.5552 -2.2921,0.3835 -2.7984,-0.2257 -0.2579,-0.3104 -0.6162,-0.9706 -0.7962,-1.4671 -0.2408,-0.6641 -0.328,4.7662 -0.3298,20.5392 0,20.3916 0.023,21.3941 0.5146,20.4649 0.2844,-0.5375 1.0079,-1.3854 1.6079,-1.8842 2.9996,-2.4943 4.6853,-1.9342 5.5146,1.8325 0.8387,3.8089 -0.057,8.6489 -2.3514,12.7094 l -0.9888,1.7496 1.6861,2.5433 c 2.2977,3.4661 2.8059,5.7978 2.6073,11.9619 -0.1671,5.1836 -0.9798,9.0434 -2.7522,13.0714 -1.0414,2.3666 -2.948,5.5551 -4.3663,7.302 -1.1434,1.4081 -3.8463,3.8292 -4.2751,3.8292 -0.2115,0 -0.5178,0.2011 -0.6808,0.4468 -0.3213,0.4848 -4.8001,2.6078 -6.2574,2.9662 -1.4229,0.3499 -5.8968,0.5834 -6.8828,0.3593 z m 10.8181,-22.0428 c 1.1672,-0.879 1.9002,-2.5047 1.9002,-4.2142 0,-1.4047 -0.4194,-2.0988 -2.1867,-3.6196 -1.324,-1.1393 -1.5232,-1.179 -2.0563,-0.4096 -0.2175,0.3139 -0.9718,1.2499 -1.6763,2.08 -2.1922,2.5832 -2.7626,5.8766 -1.179,6.8068 0.9682,0.5687 4.1041,0.1806 5.1981,-0.6434 z m 8.4601,-24.0262 c 0.5185,-0.9438 1.2991,-2.809 1.7346,-4.145 0.7333,-2.2499 0.7586,-2.5164 0.3438,-3.6113 -0.5659,-1.4938 -1.287,-1.3419 -2.5989,0.5476 -0.9075,1.3069 -3.6454,7.5653 -3.6454,8.3328 0,0.1788 0.7252,0.3851 1.6115,0.4584 1.5441,0.1277 1.6509,0.062 2.5544,-1.5825 z m 10.8777,32.6249 c -2.2909,-2.9078 -1.9237,-8.6814 0.8206,-12.9046 3.1033,-4.7759 7.1782,-2.6084 7.1782,3.8181 0,3.2559 -1.1577,6.344 -3.467,9.2471 -0.2824,0.3552 -1.2064,0.7324 -2.0533,0.8383 -1.331,0.1665 -1.6671,0.031 -2.4785,-0.9989 z m 15.4627,-5.2014 c -1.4019,-0.6417 -1.995,-1.3325 -2.4872,-2.8973 -1.0053,-3.1957 -0.2842,-7.7605 1.7225,-10.9037 1.5867,-2.4853 3.2794,-3.3315 4.8548,-2.427 3.6412,2.0905 3.1901,10.1421 -0.8463,15.1079 -0.3226,0.3969 -2.344,1.6432 -2.4481,1.5094 -0.016,-0.022 -0.3747,-0.1966 -0.7957,-0.3893 z m 13.8597,-6.3318 c -1.9999,-0.7161 -2.8949,-2.9683 -2.7102,-6.8199 0.2994,-6.244 4.3783,-11.3059 7.3569,-9.1298 1.4429,1.0542 1.9952,2.6599 1.9885,5.7816 -0.01,3.115 -0.7033,5.4963 -2.2717,7.764 -0.8123,1.1746 -2.9583,2.9896 -3.3083,2.798 -0.047,-0.025 -0.5213,-0.2027 -1.0552,-0.3939 z"
       id="path3563"
       inkscape:connector-curvature="0" />
    <path
       style="display:inline;fill:#d0a273;fill-opacity:1"
       d="m 1247.6374,1302.051 c -6.1213,-1.3917 -8.4092,-6.9774 -6.8761,-16.7872 0.8826,-5.6475 2.6716,-10.5189 6.5803,-17.9186 l 2.1522,-4.0744 -1.2274,-1.4014 c -1.4023,-1.6008 -2.962,-2.8645 -3.5318,-2.8612 -0.2139,0 -0.793,0.4934 -1.2867,1.0937 -0.8015,0.9746 -0.8395,1.1259 -0.354,1.412 0.2992,0.1762 0.6964,0.09 0.8828,-0.1909 1.1123,-1.678 2.8281,0.5546 2.4936,3.2445 -0.3419,2.7487 -2.9683,5.2297 -4.5826,4.3289 -2.0625,-1.1509 -2.4822,-8.3714 -0.6866,-11.8146 0.8478,-1.6259 2.8747,-3.0905 4.6292,-3.345 1.4611,-0.212 1.5703,-0.1429 3.5199,2.2259 1.7499,2.126 2.1977,2.4551 3.4358,2.5258 1.6561,0.094 2.3405,0.8841 2.0779,2.3977 -0.1005,0.5797 -1.9724,3.8978 -4.1596,7.3737 -2.1873,3.4758 -4.272,7.0424 -4.6329,7.9256 -0.638,1.5618 -1.5761,6.1499 -1.5761,7.7082 0,1.3721 1.3999,3.336 3.4934,4.9013 1.841,1.3765 2.3279,1.538 4.9301,1.6354 4.0189,0.1505 6.3322,-0.9066 10.1535,-4.6398 3.9849,-3.8932 6.0096,-8.4047 6.0756,-13.5383 0.033,-2.5489 -0.063,-2.9941 -1.1613,-5.3797 -1.8747,-4.0732 -2.0425,-4.1057 -5.1412,-0.9965 -0.688,0.6904 -1.3806,1.2552 -1.5391,1.2552 -0.1584,0 -0.3656,0.3047 -0.4604,0.6772 -0.095,0.3724 -0.072,0.677 0.051,0.677 0.1227,0 0.6571,0.598 1.1876,1.3288 0.8952,1.2335 0.9644,1.5373 0.9644,4.2333 0,3.3695 -0.5619,5.7099 -1.8144,7.5568 -2.3495,3.4645 -8.3003,5.3784 -10.3696,3.335 -0.9843,-0.9719 -1.3678,-2.3694 -1.3678,-4.9836 0,-5.1211 2.4124,-9.4546 8.0146,-14.397 l 3.5734,-3.1525 -1.6049,-0.5376 c -2.6458,-0.8862 -2.7598,-2.077 -0.5073,-5.2996 0.8853,-1.2666 2.0377,-3.2707 2.5608,-4.4534 0.8272,-1.8702 0.8951,-2.2351 0.5209,-2.7995 -0.3574,-0.5392 -0.468,-4.6746 -0.6533,-24.4226 -0.2321,-24.7478 -0.1742,-27.5912 0.5975,-29.368 0.6001,-1.3813 1.1513,-1.3542 2.0457,0.1007 0.6829,1.1109 0.914,1.184 4.4261,1.4002 2.0381,0.1254 3.9175,0.3985 4.1766,0.6068 1.1331,0.9114 1.5293,7.0446 0.7205,11.153 -1.1284,5.7313 -6.9612,9.1342 -7.2725,4.2428 -0.1232,-1.9363 1.1238,-4.8948 2.2417,-5.318 0.62,-0.2347 0.9224,-0.071 1.3553,0.736 0.5419,1.0094 0.569,1.0144 0.9828,0.1809 0.6895,-1.3892 0.8727,-3.3528 0.3819,-4.0933 -0.3782,-0.5704 -0.5819,-0.5497 -1.6022,0.1628 -0.6429,0.4489 -1.2137,0.9686 -1.2686,1.1548 -0.1636,0.5552 -2.2921,0.3835 -2.7984,-0.2257 -0.2579,-0.3104 -0.6162,-0.9706 -0.7962,-1.4671 -0.2408,-0.6641 -0.328,4.7662 -0.3298,20.5392 0,20.3916 0.023,21.3941 0.5146,20.4649 0.2844,-0.5375 1.0079,-1.3854 1.6079,-1.8842 2.9996,-2.4943 4.6853,-1.9342 5.5146,1.8325 0.8387,3.8089 -0.057,8.6489 -2.3514,12.7094 l -0.9888,1.7496 1.6861,2.5433 c 2.2977,3.4661 2.8059,5.7978 2.6073,11.9619 -0.1671,5.1836 -0.9798,9.0434 -2.7522,13.0714 -1.0414,2.3666 -2.948,5.5551 -4.3663,7.302 -1.1434,1.4081 -3.8463,3.8292 -4.2751,3.8292 -0.2115,0 -0.5178,0.2011 -0.6808,0.4468 -0.3213,0.4848 -4.8001,2.6078 -6.2574,2.9662 -1.4229,0.3499 -5.8968,0.5834 -6.8828,0.3593 z m 10.8181,-22.0428 c 1.1672,-0.879 1.9002,-2.5047 1.9002,-4.2142 0,-1.4047 -0.4194,-2.0988 -2.1867,-3.6196 -1.324,-1.1393 -1.5232,-1.179 -2.0563,-0.4096 -0.2175,0.3139 -0.9718,1.2499 -1.6763,2.08 -2.1922,2.5832 -2.7626,5.8766 -1.179,6.8068 0.9682,0.5687 4.1041,0.1806 5.1981,-0.6434 z m 8.4601,-24.0262 c 0.5185,-0.9438 1.2991,-2.809 1.7346,-4.145 0.7333,-2.2499 0.7586,-2.5164 0.3438,-3.6113 -0.5659,-1.4938 -1.287,-1.3419 -2.5989,0.5476 -0.9075,1.3069 -3.6454,7.5653 -3.6454,8.3328 0,0.1788 0.7252,0.3851 1.6115,0.4584 1.5441,0.1277 1.6509,0.062 2.5544,-1.5825 z m 10.8777,32.6249 c -2.2909,-2.9078 -1.9237,-8.6814 0.8206,-12.9046 3.1033,-4.7759 7.1782,-2.6084 7.1782,3.8181 0,3.2559 -1.1577,6.344 -3.467,9.2471 -0.2824,0.3552 -1.2064,0.7324 -2.0533,0.8383 -1.331,0.1665 -1.6671,0.031 -2.4785,-0.9989 z m 15.4627,-5.2014 c -1.4019,-0.6417 -1.995,-1.3325 -2.4872,-2.8973 -1.0053,-3.1957 -0.2842,-7.7605 1.7225,-10.9037 1.5867,-2.4853 3.2794,-3.3315 4.8548,-2.427 3.6412,2.0905 3.1901,10.1421 -0.8463,15.1079 -0.3226,0.3969 -2.344,1.6432 -2.4481,1.5094 -0.016,-0.022 -0.3747,-0.1966 -0.7957,-0.3893 z m 13.8597,-6.3318 c -1.9999,-0.7161 -2.8949,-2.9683 -2.7102,-6.8199 0.2994,-6.244 4.3783,-11.3059 7.3569,-9.1298 1.4429,1.0542 1.9952,2.6599 1.9885,5.7816 -0.01,3.115 -0.7033,5.4963 -2.2717,7.764 -0.8123,1.1746 -2.9583,2.9896 -3.3083,2.798 -0.047,-0.025 -0.5213,-0.2027 -1.0552,-0.3939 z"
       id="path3563-3"
       inkscape:connector-curvature="0" />
    <path
       style="fill:#daa761;fill-opacity:1"
       d="m 1647.6742,4632.0415 c -3.1229,-1.7668 -5.1925,-4.2931 -6.7684,-8.2625 -2.0247,-5.1 -2.6579,-10.1823 -2.2726,-18.2427 0.5566,-11.642 2.6616,-19.0963 7.0669,-25.0265 1.6228,-2.1847 2.4478,-2.9732 4.0359,-3.8577 3.8536,-2.146 7.8791,-1.6072 11.3324,1.517 3.6467,3.299 5.3621,8.1593 5.6189,15.9204 0.2645,7.9936 -1.6632,14.1321 -6.0645,19.3112 -4.3886,5.1641 -9.5103,4.3769 -11.8854,-1.8268 -0.3843,-1.0038 -0.7243,-2.3374 -0.7552,-2.9637 -0.031,-0.6263 -0.077,-1.3583 -0.1023,-1.6269 -0.1748,-1.8626 1.5716,-5.7453 3.4853,-7.7488 1.3066,-1.3679 1.2639,-1.5515 -0.2394,-1.0302 -1.9364,0.6715 -3.4988,-0.454 -3.9884,-2.8733 -0.5129,-2.534 -0.05,-4.6013 1.108,-4.9529 0.468,-0.1418 0.975,-0.3148 1.1263,-0.3839 0.1548,-0.071 0.2783,0.2833 0.2822,0.8101 0.011,1.5378 1.0864,1.7012 3.5907,0.546 2.3553,-1.0864 5.8076,-2.296 5.8944,-2.0652 0.089,0.2375 0.3661,6.0113 0.3194,6.6611 -0.025,0.3359 -0.3269,0.6541 -0.675,0.709 -1.9103,0.3022 -4.9323,2.992 -5.774,5.139 -0.5254,1.3402 -0.6884,3.8126 -0.3322,5.0392 0.3948,1.3594 1.7501,2.9818 2.9964,3.587 2.0521,0.9965 3.6949,-0.5839 5.2798,-5.0784 2.1486,-6.0933 2.0681,-13.7338 -0.2078,-19.7082 -2.661,-6.9852 -8.0134,-7.9976 -11.8961,-2.2504 -2.9344,4.3436 -5.1595,12.7221 -5.5327,20.8336 -0.2289,4.9776 -0.08,7.5178 0.6877,11.7158 0.8048,4.402 2.4181,8.4274 4.2858,10.6935 1.0921,1.3252 1.4951,1.5826 3.1466,2.0096 1.5505,0.4009 2.131,0.3652 3.2018,-0.1983 1.9723,-1.0375 2.9284,-2.3771 5.6697,-7.9416 1.3777,-2.7968 2.6536,-5.2483 2.8354,-5.4478 0.2581,-0.283 0.6011,0.2796 1.5645,2.5667 l 1.2342,2.9292 -1.7525,3.4978 c -1.7452,3.4836 -2.9625,5.2925 -4.4231,6.5722 -1.2862,1.1271 -3.4537,2.2615 -4.9121,2.5711 -1.3725,0.2911 -5.9258,-0.434 -7.1805,-1.1437 z m -27.6069,-23.9127 c -3.2243,-2.1712 -5.7559,-6.5473 -6.2128,-10.7393 -0.681,-6.2512 1.4206,-13.078 6.4884,-21.0772 3.0157,-4.7597 5.2489,-6.6001 8.2754,-6.8199 3.0012,-0.2177 5.5196,0.9304 7.4939,3.4166 0.8615,1.0847 5.5674,9.2271 5.4355,9.4043 -0.045,0.06 -1.2164,0.7159 -2.6033,1.4566 l -2.5217,1.3468 -2.0749,-3.6172 c -2.7513,-4.7962 -3.9398,-6.1426 -5.94,-6.7282 -1.3978,-0.4098 -1.685,-0.3546 -2.7769,0.5291 -1.258,1.0181 -3.7996,4.2992 -5.0059,6.4622 -0.3782,0.6784 -1.0738,2.3145 -1.5456,3.636 -1.711,4.7926 -1.5105,9.1735 0.6181,13.5026 2.8618,5.8214 6.8016,7.6822 9.0227,4.2617 1.0724,-1.6515 1.4891,-3.4527 1.6292,-7.0442 0.2037,-5.2192 -0.8046,-8.7307 -2.6496,-9.227 -1.2237,-0.3269 -1.9984,1.2859 -3.5726,7.4455 -0.2264,0.8859 -0.4697,1.5953 -0.5406,1.5764 -0.071,-0.019 -0.6213,-1.3513 -1.2231,-2.9606 l -1.0944,-2.9261 0.8658,-2.0169 c 1.9629,-4.5719 4.7543,-7.4869 7.1065,-7.4212 2.0716,0.058 4.6827,3.8853 5.5195,8.0908 1.2649,6.3576 -0.2118,13.8083 -3.5574,17.9496 -1.6593,2.0538 -3.4189,3.1719 -5.1777,3.2902 -1.6587,0.1116 -4.3226,-0.6891 -5.9585,-1.7906 z m 50.0682,12.9634 c -1.1268,-0.8154 -2.1558,-1.4201 -2.2865,-1.3437 -0.1306,0.076 0.2616,-0.4112 0.8717,-1.0838 1.7883,-1.9715 4.6227,-6.0338 6.2484,-8.9553 4.2473,-7.6325 6.001,-13.5579 5.3239,-17.9885 -0.3065,-2.0051 -0.7104,-3.0326 -1.6641,-4.2341 -1.9601,-2.4692 -4.3231,-1.2728 -5.8447,2.9589 l -0.6568,1.8264 -1.7434,-0.4654 c -1.4175,-0.3783 -1.7353,-0.5792 -1.6997,-1.074 0.1725,-2.4015 2.4476,-5.5958 5.1106,-7.1751 4.2145,-2.4999 7.6702,-1.3274 9.6544,3.2756 1.6212,3.7614 1.7893,9.3186 0.4369,14.4483 -1.405,5.3291 -5.2057,13.1706 -8.7311,18.0132 -1.3918,1.9119 -2.6295,3.4321 -2.7506,3.3781 -0.1209,-0.054 -1.142,-0.7655 -2.269,-1.5806 z m -79.0395,-21.3125 c -3.3131,-1.4936 -6.0835,-5.1429 -6.4444,-8.4892 -0.1252,-1.1597 -0.059,-1.7353 0.3539,-3.098 0.4156,-1.3707 1.1642,-2.4373 4.1349,-5.8919 1.9952,-2.3199 4.4618,-5.4039 5.4815,-6.8533 2.0517,-2.9163 2.2058,-3.6556 1.2418,-5.9626 -0.4553,-1.0896 -0.6201,-1.1865 -3.7744,-2.2221 -2.8356,-0.9311 -3.3566,-1.2067 -3.7129,-1.9648 -0.7378,-1.5703 -0.1946,-4.6279 1.3629,-7.6706 0.6809,-1.3303 0.69,-1.3341 2.2567,-0.9158 1.2235,0.3265 1.5062,0.51 1.2716,0.8252 -0.4532,0.6094 -0.4627,1.818 -0.016,1.9511 0.2135,0.066 1.6021,0.7837 3.0851,1.6001 2.1269,1.1708 2.8976,1.7832 3.6499,2.9 1.2028,1.7856 2.1417,5.4142 1.9808,7.6546 -0.2808,3.9093 -2.7439,7.5381 -7.7388,11.4006 -1.056,0.8166 -2.4037,2.1056 -2.9949,2.8644 -0.9997,1.2833 -1.0614,1.4579 -0.8824,2.4989 0.4053,2.3583 3.5743,5.0918 7.6675,6.614 2.8649,1.0654 5.2888,1.0946 7.0295,0.084 2.807,-1.6285 3.2484,-4.5804 1.849,-12.3643 -1.0428,-5.8008 -1.2989,-7.9325 -1.1693,-9.7359 0.1459,-2.0332 1.1024,-4.3833 2.4043,-5.9081 1.0844,-1.2702 1.1059,-1.3288 0.5412,-1.4796 -0.5678,-0.1516 -0.5823,-0.2358 -0.4232,-2.453 0.3655,-5.0884 2.4886,-18.2149 3.7179,-22.9863 0.9405,-3.6502 1.154,-3.8895 3.9226,-4.3936 3.3981,-0.6186 3.4428,-0.6222 2.7858,-0.2226 -1.4278,0.8692 -3.9377,10.7023 -5.8108,22.7652 l -1.0098,6.5031 0.8038,0.01 c 0.6244,0 1.0462,0.3465 1.8903,1.539 l 1.0867,1.5344 -1.82,1.9006 c -2.4573,2.5661 -3.2042,3.9492 -3.5086,6.4969 -0.2425,2.0309 -0.1513,3.1757 0.929,11.656 1.119,8.7842 -0.9741,13.2703 -6.6364,14.2225 -3.454,0.5808 -9.1221,-0.4283 -13.5056,-2.4042 z m 99.9867,26.6908 c -3.3132,-1.4935 -6.0836,-5.1429 -6.4445,-8.4889 -0.125,-1.16 -0.06,-1.7354 0.3539,-3.0981 0.4157,-1.3708 1.1642,-2.4373 4.1349,-5.8919 1.9952,-2.3199 4.4618,-5.404 5.4815,-6.8535 2.0518,-2.9161 2.2058,-3.6555 1.2419,-5.9625 -0.4552,-1.0895 -0.6199,-1.1864 -3.7745,-2.2222 -2.8356,-0.9308 -3.3565,-1.2067 -3.7127,-1.9646 -0.738,-1.5704 -0.1947,-4.628 1.3627,-7.6708 0.681,-1.3304 0.69,-1.3341 2.2568,-0.9158 1.2235,0.3267 1.506,0.5101 1.2716,0.8254 -0.4532,0.6094 -0.4627,1.8179 -0.016,1.9511 0.2138,0.066 1.6023,0.7837 3.0852,1.5999 3.3038,1.8188 4.3134,3.119 5.1728,6.6621 1.3626,5.6178 -0.4061,9.5875 -6.5277,14.6505 -3.5003,2.895 -4.5188,4.0627 -4.6063,5.2814 -0.1466,2.0414 1.6642,4.2505 5.0699,6.1851 3.7181,2.1123 7.2904,2.5716 9.6033,1.2351 2.8062,-1.6217 3.2482,-4.5766 1.8487,-12.3613 -1.043,-5.8007 -1.299,-7.9326 -1.1694,-9.7359 0.146,-2.033 1.1024,-4.3835 2.4044,-5.9082 1.0844,-1.27 1.1058,-1.3288 0.5412,-1.4795 -0.5678,-0.1516 -0.5825,-0.2357 -0.4233,-2.453 0.3656,-5.0884 2.4886,-18.2149 3.718,-22.9862 0.9404,-3.6504 1.154,-3.8894 3.9225,-4.3936 3.3981,-0.6188 3.4428,-0.6223 2.7858,-0.2225 -1.4189,0.8637 -3.629,9.3239 -5.5201,21.1306 -0.5984,3.737 -1.1475,7.0968 -1.2199,7.4666 -0.113,0.576 -0.01,0.6697 0.7266,0.6565 0.5909,-0.014 1.0264,0.2321 1.3978,0.7793 0.2967,0.4371 0.7734,1.1386 1.0595,1.5591 l 0.5201,0.7642 -1.2935,1.3131 c -4.3613,4.4282 -4.773,6.3063 -3.4643,15.8016 1.3506,9.8007 0.5226,13.9073 -3.2507,16.1198 -3.3879,1.9866 -10.37,1.4068 -16.5368,-1.3729 z"
       id="path3610"
       inkscape:connector-curvature="0" />
    <path
       style="display:inline;fill:#daa761;fill-opacity:1"
       d="m 1130.2253,4616.5421 c -3.0989,0.049 -5.1524,-1.2207 -6.7161,-4.1543 -2.0091,-3.7692 -2.6375,-8.3002 -2.2551,-16.2639 0.5523,-11.5022 2.6411,-19.8458 7.0123,-28.0115 1.6103,-3.0082 2.4289,-4.2278 4.0048,-5.967 3.8237,-4.2194 7.8182,-5.9543 11.2448,-4.8839 3.6186,1.1302 5.3207,4.8422 5.5756,12.1587 0.2624,7.5358 -1.6504,14.5152 -6.0177,21.9568 -4.3547,7.42 -9.4369,9.5298 -11.7937,4.8958 -0.3814,-0.7498 -0.7186,-1.8415 -0.7493,-2.4262 -0.031,-0.5845 -0.076,-1.2625 -0.1014,-1.5067 -0.1736,-1.6926 1.5593,-6.4021 3.4583,-9.3989 1.2965,-2.0462 1.2541,-2.1988 -0.2376,-0.8563 -1.9214,1.7291 -3.4717,1.5215 -3.9576,-0.5299 -0.509,-2.1488 -0.05,-4.3948 1.0994,-5.381 0.4645,-0.3983 0.9676,-0.8483 1.1177,-0.9995 0.1536,-0.1552 0.2761,0.1166 0.28,0.6208 0.011,1.4721 1.078,1.0273 3.5629,-1.4846 2.3372,-2.3625 5.7628,-5.4572 5.849,-5.2842 0.089,0.1785 0.3633,5.5735 0.3169,6.2243 -0.024,0.3366 -0.3244,0.8117 -0.6698,1.0593 -1.8955,1.3597 -4.8943,5.6365 -5.7295,8.1713 -0.5213,1.5823 -0.683,4.0501 -0.3295,5.0297 0.3917,1.0859 1.7365,1.8869 2.9732,1.7712 2.0363,-0.1907 3.6664,-2.6292 5.2391,-7.8364 2.132,-7.0598 2.0521,-14.3591 -0.2062,-18.8282 -2.6404,-5.2253 -7.9516,-3.2029 -11.8043,4.4945 -2.9117,5.8176 -5.1196,15.1166 -5.4899,23.1225 -0.2272,4.9128 -0.079,7.2712 0.6823,10.8769 0.7986,3.781 2.3995,6.7475 4.2527,7.8805 1.0837,0.6626 1.4836,0.6846 3.1223,0.1709 1.5384,-0.4825 2.1145,-0.8418 3.1771,-1.9827 1.957,-2.1011 2.9058,-3.9238 5.6259,-10.8069 1.367,-3.4593 2.6331,-6.53 2.8135,-6.8234 0.2561,-0.4165 0.5964,-0.068 1.5525,1.5916 l 1.2246,2.125 -1.7389,4.343 c -1.7318,4.3253 -2.9397,6.7453 -4.389,8.7928 -1.2762,1.8032 -3.4271,4.1068 -4.8742,5.2206 -1.3618,1.048 -5.8799,2.8991 -7.125,2.9192 z m -27.3937,-7.5357 c -3.1995,-0.2825 -5.7116,-3.0722 -6.1648,-6.8459 -0.6758,-5.6277 1.4096,-13.3663 6.4382,-23.8916 2.9925,-6.2631 5.2084,-9.2819 8.2115,-11.1869 2.9779,-1.8889 5.477,-2.1948 7.4361,-0.9099 0.8548,0.5606 5.5243,5.7536 5.3934,5.998 -0.045,0.083 -1.2069,1.3687 -2.583,2.8569 l -2.5023,2.7058 -2.059,-2.3157 c -2.73,-3.0705 -3.9093,-3.6995 -5.8942,-3.143 -1.3869,0.3883 -1.6718,0.6021 -2.7553,2.0625 -1.2483,1.6827 -3.7704,6.2592 -4.9672,9.0135 -0.3754,0.8638 -1.0656,2.8258 -1.5338,4.3601 -1.6977,5.5644 -1.4987,9.6632 0.6134,12.6333 2.8397,3.9941 6.7492,3.5779 8.9531,-0.953 1.0641,-2.1877 1.4775,-4.1523 1.6166,-7.683 0.2021,-5.131 -0.7984,-7.942 -2.6292,-7.3866 -1.2143,0.3707 -1.983,2.3545 -3.5449,9.1564 -0.2248,0.9782 -0.4661,1.7962 -0.5366,1.8179 -0.071,0.021 -0.6164,-0.9513 -1.2136,-2.1614 l -1.0859,-2.2002 0.8592,-2.4233 c 1.9477,-5.4933 4.7174,-9.8575 7.0515,-11.1107 2.0556,-1.1036 4.6466,1.114 5.4769,4.6882 1.2552,5.4033 -0.2101,13.3916 -3.5299,19.2447 -1.6464,2.903 -3.3926,4.9625 -5.1378,6.0605 -1.6459,1.0356 -4.2892,1.7568 -5.9124,1.6134 z m 49.6815,-15.5599 c -1.1181,-0.1531 -2.1391,-0.1585 -2.2688,-0.012 -0.1296,0.1462 0.2596,-0.5416 0.865,-1.5297 1.7744,-2.8959 4.5869,-8.387 6.2001,-12.1051 4.2145,-9.7137 5.9548,-16.3909 5.2827,-20.2708 -0.3041,-1.7559 -0.7048,-2.5175 -1.6513,-3.1387 -1.9448,-1.2765 -4.2895,1.1959 -5.7994,6.1152 l -0.6517,2.1232 -1.73,0.5283 c -1.4065,0.4296 -1.7219,0.4144 -1.6866,-0.081 0.1712,-2.405 2.4287,-6.7488 5.0711,-9.7572 4.182,-4.7618 7.6111,-5.5687 9.5799,-2.2545 1.6087,2.7084 1.7755,7.9561 0.4335,13.6438 -1.3941,5.9089 -5.1655,15.5736 -8.6636,22.2014 -1.3811,2.6169 -2.6093,4.7707 -2.7294,4.7866 -0.12,0.016 -1.1331,-0.097 -2.2515,-0.2495 z m -78.4292,23.7485 c -3.2876,0.4182 -6.0364,-1.539 -6.3946,-4.5535 -0.1242,-1.0448 -0.058,-1.6352 0.3511,-3.1762 0.4125,-1.55 1.1552,-2.9943 4.103,-7.9775 1.9798,-3.3467 4.4274,-7.6916 5.4392,-9.6555 2.0358,-3.9515 2.1888,-4.7484 1.2322,-6.4265 -0.4518,-0.7925 -0.6152,-0.7934 -3.7453,-0.023 -2.8136,0.692 -3.3306,0.7187 -3.6842,0.1894 -0.7321,-1.0965 -0.1931,-4.3397 1.3524,-8.1361 0.6757,-1.6599 0.6847,-1.6685 2.2393,-2.1434 1.214,-0.3709 1.4945,-0.3526 1.2618,0.082 -0.4498,0.8395 -0.4591,2.0065 -0.015,1.8844 0.2119,-0.056 1.5898,-0.1432 3.0613,-0.1885 2.1105,-0.065 2.8752,0.093 3.6218,0.7448 1.1936,1.0432 2.1252,4.0058 1.9654,6.2494 -0.2785,3.9149 -2.7227,8.7816 -7.6789,15.2898 -1.048,1.3761 -2.3853,3.3694 -2.9718,4.4295 -0.9921,1.793 -1.0533,1.9955 -0.8757,2.8959 0.4023,2.04 3.5468,2.894 7.6084,2.0666 2.8428,-0.5794 5.248,-1.9079 6.9752,-3.853 2.7853,-3.1364 3.2233,-6.2209 1.8347,-12.92 -1.0348,-4.9923 -1.2889,-6.898 -1.1603,-8.7041 0.1448,-2.036 1.0939,-4.8304 2.3858,-7.0248 1.076,-1.8277 1.0973,-1.8961 0.5369,-1.725 -0.5634,0.1721 -0.5778,0.099 -0.4198,-2.1212 0.3626,-5.0956 2.4694,-18.9017 3.6892,-24.1761 0.9331,-4.0351 1.1451,-4.3846 3.8922,-6.4186 3.3719,-2.4964 3.4162,-2.5248 2.7644,-1.773 -1.4168,1.6345 -3.9074,12.4912 -5.766,25.1349 l -1.002,6.8162 0.7976,-0.4408 c 0.6195,-0.3494 1.0381,-0.2524 1.8757,0.4214 l 1.0783,0.8667 -1.806,2.8456 c -2.4383,3.8419 -3.1794,5.5894 -3.4814,8.2086 -0.2407,2.088 -0.1501,3.1374 0.9217,10.6844 1.1105,7.8175 -0.9665,13.3011 -6.5851,17.3854 -3.4273,2.4913 -9.0517,4.6935 -13.4013,5.2474 z m 99.2146,-30.3018 c -3.2876,0.4183 -6.0365,-1.5388 -6.3946,-4.5533 -0.1241,-1.0449 -0.059,-1.6346 0.3511,-3.176 0.4125,-1.5503 1.1553,-2.9943 4.103,-7.9777 1.9798,-3.3466 4.4274,-7.6917 5.4392,-9.6556 2.0359,-3.9513 2.1888,-4.7483 1.2322,-6.4264 -0.4517,-0.7926 -0.615,-0.7935 -3.7453,-0.023 -2.8137,0.6921 -3.3306,0.7185 -3.6841,0.1893 -0.7322,-1.0966 -0.1931,-4.3396 1.3523,-8.1362 0.6757,-1.6599 0.6846,-1.6685 2.2393,-2.1433 1.2141,-0.3707 1.4945,-0.3525 1.2618,0.082 -0.4497,0.8394 -0.4591,2.0063 -0.015,1.8842 0.2122,-0.056 1.5899,-0.1431 3.0614,-0.1886 3.2782,-0.1008 4.2801,0.5841 5.1328,3.5087 1.3521,4.6377 -0.4029,9.4434 -6.4772,17.736 -3.4734,4.7418 -4.484,6.4343 -4.5708,7.6547 -0.1455,2.0445 1.6513,3.1545 5.0308,3.108 3.6893,-0.05 7.2341,-1.6082 9.5291,-4.1873 2.7845,-3.1294 3.2231,-6.2171 1.8344,-12.9169 -1.0349,-4.9921 -1.2889,-6.8981 -1.1603,-8.704 0.1448,-2.036 1.0939,-4.8307 2.3858,-7.0249 1.076,-1.8276 1.0974,-1.8963 0.537,-1.725 -0.5635,0.172 -0.578,0.099 -0.42,-2.1211 0.3628,-5.0958 2.4694,-18.9018 3.6893,-24.1761 0.9332,-4.0352 1.1451,-4.3845 3.8922,-6.4185 3.3719,-2.4967 3.4161,-2.525 2.7643,-1.773 -1.408,1.6243 -3.601,10.9935 -5.4774,23.4009 -0.5939,3.9271 -1.1387,7.4641 -1.2106,7.86 -0.112,0.617 -0.01,0.6491 0.7211,0.2244 0.5862,-0.3442 1.0184,-0.3513 1.3869,-0.033 0.2945,0.254 0.7675,0.6616 1.0513,0.9057 l 0.516,0.4436 -1.2833,1.986 c -4.3277,6.6974 -4.7362,8.7331 -3.4376,17.128 1.3402,8.665 0.5185,13.0758 -3.2256,17.3144 -3.3618,3.8055 -10.29,7.1559 -16.4092,7.9352 z"
       id="path3610-2"
       inkscape:connector-curvature="0" />
    <path
       style="fill:#d9a73c;fill-opacity:1"
       d="m 1685.6917,9357.6833 c -5.016,-2.7103 -7.879,-6.3617 -10.4005,-13.2647 -3.96,-10.8408 -4.7902,-28.5517 -2.1577,-46.0252 1.8578,-12.3304 9.003,-27.9193 15.032,-32.795 7.0972,-5.7397 16.0011,-5.732 21.5881,0.018 4.7808,4.9212 7.756,17.151 7.1289,29.3053 -0.5697,11.0431 -2.9003,18.7589 -8.1495,26.9807 -3.3356,5.2247 -6.6327,8.3721 -10.2369,9.7727 -4.1152,1.5992 -7.106,0.569 -9.7387,-3.3546 -4.7168,-7.03 -4.2733,-15.1453 1.2799,-23.4218 2.2647,-3.3751 2.1194,-3.6802 -0.8085,-1.6991 -1.1076,0.7496 -2.5828,1.0956 -3.3363,0.7826 -1.7258,-0.7167 -3.4436,-6.0131 -2.8885,-8.9065 0.6387,-3.33 3.6438,-5.9507 3.6438,-3.1778 0,1.9289 1.9436,1.5627 5.2939,-0.9974 1.6378,-1.2516 4.6686,-3.548 6.7351,-5.1031 l 3.7574,-2.8273 0.4222,3.5979 c 0.2321,1.9789 0.5692,4.7671 0.7491,6.1958 0.2894,2.3003 0.041,2.7963 -2.1768,4.3297 -5.9501,4.1159 -8.8254,9.1417 -8.8254,15.4258 0,4.4237 2.105,7.9039 5.3438,8.8347 6.0765,1.7465 11.7096,-12.6927 11.0768,-28.3927 -0.307,-7.6165 -2.4678,-15.4725 -5.3748,-19.5414 -6.1856,-8.6576 -15.1668,-3.97 -20.3923,10.6436 -3.4004,9.5095 -4.6787,17.8181 -4.7354,30.7816 -0.055,12.5514 0.7018,17.6589 3.9532,26.6748 2.2507,6.2412 7.204,11.4263 10.9153,11.4263 5.8747,0 8.2392,-2.9847 14.8143,-18.7003 l 3.8547,-9.2131 1.4931,2.4505 c 0.8212,1.3478 1.9942,3.668 2.6066,5.1559 1.1075,2.6912 1.0982,2.7401 -1.7236,9.1251 -5.3767,12.1657 -11.2198,17.4099 -19.8464,17.8123 -4.0312,0.1879 -5.7017,-0.1677 -8.8969,-1.8942 z m 100.5467,-18.6738 c -15.2403,-1.464 -21.6032,-4.1146 -26.1521,-10.8942 -4.5101,-6.7219 -3.4216,-11.6271 4.8432,-21.8262 21.4026,-26.4115 23.5209,-29.6055 22.5556,-34.0097 -0.3278,-1.4953 -1.3412,-3.4469 -2.2524,-4.337 -1.5184,-1.4835 -2.2078,-1.5428 -8.2661,-0.7099 -7.1637,0.9846 -11.0538,0.5499 -12.2724,-1.3715 -1.1989,-1.8904 -0.2073,-7.9382 2.2621,-13.7951 2.3834,-5.6527 3.7433,-6.8749 8.5367,-7.672 l 3.1509,-0.524 -1.0899,2.1766 c -0.5995,1.1973 -0.9307,2.385 -0.7361,2.6397 0.1946,0.2545 4.1806,0.6447 8.8575,0.8669 4.6771,0.2222 9.4187,0.7885 10.5368,1.2582 4.671,1.9628 9.3573,11.9249 8.5502,18.1761 -0.5983,4.6332 -4.671,12.5934 -8.9848,17.5606 -1.9708,2.2695 -7.5351,7.6627 -12.3649,11.9848 -8.8937,7.9588 -11.5912,11.1951 -11.003,13.2009 0.9126,3.1119 9.3469,7.0364 17.7992,8.2821 12.4297,1.8317 21.9698,0.7295 28.1236,-3.2494 4.6303,-2.9938 6.6174,-6.7238 6.6174,-12.4213 0,-4.9507 -2.482,-15.4771 -3.6493,-15.4771 -0.4489,0 -2.2665,1.0608 -4.0391,2.3573 -1.7726,1.2964 -6.168,4.3164 -9.7676,6.711 -8.4547,5.6245 -8.3579,6.7965 0.4443,5.3798 l 3.833,-0.6169 -0.1935,6.723 -0.1935,6.7228 -3.574,0.2663 c -9.644,0.7185 -20.5188,-3.2973 -21.9117,-8.0913 -1.3487,-4.6419 1.6866,-8.9521 11.5895,-16.4567 9.0378,-6.8491 16.9054,-13.3367 18.6846,-15.4074 1.218,-1.4175 1.4088,-2.3024 1.0786,-5.0049 -0.2207,-1.8057 -0.2066,-4.6404 0.031,-6.2994 0.5981,-4.172 5.3413,-13.1847 8.5291,-16.2065 2.5521,-2.4192 2.5835,-2.5078 0.892,-2.5078 -1.5092,0 -1.7536,-0.3639 -1.7536,-2.6103 0,-3.0094 3.9088,-28.2892 5.9562,-38.5216 4.2254,-21.1168 8.408,-36.1704 11.4363,-41.1593 0.5927,-0.9767 18.7393,-13.3834 23.8355,-16.2964 0.2926,-0.1672 -0.9074,1.5863 -2.6668,3.8967 -5.0278,6.6026 -11.1009,23.7183 -16.3928,46.1986 -2.6357,11.197 -8.3221,40.9221 -7.9272,41.4388 0.2074,0.2714 0.955,0.021 1.6615,-0.5562 1.9387,-1.5844 4.1785,-1.278 8.3641,1.1442 2.0849,1.2066 3.8897,2.3232 4.0104,2.4813 0.2686,0.3513 -6.5769,16.0156 -9.1978,21.0471 -1.0432,2.0024 -3.9851,5.8892 -6.5376,8.637 -5.3748,5.7861 -5.2731,4.362 -1.411,19.7616 2.9232,11.6564 3.3406,21.855 1.1331,27.6812 -2.9614,7.816 -10.295,13.9965 -20.5356,17.3066 -4.0859,1.3208 -18.9094,3.2202 -22.4989,2.8829 -0.7278,-0.069 -4.3013,-0.4104 -7.9408,-0.76 z m -58.2324,-3.5619 c -1.0919,-0.5005 -2.9904,-1.4445 -4.219,-2.0976 l -2.2338,-1.1878 4.5771,-6.3053 c 8.1703,-11.2554 16.8556,-30.0815 19.0948,-41.389 2.2276,-11.2496 -1.0959,-19.846 -7.6725,-19.846 -2.6231,0 -7.1777,5.9462 -8.7883,11.4737 l -1.1986,4.1132 -3.5974,0 c -3.5872,0 -3.5962,-0.01 -3.1689,-2.3814 0.8973,-4.9865 4.8837,-11.1234 11.0704,-17.0422 5.3001,-5.0706 12.9849,-7.1081 16.8483,-4.467 9.0082,6.1585 10.0856,23.977 2.6207,43.3472 -4.5232,11.7374 -11.3283,24.6453 -17.2476,32.7158 -3.2658,4.4527 -3.1684,4.4036 -6.0852,3.0664 z m -77.7535,-5.5122 c -0.546,-0.1392 -2.1259,-0.4956 -3.511,-0.792 -3.9173,-0.8384 -5.0915,-2.9581 -5.0915,-9.1914 l 0,-5.2853 -2.3391,2.6875 c -3.2386,3.721 -4.2783,3.5256 -4.2783,-0.804 0,-5.7845 2.8677,-12.9612 5.1789,-12.9612 0.5518,0 1.5137,0.6044 2.1375,1.343 1.0399,1.2316 1.2985,1.0821 3.1127,-1.7979 2.6915,-4.2728 5.4525,-11.6128 5.4525,-14.4949 0,-1.3029 -0.5761,-3.1228 -1.2802,-4.044 -1.0675,-1.3971 -1.8857,-1.5935 -4.928,-1.1826 -3.524,0.476 -3.6629,0.4148 -4.0881,-1.8029 -0.6839,-3.565 1.6753,-12.1599 3.4273,-12.4871 0.9571,-0.1787 1.5154,0.3026 1.7578,1.5154 0.284,1.4215 0.889,1.7774 3.021,1.7774 1.4662,0 3.4432,0.3867 4.3933,0.8594 2.1543,1.0719 4.2797,6.9032 4.2997,11.7967 0.02,4.9618 -3.8551,14.7432 -8.369,21.1231 l -3.6343,5.1369 1.4603,3.4 c 2.4541,5.7137 5.9469,6.7517 10.2975,3.0602 5.5625,-4.7199 8.4744,-14.8686 8.4231,-29.3566 -0.036,-10.1315 -1.6078,-16.744 -5.1476,-21.6555 -2.7055,-3.7539 -5.2677,-3.935 -11.9488,-0.8443 -5.3906,2.4936 -8.611,2.7671 -9.1936,0.7807 -0.2209,-0.7534 -0.4016,-2.9229 -0.4016,-4.8211 0,-3.0211 0.1599,-3.3848 1.2832,-2.9183 1.7366,0.7213 2.435,-1.287 2.8545,-8.2097 0.1877,-3.0956 0.7164,-6.6859 1.175,-7.9785 1.1408,-3.2162 5.0201,-6.5414 8.4647,-7.256 3.2927,-0.683 16.6624,1.2515 16.6624,2.4111 0,0.4264 -0.5212,3.096 -1.1581,5.9323 -1.3692,6.097 -2.03,6.3412 -8.1062,2.9944 -7.2274,-3.9806 -12.6837,-2.0678 -13.5646,4.7553 -0.2548,1.9733 -0.3509,3.7349 -0.2135,3.9147 0.1373,0.1796 1.4325,-0.067 2.8781,-0.549 7.724,-2.5734 10.4483,-2.4816 13.8876,0.4672 3.8617,3.3112 6.2767,14.0748 6.2767,27.9767 0,12.9206 -3.4899,30.4176 -7.8028,39.1219 -2.2425,4.5254 -7.9845,8.2459 -11.3875,7.3784 z"
       id="path3651"
       inkscape:connector-curvature="0" />
  </g>
</svg>
