<?xml version="1.0" encoding="UTF-8" standalone="no"?>
<!-- Created with Inkscape (http://www.inkscape.org/) -->

<svg
   xmlns:dc="http://purl.org/dc/elements/1.1/"
   xmlns:cc="http://creativecommons.org/ns#"
   xmlns:rdf="http://www.w3.org/1999/02/22-rdf-syntax-ns#"
   xmlns:svg="http://www.w3.org/2000/svg"
   xmlns="http://www.w3.org/2000/svg"
   xmlns:xlink="http://www.w3.org/1999/xlink"
   xmlns:sodipodi="http://sodipodi.sourceforge.net/DTD/sodipodi-0.dtd"
   xmlns:inkscape="http://www.inkscape.org/namespaces/inkscape"
   id="svg2"
   version="1.1"
   inkscape:version="0.91 r"
   width="2481"
   height="663"
   sodipodi:docname="Pepper-and-Carrot_by-David-Revoy_E01P00.svg"
   enable-background="new">
  <metadata
     id="metadata8">
    <rdf:RDF>
      <cc:Work
         rdf:about="">
        <dc:format>image/svg+xml</dc:format>
        <dc:type
           rdf:resource="http://purl.org/dc/dcmitype/StillImage" />
        <dc:title />
      </cc:Work>
    </rdf:RDF>
  </metadata>
  <defs
     id="defs6">
    <filter
       inkscape:collect="always"
       id="filter4386">
      <feBlend
         inkscape:collect="always"
         mode="screen"
         in2="BackgroundImage"
         id="feBlend4388" />
    </filter>
  </defs>
  <sodipodi:namedview
     pagecolor="#ffffff"
     bordercolor="#666666"
     borderopacity="1"
     objecttolerance="10"
     gridtolerance="10"
     guidetolerance="10"
     inkscape:pageopacity="0"
     inkscape:pageshadow="2"
     inkscape:window-width="1920"
     inkscape:window-height="1028"
     id="namedview4"
     showgrid="false"
     inkscape:zoom="0.34067204"
     inkscape:cx="1002.8089"
     inkscape:cy="593.31734"
     inkscape:window-x="-8"
     inkscape:window-y="-8"
     inkscape:window-maximized="1"
     inkscape:current-layer="layer3"
     inkscape:snap-global="false">
    <inkscape:grid
       type="xygrid"
       id="grid4282" />
  </sodipodi:namedview>
  <g
     inkscape:groupmode="layer"
     id="layer1"
     inkscape:label="artwork"
     style="display:inline"
     sodipodi:insensitive="true">
    <image
       sodipodi:absref="/home/deevad/peppercarrot/webcomics/New/lang/cn/../gfx_Pepper-and-Carrot_by-David-Revoy_E01P00.png"
       xlink:href="../gfx_Pepper-and-Carrot_by-David-Revoy_E01P00.png"
       width="2481"
       height="663"
       id="image3084"
       x="0"
       y="0" />
  </g>
  <g
     inkscape:groupmode="layer"
     id="layer2"
     inkscape:label="speechbubbles"
     style="opacity:0.70232556;display:inline;filter:url(#filter4386)" />
  <g
     inkscape:groupmode="layer"
     id="layer3"
     inkscape:label="txt"
     style="display:inline">
    <flowRoot
       xml:space="preserve"
       id="flowRoot3063"
       style="font-style:normal;font-variant:normal;font-weight:normal;font-stretch:normal;font-size:75.5117569px;line-height:125%;font-family:Arial;-inkscape-font-specification:Arial;letter-spacing:0px;word-spacing:0px;display:inline;fill:#2a5953;fill-opacity:1;stroke:none;"
       transform="matrix(0.66061784,0,0,0.66061784,151.52296,310.20224)"><flowRegion
         id="flowRegion3065"><rect
           id="rect3067"
           width="2848.0405"
           height="115.37901"
           x="234.02707"
           y="329.74939"
           style="font-size:75.5117569px;fill:#2a5953;fill-opacity:1;" /></flowRegion><flowPara
         id="flowPara3069"
         style="font-style:normal;font-variant:normal;font-weight:normal;font-stretch:normal;font-size:92.2921524px;font-family:'WenQuanYi Micro Hei';-inkscape-font-specification:'WenQuanYi Micro Hei';text-align:center;text-anchor:middle;fill:#2a5953;fill-opacity:1;">第1集：飞行魔药</flowPara></flowRoot>    <path
       style="fill:#2a5953;fill-opacity:1;stroke:none"
       d="m 722.49051,502.46082 c -1.95489,-1.7163 -4.20051,-4.37035 -4.9904,-5.89773 l -1.43607,-2.77714 0,-4.05888 0,-4.05901 2.43289,-2.43289 2.4328,-2.43275 1.77961,-0.0318 c 0.97884,-0.018 2.63954,-0.68215 3.69067,-1.4773 l 1.91088,-1.44576 0.74252,-5.21309 0.74223,-5.21308 0.0721,-22.61428 0.0721,-22.61413 -1.02613,-1.91713 -1.02604,-1.91728 -1.76763,0 c -0.97201,0 -4.13197,-0.70206 -7.02188,-1.56027 l -5.25446,-1.56043 -2.3592,-2.35932 -2.3592,-2.35917 0,-1.53179 0,-1.5318 5.69912,-0.0415 5.69922,-0.0415 4.46034,-2.18919 4.46026,-2.18932 0.28315,-34.69077 0.28324,-34.69091 -1.17651,-4.28778 -1.17661,-4.28778 -2.08017,-1.34936 -2.08017,-1.34923 -8.67275,-0.69391 -8.67265,-0.69404 0,-1.18712 0,-1.18713 4.38375,-4.44656 4.38375,-4.44657 12.5448,-5.67034 12.5446,-5.67019 1.90901,0.60594 c 1.0501,0.33319 3.24479,1.72972 4.8773,3.10342 l 2.9681,2.49748 0,1.32792 c 0,0.73029 0.70085,2.02875 1.55751,2.88532 l 1.5576,1.55765 10.22557,0 10.22557,0 8.59279,2.49002 c 4.72589,1.36955 10.74384,3.58018 13.37298,4.91239 2.62915,1.33235 8.32312,5.09207 12.65322,8.35482 l 7.87302,5.93258 2.72082,3.9261 2.72081,3.92623 1.41884,4.7142 1.41883,4.71419 0,6.69232 0,6.69233 -1.85507,5.9601 -1.85498,5.96024 -3.66671,6.5565 -3.66661,6.5565 -5.9612,6.37253 -5.96121,6.37255 -6.60587,4.86827 c -3.63328,2.67757 -8.83614,5.972 -11.56182,7.32109 -2.72569,1.34909 -10.08513,4.15113 -16.3542,6.22676 -6.26916,2.07564 -12.40209,4.13799 -13.6286,4.58294 l -2.23008,0.80884 0,21.3764 0,21.37639 2.39244,2.39264 2.39263,2.3925 2.81107,0.59571 c 1.54599,0.32766 3.56053,0.9993 4.47645,1.49237 l 1.66538,0.8964 4.32195,-0.0872 c 2.37718,-0.047 6.59913,0.22656 9.38203,0.60927 l 5.06016,0.69598 3.149,-1.62848 3.14901,-1.62847 2.91875,0.64107 c 1.60526,0.35255 4.91775,0.64108 7.36132,0.64108 2.44356,0 4.44283,0.20857 4.44283,0.46348 0,0.25504 -1.61078,1.13664 -3.57925,1.95917 -3.61137,1.50884 -11.37811,6.38347 -16.59671,10.41649 l -2.83046,2.18738 -6.44913,1.78837 -6.44922,1.78822 -4.59658,2.92265 -4.59677,2.92251 -7.43379,2.10012 c -4.08852,1.15504 -9.70309,2.75336 -12.47662,3.55182 l -5.04303,1.45186 -4.09078,0 -4.09086,0 -3.55425,-3.12071 z m 43.77452,-106.3514 8.7735,-4.40853 7.98959,-6.41417 7.98988,-6.41417 4.7861,-5.77933 4.78628,-5.77933 2.83411,-5.94711 2.83412,-5.94696 8.4e-4,-4.26163 6.5e-4,-4.26165 -1.45114,-2.80633 c -0.79804,-1.54341 -2.83486,-3.9705 -4.52607,-5.39357 l -3.07503,-2.58753 -5.6333,-1.69183 -5.6333,-1.69168 -8.4249,-0.0263 -8.42499,-0.0263 -5.47637,1.23788 -5.47665,1.23789 -3.19619,1.94382 -3.1961,1.94368 0,29.70024 0,29.70037 1.73447,1.01021 c 0.95404,0.55574 2.24684,1.02393 2.87279,1.04052 0.62603,0.0166 5.08628,-1.95378 9.91171,-4.37837 z m 72.70356,107.90643 c -1.36275,-0.88118 -3.69545,-3.17991 -5.18386,-5.10838 l -2.70592,-3.50618 -0.60984,-3.25045 -0.60975,-3.25059 1.33344,-2.80993 1.33344,-2.81007 4.37964,-2.10163 4.37963,-2.10177 1.31958,-1.80455 1.31949,-1.80468 0,-27.4405 0,-27.44037 -5.20351,-0.58146 c -2.86211,-0.31964 -6.95111,-0.93401 -9.0869,-1.36527 l -3.88337,-0.78394 -0.31302,-0.98755 c -0.17219,-0.54314 0.0347,-1.53511 0.4589,-2.2044 l 0.77211,-1.21672 7.66197,-1.46596 c 4.21399,-0.80635 8.09662,-1.7347 8.6279,-2.06305 l 0.96592,-0.59695 0,-40.13304 0,-40.13289 -1.44627,-2.79679 -1.44617,-2.79692 -8.21769,-1.16708 c -4.51971,-0.64203 -9.66705,-1.38863 -11.43888,-1.65917 l -3.2212,-0.49198 0,-0.77344 c 0,-0.42544 1.00357,-1.68739 2.23008,-2.80439 2.42699,-2.21035 14.93499,-10.20861 15.9644,-10.20861 0.34916,0 4.60782,-1.78904 9.46386,-3.97547 l 8.82893,-3.97547 2.81679,1.07094 c 1.54927,0.58907 3.59817,1.77799 4.55323,2.64229 l 1.73625,1.57136 0,2.7044 0,2.70425 2.23008,0.59765 c 1.2267,0.32862 6.69942,0.60372 12.16183,0.61119 l 9.93157,0.0139 7.1114,1.97066 c 3.91118,1.0838 9.64823,3.09249 12.74873,4.46371 l 5.63741,2.49319 6.55915,4.88046 c 3.60744,2.68433 8.20955,6.58553 10.22698,8.6692 l 3.66783,3.78861 2.19946,4.95582 2.19928,4.95583 0.44345,7.48581 0.44354,7.48567 -2.90106,8.41678 -2.90125,8.41665 -3.81586,5.74889 c -2.09862,3.1618 -6.05166,8.19508 -8.78427,11.18508 l -4.96831,5.43618 -3.16089,-0.59294 -3.1608,-0.59293 -1.03353,1.25807 c -0.56827,0.69198 -1.18766,2.369 -1.37614,3.72666 l -0.34279,2.46857 -4.87711,3.18655 -4.8773,3.18668 -12.30078,4.50425 -12.30088,4.50424 -2.14974,0.0152 c -1.18232,0.0138 -2.81876,0.43788 -3.63646,0.95448 l -1.48672,0.9394 0,21.26575 0,21.26588 2.36276,2.51602 2.36275,2.51616 5.14697,1.06845 5.14715,1.06859 9.83568,-0.029 c 5.40951,-0.0152 12.42616,-0.0788 15.59267,-0.14178 l 5.75718,-0.11341 0.67716,0.67703 0.67706,0.67717 -1.97399,1.15794 c -1.08578,0.63678 -4.81194,2.39001 -8.28042,3.89595 l -6.30624,2.73814 -2.93805,2.47217 c -1.61584,1.35974 -3.51015,2.47218 -4.20922,2.47218 l -1.27108,0 -4.3521,3.82347 c -2.39357,2.10274 -6.26205,4.79538 -8.59653,5.98348 l -4.24471,2.16013 -9.63166,2.61823 -9.63174,2.61823 -4.95577,0.33693 -4.95585,0.33693 -2.47802,-1.60206 z m 40.41923,-106.92885 7.15925,-3.43094 7.18472,-5.33369 7.18472,-5.33369 6.93827,-7.35497 6.93809,-7.3551 2.77756,-5.72954 2.77755,-5.72954 0.50207,-4.66454 0.50188,-4.66454 -1.79262,-3.44381 -1.79291,-3.44381 -3.96474,-2.75751 -3.96465,-2.7575 -7.43378,-1.57274 -7.43369,-1.57273 -6.44248,0.57482 c -3.54358,0.31617 -9.11873,1.25752 -12.38964,2.09195 l -5.94698,1.51727 -2.27315,2.56609 -2.27315,2.56595 0.29074,27.9925 0.29082,27.99251 1.36032,1.63719 1.36031,1.63732 1.64122,0 c 0.90253,0 4.86269,-1.54397 8.80027,-3.43095 z m 341.67558,76.84827 c -2.7259,-0.9715 -7.226,-2.9174 -10.0009,-4.32416 l -5.045,-2.55779 -3.1261,-3.56027 c -1.7193,-1.9582 -4.1176,-5.4435 -5.3297,-7.74513 l -2.2035,-4.18502 -0.032,-7.43367 -0.033,-7.4338 3.1291,-6.60477 3.1293,-6.60491 7.6911,-8.05026 7.6911,-8.05025 -2.7844,-5.82553 -2.7843,-5.82553 0.5948,-2.97313 0.5946,-2.97314 -1.4187,-1.1773 -1.4185,-1.1773 1.5385,-2.97494 1.5384,-2.97493 -2.1998,-2.34147 -2.1996,-2.34133 0.6285,-4.58543 0.6284,-4.58542 1.9743,-4.46302 1.9741,-4.46303 4.2152,-5.03452 4.2151,-5.03466 4.3513,-2.75944 4.3511,-2.75945 5.368,-1.20123 5.368,-1.20137 5.1604,1.63027 5.1604,1.63027 5.6583,3.54381 5.6583,3.54381 3.6107,5.94378 3.6108,5.94392 0.5071,3.78101 0.5072,3.78114 -2.1882,6.93299 -2.188,6.93298 -3.8082,4.84918 c -2.0944,2.66692 -5.4454,7.30228 -7.4466,10.30044 -2.0012,2.99831 -4.9741,6.63672 -6.6063,8.08554 l -2.9676,2.63398 0.8439,1.43969 c 0.4643,0.79169 4.9052,5.75111 9.869,11.02076 l 9.0251,9.58136 1.1836,-1.4264 1.1838,-1.42627 0.1985,-2.81254 0.1985,-2.81242 -3.7119,-0.30734 -3.7119,-0.30732 -2.4828,-3.25543 -2.483,-3.25528 0,-2.06568 0,-2.06582 1.4198,-1.4199 1.42,-1.4199 8.2438,-2.5629 c 4.5343,-1.40967 10.4742,-3.06968 13.2,-3.68904 l 4.9557,-1.12599 11.8941,-0.39114 c 6.5417,-0.21508 14.2357,-0.65615 17.0976,-0.98021 l 5.2035,-0.58921 -4e-4,1.31036 -5e-4,1.31022 -7.049,6.44253 c -3.8768,3.54353 -8.4484,7.83532 -10.1589,9.53738 l -3.1099,3.09485 -4.8348,0.70179 c -2.6591,0.38603 -5.4468,0.93664 -6.1948,1.22378 l -1.3601,0.52184 0,4.81267 0,4.81254 -2.1147,5.65208 -2.1148,5.65222 2.848,2.0665 c 1.5662,1.13665 4.6364,3.44326 6.8227,5.12582 l 3.9749,3.05903 -0.184,1.40109 c -0.101,0.77066 -0.8009,3.07037 -1.5547,5.11045 l -1.3704,3.70923 -2.335,2.48558 -2.3352,2.48546 -3.0485,0 -3.0485,0 -3.2453,-1.97868 c -1.7849,-1.08768 -3.8434,-1.97813 -4.5744,-1.97813 -0.731,0 -2.4632,-0.89197 -3.8494,-1.98227 -1.3859,-1.09031 -3.1187,-1.97094 -3.8504,-1.95697 -0.7317,0.0139 -3.7836,1.59142 -6.7819,3.50564 l -5.4514,3.48019 -9.3766,2.93703 -9.3767,2.93689 -4.9951,-0.0719 -4.9954,-0.0719 -4.9558,-1.76637 z m 24.0505,-23.98619 4.3575,-2.10938 0.4852,-1.26471 0.4853,-1.26472 -10.2289,-10.00059 -10.2291,-10.00058 -1.1966,0 -1.1969,0 -2.7679,3.64851 c -1.5223,2.00676 -4.2174,4.98791 -5.9892,6.62497 l -3.2213,2.97645 0,1.34051 0,1.34037 4.2124,4.29801 c 2.3168,2.36389 5.1045,4.78724 6.1948,5.38515 l 1.9825,1.08726 6.3772,0.0304 6.3775,0.0304 4.3575,-2.10938 z m -5.3023,-60.91635 7.6523,-6.52925 1.9112,-3.13454 1.9114,-3.13468 0,-3.14519 0,-3.1452 -2.4577,-2.92099 -2.4579,-2.92099 -2.977,-1.23319 -2.977,-1.23304 -3.4259,0.64259 -3.4258,0.64274 -2.6879,3.18751 c -1.4784,1.75324 -3.2893,4.62291 -4.0244,6.37712 l -1.3371,3.18945 0,3.83896 0,3.83896 1.4035,4.66385 c 1.3943,4.63218 3.1367,7.54529 4.5136,7.54529 0.3951,0 4.162,-2.93828 8.3709,-6.5294 z m 175.7987,58.0742 c -3.1176,-0.4 -8.8293,-1.74341 -12.6926,-2.98572 l -7.0241,-2.25848 -5.8854,-3.5748 c -3.2371,-1.96608 -8.1665,-5.35885 -10.9542,-7.53947 l -5.0686,-3.96468 -5.7313,-6.74447 -5.7311,-6.7446 -2.9984,-5.64502 c -1.6491,-3.10481 -3.9101,-8.54417 -5.0243,-12.08756 -1.1144,-3.54353 -2.9725,-11.5624 -4.1293,-17.81987 l -2.1035,-11.37705 0.4406,-4.48156 c 0.6363,-6.47434 3.4377,-20.85343 6.1981,-31.81611 2.7485,-10.91413 8.6269,-28.23261 11.5689,-34.08262 4.3826,-8.71484 15.409,-26.217 22.1766,-35.20127 3.9264,-5.21211 10.1974,-12.60498 13.936,-16.42846 3.7386,-3.8236 9.9178,-9.31123 13.7321,-12.19475 l 6.9346,-5.24281 8.2187,-4.07257 8.2188,-4.07243 10.6168,-0.0664 10.617,-0.0664 9.416,3.79955 c 5.179,2.08974 10.3081,3.87395 11.3983,3.96468 l 1.9824,0.16514 0.4957,-5.49634 0.4956,-5.4962 1.8388,-2.80509 1.8386,-2.80508 5.4533,0.64093 5.4531,0.64093 5.357,2.53414 5.3569,2.53427 3.4575,3.26096 3.4577,3.26082 0,4.96275 c 0,2.72942 -0.279,6.35719 -0.6198,8.0616 l -0.6198,3.09899 -3.9097,4.44145 -3.9095,4.44158 0.6233,1.00829 0.6229,1.00843 1.8142,0 1.814,0 2.2894,1.85378 2.2892,1.85378 -1.1769,13.75697 c -1.3548,15.83358 -2.3714,23.39782 -4.489,33.39881 -0.8293,3.91586 -1.9396,9.34996 -2.4677,12.07567 -0.5281,2.72569 -1.6943,8.23462 -2.5917,12.24205 l -1.6311,7.28637 -2.4607,4.8554 -2.4604,4.85555 -0.8589,0 -0.8589,0 -0.5976,-2.23012 c -0.3288,-1.22654 -0.6037,-4.58612 -0.6112,-7.46562 l -0.014,-5.23535 -1.3395,-3.2055 -1.3392,-3.20536 -0.7308,-12.8296 -0.7308,-12.8296 -4.2472,-12.42918 -4.2471,-12.42919 -4.2681,-8.32287 -4.2684,-8.32274 -3.5611,-3.74366 -3.5613,-3.74353 -2.746,-0.6892 -2.7462,-0.6892 -4.3411,1.6578 c -2.3877,0.91188 -7.163,3.52028 -10.6119,5.79661 l -6.271,4.13854 -9.2377,9.36367 -9.2379,9.36379 -7.3018,10.97609 -7.3021,10.97624 -6.9282,14.3719 c -7.4404,15.43428 -12.4242,28.19416 -16.4838,42.20259 l -2.5451,8.78303 -0.6139,7.46354 -0.6137,7.4634 -2.3201,2.79153 -2.3199,2.79153 1.4583,2.82044 c 0.8024,1.5513 2.7293,3.86317 4.2824,5.13771 l 2.8238,2.3174 2.655,4.64988 2.6549,4.64989 4.7005,4.81308 4.7003,4.81322 4.8023,2.31726 4.8025,2.31728 11.0563,-0.5195 11.0561,-0.51936 9.5983,-3.10924 c 5.279,-1.71007 12.1626,-4.24352 15.2973,-5.62967 l 5.699,-2.52044 1.7613,0.46057 1.761,0.46058 2.8466,-2.72044 2.8467,-2.72031 6.9892,-2.67078 6.9893,-2.67079 1.8473,-2.04105 c 1.0158,-1.12254 3.012,-2.64341 4.4354,-3.37963 l 2.5885,-1.33844 1.1758,-2.77245 1.1759,-2.77244 5.6101,-3.40799 c 3.0855,-1.87425 7.2857,-4.92166 9.3338,-6.77199 l 3.7236,-3.36413 3.9337,-6.22871 3.9338,-6.2287 1.4825,-0.56887 1.4825,-0.56887 1.2129,1.46153 1.2131,1.46167 -1.1054,2.19638 c -0.608,1.20801 -2.201,6.74017 -3.54,12.29364 l -2.4343,10.09726 -4.7838,8.7349 -4.784,8.73476 -6.6247,6.62953 -6.6247,6.62966 -2.8437,1.47038 -2.8436,1.47053 -1.9108,-0.17067 -1.9109,-0.17068 -2.7575,5.45139 -2.7575,5.45139 -10.6453,6.63257 -10.6451,6.63271 -8.9205,2.96221 -8.9206,2.96235 -7.7533,1.06015 c -8.4909,1.16098 -13.1008,1.17647 -21.7032,0.0733 z m -934.81225,-17.24075 -3.82862,-1.43885 -2.95252,-2.80412 -2.95253,-2.80412 -1.94628,-3.7846 -1.94629,-3.78461 -0.55646,-4.69843 -0.55646,-4.69843 2.36425,-2.74852 2.36423,-2.74865 6.21084,-0.73236 6.21081,-0.73222 1.68721,-1.68725 1.6872,-1.68713 0.50835,-9.13959 0.5084,-9.13959 2.97349,-0.50637 2.9735,-0.50649 0.30764,-2.65889 0.30764,-2.65889 -2.78555,-1.77371 c -1.53206,-0.97564 -3.11324,-2.23012 -3.51377,-2.78779 l -0.72818,-1.0141 -0.0152,-28.52707 -0.0153,-28.52722 1.23896,-0.38159 c 0.68141,-0.20997 2.41632,-0.63817 3.85534,-0.95159 l 2.61638,-0.56984 0.62946,-1.64037 0.62949,-1.64037 -1.26353,-1.69168 c -0.69493,-0.93028 -2.76494,-3.65266 -4.60001,-6.04959 l -3.3365,-4.35818 0.80126,-15.85861 c 0.44068,-8.72232 0.82705,-20.17226 0.85856,-25.44454 l 0.0572,-9.58578 -2.39337,-2.5459 -2.39338,-2.54575 -5.53596,-2.06416 -5.53593,-2.06415 -2.15003,-2.00814 -2.15001,-2.00813 -2.11077,-4.90659 -2.11078,-4.90673 -0.16236,-5.8583 -0.16239,-5.85831 2.32138,-2.47092 2.32137,-2.47107 8.54438,-3.1232 8.54436,-3.12334 15.36309,-2.8665 15.36308,-2.86663 17.84098,0.0208 17.841,0.0208 9.53102,0.92751 9.53102,0.92752 8.14489,2.97258 c 4.4797,1.63484 10.90265,4.51475 14.27323,6.39965 3.37058,1.88491 8.1481,5.20507 10.61671,7.37807 l 4.48838,3.95072 6.28778,8.76753 6.28779,8.76755 4.75009,9.91165 4.75009,9.91164 1.66477,6.44267 1.6648,6.44253 0.0889,7.4338 0.0889,7.43368 -1.28384,5.45138 -1.28383,5.4514 -3.87488,7.92938 -3.87491,7.92937 -5.69495,6.61708 c -3.1322,3.63938 -7.92507,8.59728 -10.65077,11.01772 -2.72572,2.4203 -8.44929,6.90628 -12.71908,9.96877 l -7.76322,5.56826 -12.0601,5.83493 c -15.20414,7.35622 -32.94616,14.45932 -41.29951,16.5344 -3.54341,0.88035 -8.09509,2.0246 -10.11484,2.54299 l -3.67228,0.94259 -1.53134,1.53137 -1.53135,1.53139 0,12.85933 0,12.85947 2.27348,2.27342 2.27351,2.27357 4.04036,0.64604 4.04037,0.64606 1.24124,1.49569 1.24126,1.49555 5.08226,0.0139 5.08225,0.0139 4.2783,1.49016 4.27829,1.49016 0.91808,-0.56749 c 0.86453,-0.53429 21.7291,-1.64368 28.18966,-1.49888 1.63542,0.0374 4.53459,0.0733 6.44258,0.0803 1.908,0.0138 4.07684,0.23195 4.81966,0.49819 l 1.3506,0.48409 -1.22416,1.47509 -1.22416,1.47495 -1.54802,0 c -0.85145,0 -3.58448,0.94757 -6.07346,2.10578 -2.48895,1.15808 -7.20152,3.34948 -10.47238,4.86966 -3.27084,1.52017 -8.62314,3.51932 -11.89398,4.44269 -3.27087,0.92323 -7.41173,2.29997 -9.20193,3.05958 l -3.25493,1.38103 -3.7105,0 -3.71051,0 -2.16768,1.51825 c -3.24061,2.26982 -9.57711,4.32139 -20.07907,6.5009 l -9.41608,1.95419 -11.89399,0.49515 -11.89399,0.49515 -3.82862,-1.4387 z m 74.0674,-110.31623 8.78646,-3.47216 4.28945,0.64328 4.28946,0.64315 1.58901,-2.42501 1.58902,-2.42514 -0.59694,-2.37853 -0.59696,-2.37841 1.95602,-1.77024 1.95603,-1.7701 2.12814,1.13899 2.12812,1.13885 1.50884,-1.25213 1.50883,-1.25227 -0.55144,-2.75737 -0.55149,-2.75723 4.95105,-5.65789 c 6.18504,-7.06797 11.17301,-14.53912 14.62369,-21.90377 l 2.6661,-5.69026 6.5e-4,-8.92051 6.3e-4,-8.92051 -2.6369,-5.62498 -2.6369,-5.62497 -4.05597,-4.40023 -4.05597,-4.40023 -5.77932,-2.59361 -5.77932,-2.5936 -7.60583,-1.13125 -7.60582,-1.13125 -9.65696,1.17192 c -5.31134,0.64452 -10.40097,1.3867 -11.31031,1.64922 l -1.65334,0.47745 -3.43334,-3.01449 -3.43335,-3.0145 -2.06439,0 -2.06442,0 -1.02603,1.91714 c -0.56432,1.05447 -1.02604,2.98682 -1.02604,4.29414 l 0,2.37701 -3.63918,2.39624 c -2.00154,1.31797 -4.51312,3.58433 -5.58128,5.0366 l -1.94212,2.6405 -0.81568,15.69609 -0.8157,15.69609 -0.0455,28.30661 -0.0455,28.30661 1.23896,1.56222 c 0.68143,0.85919 1.908,1.76291 2.72571,2.00828 l 1.48675,0.4462 11.39843,-2.4069 11.3984,-2.40703 8.78645,-3.47202 z m 93.3037,108.02925 c -1.63541,-0.21701 -5.34931,-1.06458 -8.25299,-1.88365 l -5.27941,-1.48906 -4.17959,-4.17962 -4.17961,-4.17963 -4.3537,-11.38161 -4.35372,-11.38149 -0.41366,-13.34189 -0.41365,-13.34191 1.17719,-7.29743 1.17723,-7.29743 2.3869,-7.0179 c 1.31281,-3.85971 3.98692,-9.92853 5.94245,-13.4863 4.25831,-7.74695 11.0398,-16.75929 17.49786,-23.25397 l 4.72561,-4.75223 8.21507,-3.94187 8.21516,-3.942 5.05351,-0.59847 5.05361,-0.59847 5.142,2.79858 5.142,2.79859 5.26317,5.05707 5.26307,5.05706 2.47175,4.90617 2.47174,4.90618 1.11443,5.25236 1.11444,5.25236 -0.009,12.58866 -0.009,12.58852 -1.03484,3.72624 -1.03485,3.72624 -2.18092,1.4152 -2.18092,1.4152 -6.93818,1.13442 c -6.95634,1.13748 -41.12861,9.6248 -48.56717,12.06253 l -3.96463,1.2993 -1.72761,3.53149 -1.72763,3.53164 1.68062,4.39773 c 0.92434,2.41879 2.72115,6.08666 3.99289,8.15068 l 2.31219,3.75279 3.18618,2.00938 3.18617,2.00953 6.03593,-0.43181 6.03583,-0.43167 6.35371,-2.80218 c 3.49452,-1.5412 11.7035,-6.0027 18.24214,-9.91456 l 11.88842,-7.11237 1.35039,0.51826 1.35048,0.51825 -0.52997,3.26552 c -0.29148,1.79597 -1.42913,5.29815 -2.52802,7.78263 l -1.99824,4.5171 -2.46286,0 -2.46275,0 -1.62399,1.62405 -1.62399,1.62391 0.15834,4.07519 c 0.0871,2.24148 0.11704,4.55888 0.0665,5.14988 l -0.0918,1.07454 -8.70084,4.13495 -8.70075,4.13481 -6.91009,1.46374 c -6.8438,1.44964 -9.07668,1.57108 -14.83938,0.80677 z m 9.47397,-73.13848 16.29633,-3.66497 4.12766,-1.79721 4.12767,-1.79722 1.07595,-2.01035 1.07594,-2.01035 0,-10.45245 0,-10.4523 -1.59795,-3.99373 -1.59796,-3.99373 -2.34085,-0.58755 -2.34075,-0.58755 -4.4743,2.16596 -4.4742,2.16595 -7.4057,6.91624 c -4.07326,3.80383 -8.92668,9.00738 -10.7855,11.5635 -1.85882,2.55599 -5.26981,8.29216 -7.58004,12.74689 l -4.20047,8.09949 0.70231,1.13636 0.70234,1.13637 1.19664,-0.45919 c 0.65816,-0.25256 8.52996,-2.10842 17.49288,-4.12416 z m 314.02519,71.47032 c -1.97212,-0.70484 -5.2097,-2.28519 -7.19468,-3.51187 l -3.60894,-2.23053 -2.48017,-4.23191 c -1.36406,-2.3275 -4.14789,-8.86754 -6.18602,-14.53346 l -3.70594,-10.3014 0.0927,-15.85875 0.0927,-15.85861 2.14759,-7.92937 2.14749,-7.92938 4.01867,-8.4248 4.01877,-8.42495 5.36873,-7.02453 c 2.95265,-3.86345 7.83781,-9.35993 10.85601,-12.21426 l 5.48732,-5.18985 7.46497,-3.44892 7.46505,-3.44907 4.82484,-0.57149 4.8248,-0.57137 4.2949,2.09707 4.2948,2.09694 6.1537,5.50754 6.1535,5.50741 3.2626,6.62178 3.2624,6.62164 0.3213,17.37161 0.3211,17.37159 -1.0203,2.67397 -1.0203,2.67383 -2.2744,1.47564 -2.2744,1.47563 -8.9508,1.54245 c -4.923,0.8484 -17.4117,3.79512 -27.75263,6.54834 l -18.80188,5.00603 -4.46025,2.18726 -4.46029,2.18725 0.16667,6.11611 0.16648,6.11612 2.02271,4.57242 2.0225,4.57229 3.47831,1.45338 3.47803,1.45323 7.21777,-0.0166 7.21796,-0.0166 8.35908,-3.38987 8.35924,-3.38987 1.8827,1.00761 1.8828,1.00759 1.8107,-1.63871 c 0.9958,-0.90124 2.0579,-2.60938 2.3601,-3.79581 l 0.5494,-2.15724 6.2355,-4.2124 6.2357,-4.21254 1.8239,0 1.8238,0 2.8352,-2.01879 c 1.5592,-1.11022 4.8988,-2.93164 7.4213,-4.0474 l 4.5862,-2.02874 0.5181,0.51825 0.5183,0.51812 -1.6615,4.35015 -1.6612,4.35016 -3.8649,5.10617 c -2.1254,2.80841 -4.7548,6.8511 -5.8429,8.98386 l -1.9781,3.87755 -5.0156,4.3875 -5.0155,4.38751 -9.1431,4.60161 -9.143,4.60161 -4.71685,1.23747 -4.71681,1.2376 -1.5342,-2.19029 -1.53409,-2.19029 -2.66941,0 -2.6696,0 -3.96465,2.44187 c -2.18064,1.343 -4.63375,2.43622 -5.45136,2.4293 -0.81771,0 -3.10041,-0.5892 -5.07262,-1.2939 z m 15.97535,-71.04681 c 7.35944,-1.63013 16.17304,-3.88253 19.58564,-5.0052 l 6.205,-2.04134 1.0944,-2.04478 1.0944,-2.0448 0.1341,-11.49959 0.1341,-11.49947 -2.0625,-3.46912 -2.0627,-3.46911 -3.4709,0.0982 -3.4709,0.0982 -6.09335,4.13786 -6.09314,4.13786 -2.35489,-0.59101 -2.35489,-0.591 -1.63017,1.63013 -1.63007,1.63014 0.60721,2.41892 0.60712,2.41906 -3.93019,5.19081 c -2.16144,2.85502 -5.77946,8.59092 -8.03997,12.74661 l -4.10987,7.5558 0,2.22377 0,2.22363 2.23017,-0.64592 c 1.22651,-0.35532 8.25149,-1.97979 15.61084,-3.60991 z m 615.78184,71.7183 -2.2102,-0.42696 -2.0022,-2.54534 -2.0021,-2.5452 0,-1.72724 0,-1.72735 -1.3996,-1.16168 -1.4,-1.16168 -6.0068,2.52819 c -3.3036,1.39044 -9.4755,3.67341 -13.7153,5.07325 l -7.7088,2.54507 -8.9999,0.56292 -9.0001,0.56292 -5.2591,-1.74686 -5.2591,-1.74673 -3.824,-3.45488 -3.8242,-3.45486 -1.4924,-5.02554 -1.4923,-5.02539 0,-4.73094 0,-4.73079 2.4013,-6.61584 2.4015,-6.61569 3.7096,-5.38625 3.7097,-5.38625 5.5351,-3.99608 5.5352,-3.99622 11.894,-5.79427 11.8939,-5.79426 8.7313,-2.17716 8.7315,-2.17701 2.0815,-1.68546 2.0813,-1.68546 -1.0941,-9.63281 -1.0943,-9.63282 -1.7892,-3.66068 -1.7892,-3.66054 -7.9294,-0.27898 -7.9294,-0.2791 -7.9292,3.85445 -7.9294,3.85432 -7.4337,5.51556 c -4.0886,3.03358 -8.0033,6.10796 -8.6996,6.83188 -0.696,0.72406 -2.3375,2.65446 -3.6479,4.28985 l -2.3823,2.97356 -1.1919,-1.17274 -1.192,-1.17261 2.6747,-6.75663 c 1.4708,-3.71614 4.0949,-9.14471 5.831,-12.0635 l 3.1565,-5.30672 5.822,-4.88279 c 3.202,-2.68558 7.6769,-5.97006 9.9441,-7.29867 2.2672,-1.32862 6.1147,-3.12487 8.55,-3.99138 l 4.4277,-1.57565 7.1332,-0.0401 7.1331,-0.0401 5.3017,2.42722 5.3018,2.42709 3.6315,3.18862 3.6316,3.18862 2.4044,5.13605 2.4042,5.13618 1.1272,5.35623 1.1269,5.35623 0.9542,13.9715 c 0.5249,7.68429 0.9609,17.87422 0.9689,22.64415 l 0.015,8.6728 0.9328,0 c 0.5128,0 1.2081,-0.44605 1.545,-0.99128 l 0.6127,-0.99114 2.0477,0 2.0477,0 -0.6432,3.22127 c -0.3538,1.77176 -1.9706,6.05914 -3.593,9.52742 l -2.9497,6.30602 0,1.87107 0,1.87108 1.0458,0 c 0.5752,0 3.586,-1.30262 6.6905,-2.89486 8.3194,-4.26662 14.5391,-7.0168 15.869,-7.0168 l 1.1738,0 0,0.92102 c 0,0.50664 -1.8149,3.65348 -4.033,6.993 l -4.0331,6.07186 -0.764,4.83259 -0.7639,4.83259 -1.6058,2.45088 -1.606,2.451 -5.2434,2.97632 -5.2432,2.97631 -5.3835,1.57938 c -2.9608,0.8686 -5.637,1.51866 -5.9469,1.44438 -0.3102,-0.0747 -1.5582,-0.3271 -2.774,-0.56195 z m -35.4478,-22.56573 7.6146,-1.45683 5.6056,-2.55667 c 3.0833,-1.40608 7.2804,-3.71173 9.3271,-5.12346 l 3.7212,-2.56692 1.978,-3.20038 1.978,-3.20052 0,-4.14047 0,-4.14063 -2.4329,-2.43275 -2.4329,-2.4329 -1.9065,0 -1.9064,0 -1.4898,-2.23012 -1.4898,-2.23013 -1.8965,1.70386 -1.8968,1.70385 -6.7087,2.07218 -6.7088,2.07217 -3.6543,3.22998 c -2.0097,1.77647 -5.7563,4.71281 -8.3257,6.52511 l -4.6715,3.29525 -2.4153,3.57507 c -1.3284,1.96637 -2.72,4.60051 -3.0922,5.85374 l -0.677,2.27867 1.5918,2.42944 1.5918,2.42944 5.3415,0 5.3412,0 7.6143,-1.45698 z m -502.36,17.91254 -3.6367,-3.63676 -2.4778,-4.88971 -2.4778,-4.88971 0,-2.45239 0,-2.4524 1.234,-0.76265 1.234,-0.76264 8.4299,-0.0388 8.4298,-0.0388 0.5968,-19.8233 0.5967,-19.82329 1.2168,-5.1893 1.2169,-5.18929 -0.3268,-12.82268 -0.327,-12.82269 -2.195,-2.33372 -2.1953,-2.33344 0.5731,-2.19154 0.5731,-2.1914 -1.6661,-0.63928 -1.6661,-0.63942 -2.1632,1.13844 -2.1632,1.13831 -4.956,-1.89528 -4.9557,-1.89541 -0.3376,-1.67758 -0.3374,-1.67771 2.2004,-2.34216 2.2004,-2.34216 8.5443,-3.13939 8.5443,-3.13938 5.5137,-0.11757 5.5134,-0.11757 2.7465,1.79943 2.7463,1.79957 1.404,3.36013 1.404,3.36013 0,4.98763 0,4.98778 1.2388,-5.5e-4 1.239,-5.5e-4 5.6686,-6.33881 5.6682,-6.33866 4.3086,-2.08559 4.3084,-2.08572 4.5617,0 c 2.5089,0 5.3015,0.28381 6.2056,0.63083 l 1.6437,0.6307 0.8907,2.34271 0.8907,2.34272 2.8126,0 2.8126,0 2.5405,2.72569 2.5409,2.72584 4.0873,8.45965 4.0872,8.4598 -0.057,1.94743 c -0.032,1.07121 -0.8524,4.99787 -1.8244,8.72604 l -1.767,6.77835 -4.3707,1.95268 -4.3704,1.95281 -2.6335,2.51643 -2.6332,2.51643 -5.9171,-2.65529 -5.9167,-2.6553 -1.0764,-2.36207 -1.076,-2.36222 0.8211,-0.5076 0.8215,-0.50761 1.7727,1.95904 1.7728,1.95891 2.6306,0 2.6304,0 1.6234,-1.239 1.6233,-1.23885 1.5252,-4.46026 c 0.8389,-2.45322 1.5317,-5.26107 1.5395,-6.2399 l 0.015,-1.77951 -2.4779,-2.47798 c -1.3629,-1.36278 -2.4779,-2.82584 -2.4779,-3.25128 0,-0.42531 -1.0324,-1.74314 -2.294,-2.92846 l -2.294,-2.15516 -5.4148,0 -5.4148,0 -2.2247,1.55821 -2.2245,1.55835 -2.8138,5.6276 c -1.5476,3.09527 -3.5329,7.85786 -4.4119,10.58357 -0.8791,2.72569 -2.738,11.63666 -4.1312,19.80199 l -2.5329,14.84603 -0.1,7.68166 -0.099,7.68167 1.6984,2.59194 1.6981,2.59196 4.2596,1.8842 4.2597,1.88422 0.5393,2.06194 0.5392,2.06181 2.0329,-1.08796 2.0329,-1.08796 1.9441,1.21396 1.9439,1.21409 2.4627,-1.31796 2.4627,-1.31811 2.802,0.69944 c 1.5411,0.38478 3.4712,1.27385 4.2889,1.97591 0.8177,0.70193 2.7224,1.57011 4.2328,1.92903 l 2.746,0.65269 2.0684,-1.10691 2.0685,-1.10704 0.9484,0.94854 0.9485,0.9484 -1.6983,1.69818 -1.6981,1.69832 -2.0091,-0.52544 -2.0094,-0.52545 -2.5511,1.37288 c -3.8764,2.08629 -11.9748,4.4799 -15.1567,4.4799 l -2.8363,0 -4.1731,2.16 -4.1728,2.16001 -10.903,0.73401 c -5.9965,0.40373 -15.1761,1.05324 -20.399,1.44355 l -9.4964,0.70968 -3.6367,-3.63675 z m 575.1089,0.75019 c -1.4156,-1.55863 -3.3112,-3.93674 -4.2124,-5.28458 l -1.6389,-2.4506 0,-2.75295 0,-2.75308 1.9433,-1.94327 1.9433,-1.94327 5.4891,-1.5957 5.4891,-1.59569 0.5651,-2.25143 0.565,-2.25142 -0.3158,-35.59076 -0.316,-35.59077 -2.036,-3.46566 -2.0357,-3.46579 -3.4156,-2.30164 -3.4155,-2.30177 0,-1.17067 0,-1.1708 9.4161,-3.1961 c 5.1788,-1.75779 10.3081,-3.20743 11.3983,-3.22126 l 1.9825,-0.0249 2.5682,3.22126 2.5683,3.22126 1.2684,3.96455 c 0.6975,2.18061 1.6456,4.37368 2.1068,4.87353 l 0.8386,0.90871 7.2187,-7.49799 7.2189,-7.49798 4.2124,-1.13055 4.2125,-1.13056 3.7386,1.00677 3.7386,1.00662 4.2056,3.09292 4.2056,3.09292 2.3658,4.11571 c 1.3014,2.26374 2.6596,5.52595 3.0181,7.24944 l 0.6524,3.13372 -1.1173,6.28236 c -0.6147,3.45529 -2.2429,10.00598 -3.6184,14.55711 l -2.5008,8.2746 -5.8625,6.00961 -5.8622,6.00976 -0.609,-0.60884 -0.6087,-0.60885 1.6957,-6.91985 1.6958,-6.9197 -0.5638,-10.15286 -0.5641,-10.15273 -1.0003,-1.00054 -1.0006,-1.0004 -5.5039,1.73497 -5.5042,1.73498 -3.0522,4.14933 c -1.6786,2.28213 -3.6683,5.58514 -4.4213,7.34003 l -1.3689,3.1907 -2.4775,16.3225 -2.4772,16.32237 0,6.05858 0,6.05871 1.4499,2.80412 c 0.7976,1.54231 2.0243,3.01864 2.7258,3.28061 0.7017,0.2621 6.6278,0.15781 13.1696,-0.23181 l 11.894,-0.7083 0.8958,0.80179 0.8959,0.80179 -2.7175,3.56276 c -1.4945,1.95945 -4.1624,4.51005 -5.9286,5.66785 l -3.2114,2.10509 -2.1429,3.26885 -2.1428,3.2687 -2.5921,1.6986 -2.5922,1.69846 -9.5599,0.71728 c -5.2578,0.39446 -13.7971,1.03015 -18.976,1.41271 l -9.4161,0.69542 -2.5735,-2.83385 z m 84.662,1.00206 c -1.1885,-1.01948 -3.3071,-3.58848 -4.7081,-5.70878 l -2.5471,-3.85514 0,-1.92031 0,-1.92032 2.7768,-2.77687 2.7769,-2.77701 4.1043,-0.69335 4.1042,-0.69336 0.9567,-1.16154 0.9566,-1.1614 0.2113,-34.6909 0.2113,-34.69077 -0.9897,-4.74379 -0.9896,-4.7438 -1.7453,-1.92847 -1.7453,-1.92861 -5.0664,-1.88725 -5.0663,-1.88726 -0.2704,-1.35213 -0.2702,-1.35199 12.567,-2.24257 12.5671,-2.24258 2.5707,1.63484 c 1.4138,0.8993 3.5583,2.80052 4.7655,4.22499 l 2.1945,2.59 0.6414,3.22127 0.6413,3.22127 1.1287,-0.0138 1.1286,-0.0139 4.6575,-5.8413 4.6577,-5.84115 5.4489,-2.66595 5.449,-2.66594 3.2742,0.70539 c 1.8008,0.38796 4.6124,1.37148 6.2478,2.18586 3.816,1.89998 8.2396,6.01266 9.9156,9.21857 l 1.3136,2.51284 -1.4148,12.8502 -1.4146,12.85021 -2.9355,4.46025 c -1.6144,2.45309 -3.6985,5.90975 -4.6312,7.68152 l -1.6957,3.22127 -1.6047,0 -1.6047,0 -0.096,-8.17709 -0.097,-8.17722 -1.6853,-4.19332 -1.6852,-4.19346 -3.2382,-2.00136 -3.2385,-2.00136 -2.4865,0 -2.4867,0 -1.9825,4.70797 c -1.0904,2.58946 -2.6807,6.93824 -3.5341,9.66393 -1.6828,5.37532 -5.1359,26.44107 -6.1948,37.79268 l -0.6593,7.06645 1.1581,3.50923 c 0.6371,1.93013 1.6931,3.94615 2.3465,4.48017 l 1.1883,0.9708 5.4514,-0.97536 c 2.9983,-0.53652 8.1275,-1.09585 11.3984,-1.24287 3.2709,-0.14703 6.6824,-0.58575 7.5813,-0.97482 l 1.6342,-0.7076 0.7016,1.1354 0.7018,1.13539 -6.5157,6.26411 -6.5157,6.26425 -1.5483,3.86981 -1.5485,3.86981 -3.1726,1.87411 -3.1727,1.87412 -9.4358,0.70027 c -5.1896,0.38505 -13.45,1.02183 -18.3562,1.41506 l -8.9206,0.71479 -2.1608,-1.85365 z m 112.6758,0.0844 -5.4514,-1.49708 -5.267,-3.60591 -5.2669,-3.60591 -3.8859,-4.54379 -3.8857,-4.54366 -2.8883,-5.94696 -2.8882,-5.94696 -1.092,-5.25251 -1.0918,-5.25236 0.02,-9.11954 0.02,-9.11954 0.9637,-6.66396 0.9638,-6.66398 2.1285,-6.22109 c 2.8014,-8.18843 7.3452,-17.2153 11.0004,-21.85356 l 2.9459,-3.73842 6.2165,-4.43604 c 3.4192,-2.43981 8.6539,-5.55181 11.6329,-6.91569 l 5.4165,-2.47965 7.3466,-0.59889 7.3468,-0.59888 6.916,1.62723 6.9161,1.62709 4.141,2.42667 4.1408,2.42681 3.0645,3.86911 3.0645,3.86925 3.4405,7.29453 c 1.8922,4.01199 4.1507,9.97071 5.0187,13.24148 l 1.5782,5.94711 0.554,9.41608 0.5541,9.41608 -1.6036,8.4248 c -0.882,4.6337 -2.0611,10.05978 -2.62,12.05768 l -1.0163,3.63275 -3.4458,2.03303 -3.4456,2.03303 0,1.5336 c 0,0.84356 0.5502,2.41463 1.2226,3.49138 l 1.2227,1.95766 -1.9662,3.66469 c -1.0812,2.01547 -4.0446,5.94212 -6.5852,8.7259 l -4.6197,5.06136 -5.2922,2.92168 -5.2921,2.92169 -12.3897,0.24038 -12.3894,0.24025 -5.4514,-1.49694 z m 23.7448,-20.52205 5.4665,-1.23899 3.7926,-3.77852 3.7926,-3.77852 1.9265,-4.49456 1.9267,-4.49441 1.0922,-7.04018 1.0924,-7.04017 -0.6591,-13.92626 c -0.3627,-7.6594 -0.641,-15.99817 -0.6184,-18.5305 l 0.04,-4.60439 -2.6774,-1.75419 c -1.4724,-0.96486 -5.051,-3.68765 -7.9521,-6.0507 l -5.2748,-4.29649 -3.2506,0 -3.2507,0 -5.0886,1.51118 -5.0889,1.51119 -3.1925,2.68655 -3.1929,2.68642 -3.7698,5.83258 -3.7697,5.83258 -0.6049,3.5983 c -0.3326,1.97909 -0.8125,4.35901 -1.0665,5.28887 -0.254,0.92973 -2.2224,3.82072 -4.3738,6.42441 l -3.9118,4.73384 0,1.53235 0,1.53249 1.8293,1.56637 1.8293,1.56624 0.6809,5.79357 0.6809,5.79344 4.2847,9.04527 4.2851,9.0454 2.9051,2.06858 c 3.4286,2.44133 8.428,4.00355 13.2106,4.12776 1.8921,0.0498 5.9,-0.46805 8.9065,-1.14951 z m 88.4749,19.4984 -5.1272,-2.55487 -2.5485,-3.02888 c -1.4016,-1.66581 -3.3787,-4.65597 -4.3933,-6.64474 l -1.8447,-3.61586 -1.0815,-5.84988 -1.0813,-5.84972 -0.069,-26.33167 -0.069,-26.33166 -0.7751,-1.98241 -0.7751,-1.98228 -7.1531,0 -7.1529,0 -3.8964,-4.17409 -3.8962,-4.17408 0,-2.52971 0,-2.52985 -1.1476,-1.83746 -1.1474,-1.83761 0.5401,-1.40815 0.5404,-1.408 5.8474,-3.06511 5.8473,-3.06511 5.7191,-1.27993 5.719,-1.2798 1.1827,-2.05986 1.1826,-2.05973 -0.2542,-20.14833 -0.2544,-20.14846 -1.0534,-1.96845 -1.0535,-1.96845 1.1815,-1.42335 1.1812,-1.42336 1.9792,0 1.9791,0 5.7999,3.52333 5.8,3.5232 2.0863,2.92998 2.0864,2.92999 0.5769,15.01325 0.577,15.01339 1.8409,1.84092 1.8411,1.84092 2.7104,-0.65131 c 1.4909,-0.35822 4.2718,-1.42391 6.1798,-2.36816 l 3.4691,-1.71685 7.7863,-0.71479 7.7864,-0.71479 3.6121,-1.53913 3.6119,-1.53913 5.1929,-0.10096 5.1931,-0.10098 0.4855,1.26624 0.4858,1.26638 -1.714,1.39709 c -0.9427,0.76831 -3.806,3.0976 -6.3629,5.17629 -2.557,2.07853 -8.4323,7.1587 -13.0564,11.28922 l -8.4073,7.51015 -8.7493,3.30868 c -4.8121,1.8199 -9.4184,3.91932 -10.2361,4.66551 l -1.4868,1.3567 -0.3192,27.47107 -0.3193,27.47107 0.6425,5.23603 0.6424,5.23591 2.2999,2.67397 2.3,2.67397 3.0466,-1.46735 3.0466,-1.46733 11.2817,-11.03751 c 6.2051,-6.07075 12.2489,-11.5552 13.4309,-12.1877 l 2.1488,-1.15005 0.8462,0.52295 0.8461,0.52295 -0.8012,4.23095 c -0.4408,2.32694 -1.5135,5.92206 -2.384,7.98898 l -1.5826,3.75819 -3.0762,2.74852 -3.0761,2.74851 1.1471,2.14341 1.147,2.14341 -1.5563,3.73952 -1.5565,3.73951 -4.1654,4.33564 c -2.2911,2.38476 -6.1486,5.61833 -8.5721,7.18595 l -4.4065,2.85031 -5.5584,0 -5.5583,0 -5.1272,-2.55501 z"
       id="path4376"
       inkscape:connector-curvature="0" />
  </g>
</svg>
