<?xml version="1.0" encoding="UTF-8" standalone="no"?>
<!-- Created with Inkscape (http://www.inkscape.org/) -->

<svg
   xmlns:dc="http://purl.org/dc/elements/1.1/"
   xmlns:cc="http://creativecommons.org/ns#"
   xmlns:rdf="http://www.w3.org/1999/02/22-rdf-syntax-ns#"
   xmlns:svg="http://www.w3.org/2000/svg"
   xmlns="http://www.w3.org/2000/svg"
   xmlns:xlink="http://www.w3.org/1999/xlink"
   xmlns:sodipodi="http://sodipodi.sourceforge.net/DTD/sodipodi-0.dtd"
   xmlns:inkscape="http://www.inkscape.org/namespaces/inkscape"
   id="svg2"
   version="1.1"
   inkscape:version="0.91 r13725"
   width="1100"
   height="765"
   sodipodi:docname="Pepper-and-Carrot_by-David-Revoy_E01.svg">
  <metadata
     id="metadata8">
    <rdf:RDF>
      <cc:Work
         rdf:about="">
        <dc:format>image/svg+xml</dc:format>
        <dc:type
           rdf:resource="http://purl.org/dc/dcmitype/StillImage" />
        <dc:title />
      </cc:Work>
    </rdf:RDF>
  </metadata>
  <defs
     id="defs6">
    <filter
       id="filter3797"
       style="color-interpolation-filters:sRGB;"
       inkscape:label="Drop Shadow">
      <feFlood
         id="feFlood3799"
         flood-opacity="0.8"
         flood-color="rgb(0,0,0)"
         result="flood" />
      <feComposite
         id="feComposite3801"
         in2="SourceGraphic"
         in="flood"
         operator="in"
         result="composite1" />
      <feGaussianBlur
         id="feGaussianBlur3803"
         in="composite"
         stdDeviation="10"
         result="blur" />
      <feOffset
         id="feOffset3805"
         dx="8"
         dy="10"
         result="offset" />
      <feComposite
         id="feComposite3807"
         in2="offset"
         in="SourceGraphic"
         operator="over"
         result="composite2" />
    </filter>
    <filter
       id="filter3836"
       style="color-interpolation-filters:sRGB;"
       inkscape:label="Drop Shadow">
      <feFlood
         id="feFlood3838"
         flood-opacity="0.8"
         flood-color="rgb(0,0,0)"
         result="flood" />
      <feComposite
         id="feComposite3840"
         in2="SourceGraphic"
         in="flood"
         operator="in"
         result="composite1" />
      <feGaussianBlur
         id="feGaussianBlur3842"
         in="composite"
         stdDeviation="5"
         result="blur" />
      <feOffset
         id="feOffset3844"
         dx="8"
         dy="10"
         result="offset" />
      <feComposite
         id="feComposite3846"
         in2="offset"
         in="SourceGraphic"
         operator="over"
         result="composite2" />
    </filter>
    <filter
       style="color-interpolation-filters:sRGB;"
       inkscape:label="Drop Shadow"
       id="filter4290">
      <feFlood
         flood-opacity="1"
         flood-color="rgb(0,0,0)"
         result="flood"
         id="feFlood4292" />
      <feComposite
         in="flood"
         in2="SourceGraphic"
         operator="in"
         result="composite1"
         id="feComposite4294" />
      <feGaussianBlur
         in="composite1"
         stdDeviation="7.91458"
         result="blur"
         id="feGaussianBlur4296" />
      <feOffset
         dx="6"
         dy="6"
         result="offset"
         id="feOffset4298" />
      <feComposite
         in="SourceGraphic"
         in2="offset"
         operator="over"
         result="composite2"
         id="feComposite4300" />
    </filter>
    <filter
       style="color-interpolation-filters:sRGB"
       inkscape:label="Drop Shadow"
       id="filter4290-4">
      <feFlood
         flood-opacity="1"
         flood-color="rgb(0,0,0)"
         result="flood"
         id="feFlood4292-2" />
      <feComposite
         in="flood"
         in2="SourceGraphic"
         operator="in"
         result="composite1"
         id="feComposite4294-5" />
      <feGaussianBlur
         in="composite1"
         stdDeviation="7.91458"
         result="blur"
         id="feGaussianBlur4296-0" />
      <feOffset
         dx="6"
         dy="6"
         result="offset"
         id="feOffset4298-1" />
      <feComposite
         in="SourceGraphic"
         in2="offset"
         operator="over"
         result="composite2"
         id="feComposite4300-6" />
    </filter>
    <filter
       style="color-interpolation-filters:sRGB;"
       inkscape:label="Drop Shadow"
       id="filter4291">
      <feFlood
         flood-opacity="0.992157"
         flood-color="rgb(0,0,0)"
         result="flood"
         id="feFlood4293" />
      <feComposite
         in="flood"
         in2="SourceGraphic"
         operator="in"
         result="composite1"
         id="feComposite4295" />
      <feGaussianBlur
         in="composite1"
         stdDeviation="10.9375"
         result="blur"
         id="feGaussianBlur4297" />
      <feOffset
         dx="6"
         dy="6"
         result="offset"
         id="feOffset4299" />
      <feComposite
         in="SourceGraphic"
         in2="offset"
         operator="over"
         result="composite2"
         id="feComposite4301" />
    </filter>
  </defs>
  <sodipodi:namedview
     pagecolor="#ffffff"
     bordercolor="#666666"
     borderopacity="1"
     objecttolerance="10"
     gridtolerance="10"
     guidetolerance="10"
     inkscape:pageopacity="0"
     inkscape:pageshadow="2"
     inkscape:window-width="944"
     inkscape:window-height="1012"
     id="namedview4"
     showgrid="false"
     inkscape:zoom="0.35355339"
     inkscape:cx="612.97459"
     inkscape:cy="55.690219"
     inkscape:window-x="960"
     inkscape:window-y="30"
     inkscape:window-maximized="0"
     inkscape:current-layer="layer2" />
  <g
     inkscape:groupmode="layer"
     id="layer1"
     inkscape:label="artwork"
     sodipodi:insensitive="true" />
  <image
     sodipodi:absref="D:\Desktop\peppercarrot_ep01_translation-master\uk\..\gfx_Pepper-and-Carrot_by-David-Revoy_E01.png"
     xlink:href="../gfx_Pepper-and-Carrot_by-David-Revoy_E01.png"
     width="1100"
     height="765"
     id="image10"
     x="0"
     y="0" />
  <g
     inkscape:groupmode="layer"
     id="layer2"
     inkscape:label="txt">
    <flowRoot
       xml:space="preserve"
       id="flowRoot2987"
       style="font-style:normal;font-variant:normal;font-weight:normal;font-stretch:normal;font-size:12px;line-height:125%;font-family:Arial;-inkscape-font-specification:Arial;letter-spacing:0px;word-spacing:0px;display:inline;fill:#301b0b;fill-opacity:1;stroke:none;filter:url(#filter3836)"
       transform="matrix(0.69723552,0,0,0.69723552,-772.20841,255.15998)"><flowRegion
         id="flowRegion2989"><rect
           id="rect2991"
           width="2405.8"
           height="107.55731"
           x="739.22333"
           y="644.36664"
           style="fill:#301b0b;fill-opacity:1" /></flowRegion><flowPara
         id="flowPara2993"
         style="font-style:italic;font-variant:normal;font-weight:normal;font-stretch:normal;font-size:48px;font-family:'Blogger Sans';-inkscape-font-specification:'Blogger Sans Italic';text-align:center;text-anchor:middle;fill:#ffffff;fill-opacity:1">Епізод 1 : Зілля польоту</flowPara></flowRoot>    <path
       sodipodi:nodetypes="csscscscsscscscscssscsssscssscsscscccsssssccscsscccssssscsccccscccsscscscscssccsscscccscssscssccccsscsscccscssccccssccsssscccssccsssccsssssscscsssscscscsscscsssscsscscscssssccsscssccccccsccccsssssscsscscsssccssssccccssscscccccssscsscscsssscccscssssscccccsscsssscssscccccscscscscscscscssssssscssssscsssssssccsscccsssssscccccsscsssscssscccccscscscscsscsccsssccccsscsssssccscsssssssccscscsssssccscccssssccsccccccccccsccsssccsscssccssssssssssssscscscccsssssccssscssscccsccscscsssssssscssssccccsccscscsccsccssssscsscccccsccsccccssccccsscccscccsscssssccsccsccssccccscsssssssccscssccccscccsccsscsscssssccccccsssssscsssccccscccscscccscsssccccscccccscsccscccczsscscccssscsscscssccscsccscccccccccsccszcscscc"
       inkscape:connector-curvature="0"
       id="path4839-6"
       d="m 355.7294,691.61599 c -1.83823,-1.876 -2.62271,-3.0718 -2.66854,-4.0672 -0.18731,-4.0468 0.51164,-5.2555 3.56004,-6.1526 1.05207,-0.3095 2.16764,-1.0206 2.47953,-1.5798 0.38049,-0.6837 0.59124,-5.5334 0.64457,-14.7999 l 0.0797,-13.7828 -3.37734,-0.8238 c -4.8742,-1.189 -6.04854,-1.7498 -6.58954,-3.1448 -0.26289,-0.6827 -0.70655,-1.2427 -0.98461,-1.2444 -0.2768,-0.01 -0.50665,-0.3452 -0.50928,-0.7633 -0.008,-0.6159 0.3455,-0.6883 1.84243,-0.3813 2.68662,0.5512 3.72113,0.4265 6.74479,-0.8126 l 2.71114,-1.1113 -0.14374,-17.49729 c -0.1525,-18.26845 -0.45512,-21.23006 -2.31744,-22.27852 -0.47328,-0.26657 -2.94957,-0.53395 -5.50294,-0.59427 -3.96101,-0.0932 -4.6442,-0.22933 -4.65237,-0.92486 -0.0134,-0.98413 4.06073,-4.738 6.38936,-5.89258 3.45588,-1.71266 10.41,-4.7527 10.86398,-4.75004 1.59153,0.01 5.77588,1.79162 4.8551,3.76434 l 1.06667,2.17432 5.50097,0.0327 c 9.14936,0.0546 15.65145,2.4167 22.97159,8.34694 2.93936,2.38175 4.61976,4.17503 5.70428,6.09056 1.47224,2.59829 1.54,2.95965 1.58154,8.41867 l 0.0426,5.70388 -2.29422,4.67915 c -3.5288,7.19739 -10.3116,13.9435 -17.73474,17.6388 -2.94073,1.4645 -11.44069,4.6768 -14.08244,4.8885 l -1.84276,0.3262 0.0818,10.7292 c 0.0805,10.6327 0.0911,10.7408 1.26894,12.0057 0.65205,0.7021 1.9788,1.4296 2.94727,1.6167 0.96717,0.187 2.00909,0.6387 2.31303,1.0033 0.38737,0.4645 0.89421,0.535 1.69326,0.2349 0.6705,-0.2515 2.49836,-0.228 4.43149,0.057 2.67618,0.3946 3.59253,0.343 4.9097,-0.2761 1.04436,-0.4912 2.73132,-0.7176 4.75157,-0.6381 1.72284,0.067 3.62873,-0.044 4.23659,-0.2487 0.82162,-0.2768 1.10528,-0.1836 1.10967,0.3629 0.0133,0.979 -0.75099,1.522 -3.59567,2.572 -1.30767,0.4829 -2.48183,1.1539 -2.60862,1.4912 -0.12854,0.3371 -1.12173,0.9645 -2.20884,1.3941 -1.08491,0.4297 -2.29444,1.1005 -2.68328,1.4907 -0.3897,0.3905 -2.55326,1.2623 -4.80722,1.9376 -2.2531,0.6755 -4.34832,1.5327 -4.65664,1.9054 -0.79226,0.9592 -5.9714,2.8944 -10.44861,3.9039 -2.09305,0.4721 -3.80453,1.0466 -3.80315,1.2768 0.003,0.2301 -1.04809,0.4089 -2.33282,0.3973 -2.17442,-0.023 -2.52087,-0.2069 -4.94161,-2.6785 z m 22.60162,-52.378 c 7.70412,-3.96045 15.93228,-12.07278 18.02664,-17.77513 1.7177,-4.67362 1.13762,-7.62527 -2.01849,-10.28236 -3.46342,-2.91568 -12.44065,-3.95227 -19.16934,-2.21351 -5.269,1.36129 -4.94089,0.19724 -4.81184,17.06385 0.1013,13.44595 0.18688,14.69922 0.97652,15.15247 1.19081,0.68059 2.71013,0.25808 6.99651,-1.94532 z m 406.74352,54.9385 c -1.83735,-1.876 -2.62272,-3.0719 -2.66854,-4.0672 -0.18644,-4.0468 0.51294,-5.2556 3.56093,-6.1526 1.05205,-0.3096 2.16455,-1.0207 2.47166,-1.5799 0.37013,-0.6738 0.58898,-5.668 0.64983,-14.7988 l 0.0905,-13.7816 -3.38085,-0.825 c -4.87989,-1.1902 -6.05464,-1.7505 -6.59347,-3.1458 -0.26508,-0.6828 -0.70784,-1.2427 -0.98505,-1.2444 -0.27726,-0.01 -0.50667,-0.3452 -0.5106,-0.7633 -0.008,-0.616 0.34509,-0.6883 1.84287,-0.3814 2.68706,0.5512 3.71981,0.4265 6.74524,-0.8126 l 2.71115,-1.1112 -0.14378,-17.49734 c -0.14766,-18.26841 -0.45594,-21.23002 -2.31784,-22.27854 -0.47284,-0.26656 -2.95004,-0.53404 -5.5038,-0.59422 -3.96058,-0.0932 -4.64424,-0.22937 -4.65153,-0.92494 -0.0136,-0.9841 4.05945,-4.73791 6.39025,-5.8925 3.45587,-1.71279 10.4087,-4.7527 10.86439,-4.74999 1.57277,0.01 3.88546,1.78839 4.83005,3.71641 l 1.04327,2.12632 6.50072,0.23858 c 5.56264,0.20397 7.10412,0.44809 10.6932,1.69302 3.41721,1.18522 8.98386,4.31443 11.03746,6.20404 0.22762,0.20947 0.0626,1.07231 -0.37241,1.91733 -0.67345,1.31927 -0.68393,1.57578 -0.0692,1.8135 0.39226,0.15246 1.38316,-0.0665 2.20326,-0.48738 1.46766,-0.75324 1.50713,-0.74093 2.69885,0.84136 2.77423,3.68486 3.07142,4.70897 3.11756,10.76442 l 0.0427,5.70385 -2.29466,4.67915 c -3.52882,7.19735 -10.31246,13.94363 -17.73429,17.63883 -2.94117,1.4645 -11.47598,4.427 -14.08247,4.8885 l -1.84317,0.3263 0.0818,10.7291 c 0.0805,10.6328 0.0906,10.7407 1.26806,12.0058 0.65246,0.7019 1.97835,1.4295 2.94638,1.6166 0.9685,0.1871 2.00955,0.6386 2.31434,1.0033 0.38695,0.4645 0.89423,0.5349 1.69368,0.235 0.67052,-0.2516 2.49705,-0.2282 4.43106,0.057 2.67575,0.3945 3.59297,0.343 4.9097,-0.2762 1.0435,-0.4912 2.72914,-0.7175 4.75114,-0.638 1.72239,0.067 3.62959,-0.044 4.23618,-0.2488 0.82201,-0.2767 1.10612,-0.1837 1.11009,0.3629 0.0136,0.979 -0.75144,1.522 -3.59568,2.572 -1.30808,0.4829 -2.48314,1.154 -2.6095,1.4912 -0.12723,0.3372 -1.12084,0.9645 -2.20706,1.3942 -1.08753,0.4297 -2.29489,1.1005 -2.68506,1.4906 -0.38924,0.3904 -2.55235,1.2624 -4.80591,1.9377 -2.25263,0.6754 -4.34917,1.5326 -4.65663,1.9052 -0.79356,0.9593 -5.97271,2.8946 -10.44815,3.9039 -2.0935,0.4723 -3.80542,1.0468 -3.80359,1.2769 0.005,0.2302 -1.04856,0.409 -2.3346,0.3974 -2.17354,-0.023 -2.51954,-0.207 -4.9407,-2.6785 z m 21.82847,-51.93948 c 1.59503,-0.79034 3.99026,-2.18311 5.32092,-3.09513 1.33065,-0.91216 3.01014,-1.65482 3.73305,-1.65055 1.07425,0.008 1.33151,-0.23587 1.41446,-1.32655 0.0564,-0.73394 0.41246,-1.50835 0.79456,-1.72091 1.53484,-0.85324 6.58811,-7.83801 7.53426,-10.41382 1.71934,-4.68059 1.14235,-7.63094 -2.01597,-10.28914 -3.46382,-2.91564 -12.44017,-3.95224 -19.16973,-2.2134 -5.26684,1.36121 -4.93918,0.19716 -4.81011,17.06368 0.10083,13.44603 0.18686,14.6993 0.97606,15.1525 1.11517,0.6374 2.63564,0.2692 6.2225,-1.50668 z M 47.842379,659.54059 c -0.878293,-0.1995 -1.977427,-1.1034 -2.928382,-2.4092 -1.314367,-1.8057 -3.198063,-2.949 -1.776095,-5.9721 l -0.253598,-3.882 1.969711,-1.1002 c 1.805968,-1.0085 1.99479,-1.3102 2.251465,-3.6181 0.561038,-5.02584 1.100421,-16.55198 1.342294,-28.6438 0.232965,-11.71994 0.294315,-12.34367 1.163887,-12.11133 0.760933,0.20318 0.915652,-0.038 0.903083,-1.41132 -0.01243,-0.91093 -0.461929,-2.38383 -1.007829,-3.27286 -0.723982,-1.17632 -1.001482,-2.48465 -1.019925,-4.80259 -0.02278,-2.96165 -0.09747,-3.18639 -1.114544,-3.19242 -1.681469,-0.0105 -5.451784,-1.58237 -6.556903,-2.73398 -0.545916,-0.56874 -1.53551,-2.66087 -2.202003,-4.64938 -1.651219,-4.9421 -1.34213,-5.70769 3.222617,-7.95084 4.613313,-2.26704 8.062007,-2.58345 27.22313,-2.48162 l 14.583852,0.0767 1.013741,1.23586 c 0.813555,0.99173 1.135612,1.11503 1.634382,0.62465 0.843331,-0.83054 1.40729,-0.76454 1.413393,0.1656 0.01605,1.17617 2.128344,0.67841 2.694951,-0.63308 0.52984,-1.2224 1.147763,-1.26483 15.996534,-1.09386 7.03237,0.0815 10.05017,0.78545 10.70419,2.49855 0.17743,0.46598 0.64024,1.08525 1.02611,1.37596 2.06956,1.55587 -2.09944,4.68736 -8.15263,6.12473 -1.99047,0.4727 -3.69562,0.9352 -3.78732,1.02788 -0.63948,0.63947 -1.88836,59.21851 -1.32804,62.29035 0.3618,1.9861 0.5237,2.1755 2.01662,2.3477 1.69969,0.1959 5.52693,2.9039 5.53503,3.9159 0.004,0.3229 -0.74075,1.377 -1.64859,2.3425 -1.34327,1.4279 -2.46584,1.9777 -6.00477,2.9438 -2.39525,0.6532 -6.075053,1.1142 -8.117759,1.4687 l -3.764751,0.2809 -1.755739,-2.1333 c -3.52032,-4.2753 -3.442968,-6.2254 0.370021,-9.4098 2.126811,-1.776 2.17426,-1.8815 2.152348,-4.74366 -0.01776,-1.62352 0.196768,-2.92602 0.469593,-2.92441 0.692252,0 0.592137,-3.31647 -0.109444,-3.55287 -0.432796,-0.14639 -0.496484,-4.47488 -0.257281,-17.62957 0.173767,-9.58969 0.221712,-20.95263 0.108244,-25.25113 l -0.207147,-7.81562 -6.073811,0.27567 c -3.340065,0.15164 -9.025821,0.68498 -12.635255,1.18519 -3.610315,0.50011 -7.949657,0.41444 -9.089767,1.21472 l -2.528307,0.30523 -0.272551,3.03424 c -0.39079,4.3538 -0.696129,8.89216 -1.164516,17.2954 -0.368531,6.59902 -1.120957,19.27733 -1.992726,33.51497 -0.301018,4.92024 -0.286717,5.00894 0.95757,6.15494 2.037252,1.8755 2.637357,2.2888 3.62883,2.4982 0.520905,0.1097 0.910438,0.5727 0.874891,1.0397 -0.033,0.4628 0.249788,0.8435 0.629993,0.8458 0.461802,0 0.659125,0.484 0.592411,1.4517 -0.0752,1.0499 -0.408331,1.5235 -1.225755,1.7238 -0.617298,0.152 -1.123414,0.4878 -1.121638,0.7463 0.01309,0.9631 -3.297749,2.1079 -8.564431,2.9657 -5.780597,0.9414 -5.673305,0.9352 -7.819996,0.4483 z m 400.202131,-2.9002 c -1.05366,-0.3206 -2.13962,-2.9199 -2.0235,-4.8436 0.16985,-2.7875 1.08586,-4.2109 3.49144,-5.42 l 2.30631,-1.1588 0.32997,-4.33219 c 0.62792,-8.22714 0.89843,-31.36797 0.37039,-31.71428 -0.27526,-0.18061 -0.47497,-1.28871 -0.44292,-2.46236 0.0325,-1.17374 -0.15357,-2.46551 -0.41181,-2.87065 -0.53164,-0.8349 -3.71056,-0.9977 -7.64243,-0.39147 -1.84417,0.28457 -2.6938,0.20374 -3.40895,-0.32366 -0.93075,-0.6868 -0.92334,-0.75223 0.31562,-2.85292 0.69712,-1.18246 1.87164,-2.79007 2.61044,-3.57233 1.54686,-1.63876 10.81508,-6.13032 12.62837,-6.1195 0.70666,0 1.95937,0.7064 2.98692,1.67473 1.6523,1.55624 1.77176,1.86661 1.79311,4.6552 0.018,1.64313 0.24592,3.1259 0.51752,3.29482 0.49214,0.30566 10.77979,-4.48973 15.43429,-7.19346 2.95782,-1.71874 9.67965,-4.21776 11.32007,-4.20798 2.42875,0.0149 5.87799,1.31114 7.4684,2.8084 1.50769,1.41835 1.64321,1.7863 1.66395,4.53137 0.0179,1.64326 0.2213,3.11162 0.4656,3.26316 0.24477,0.15156 3.38141,-1.06029 6.96932,-2.69286 3.58923,-1.63261 9.07404,-3.94386 12.18955,-5.13598 4.79596,-1.83548 6.0621,-2.13277 8.26889,-1.94146 2.56166,0.2223 5.2125,1.60603 5.35131,2.79387 0.0261,0.30924 0.10034,0.89452 0.13333,1.30058 0.0363,0.40606 0.36843,0.74013 0.73818,0.74232 2.47633,0.0149 4.87819,18.13607 3.46312,26.12646 -0.26023,1.46862 -0.89185,5.98838 -1.40367,10.0438 -0.51313,4.05552 -1.25724,8.81075 -1.65501,10.56697 -0.47021,2.07412 -0.6617,5.00412 -0.54664,8.35992 l 0.17765,5.1665 -1.96216,-0.078 c -1.67351,-0.067 -2.27061,-0.4196 -4.0772,-2.4087 -2.07735,-2.288 -2.11637,-2.3955 -2.14343,-5.8634 -0.0179,-1.9429 0.423,-6.73382 0.97165,-10.64638 1.23741,-8.82406 1.3708,-26.70928 0.23784,-32.12212 -0.68441,-3.27073 -0.73788,-3.35391 -1.99079,-3.04794 -2.59282,0.63332 -7.86014,1.98847 -11.78436,4.31268 -6.97767,4.1323 -10.8667,5.57504 -11.67703,7.51672 -0.91735,2.19341 -1.27212,18.08216 -0.67318,27.26222 -0.73988,10.42522 -2.1405,16.17272 -7.34658,17.53942 -4.22251,-1.3169 -3.17129,-5.4435 -2.75992,-11.1693 0.94417,-6.73301 0.90684,-12.62165 1.01828,-18.32436 0.0113,-0.77567 0.22308,-3.81401 -0.11584,-7.8717 -0.30135,-3.67307 -0.70388,-8.84283 -0.89436,-11.48843 -0.41098,-5.72964 -0.90555,-6.50312 -3.917,-6.13045 -4.09864,0.50705 -19.92514,9.83263 -21.39326,12.60607 -0.37914,0.71793 -0.43121,2.95506 -0.16607,7.23616 0.21597,3.49118 0.17595,8.66609 -0.0933,11.85153 -1.05528,12.52288 -1.07584,11.55668 0.25601,12.27408 0.6578,0.3545 2.48855,0.9109 4.07086,1.2364 3.32262,0.6843 3.87272,1.6249 1.67396,2.8597 -0.81177,0.456 -1.47377,1.1715 -1.4707,1.5901 0.006,0.4184 -0.21576,0.7594 -0.48685,0.7578 -0.26937,-0.01 -0.48882,0.3235 -0.48601,0.7225 0.0183,1.6649 -4.96386,2.9364 -13.01339,3.3247 -2.43439,0.1176 -4.79291,0.1022 -5.24081,-0.031 z m -316.25277,-3.3407 c -5.24862,-1.4398 -7.33103,-3.779 -10.34632,-11.61356 l -2.36234,-6.13691 -0.055,-7.3795 c -0.0786,-10.43463 1.90731,-17.75161 6.84296,-25.32852 4.14939,-6.36912 8.30958,-10.4376 13.05775,-12.77024 5.49088,-2.69761 8.94954,-3.01935 12.155,-1.13048 3.9143,2.30636 7.59381,6.09108 9.35279,9.61785 l 1.6356,3.28071 0.0729,9.46997 0.0729,9.46992 -1.24274,1.24524 c -0.89265,0.89457 -2.136,1.38941 -4.41466,1.75714 -3.39229,0.54778 -20.62522,4.73376 -24.90185,6.04918 -2.10984,0.64895 -2.57612,0.994 -2.56854,1.90371 0.008,0.61102 -0.18016,1.22707 -0.41175,1.36893 -0.36359,0.22387 0.33938,2.68055 1.70475,5.95713 0.65109,1.56247 3.49344,4.12803 4.99976,4.51453 1.79539,0.4604 6.27472,-0.4578 9.86226,-2.02179 2.80652,-1.22319 10.06075,-5.39983 12.34691,-7.1087 1.44273,-1.07915 2.81197,-1.11093 3.39519,-0.0783 0.31037,0.54751 -0.0689,1.80436 -1.25299,4.18169 -1.34225,2.68921 -1.87988,3.33965 -2.57563,3.11542 -1.29855,-0.41879 -2.60178,1.89878 -2.60089,4.62718 l 2.1e-4,2.2613 -4.45698,2.208 c -2.45134,1.2143 -5.6136,2.4684 -7.0274,2.7868 -3.36412,0.7576 -7.9948,0.6565 -11.28637,-0.2465 z m 6.63809,-35.83185 c 9.85865,-2.15984 12.75559,-3.15278 13.5437,-4.64162 0.99104,-1.87591 0.51478,-12.14796 -0.64748,-13.90605 -1.31427,-1.99084 -2.02723,-2.06918 -5.13108,-0.56376 -4.3054,2.08846 -10.50962,8.65956 -13.67689,14.48666 -2.30538,4.24262 -3.26821,7.29472 -2.06745,6.55646 0.25365,-0.15644 3.8454,-1.02578 7.9792,-1.93169 z M 243.737,653.86509 c -1.45945,-0.6627 -2.058,-1.315 -2.59716,-2.8313 -0.97948,-2.7602 -0.92855,-3.0276 0.9304,-4.8895 1.81417,-1.8171 1.79329,-1.6841 2.41189,-15.50452 1.037,-23.17127 1.03165,-22.8587 0.35911,-23.36707 -0.36251,-0.27371 -0.82524,-1.75357 -1.02813,-3.28875 -0.36581,-2.76179 -0.38939,-2.79452 -2.2261,-3.11516 -1.02116,-0.17839 -3.31003,-0.0789 -5.0868,0.2199 -3.59534,0.60539 -5.2967,0.12741 -5.30868,-1.49141 -0.019,-1.71576 5.80168,-7.0276 10.09084,-9.21903 4.26056,-2.17638 6.2303,-2.47201 8.52059,-1.27907 2.13248,1.11102 2.97725,2.63207 3.00599,5.4186 0.0425,4.08232 0.0556,4.08371 7.61002,0.76826 3.72362,-1.63511 9.33488,-3.95544 12.46774,-5.15637 5.0925,-1.95168 6.0046,-2.15446 8.60278,-1.91118 3.75765,0.3519 5.10146,1.37003 7.05285,5.34078 3.78426,7.69777 4.19628,21.30099 1.17767,38.82607 -0.5036,2.92743 -0.8035,7.51275 -0.80393,12.29385 0.003,7.2775 -0.0472,7.6315 -1.00349,7.7628 -1.50566,0.2069 -4.21473,-1.8668 -5.8385,-4.4702 l -1.44306,-2.314 0.5146,-4.65336 c 0.2825,-2.55935 0.46317,-11.19267 0.40245,-19.18536 -0.10124,-13.44229 -0.64808,-20.8491 -1.65341,-22.46168 -0.86611,-1.38958 -10.73788,3.07901 -19.22945,8.70473 -2.88704,1.91363 -5.49067,3.9326 -5.78431,4.48667 -0.35701,0.67598 -0.41385,3.13977 -0.17003,7.49001 0.23841,4.24281 0.12967,9.53242 -0.31464,15.30958 -0.44213,5.74544 -0.51007,9.02921 -0.19766,9.40561 0.26622,0.3184 1.47648,0.6966 2.69186,0.8405 2.90729,0.3449 3.54341,0.9351 3.30933,3.0757 -0.17395,1.5869 -0.45692,1.8662 -3.20103,3.1532 -3.66964,1.721 -7.82431,2.9542 -9.85304,2.9247 -0.83126,-0.016 -2.36387,-0.4094 -3.4087,-0.883 z m 69.34237,0.5163 c -5.06462,-1.3896 -7.33027,-3.8192 -9.9516,-10.6728 -2.62541,-6.86556 -3.28776,-10.69835 -2.96388,-17.14743 0.58853,-11.69951 4.58142,-21.103 12.68531,-29.87996 2.56281,-2.77406 4.07462,-3.90838 7.37201,-5.52864 5.49133,-2.69762 8.95043,-3.01926 12.15632,-1.1304 3.91343,2.30627 9.87357,5.74025 9.35192,9.61789 l 1.63648,3.28072 0.0725,9.46993 0.0725,9.46979 -1.24187,1.24532 c -0.89266,0.89452 -2.13601,1.38941 -4.41597,1.75723 -3.39142,0.54756 -20.62434,4.73363 -24.90053,6.04922 -2.10986,0.64888 -2.57612,0.99386 -2.56942,1.90349 0.008,0.6112 -0.17973,1.22707 -0.41088,1.36894 -0.36446,0.22409 0.33939,2.68069 1.70387,5.95721 0.65285,1.56247 3.49389,4.12799 5.00108,4.51459 1.79496,0.4603 6.27427,-0.458 9.86226,-2.0218 2.80564,-1.22324 10.0603,-5.39992 12.34561,-7.10874 1.44316,-1.0792 2.81196,-1.11089 3.39561,-0.0784 0.31081,0.54761 -0.0689,1.8045 -1.25298,4.18184 -1.34269,2.6892 -1.87988,3.3396 -2.57563,3.1154 -1.29899,-0.4189 -0.76379,2.635 -2.60089,4.6272 l -0.005,2.2612 -4.45742,2.2081 c -2.45177,1.2143 -5.61491,2.4682 -7.02827,2.7867 -3.36368,0.7577 -7.99394,0.6565 -11.28638,-0.2466 z m 6.63853,-35.832 c 9.85777,-2.1597 12.75471,-3.15269 13.54195,-4.64166 0.99235,-1.87587 0.51478,-12.14791 -0.64661,-13.90597 -1.31513,-1.99086 -2.02723,-2.06913 -5.13151,-0.56367 -4.30497,2.08835 -10.50875,8.65951 -13.67645,14.48662 -2.30627,4.24255 -3.26779,7.29463 -2.06833,6.55641 0.25451,-0.15639 3.84627,-1.02573 7.98095,-1.93173 z m 319.72563,37.7189 c -1.84981,-0.7691 -2.40497,-1.9228 -2.42845,-5.0581 -0.0174,-1.5991 3.07504,-5.4201 4.37283,-5.4124 0.56001,0 1.01246,-0.4913 1.21795,-1.3317 0.179,-0.7354 0.24583,-9.68444 0.14545,-19.88667 -0.14448,-14.60014 -0.0486,-18.68731 0.45554,-19.19698 0.88384,-0.90182 0.73233,-3.31163 -0.25346,-4.03444 -0.68074,-0.4989 -0.92403,-2.2463 -1.43152,-10.25738 -0.33631,-5.31104 -0.613,-9.89658 -0.61527,-10.19046 -0.005,-0.29371 -0.41976,-0.5366 -0.92743,-0.53966 -2.62478,-0.0157 -6.83122,-2.84437 -8.26532,-5.55928 -1.24859,-2.36232 -0.91399,-4.17109 1.19054,-6.43158 l 1.91733,-2.06036 4.09366,0.0576 c 7.8848,0.1113 10.19662,2.1477 19.23141,16.94765 0.95851,1.57121 3.03617,4.68414 4.61692,6.91752 1.58037,2.23356 2.99818,4.77999 3.15025,5.65893 0.65447,3.76573 0.68174,3.81418 2.14801,3.82295 1.47801,0.009 1.66818,0.25425 9.4247,12.20994 2.17384,3.35068 3.05165,4.24988 3.04363,3.11664 -0.0105,-0.77274 8.51529,-19.25364 11.87802,-25.75833 1.67137,-3.23685 4.40195,-8.53366 6.06542,-11.77048 4.90625,-9.54643 7.31057,-12.13184 11.67406,-12.54824 1.3204,-0.12614 1.81877,0.0617 2.21732,0.83538 0.29226,0.56389 0.88601,0.92704 1.36662,0.83473 0.46717,-0.0895 1.34911,0.18725 1.95945,0.61561 0.61037,0.42836 1.72297,0.78257 2.47423,0.78702 0.88746,0.007 1.36981,0.26725 1.37413,0.74607 0.006,0.4058 -0.29463,0.73617 -0.66087,0.73399 -0.36717,-0.006 -1.27693,0.56161 -2.02266,1.25287 -0.99696,0.92447 -1.20957,1.40294 -0.80295,1.80873 0.40667,0.4058 0.37123,0.75433 -0.13483,1.31691 -1.39485,1.55204 -2.78653,25.88962 -3.06819,53.63514 -0.15299,15.22508 0.0994,19.75948 1.08169,19.61018 0.301,-0.046 1.10127,0.069 1.77904,0.2536 0.67821,0.1851 1.67674,0.3996 2.21724,0.4766 0.54184,0.077 1.26443,0.3144 1.60341,0.5274 0.69248,0.434 0.86624,2.2988 0.21453,2.2948 -0.23046,0 -1.07645,0.6025 -1.88001,1.3417 -2.97531,2.7377 -3.85067,3.2378 -7.16154,4.0889 -5.78849,1.4879 -7.67225,1.5583 -10.27262,0.3843 -2.7637,-1.2475 -4.35581,-3.0951 -4.37135,-5.0708 -0.0179,-1.9626 0.71565,-3.1894 2.42216,-4.0646 1.723,-0.8845 2.05356,-2.2845 2.12763,-9.03277 0.0475,-4.72354 0.35132,-6.77396 1.26399,-8.6987 0.69419,-1.46243 0.31039,-4.42521 -0.55096,-4.24569 -0.58021,0.12113 -0.65154,-1.84876 -0.4604,-12.79337 0.12452,-7.11512 0.33313,-14.81764 0.46336,-17.11675 l 0.23689,-4.1801 -2.20196,3.92235 c -1.21154,2.15743 -3.97153,8.11814 -6.13215,13.24608 -5.77001,13.69039 -8.82276,19.78375 -11.36508,22.68473 -1.96726,2.24503 -2.4862,2.56785 -4.10523,2.55821 -2.21313,-0.0131 -3.07733,-0.87715 -3.9643,-3.95918 -0.78483,-2.73128 -6.36256,-14.31106 -9.14687,-18.99454 -2.33671,-3.93116 -10.44537,-17.03448 -10.54096,-17.03492 -0.0305,-8e-5 -0.0166,11.45612 0.0465,25.45847 0.10872,24.96558 0.13278,25.47978 1.1183,26.53748 0.55499,0.5933 1.85693,1.2272 2.89513,1.4086 2.36569,0.4131 3.37792,1.4432 2.11039,2.1477 -0.4865,0.2706 -0.79439,0.674 -0.68532,0.8966 0.20109,0.4075 -1.31472,1.3103 -3.13384,1.8668 -0.91194,0.2788 -0.92123,0.3351 -0.11759,0.7886 2.17376,1.2277 0.49759,2.1493 -6.14075,3.376 -5.84417,1.0801 -8.27039,1.0939 -10.7558,0.06 z m -462.94289,-3.8834 c -1.24383,-1.2408 -1.7054,-3.0214 -1.328,-5.1181 0.23989,-1.328 0.65359,-1.7839 2.14416,-2.3621 l 1.84747,-0.7165 0.0788,-3.15573 c 0.0392,-1.73563 0.30977,-6.00924 0.59274,-9.49712 0.48717,-5.99497 0.25347,-16.91785 -0.57128,-26.72147 l -0.33998,-4.03979 -2.031,-0.29258 c -1.11783,-0.16084 -3.24827,-0.0951 -4.73513,0.14592 -3.11222,0.50496 -3.44225,0.40513 -3.10086,-0.93826 0.27967,-1.09858 -1.08068,-1.44025 -1.50314,-0.37742 -0.13291,0.33743 -0.26505,0.0886 -0.29035,-0.55198 -0.0773,-1.93094 5.3326,-6.79359 10.34559,-9.29512 l 4.27642,-2.13355 2.59659,0.99247 c 3.12266,1.19329 4.67179,3.18613 5.15466,6.62865 0.18472,1.32136 0.42203,2.40305 0.52505,2.40361 0.10388,3.1e-4 2.99545,-1.22743 6.42365,-2.72913 3.42908,-1.50176 8.77916,-3.70546 11.88814,-4.89731 5.04819,-1.93536 5.96379,-2.13794 8.56067,-1.89476 3.75634,0.35184 5.10102,1.36993 7.05284,5.34072 2.87256,5.84556 3.88734,16.0452 2.6173,26.3213 -0.36571,2.95685 -0.88878,8.14202 -1.16273,11.52251 -0.27439,3.38055 -0.80805,7.88467 -1.18681,10.0092 -0.37747,2.12444 -0.67455,5.60174 -0.6583,7.72694 0.0283,3.3606 -0.098,3.9319 -0.95035,4.3848 -1.21555,0.6462 -2.36543,0.087 -4.1448,-2.0194 -2.16133,-2.5584 -2.04803,-0.8384 -1.70956,-25.81877 0.22541,-16.76697 -0.18562,-24.29691 -1.44214,-26.3106 -0.89555,-1.43655 -11.5452,3.44326 -19.88691,9.11274 l -4.87061,3.31045 -0.16792,10.18033 c -0.16245,9.8123 -0.2077,10.20758 -1.25189,10.93606 -0.87514,0.61037 -0.99624,0.98034 -0.63162,1.92249 0.24748,0.64162 0.3184,1.2993 0.15606,1.46155 -0.16104,0.16202 0.004,0.29641 0.3515,0.29855 0.49977,0 0.57837,0.77244 0.35063,3.44256 -0.34566,4.04584 0.2543,4.99344 3.76615,5.95114 4.05775,1.107 4.38037,2.4272 1.16546,4.7846 -2.62497,1.9262 -7.42263,3.027 -13.04452,2.9935 -3.23109,-0.019 -4.07278,-0.1917 -4.88299,-1.0004 z m 401.18627,2.8983 c -1.22406,-0.5254 -2.65038,-2.3805 -2.66959,-3.4725 -0.0335,-2.1514 -0.72566,-2.1643 -6.03985,-0.1127 -7.25674,2.8019 -11.03007,3.577 -16.06949,3.3002 -8.26568,-0.454 -12.32372,-4.5031 -12.39317,-12.3662 -0.0402,-5.20985 3.72828,-12.58579 8.0927,-15.82326 3.92321,-2.90997 14.66037,-7.93486 19.73205,-9.235 2.55105,-0.65389 4.95109,-1.50298 5.33562,-1.88708 0.58733,-0.58903 0.6013,-1.45566 0.0891,-5.54379 -0.33439,-2.66506 -0.99309,-5.62261 -1.46475,-6.57238 l -0.85502,-1.72698 -4.11195,-0.12096 c -3.81117,-0.11295 -4.37262,0.005 -7.69161,1.61009 -1.97084,0.95254 -5.13699,2.91426 -7.03786,4.35966 -1.9017,1.44532 -3.66212,2.6266 -3.91444,2.62508 -0.2519,-0.006 -1.28072,1.14899 -2.28554,2.55681 -1.65331,2.31563 -1.87036,2.46512 -2.27629,1.5678 -0.32989,-0.73114 -0.0187,-2.01868 1.18038,-4.9001 2.28418,-5.48063 3.77232,-7.64972 7.20567,-10.50426 3.81706,-3.17413 7.83596,-5.17783 11.79353,-5.88314 7.59078,-1.352 15.24748,3.29704 17.48798,10.61782 1.23746,4.04307 1.73344,8.25647 2.17179,18.43911 0.22497,5.20992 0.56712,9.47342 0.76179,9.4746 0.1951,0 0.62801,-0.32837 0.96165,-0.73219 0.33409,-0.40392 0.94114,-0.73225 1.34842,-0.72985 1.11486,0.008 0.44967,3.56815 -1.30926,7.00953 -2.10031,4.11007 -1.89061,6.01349 0.47952,4.34997 1.35584,-0.95214 6.52202,-3.45448 7.12226,-3.4509 0.19642,0 0.68689,-0.32789 1.08912,-0.73145 0.92882,-0.92945 2.13726,-0.94189 2.14407,-0.0227 0.006,0.38677 -0.88212,2.0508 -1.96839,3.69778 -1.35567,2.05549 -2.10895,3.85979 -2.40353,5.75499 -0.53303,3.4286 -1.58726,4.6057 -6.07184,6.7753 -3.71313,1.796 -6.74807,2.3995 -8.4331,1.6767 z m -17.89337,-11.1559 c 6.77274,-1.2593 12.72681,-4.24025 14.61118,-7.31548 1.40909,-2.30003 1.29212,-5.38122 -0.26194,-6.93379 -0.67121,-0.66812 -1.69136,-1.21756 -2.27061,-1.22105 -0.639,0 -1.15632,-0.39367 -1.3177,-0.99173 -0.31674,-1.17919 -1.00834,-1.25806 -2.1294,-0.24329 -0.45398,0.41146 -1.24397,0.83455 -1.75278,0.94013 -3.31402,0.6861 -5.88659,1.87661 -8.06471,3.73033 -5.82161,4.95472 -7.47818,6.61251 -8.09732,8.10514 -0.86219,2.07669 -0.82967,2.41294 0.34424,3.58434 1.20578,1.2036 3.78717,1.3033 8.93904,0.3454 z m 185.30591,10.9026 c -7.96364,-1.7029 -14.9258,-8.7526 -16.8852,-17.09742 -0.9693,-4.12839 -1.0648,-12.1777 -0.20362,-17.21394 1.13848,-6.66327 4.60609,-14.12316 8.12221,-17.47385 2.47806,-2.36179 9.07149,-6.43956 11.08672,-6.85667 0.9902,-0.20506 3.68245,-0.36175 5.98423,-0.34792 10.40085,0.062 15.42932,4.12047 19.34198,15.61165 2.5624,7.52513 2.6634,15.46323 0.31217,24.23015 -0.56459,2.10052 -0.98557,2.82286 -1.64296,2.81897 -0.48624,0 -1.35374,0.59623 -1.92859,1.33153 l -1.04728,1.33676 1.06584,0.86372 1.06544,0.86372 -1.34615,2.4992 c -1.84678,3.4307 -6.67025,7.8342 -9.76541,8.9167 -3.37543,1.1799 -9.93901,1.4199 -14.15807,0.5174 z m 9.92914,-10.6452 c 2.01051,-0.4443 3.19128,-1.0795 4.57789,-2.46304 3.77155,-3.76263 4.98684,-9.33583 4.41199,-20.21105 -0.48327,-9.12104 -0.48309,-9.10546 -0.0854,-11.09249 0.29584,-1.4843 0.24398,-1.63624 -0.38314,-1.11687 -0.57406,0.4762 -0.99745,0.47331 -2.03723,-0.0122 -0.72259,-0.33828 -1.31678,-0.86214 -1.32136,-1.16419 -0.005,-0.30205 -1.06502,-1.38147 -2.35817,-2.39864 -2.25364,-1.77202 -2.47061,-1.83827 -5.1846,-1.57949 -3.2197,0.30668 -6.11466,1.60551 -7.97044,3.57351 -1.94177,2.06106 -4.461,6.98225 -4.7981,9.37739 -0.19026,1.35178 -0.90033,2.89727 -1.9179,4.17009 -2.33556,2.92503 -2.80167,4.59588 -1.20813,4.33499 0.63713,-0.1044 0.84643,0.52138 1.10019,3.29355 0.42802,4.67143 4.19733,12.77828 6.52958,14.04144 3.45404,1.8711 6.3136,2.2064 10.64662,1.2486 z m 92.0792,8.612 c -2.64027,-0.5787 -2.94232,-0.9296 -2.96166,-3.4447 -0.0196,-2.0789 0.21009,-2.5546 2.20398,-4.6388 1.22004,-1.2774 2.0841,-2.5409 1.9168,-2.80783 -0.16556,-0.26695 0.0448,-0.97574 0.45608,-1.57508 0.85707,-1.2314 1.00561,-3.82094 0.22116,-3.82566 -0.35053,-0.006 -0.52133,-4.63591 -0.53264,-14.45056 -0.01,-7.94608 -0.1738,-14.69905 -0.36607,-15.0065 -0.19188,-0.30758 -1.0788,-0.56346 -1.9728,-0.5687 -0.89313,-0.007 -2.6511,-0.15638 -3.9045,-0.33543 -2.19104,-0.31295 -2.27581,-0.38554 -2.17406,-1.85774 0.10069,-1.45213 0.0187,-1.52454 -1.49159,-1.38714 -0.87928,0.0797 -1.59625,-0.0353 -1.59224,-0.25552 0.006,-0.55454 3.33664,-3.26072 5.16104,-4.19688 0.82831,-0.42483 1.81885,-1.15241 2.2023,-1.61686 1.30019,-1.57862 5.42807,-3.11053 8.30443,-3.08181 2.8345,0.0297 3.68464,0.43875 5.08526,2.45602 0.72347,1.04281 0.85703,2.55163 0.91639,10.31547 l 0.0692,9.09413 3.02433,-4.88047 c 3.93234,-6.34703 11.42846,-13.98422 15.94921,-16.25117 4.26502,-2.13827 5.17129,-2.06319 6.52534,0.54071 1.18818,2.28602 2.39886,7.0554 2.44621,9.63849 0.0227,1.34572 -0.13753,1.60192 -0.93197,1.4702 -0.53024,-0.0881 -1.27225,0.26459 -1.64885,0.78305 -0.67275,0.9204 -0.74184,0.91124 -2.94407,-0.38651 -1.24082,-0.7311 -2.61298,-1.33139 -3.04994,-1.33397 -1.39775,-0.008 -5.44261,4.29052 -8.00933,8.51133 -1.36871,2.25075 -2.4862,4.29745 -2.48409,4.54795 0.005,0.25058 1.62252,0.94062 3.60393,1.53349 7.71304,2.30998 12.50215,9.69366 13.53407,20.86698 0.30266,3.28291 0.69768,4.72831 1.83156,6.71211 0.79588,1.3906 1.4475,2.8651 1.45095,3.2767 0.01,1.3796 -1.58513,1.3929 -4.24778,0.035 -3.88944,-1.9831 -5.55583,-4.8023 -6.65855,-11.26415 -0.3193,-1.87652 -0.81081,-3.83614 -1.09195,-4.35464 -0.9949,-1.83907 -4.10933,-4.89731 -5.9484,-5.84299 -2.66458,-1.36985 -6.34158,-1.31175 -7.8528,0.124 -2.48249,2.35861 -2.62517,2.77746 -2.83752,8.2796 -0.21527,5.57728 -0.12797,5.83388 1.98651,5.84648 1.51036,0.01 3.48543,1.9343 3.49673,3.4078 0.0153,1.1373 -0.39147,1.5429 -2.56302,2.5976 -1.41619,0.6875 -3.48716,1.7237 -4.60281,2.3028 -2.2243,1.1554 -7.55014,1.6734 -10.51921,1.0229 z m 113.2074,0.615 c -2.3372,-0.756 -4.07613,-2.8453 -5.28212,-6.3439 -1.08246,-3.1386 -1.12026,-3.7361 -0.90461,-14.35282 0.12317,-6.09288 0.34045,-14.63568 0.48204,-18.9842 l 0.25604,-7.90614 -2.89248,0.45446 c -3.82631,0.60129 -6.3307,-0.35267 -6.84152,-2.60653 -0.30035,-1.32214 -0.1322,-1.69747 1.28241,-2.85267 0.89448,-0.73157 2.32522,-2.05058 3.17915,-2.93109 1.10538,-1.14196 2.97534,-2.10004 6.51875,-3.34243 5.10132,-1.78796 6.59666,-1.85535 8.09183,-0.36367 0.94604,0.94436 1.04953,6.36881 0.43862,22.84233 -0.22756,6.08641 -0.41517,14.33872 -0.41879,18.33846 -0.008,9.9194 -0.0747,9.8781 10.95975,6.8488 3.10585,-0.85249 6.75136,-1.77765 8.10242,-2.05586 4.1912,-0.8631 3.76921,1.97496 4.18464,-28.16084 0.10748,-7.82287 0.28985,-9.81439 1.11799,-12.21866 1.20504,-3.49481 2.8094,-6.20579 3.67015,-6.20073 0.80715,0.007 1.92092,1.309 1.58524,1.85618 -0.13879,0.22692 -0.0665,0.71168 0.16213,1.07745 0.33342,0.53587 0.75138,0.45738 2.15126,-0.40318 l 1.7379,-1.06819 0.32378,1.66163 c 0.18545,0.95279 0.0206,2.79802 -0.39116,4.32578 -0.50136,1.87054 -0.76385,6.25446 -0.88268,14.71581 -0.0918,6.62844 -0.25761,14.81711 -0.36707,18.19722 -0.18733,5.76438 -0.1341,6.21466 0.85128,7.26133 0.77501,0.82172 1.60849,1.11906 3.16326,1.12836 1.6597,0.01 2.4856,0.3412 3.8613,1.5498 2.4844,2.1813 2.3949,3.7528 -0.3116,5.433 -6.71043,4.1674 -14.58715,3.911 -16.22328,-0.5281 -0.66217,-1.7988 -0.74726,-1.8335 -2.69835,-1.0971 -0.75954,0.2868 -4.44835,1.2715 -8.19886,2.188 -3.74951,0.9167 -7.6856,2.106 -8.74638,2.643 -2.25339,1.1401 -5.92767,1.5529 -7.96104,0.8945 z m -57.65335,-2.0499 c -2.0217,-0.7307 -2.97427,-1.7068 -3.76033,-3.8522 -0.57297,-1.5638 -0.202,-2.081 2.54578,-3.5482 l 1.80266,-0.9626 -0.14282,-10.49823 c -0.0942,-7.24566 0.0248,-10.6698 0.40658,-11.05215 0.71313,-0.71357 0.69601,-3.63899 -0.0161,-4.08547 -0.37022,-0.23007 -0.50648,-2.13049 -0.41357,-5.7903 l 0.13846,-5.44779 -1.72523,-0.37268 c -0.94908,-0.20501 -2.78217,-0.5168 -4.07569,-0.69269 -2.05743,-0.27996 -2.43342,-0.51593 -3.0073,-1.8908 -0.58654,-1.40498 -0.54974,-1.71606 0.34841,-2.94579 1.25077,-1.71149 6.67181,-4.69759 11.68037,-6.43426 3.53239,-1.22506 3.87713,-1.26203 4.98215,-0.53547 1.03548,0.68126 1.95954,0.71661 7.26682,0.27865 5.25106,-0.43346 6.44892,-0.39074 8.79197,0.31374 3.64158,1.09526 5.5966,2.3803 7.41529,4.87536 3.1366,4.30177 3.77171,10.52735 1.58831,15.55761 l -0.9069,2.08956 1.61244,0.68142 c 2.41406,1.01967 5.18181,4.55472 6.81666,8.70741 2.98436,7.5824 -0.64044,14.14038 -2.91364,16.70878 -2.15573,2.4419 -4.84033,3.9933 -7.645,5.029 -10.92217,4.0046 -25.37591,5.8205 -30.77911,3.8672 z m 18.77268,-10.77089 c 10.46055,-1.55217 16.1941,-4.18668 16.15785,-9.83704 -0.0178,-2.24381 -0.23126,-2.82115 -1.6279,-4.3184 -2.91319,-3.12229 -8.984,-3.17335 -16.69159,-0.13999 -1.70757,0.672 -4.01762,1.36025 -5.13277,1.52939 l -2.02626,0.30771 -0.29407,2.67384 c -0.16157,1.47054 -0.42101,4.66313 -0.57474,7.0946 l -0.27949,4.42058 2.16269,-0.29537 c 1.19068,-0.16258 6.61751,-1.12189 8.30628,-1.43532 1.68841,-0.31352 0,-3.1e-4 0,-3.1e-4 z m -0.77951,-24.67135 c 6.58261,-1.98988 8.35927,-3.70384 8.78117,-8.4693 0.16719,-1.89039 -0.008,-2.48506 -1.13305,-3.81461 -2.02339,-2.39414 -4.50322,-2.88698 -9.62644,-1.91279 -2.29695,0.43692 -4.31264,0.94646 -4.47991,1.13262 -0.36116,0.4013 -0.85993,14.14655 -0.52495,14.48028 0.3633,0.36385 2.58806,-0.0872 6.98318,-1.4162 z m 94.56859,9.03994 c 0.483,-11.62447 -0.1536,-20.07928 -0.651,-19.78134 -0.2125,0.12781 -2.0845,0.35718 -4.1597,0.50964 -3.5349,0.25944 -3.8308,0.20471 -4.6812,-0.86353 -0.4991,-0.62731 -1.3039,-1.29382 -1.7918,-1.48129 -1.3269,-0.51112 -0.4059,-1.85612 3.4379,-5.02388 3.3978,-2.79968 6.0446,-3.89145 10.6936,-4.41059 4.3768,-0.48887 7.2158,2.1157 6.4084,5.87934 -0.1887,0.88205 -0.4027,3.15292 -0.4743,5.0465 -0.068,1.89358 -0.2292,4.16167 -0.3513,5.0403 -0.1228,0.89104 0,1.59878 0.2705,1.60045 0.3091,0.006 -0.241,2.23334 -0.3416,5.65111 -0.1236,4.20107 1.2163,5.60716 2.364,5.20686 1.2504,-0.43648 3.2138,-1.37696 6.8052,-1.92261 6.9505,-1.05632 9.5852,-1.51066 11.3381,-1.95516 l 1.7534,-0.44518 0.5345,-10.18148 c 0.3044,-5.79344 0.8049,-10.83767 1.1621,-11.70421 0.9869,-2.403 3.5675,-4.31251 5.3346,-3.94923 1.8756,0.38576 2.5813,0.9919 4.0401,3.46923 1.1465,1.94635 1.1635,2.11318 0.5105,4.9617 -0.3716,1.6212 -0.9928,7.26259 -1.3811,12.53642 -0.5648,7.67388 -0.5405,9.64909 -1.2385,11.44289 -1.4132,0.93743 -1.384,1.96146 -0.1895,3.04532 0.2336,0.7762 -0.6413,11.41767 -0.668,16.92174 0.813,0.4017 3.1839,0.663 5.0453,1.2572 1.1126,0.3554 2.0003,2.045 2.1191,2.435 0.7026,2.3651 -6.0831,4.949 -7.9213,4.9381 -2.035,-0.012 -5.7871,-0.3076 -7.572,-2.8498 0,0 -0.6973,-4.1891 -0.7063,-7.1297 -0.01,-2.94066 0.038,-5.38675 0.038,-5.38675 l 0.4591,-11.07529 -1.8283,0.32448 c -2.3984,0.35735 -12.4178,2.706 -16.708,3.91706 l -2.7545,0.77759 c -2.9547,0.53984 -8.412,-1.16116 -8.8955,-6.80089 z"
       style="display:inline;fill:#ffffff;fill-opacity:1;filter:url(#filter4291)" />
  </g>
</svg>
