<?xml version="1.0" encoding="UTF-8" standalone="no"?>
<!-- Created with Inkscape (http://www.inkscape.org/) -->

<svg
   xmlns:dc="http://purl.org/dc/elements/1.1/"
   xmlns:cc="http://creativecommons.org/ns#"
   xmlns:rdf="http://www.w3.org/1999/02/22-rdf-syntax-ns#"
   xmlns:svg="http://www.w3.org/2000/svg"
   xmlns="http://www.w3.org/2000/svg"
   xmlns:xlink="http://www.w3.org/1999/xlink"
   xmlns:sodipodi="http://sodipodi.sourceforge.net/DTD/sodipodi-0.dtd"
   xmlns:inkscape="http://www.inkscape.org/namespaces/inkscape"
   id="svg2"
   version="1.1"
   inkscape:version="0.91 r"
   width="2481"
   height="3503"
   sodipodi:docname="Pepper-and-Carrot_by-David-Revoy_E01P03.svg"
   enable-background="new">
  <metadata
     id="metadata8">
    <rdf:RDF>
      <cc:Work
         rdf:about="">
        <dc:format>image/svg+xml</dc:format>
        <dc:type
           rdf:resource="http://purl.org/dc/dcmitype/StillImage" />
        <dc:title />
      </cc:Work>
    </rdf:RDF>
  </metadata>
  <defs
     id="defs6">
    <filter
       inkscape:collect="always"
       id="filter4386">
      <feBlend
         inkscape:collect="always"
         mode="screen"
         in2="BackgroundImage"
         id="feBlend4388" />
    </filter>
  </defs>
  <sodipodi:namedview
     pagecolor="#ffffff"
     bordercolor="#666666"
     borderopacity="1"
     objecttolerance="10"
     gridtolerance="10"
     guidetolerance="10"
     inkscape:pageopacity="0"
     inkscape:pageshadow="2"
     inkscape:window-width="1600"
     inkscape:window-height="876"
     id="namedview4"
     showgrid="false"
     inkscape:zoom="0.25606623"
     inkscape:cx="1240.5"
     inkscape:cy="1751.5"
     inkscape:window-x="1276"
     inkscape:window-y="121"
     inkscape:window-maximized="1"
     inkscape:current-layer="layer3"
     inkscape:snap-global="false">
    <inkscape:grid
       type="xygrid"
       id="grid4282" />
  </sodipodi:namedview>
  <flowRoot
     xml:space="preserve"
     id="flowRoot2987"
     style="font-style:normal;font-variant:normal;font-weight:normal;font-stretch:normal;font-size:12px;line-height:125%;font-family:Lavi;-inkscape-font-specification:Lavi;letter-spacing:0px;word-spacing:0px;fill:#000000;fill-opacity:1;stroke:none;stroke-width:1px;stroke-linecap:butt;stroke-linejoin:miter;stroke-opacity:1"
     transform="matrix(0.71,0,0,0.71,272.57837,-5903.4598)"><flowRegion
       id="flowRegion2989"><rect
         id="rect2991"
         width="1016.5607"
         height="77.684769"
         x="838.99548"
         y="443.73529"
         style="font-style:normal;font-variant:normal;font-weight:normal;font-stretch:normal;font-family:Lavi;-inkscape-font-specification:Lavi" /></flowRegion><flowPara
       id="flowPara2993" /></flowRoot>  <g
     inkscape:groupmode="layer"
     id="layer1"
     inkscape:label="artwork"
     style="display:inline"
     sodipodi:insensitive="true">
    <image
       sodipodi:absref="/home/deevad/peppercarrot/webcomics/New/lang/nl/../gfx_Pepper-and-Carrot_by-David-Revoy_E01P03.png"
       xlink:href="../gfx_Pepper-and-Carrot_by-David-Revoy_E01P03.png"
       y="0"
       x="0"
       id="image3084"
       height="3503"
       width="2481" />
  </g>
  <g
     inkscape:groupmode="layer"
     id="layer2"
     inkscape:label="speechbubble"
     style="opacity:0.70232556;display:inline;filter:url(#filter4386)">
    <path
       style="fill:#dfffd4;fill-opacity:1;stroke:none"
       d="m 1144.68,-5338.2141 c 0,-40.5144 25.0236,-96.5196 147.7584,-98.9028 122.7348,-2.3832 165.6324,50.0472 166.824,92.9448 1.1916,42.8976 -58.3884,88.1784 -151.3332,84.6036 -92.9448,-3.5748 -160.866,-17.874 -163.2492,-78.6456 z"
       id="path3071"
       inkscape:connector-curvature="0"
       sodipodi:nodetypes="csssc" />
    <path
       style="color:#000000;display:inline;overflow:visible;visibility:visible;fill:#dfffd4;fill-opacity:1;fill-rule:nonzero;stroke:none;stroke-width:1px;marker:none;enable-background:accumulate"
       d="m 1329.5275,-5288.4612 c 0,0 16.2156,4.7664 29.7287,17.874 13.5129,13.1076 67.565,39.3228 55.4032,103.6692 20.2695,-71.496 -20.2694,-95.328 -28.3773,-107.244 -8.1079,-11.916 -22.9721,-32.1732 -22.9721,-32.1732 z"
       id="path3073"
       inkscape:connector-curvature="0"
       sodipodi:nodetypes="cscscc" />
    <path
       style="color:#000000;display:inline;overflow:visible;visibility:visible;fill:#dfffd4;fill-opacity:1;fill-rule:nonzero;stroke:none;stroke-width:1px;marker:none;enable-background:accumulate"
       d="m 1256.3524,-4176.651 c -1.3704,-64.406 82.5571,-133.3632 151.0741,-125.1411 68.517,8.222 106.5791,35.2059 127.1584,74.3619 13.8067,26.27 87.2348,130.8024 -116.9458,147.2465 -71.2577,4.111 -162.347,-40.9035 -161.2867,-96.4673 z"
       id="path3097"
       inkscape:connector-curvature="0"
       sodipodi:nodetypes="csscc" />
    <path
       style="color:#000000;display:inline;overflow:visible;visibility:visible;fill:#dfffd4;fill-opacity:1;fill-rule:nonzero;stroke:none;stroke-width:1px;marker:none;enable-background:accumulate"
       d="m 1500.4029,-4111.935 c 15.0738,38.3695 24.6662,42.4806 49.3323,43.8509 9.5924,-1.3703 20.5551,6.8517 17.8144,21.9254 16.4441,-23.2957 -6.813,-31.5255 -17.7757,-37.0068 -10.9627,-5.4814 -16.5524,-6.1473 -22.0338,-33.554 -5.4814,-27.4068 -27.3372,4.7845 -27.3372,4.7845 z"
       id="path3105"
       inkscape:connector-curvature="0"
       sodipodi:nodetypes="cccssc" />
    <path
       style="color:#000000;display:inline;overflow:visible;visibility:visible;fill:#dfffd4;fill-opacity:1;fill-rule:nonzero;stroke:none;stroke-width:1px;marker:none;enable-background:accumulate"
       d="m 1749.8049,-1878.2807 c 5.4813,-45.2213 53.78,-89.1754 113.7382,-83.5908 45.2119,4.2112 116.3755,29.424 106.7831,96.5706 -9.5923,67.1467 -95.8204,65.1296 -128.7085,61.0185 -32.8882,-4.111 -90.4425,-23.2957 -91.8128,-73.9983 z"
       id="path3113"
       inkscape:connector-curvature="0"
       sodipodi:nodetypes="csssc" />
    <path
       style="color:#000000;display:inline;overflow:visible;visibility:visible;fill:#dfffd4;fill-opacity:1;fill-rule:nonzero;stroke:none;stroke-width:1px;marker:none;enable-background:accumulate"
       d="m 1822.4329,-1825.9074 c -5.4814,30.1476 0.6683,46.6253 0.6683,56.2177 0,9.5924 -11.6193,43.0645 -54.5856,49.8532 -27.4068,5.4814 -48.8583,25.1813 -51.5989,34.7737 24.6661,-23.2957 41.4444,-25.3008 63.3698,-25.3008 21.9254,0 57.2201,-15.8094 58.5904,-67.8823 1.3704,-52.073 1.3704,-80.85 1.3704,-80.85 z"
       id="path3121"
       inkscape:connector-curvature="0"
       sodipodi:nodetypes="csccsscc" />
    <path
       style="color:#000000;display:inline;overflow:visible;visibility:visible;fill:#dfffd4;fill-opacity:1;fill-rule:nonzero;stroke:none;stroke-width:1px;marker:none;enable-background:accumulate"
       d="m 1214.9612,-863.88663 c 7.8794,-52.0044 111.8882,-110.3124 204.8658,-92.9776 92.9775,17.3348 171.7721,52.0045 178.0756,91.4017 6.3036,39.3973 -49.3043,104.2726 -201.203,104.7242 -161.5108,0.4802 -189.6179,-82.6617 -181.7384,-103.1483 z"
       id="path3129"
       inkscape:connector-curvature="0"
       sodipodi:nodetypes="csssc" />
    <path
       style="color:#000000;display:inline;overflow:visible;visibility:visible;fill:#dfffd4;fill-opacity:1;fill-rule:nonzero;stroke:none;stroke-width:1px;marker:none;enable-background:accumulate"
       d="m 1359.9432,-799.27503 c 4.7276,66.1874 -96.1294,94.5534 -96.1294,124.4953 0,29.9419 9.4554,28.3661 9.4554,28.3661 0,0 -9.4554,-11.0313 1.5758,-29.942 11.0313,-18.9106 54.8249,-30.2397 86.674,-61.4597 39.8201,-39.0336 53.5804,-72.491 53.5804,-72.491 z"
       id="path3137"
       inkscape:connector-curvature="0"
       sodipodi:nodetypes="cscsscc" />
    <path
       style="color:#000000;display:inline;overflow:visible;visibility:visible;fill:#dfffd4;fill-opacity:1;fill-rule:nonzero;stroke:none;stroke-width:1px;marker:none;enable-background:accumulate"
       d="m 743.89505,1485.626 c -3.83435,-80.639 67.62704,-97.134 134.42105,-99.549 56.47813,1.269 136.7256,46.51 134.6272,95.989 -2.1968,51.799 -56.74027,59.439 -154.6172,58.082 -97.42862,-1.35 -116.05486,-34.035 -114.43105,-54.522 z"
       id="path3145"
       inkscape:connector-curvature="0"
       sodipodi:nodetypes="ccssc" />
    <path
       style="color:#000000;display:inline;overflow:visible;visibility:visible;fill:#dfffd4;fill-opacity:1;fill-rule:nonzero;stroke:none;stroke-width:1px;marker:none;enable-background:accumulate"
       d="m 887.17585,1492.114 c 40.88208,34.217 -63.2768,105.76 -60.94616,132.634 0.78204,9.017 4.05263,27.784 12.10535,34.422 13.5869,11.199 39.38546,4.716 9.44354,96.117 -7.87946,20.487 26.10884,43.059 59.20255,41.483 12.6071,1.576 32.1991,15.249 3.8331,73.557 -4.7277,17.335 7.7904,38.332 25.5994,42.164 9.4553,1.576 27.9809,14.569 23.2532,35.055 6.3036,-33.094 -27.5543,-48.129 -33.3484,-56.69 -6.3036,-11.032 8.7586,-45.601 15.0621,-67.663 6.3036,-22.063 -26.3221,-39.471 -37.3534,-44.199 -11.03119,-4.728 -29.68483,-4.052 -32.83662,-16.658 -3.15178,-12.608 18.36763,-58.41 15.21585,-82.049 -3.15178,-23.638 -31.01876,-28.958 -32.59465,-51.021 -1.57589,-22.063 56.83912,-69.738 66.26192,-93.239 11.6712,-24.829 4.9236,-56.521 4.9236,-56.521 z"
       id="path3153"
       inkscape:connector-curvature="0"
       sodipodi:nodetypes="cssccccccsscssccc" />
  </g>
  <g
     inkscape:groupmode="layer"
     id="layer3"
     inkscape:label="txt"
     style="display:inline">
    <flowRoot
       xml:space="preserve"
       id="flowRoot3063"
       style="font-style:normal;font-variant:normal;font-weight:normal;font-stretch:normal;font-size:72px;line-height:125%;font-family:Arial;-inkscape-font-specification:Arial;letter-spacing:0px;word-spacing:0px;display:inline;fill:#cbba74;fill-opacity:1;stroke:none"
       transform="translate(-155.62294,-6185.2627)"><flowRegion
         id="flowRegion3065"><rect
           id="rect3067"
           width="2715.5891"
           height="110.01318"
           x="92.642677"
           y="425.30325"
           style="font-size:72px;fill:#cbba74;fill-opacity:1" /></flowRegion><flowPara
         id="flowPara3069"
         style="font-style:normal;font-variant:normal;font-weight:normal;font-stretch:normal;font-size:88px;font-family:Lavi;-inkscape-font-specification:Lavi;text-align:center;text-anchor:middle;fill:#cbba74;fill-opacity:1">Aflevering 1: De vliegdrank</flowPara></flowRoot>    <flowRoot
       xml:space="preserve"
       id="flowRoot3063-8"
       style="color:#000000;font-style:normal;font-variant:normal;font-weight:normal;font-stretch:normal;font-size:72px;line-height:125%;font-family:Arial;-inkscape-font-specification:Arial;letter-spacing:0px;word-spacing:0px;display:inline;overflow:visible;visibility:visible;fill:#3c4036;fill-opacity:1;fill-rule:nonzero;stroke:none;marker:none;enable-background:accumulate"
       transform="matrix(0.62578859,0,0,0.65468471,1063.5788,-5678.3731)"><flowRegion
         id="flowRegion3065-8"><rect
           id="rect3067-6"
           width="569.74268"
           height="228.46191"
           x="92.642677"
           y="425.30325"
           style="color:#000000;font-size:72px;display:inline;overflow:visible;visibility:visible;fill:#3c4036;fill-opacity:1;fill-rule:nonzero;stroke:none;marker:none;enable-background:accumulate" /></flowRegion><flowPara
         style="color:#000000;font-style:normal;font-variant:normal;font-weight:normal;font-stretch:normal;font-size:64px;font-family:Lavi;-inkscape-font-specification:Lavi;text-align:center;text-anchor:middle;display:inline;overflow:visible;visibility:visible;fill:#3c4036;fill-opacity:1;fill-rule:nonzero;stroke:none;marker:none;enable-background:accumulate"
         id="flowPara3188">...en het</flowPara><flowPara
         style="color:#000000;font-style:normal;font-variant:normal;font-weight:normal;font-stretch:normal;font-size:64px;font-family:Lavi;-inkscape-font-specification:Lavi;text-align:center;text-anchor:middle;display:inline;overflow:visible;visibility:visible;fill:#3c4036;fill-opacity:1;fill-rule:nonzero;stroke:none;marker:none;enable-background:accumulate"
         id="flowPara3443">laatste snufje</flowPara></flowRoot>    <flowRoot
       xml:space="preserve"
       id="flowRoot3063-8-6"
       style="color:#000000;font-style:normal;font-variant:normal;font-weight:normal;font-stretch:normal;font-size:72px;line-height:125%;font-family:Arial;-inkscape-font-specification:Arial;letter-spacing:0px;word-spacing:0px;display:inline;overflow:visible;visibility:visible;fill:#3c4036;fill-opacity:1;fill-rule:nonzero;stroke:none;marker:none;enable-background:accumulate"
       transform="matrix(0.62578859,0,0,0.65468471,1180.878,-4554.2809)"><flowRegion
         id="flowRegion3065-8-1"><rect
           id="rect3067-6-3"
           width="526.9325"
           height="288.6394"
           x="92.642677"
           y="425.30325"
           style="color:#000000;font-size:72px;display:inline;overflow:visible;visibility:visible;fill:#3c4036;fill-opacity:1;fill-rule:nonzero;stroke:none;marker:none;enable-background:accumulate" /></flowRegion><flowPara
         style="color:#000000;font-style:normal;font-variant:normal;font-weight:normal;font-stretch:normal;font-size:64px;font-family:Lavi;-inkscape-font-specification:Lavi;text-align:center;text-anchor:middle;display:inline;overflow:visible;visibility:visible;fill:#3c4036;fill-opacity:1;fill-rule:nonzero;stroke:none;marker:none;enable-background:accumulate"
         id="flowPara3188-1">...mmm</flowPara><flowPara
         style="color:#000000;font-style:normal;font-variant:normal;font-weight:normal;font-stretch:normal;font-size:64px;font-family:Lavi;-inkscape-font-specification:Lavi;text-align:center;text-anchor:middle;display:inline;overflow:visible;visibility:visible;fill:#3c4036;fill-opacity:1;fill-rule:nonzero;stroke:none;marker:none;enable-background:accumulate"
         id="flowPara3224">dat mag wel</flowPara><flowPara
         style="color:#000000;font-style:normal;font-variant:normal;font-weight:normal;font-stretch:normal;font-size:64px;font-family:Lavi;-inkscape-font-specification:Lavi;text-align:center;text-anchor:middle;display:inline;overflow:visible;visibility:visible;fill:#3c4036;fill-opacity:1;fill-rule:nonzero;stroke:none;marker:none;enable-background:accumulate"
         id="flowPara3429">wat sterker</flowPara></flowRoot>    <flowRoot
       xml:space="preserve"
       id="flowRoot3063-8-6-1"
       style="color:#000000;font-style:normal;font-variant:normal;font-weight:normal;font-stretch:normal;font-size:72px;line-height:125%;font-family:Arial;-inkscape-font-specification:Arial;letter-spacing:0px;word-spacing:0px;display:inline;overflow:visible;visibility:visible;fill:#3c4036;fill-opacity:1;fill-rule:nonzero;stroke:none;marker:none;enable-background:accumulate"
       transform="matrix(0.62578859,0,0,0.65468471,1638.6772,-2219.8314)"><flowRegion
         id="flowRegion3065-8-1-1"><rect
           id="rect3067-6-3-8"
           width="526.9325"
           height="288.6394"
           x="92.642677"
           y="425.30325"
           style="color:#000000;font-size:72px;display:inline;overflow:visible;visibility:visible;fill:#3c4036;fill-opacity:1;fill-rule:nonzero;stroke:none;marker:none;enable-background:accumulate" /></flowRegion><flowPara
         style="color:#000000;font-style:normal;font-variant:normal;font-weight:normal;font-stretch:normal;font-size:64px;font-family:Lavi;-inkscape-font-specification:Lavi;text-align:center;text-anchor:middle;display:inline;overflow:visible;visibility:visible;fill:#3c4036;fill-opacity:1;fill-rule:nonzero;stroke:none;marker:none;enable-background:accumulate"
         id="flowPara3224-1">aha...</flowPara><flowPara
         style="color:#000000;font-style:normal;font-variant:normal;font-weight:normal;font-stretch:normal;font-size:64px;font-family:Lavi;-inkscape-font-specification:Lavi;text-align:center;text-anchor:middle;display:inline;overflow:visible;visibility:visible;fill:#3c4036;fill-opacity:1;fill-rule:nonzero;stroke:none;marker:none;enable-background:accumulate"
         id="flowPara3264">perfect</flowPara></flowRoot>    <flowRoot
       xml:space="preserve"
       id="flowRoot3063-8-6-1-9"
       style="color:#000000;font-style:normal;font-variant:normal;font-weight:normal;font-stretch:normal;font-size:72px;line-height:125%;font-family:Arial;-inkscape-font-specification:Arial;letter-spacing:0px;word-spacing:0px;display:inline;overflow:visible;visibility:visible;fill:#3c4036;fill-opacity:1;fill-rule:nonzero;stroke:none;marker:none;enable-background:accumulate"
       transform="matrix(0.62578859,0,0,0.65468471,1150.1998,-1211.088)"><flowRegion
         id="flowRegion3065-8-1-1-1"><rect
           id="rect3067-6-3-8-9"
           width="615.07123"
           height="310.30325"
           x="92.642677"
           y="425.30325"
           style="color:#000000;font-size:72px;display:inline;overflow:visible;visibility:visible;fill:#3c4036;fill-opacity:1;fill-rule:nonzero;stroke:none;marker:none;enable-background:accumulate" /></flowRegion><flowPara
         style="color:#000000;font-style:normal;font-variant:normal;font-weight:normal;font-stretch:normal;font-size:64px;font-family:Lavi;-inkscape-font-specification:Lavi;text-align:center;text-anchor:middle;display:inline;overflow:visible;visibility:visible;fill:#3c4036;fill-opacity:1;fill-rule:nonzero;stroke:none;marker:none;enable-background:accumulate"
         id="flowPara3264-9">NEE!</flowPara><flowPara
         style="color:#000000;font-style:normal;font-variant:normal;font-weight:normal;font-stretch:normal;font-size:64px;font-family:Lavi;-inkscape-font-specification:Lavi;text-align:center;text-anchor:middle;display:inline;overflow:visible;visibility:visible;fill:#3c4036;fill-opacity:1;fill-rule:nonzero;stroke:none;marker:none;enable-background:accumulate"
         id="flowPara3433">Daar komt niks</flowPara><flowPara
         style="color:#000000;font-style:normal;font-variant:normal;font-weight:normal;font-stretch:normal;font-size:64px;font-family:Lavi;-inkscape-font-specification:Lavi;text-align:center;text-anchor:middle;display:inline;overflow:visible;visibility:visible;fill:#3c4036;fill-opacity:1;fill-rule:nonzero;stroke:none;marker:none;enable-background:accumulate"
         id="flowPara3437">van in</flowPara></flowRoot>    <flowRoot
       xml:space="preserve"
       id="flowRoot3063-8-6-1-9-6"
       style="color:#000000;font-style:normal;font-variant:normal;font-weight:normal;font-stretch:normal;font-size:72px;line-height:125%;font-family:Arial;-inkscape-font-specification:Arial;letter-spacing:0px;word-spacing:0px;display:inline;overflow:visible;visibility:visible;fill:#3c4036;fill-opacity:1;fill-rule:nonzero;stroke:none;marker:none;enable-background:accumulate"
       transform="matrix(0.62578859,0,0,0.65468471,621.25678,1136.489)"><flowRegion
         id="flowRegion3065-8-1-1-1-9"><rect
           id="rect3067-6-3-8-9-8"
           width="615.07123"
           height="310.30325"
           x="92.642677"
           y="425.30325"
           style="color:#000000;font-size:72px;display:inline;overflow:visible;visibility:visible;fill:#3c4036;fill-opacity:1;fill-rule:nonzero;stroke:none;marker:none;enable-background:accumulate" /></flowRegion><flowPara
         style="color:#000000;font-style:normal;font-variant:normal;font-weight:normal;font-stretch:normal;font-size:64px;font-family:Lavi;-inkscape-font-specification:Lavi;text-align:center;text-anchor:middle;display:inline;overflow:visible;visibility:visible;fill:#3c4036;fill-opacity:1;fill-rule:nonzero;stroke:none;marker:none;enable-background:accumulate"
         id="flowPara3300-4">En?</flowPara><flowPara
         style="color:#000000;font-style:normal;font-variant:normal;font-weight:normal;font-stretch:normal;font-size:64px;font-family:Lavi;-inkscape-font-specification:Lavi;text-align:center;text-anchor:middle;display:inline;overflow:visible;visibility:visible;fill:#3c4036;fill-opacity:1;fill-rule:nonzero;stroke:none;marker:none;enable-background:accumulate"
         id="flowPara3439">Nou blij?!</flowPara></flowRoot>    <flowRoot
       xml:space="preserve"
       id="flowRoot4133"
       style="font-style:normal;font-variant:normal;font-weight:normal;font-stretch:normal;font-size:12px;line-height:125%;font-family:Arial;-inkscape-font-specification:Arial;letter-spacing:0.00204969px;word-spacing:0px;display:inline;fill:#d0a273;fill-opacity:1;stroke:#d0a273;stroke-width:1;stroke-opacity:1"
       transform="matrix(2.5383209,-2.080859,0.65725432,4.9138947,-2510.8205,-7961.0627)"><flowRegion
         id="flowRegion4135"
         style="stroke-width:1"><rect
           id="rect4137"
           width="122.07606"
           height="106.53911"
           x="1125.3193"
           y="1078.5308"
           style="letter-spacing:0.00204969px;fill:#d0a273;fill-opacity:1;stroke:#d0a273;stroke-width:1;stroke-opacity:1" /></flowRegion><flowPara
         id="flowPara4139"
         style="font-style:normal;font-variant:normal;font-weight:normal;font-stretch:normal;line-height:125%;font-family:Lavi;-inkscape-font-specification:Lavi;letter-spacing:0.00204969px;word-spacing:0.00204969px;fill:#d0a273;fill-opacity:1;stroke:#d0a273;stroke-width:1.06872857;stroke-miterlimit:4;stroke-dasharray:none;stroke-opacity:1">SCHUD</flowPara></flowRoot>    <flowRoot
       xml:space="preserve"
       id="flowRoot4133-6"
       style="font-style:normal;font-variant:normal;font-weight:normal;font-stretch:normal;font-size:12px;line-height:125%;font-family:Arial;-inkscape-font-specification:Arial;letter-spacing:0.00204969px;word-spacing:0px;display:inline;fill:#d0a273;fill-opacity:1;stroke:#d0a273;stroke-width:1.16579425;stroke-opacity:1"
       transform="matrix(2.0707435,-1.7739035,0.50514841,4.4852558,-1731.7143,-7855.1805)"><flowRegion
         id="flowRegion4135-2"
         style="stroke-width:1.16579425"><rect
           id="rect4137-1"
           width="122.07606"
           height="106.53911"
           x="1125.3193"
           y="1078.5308"
           style="letter-spacing:0.00204969px;fill:#d0a273;fill-opacity:1;stroke:#d0a273;stroke-width:1.16579425;stroke-opacity:1" /></flowRegion><flowPara
         id="flowPara4139-2"
         style="font-style:normal;font-variant:normal;font-weight:normal;font-stretch:normal;line-height:125%;font-family:Lavi;-inkscape-font-specification:Lavi;letter-spacing:0.00204969px;word-spacing:0.00204969px;fill:#d0a273;fill-opacity:1;stroke:#d0a273;stroke-width:1.24591756;stroke-miterlimit:4;stroke-dasharray:none;stroke-opacity:1">SCHUD</flowPara></flowRoot>    <flowRoot
       xml:space="preserve"
       id="flowRoot4133-6-9"
       style="font-style:normal;font-variant:normal;font-weight:normal;font-stretch:normal;font-size:12px;line-height:125%;font-family:Arial;-inkscape-font-specification:Arial;letter-spacing:0.00204969px;word-spacing:0px;display:inline;fill:#daa761;fill-opacity:1;stroke:#daa761;stroke-width:1.01278496;stroke-opacity:1"
       transform="matrix(2.669076,0.3687627,-1.2224488,4.8865866,-296.9698,-8403.5754)"><flowRegion
         id="flowRegion4135-2-9"
         style="stroke-width:1.01278496"><rect
           id="rect4137-1-7"
           width="51.856533"
           height="24.039366"
           x="1125.3193"
           y="1078.5308"
           style="letter-spacing:0.00204969px;fill:#daa761;fill-opacity:1;stroke:#daa761;stroke-width:1.01278496;stroke-opacity:1" /></flowRegion><flowPara
         id="flowPara4139-2-8"
         style="font-style:normal;font-variant:normal;font-weight:normal;font-stretch:normal;line-height:125%;font-family:Lavi;-inkscape-font-specification:Lavi;letter-spacing:0.00204969px;word-spacing:0.00204969px;fill:#daa761;fill-opacity:1;stroke:#daa761;stroke-width:1.0823921;stroke-miterlimit:4;stroke-dasharray:none;stroke-opacity:1">PLOP</flowPara></flowRoot>    <flowRoot
       xml:space="preserve"
       id="flowRoot4133-6-9-4"
       style="font-style:normal;font-variant:normal;font-weight:normal;font-stretch:normal;font-size:12px;line-height:125%;font-family:Arial;-inkscape-font-specification:Arial;letter-spacing:0.00204969px;word-spacing:0px;display:inline;fill:#daa761;fill-opacity:1;stroke:#daa761;stroke-width:1.09552455;stroke-opacity:1"
       transform="matrix(2.6541691,-0.95281489,2.0122678,3.6225735,-4115.8155,-5519.588)"><flowRegion
         id="flowRegion4135-2-9-3"
         style="stroke-width:1.09552455"><rect
           id="rect4137-1-7-1"
           width="51.856533"
           height="24.039366"
           x="1125.3193"
           y="1078.5308"
           style="letter-spacing:0.00204969px;fill:#daa761;fill-opacity:1;stroke:#daa761;stroke-width:1.09552455;stroke-opacity:1" /></flowRegion><flowPara
         id="flowPara4139-2-8-6"
         style="font-style:normal;font-variant:normal;font-weight:normal;font-stretch:normal;line-height:125%;font-family:Lavi;-inkscape-font-specification:Lavi;letter-spacing:0.00204969px;word-spacing:0.00204969px;fill:#daa761;fill-opacity:1;stroke:#daa761;stroke-width:1.17081833;stroke-miterlimit:4;stroke-dasharray:none;stroke-opacity:1">PLOP</flowPara></flowRoot>    <path
       style="fill:#cbba74;fill-opacity:1;stroke:none"
       d="m 752.66564,-5797.0113 c -1.99062,-1.7478 -4.27741,-4.4504 -5.08174,-6.0058 l -1.46243,-2.828 0,-4.1333 0,-4.1333 2.47744,-2.4775 2.47743,-2.4774 1.8122,-0.032 c 0.99671,-0.018 2.68791,-0.6946 3.75822,-1.5043 l 1.94604,-1.4723 0.75593,-5.3086 0.75592,-5.3086 0.0737,-23.0285 0.0737,-23.0285 -1.04483,-1.9523 -1.04484,-1.9523 -1.79994,0 c -0.98998,0 -4.20777,-0.7151 -7.15065,-1.589 l -5.3507,-1.589 -2.40243,-2.4024 -2.40244,-2.4025 0,-1.5598 0,-1.5599 5.80362,-0.042 5.80362,-0.042 4.54197,-2.2294 4.54196,-2.2293 0.28839,-35.3264 0.28839,-35.3264 -1.19805,-4.3664 -1.19805,-4.3664 -2.11831,-1.374 -2.11832,-1.3739 -8.8316,-0.7068 -8.8316,-0.7067 0,-1.2089 0,-1.2089 4.46405,-4.528 4.46405,-4.528 12.77457,-5.7741 12.77457,-5.7742 1.94401,0.617 c 1.06921,0.3394 3.30415,1.7615 4.96655,3.1603 l 3.02252,2.5433 0,1.3522 c 0,0.7437 0.71374,2.0659 1.58609,2.9383 l 1.58608,1.586 10.41291,0 10.41292,0 8.75017,2.5357 c 4.8126,1.3947 10.94071,3.6458 13.61804,5.0025 2.67731,1.3567 8.47559,5.1852 12.88508,8.5079 l 8.01723,6.0411 2.7707,3.9981 2.77069,3.9982 1.44475,4.8005 1.44475,4.8006 0,6.8149 0,6.8149 -1.889,6.0694 -1.889,6.0694 -3.73377,6.6766 -3.73376,6.6766 -6.07044,6.4893 -6.07045,6.4893 -6.72698,4.9575 c -3.69984,2.7266 -8.99796,6.0815 -11.7736,7.4552 -2.77565,1.3738 -10.26989,4.2272 -16.65387,6.3409 -6.38399,2.1137 -12.62919,4.2138 -13.87823,4.6668 l -2.27098,0.8238 0,21.768 0,21.768 2.43639,2.4364 2.43639,2.4364 2.86257,0.6067 c 1.57442,0.3336 3.62572,1.0175 4.55847,1.5196 l 1.6959,0.9129 4.40114,-0.088 c 2.42063,-0.048 6.7199,0.2306 9.55393,0.6204 l 5.15279,0.7086 3.20673,-1.6582 3.20672,-1.6583 2.97213,0.6528 c 1.63467,0.359 5.008,0.6528 7.49628,0.6528 2.48828,0 4.52414,0.2124 4.52414,0.472 0,0.2597 -1.64015,1.1574 -3.64478,1.995 -3.6776,1.5366 -11.58658,6.5005 -16.90074,10.6074 l -2.88233,2.2275 -6.56729,1.821 -6.56729,1.8211 -4.68094,2.9761 -4.68094,2.9762 -7.56994,2.1385 c -4.16347,1.1761 -9.88085,2.8038 -12.70528,3.6169 l -5.13533,1.4784 -4.16581,0 -4.1658,0 -3.61932,-3.1778 z m 44.5765,-108.2999 8.93419,-4.4893 8.13615,-6.5317 8.13614,-6.5317 4.8739,-5.8852 4.87389,-5.8853 2.88605,-6.0559 2.88603,-6.056 8e-4,-4.3397 8e-4,-4.3398 -1.47774,-2.8576 c -0.81276,-1.5717 -2.88684,-4.0433 -4.60909,-5.4925 l -3.13134,-2.6349 -5.7365,-1.7227 -5.73651,-1.7228 -8.57926,-0.027 -8.57927,-0.027 -5.57684,1.2606 -5.57684,1.2606 -3.25475,1.9793 -3.25476,1.9793 0,30.2445 0,30.2444 1.76631,1.0288 c 0.97148,0.5658 2.2879,1.0426 2.92538,1.0595 0.63748,0.017 5.17945,-1.9895 10.09326,-4.4586 z m 74.03569,109.8834 c -1.38783,-0.8973 -3.76332,-3.2382 -5.27889,-5.2019 l -2.75557,-3.5706 -0.62095,-3.31 -0.62097,-3.31 1.35789,-2.8615 1.35787,-2.8615 4.45989,-2.1402 4.45988,-2.1402 1.34374,-1.8377 1.34373,-1.8377 0,-27.9432 0,-27.9432 -5.29895,-0.592 c -2.91443,-0.3256 -7.07844,-0.9512 -9.25337,-1.3903 l -3.95441,-0.7983 -0.31882,-1.0056 c -0.17535,-0.5532 0.035,-1.5633 0.4674,-2.2448 l 0.7862,-1.2391 7.80228,-1.4928 c 4.29126,-0.8211 8.24495,-1.7664 8.78598,-2.1008 l 0.98369,-0.608 0,-40.8682 0,-40.8682 -1.47278,-2.8481 -1.47279,-2.848 -8.36814,-1.1886 c -4.60247,-0.6537 -9.84427,-1.414 -11.64844,-1.6895 l -3.28031,-0.501 0,-0.7876 c 0,-0.4332 1.02194,-1.7184 2.27098,-2.8558 2.47151,-2.2508 15.20862,-10.3957 16.2569,-10.3957 0.3556,0 4.69236,-1.8217 9.63724,-4.0483 l 8.99071,-4.0483 2.8684,1.0906 c 1.5776,0.5998 3.6641,1.8107 4.63661,2.6907 l 1.7681,1.6002 0,2.7538 0,2.7539 2.271,0.6086 c 1.2491,0.3347 6.8221,0.6148 12.3846,0.6224 l 10.1135,0.014 7.2417,2.0067 c 3.9829,1.1037 9.825,3.1493 12.9823,4.5456 l 5.7407,2.5388 6.6792,4.97 c 3.6736,2.7334 8.36,6.706 10.4144,8.8279 l 3.7351,3.8581 2.2397,5.0466 2.2396,5.0466 0.4516,7.6229 0.4517,7.6229 -2.9543,8.5709 -2.9543,8.5709 -3.8858,5.8542 c -2.1371,3.2198 -6.1625,8.3453 -8.9452,11.39 l -5.0594,5.5358 -3.2188,-0.6038 -3.2187,-0.6039 -1.0524,1.2812 c -0.5788,0.7046 -1.2095,2.4124 -1.4015,3.7949 l -0.349,2.5138 -4.9665,3.245 -4.9666,3.245 -12.5261,4.5868 -12.5262,4.5868 -2.1892,0.015 c -1.204,0.01 -2.8704,0.4459 -3.7031,0.972 l -1.514,0.9566 0,21.6555 0,21.6554 2.4061,2.5622 2.406,2.5621 5.2414,1.0881 5.2414,1.0881 10.0158,-0.029 c 5.5086,-0.016 12.6539,-0.081 15.8784,-0.1444 l 5.8627,-0.1156 0.6895,0.6895 0.6895,0.6895 -2.0102,1.1791 c -1.1056,0.6485 -4.9001,2.4339 -8.4321,3.9674 l -6.4218,2.7883 -2.9919,2.5175 c -1.6455,1.3846 -3.5744,2.5175 -4.2863,2.5175 l -1.2944,0 -4.4318,3.8934 c -2.4374,2.1414 -6.3768,4.8833 -8.7541,6.0931 l -4.3224,2.1998 -9.80811,2.6662 -9.8082,2.6662 -5.0466,0.3431 -5.04668,0.3431 -2.52331,-1.6314 z m 41.1597,-108.888 7.2904,-3.4938 7.3164,-5.4314 7.3163,-5.4314 7.0653,-7.4897 7.0653,-7.4898 2.8284,-5.8345 2.8285,-5.8345 0.5112,-4.75 0.5112,-4.75 -1.8256,-3.5069 -1.8257,-3.5069 -4.0373,-2.8081 -4.0373,-2.808 -7.57,-1.6016 -7.5699,-1.6015 -6.5606,0.5854 c -3.6084,0.3219 -9.2858,1.2806 -12.6166,2.1303 l -6.0559,1.545 -2.3148,2.6131 -2.3148,2.613 0.2961,28.5053 0.2962,28.5053 1.3852,1.6673 1.3852,1.6672 1.6713,0 c 0.9191,0 4.9518,-1.5722 8.9615,-3.4938 z m 347.93527,78.2563 c -2.7757,-0.9893 -7.3585,-2.9709 -10.1841,-4.4034 l -5.1375,-2.6046 -3.1833,-3.6255 c -1.7508,-1.9941 -4.193,-5.5433 -5.4273,-7.8871 l -2.244,-4.2616 -0.033,-7.5699 -0.033,-7.57 3.1865,-6.7258 3.1865,-6.7259 7.8321,-8.1977 7.8321,-8.1978 -2.8354,-5.9322 -2.8353,-5.9323 0.6055,-3.0276 0.6055,-3.0276 -1.4446,-1.1989 -1.4445,-1.1988 1.5666,-3.0295 1.5666,-3.0294 -2.24,-2.3844 -2.24,-2.3843 0.6401,-4.6694 0.64,-4.6694 2.0103,-4.5448 2.0104,-4.5448 4.2924,-5.1268 4.2924,-5.1268 4.4309,-2.81 4.4309,-2.81 5.4663,-1.2233 5.4663,-1.2233 5.255,1.6601 5.2549,1.6601 5.762,3.6087 5.762,3.6088 3.6768,6.0527 3.6769,6.0527 0.5164,3.8504 0.5165,3.8504 -2.2282,7.06 -2.2282,7.06 -3.8778,4.9379 c -2.1329,2.7159 -5.5453,7.4361 -7.5832,10.4893 -2.0379,3.0532 -5.0652,6.7583 -6.7273,8.2336 l -3.0219,2.6823 0.8594,1.466 c 0.4726,0.8063 4.995,5.8565 10.0497,11.2228 l 9.1904,9.7568 1.2054,-1.4525 1.2054,-1.4524 0.2022,-2.8641 0.2021,-2.864 -3.7799,-0.313 -3.7798,-0.3129 -2.5284,-3.315 -2.5285,-3.3149 0,-2.1036 0,-2.1037 1.4459,-1.4459 1.4459,-1.4459 8.395,-2.6099 c 4.6173,-1.4354 10.666,-3.1259 13.4417,-3.7565 l 5.0466,-1.1467 12.1119,-0.3983 c 6.6616,-0.219 14.4965,-0.6682 17.4109,-0.9982 l 5.2989,-0.5999 -5e-4,1.3343 -5e-4,1.3343 -7.1781,6.5606 c -3.9479,3.6083 -8.6032,7.9787 -10.345,9.712 l -3.167,3.1515 -4.9233,0.7147 c -2.7079,0.3931 -5.5467,0.9539 -6.3083,1.2462 l -1.385,0.5314 0,4.9008 0,4.9008 -2.1535,5.7556 -2.1535,5.7557 2.9001,2.1045 c 1.595,1.1574 4.7215,3.5063 6.9478,5.2196 l 4.0477,3.1151 -0.1874,1.4269 c -0.1031,0.7847 -0.8155,3.1265 -1.5831,5.2039 l -1.3956,3.7772 -2.3778,2.5311 -2.3779,2.5311 -3.1044,0 -3.1044,0 -3.3047,-2.0148 c -1.8176,-1.1077 -3.9138,-2.0144 -4.6582,-2.0144 -0.7444,0 -2.5083,-0.9084 -3.9198,-2.0186 -1.4115,-1.1103 -3.176,-2.0071 -3.9211,-1.9929 -0.7451,0.014 -3.8529,1.6207 -6.9061,3.5699 l -5.5513,3.544 -9.5484,2.9908 -9.5485,2.9907 -5.0867,-0.074 -5.0868,-0.074 -5.0466,-1.7987 z m 24.4911,-24.4256 4.4373,-2.1481 0.4942,-1.2878 0.4942,-1.2879 -10.4164,-10.1839 -10.4165,-10.1838 -1.2186,-0.01 -1.2187,-0.01 -2.8186,3.7153 c -1.5503,2.0434 -4.2948,5.0793 -6.099,6.7464 l -3.2803,3.031 0,1.3649 0,1.365 4.2896,4.3767 c 2.3593,2.4072 5.198,4.875 6.3083,5.4839 l 2.0187,1.1072 6.4942,0.031 6.4943,0.031 4.4373,-2.1481 z m -5.3994,-62.0324 7.7925,-6.649 1.9463,-3.1919 1.9464,-3.192 0,-3.2029 0,-3.2029 -2.5028,-2.9745 -2.5029,-2.9745 -3.0316,-1.2557 -3.0316,-1.2557 -3.4886,0.6545 -3.4886,0.6544 -2.7372,3.246 c -1.5054,1.7853 -3.3495,4.7075 -4.0981,6.4939 l -1.3616,3.2479 0,3.9093 0,3.9093 1.4294,4.7493 c 1.4196,4.7171 3.1941,7.6834 4.5962,7.6834 0.4024,0 4.2383,-2.992 8.5242,-6.6489 z m 179.0196,59.1381 c -3.1748,-0.4072 -8.9912,-1.7754 -12.9252,-3.0403 l -7.1528,-2.2999 -5.9933,-3.6403 c -3.2963,-2.0022 -8.316,-5.4571 -11.1549,-7.6776 l -5.1614,-4.0373 -5.8362,-6.8681 -5.8362,-6.8681 -3.0534,-5.7485 c -1.6793,-3.1617 -3.9817,-8.7008 -5.1164,-12.3091 -1.1347,-3.6083 -3.0268,-11.7741 -4.2049,-18.1462 l -2.142,-11.5856 0.4486,-4.5636 c 0.6481,-6.593 3.5007,-21.2355 6.3118,-32.399 2.7988,-11.1141 8.7849,-28.7499 11.7808,-34.7071 4.4629,-8.8745 15.6912,-26.6973 22.583,-35.8462 3.9982,-5.3076 10.3842,-12.8358 14.1912,-16.7295 3.807,-3.8936 10.0996,-9.4818 13.9836,-12.4181 l 7.0617,-5.3388 8.3693,-4.1472 8.3694,-4.1471 10.8113,-0.068 10.8114,-0.068 9.5886,3.8692 c 5.2738,2.128 10.497,3.9448 11.6073,4.0373 l 2.0186,0.1681 0.5047,-5.597 0.5047,-5.597 1.8725,-2.8564 1.8724,-2.8565 5.5531,0.6527 5.5531,0.6526 5.4551,2.5807 5.4551,2.5807 3.5208,3.3206 3.5209,3.3206 0,5.0536 c 0,2.7795 -0.284,6.4737 -0.6311,8.2094 l -0.6311,3.1557 -3.9812,4.5229 -3.9813,4.5229 0.6347,1.0268 0.6345,1.0268 1.8473,0 1.8473,0 2.3313,1.8878 2.3312,1.8877 -1.1986,14.0091 c -1.3796,16.1237 -2.4148,23.8264 -4.5713,34.0107 -0.8443,3.9876 -1.975,9.5212 -2.5128,12.2969 -0.5378,2.7756 -1.7253,8.3855 -2.6391,12.4664 l -1.6612,7.4197 -2.5056,4.9445 -2.5055,4.9445 -0.8746,0 -0.8746,0 -0.6086,-2.271 c -0.3348,-1.2491 -0.6148,-4.6701 -0.6224,-7.6024 l -0.014,-5.3313 -1.3639,-3.2642 -1.3638,-3.2642 -0.7443,-13.0646 -0.7442,-13.0646 -4.3249,-12.6569 -4.3249,-12.6569 -4.3464,-8.4753 -4.3466,-8.4753 -3.6264,-3.8122 -3.6264,-3.8121 -2.7964,-0.7019 -2.7964,-0.7018 -4.4207,1.6882 c -2.4314,0.9286 -7.2943,3.5848 -10.8064,5.9028 l -6.3858,4.2144 -9.407,9.5352 -9.407,9.5353 -7.4357,11.1772 -7.4357,11.1773 -7.0553,14.6352 c -7.5767,15.7171 -12.6518,28.7107 -16.7857,42.9758 l -2.5918,8.944 -0.6251,7.6002 -0.625,7.6001 -2.3626,2.8427 -2.3625,2.8427 1.4852,2.8721 c 0.817,1.5797 2.7793,3.934 4.3608,5.2319 l 2.8755,2.3598 2.7037,4.7351 2.7035,4.7351 4.7866,4.9013 4.7864,4.9013 4.8904,2.3597 4.8903,2.3598 11.2589,-0.529 11.2588,-0.5289 9.774,-3.1662 c 5.3758,-1.7414 12.3856,-4.3212 15.5776,-5.7328 l 5.8035,-2.5666 1.7934,0.469 1.7934,0.4689 2.8988,-2.7701 2.8987,-2.7702 7.1173,-2.7197 7.1174,-2.7197 1.8811,-2.0785 c 1.0345,-1.1431 3.0671,-2.6918 4.5168,-3.4415 l 2.6358,-1.3631 1.1974,-2.8232 1.1974,-2.8233 5.7128,-3.4703 c 3.1421,-1.9086 7.4192,-5.0119 9.5048,-6.8961 l 3.7919,-3.4257 4.0058,-6.3429 4.0059,-6.3428 1.5096,-0.5793 1.5096,-0.5793 1.2352,1.4884 1.2353,1.4884 -1.1257,2.2366 c -0.6191,1.2301 -2.2412,6.8636 -3.6047,12.5189 l -2.479,10.2823 -4.8715,8.8949 -4.8716,8.8948 -6.7461,6.751 -6.746,6.751 -2.8958,1.4974 -2.8958,1.4975 -1.9458,-0.1739 -1.9459,-0.1738 -2.808,5.5513 -2.8079,5.5513 -10.8404,6.7541 -10.8402,6.7541 -9.0839,3.0166 -9.084,3.0166 -7.8953,1.0796 c -8.6465,1.1822 -13.3409,1.198 -22.1009,0.074 z m -951.93889,-17.5566 -3.89876,-1.4652 -3.00662,-2.8555 -3.00663,-2.8554 -1.98194,-3.854 -1.98194,-3.854 -0.56665,-4.7845 -0.56666,-4.7845 2.40756,-2.7989 2.40755,-2.799 6.32462,-0.7457 6.32461,-0.7457 1.71811,-1.7181 1.71811,-1.7181 0.51768,-9.307 0.5177,-9.307 3.02797,-0.5157 3.02798,-0.5157 0.31327,-2.7077 0.31328,-2.7076 -2.83659,-1.8062 c -1.56012,-0.9934 -3.17028,-2.2709 -3.57813,-2.8389 l -0.74153,-1.0326 -0.0155,-29.0498 -0.0155,-29.0498 1.26166,-0.3887 c 0.69391,-0.2137 2.4606,-0.6498 3.92598,-0.9689 l 2.66431,-0.5803 0.641,-1.6704 0.64102,-1.6704 -1.28668,-1.7227 c -0.70767,-0.9474 -2.8156,-3.7197 -4.68429,-6.1605 l -3.39762,-4.4379 0.81593,-16.1492 c 0.44876,-8.8821 0.8422,-20.5419 0.8743,-25.9107 l 0.0583,-9.7615 -2.43723,-2.5924 -2.43722,-2.5925 -5.63738,-2.102 -5.63737,-2.102 -2.18941,-2.0449 -2.18941,-2.0449 -2.14944,-4.9965 -2.14944,-4.9965 -0.16535,-5.9657 -0.16536,-5.9656 2.36391,-2.5163 2.36391,-2.5163 8.70091,-3.1805 8.70091,-3.1805 15.64454,-2.919 15.64455,-2.9191 18.16785,0.021 18.16786,0.021 9.70565,0.9445 9.70563,0.9445 8.29411,3.027 c 4.56177,1.6648 11.10239,4.5974 14.53473,6.5169 3.43233,1.9195 8.29738,5.3004 10.81122,7.5132 l 4.57061,4.0232 6.40298,8.9281 6.40298,8.9282 4.83712,10.0932 4.83712,10.0933 1.69527,6.5606 1.69529,6.5606 0.0906,7.57 0.0906,7.5699 -1.30736,5.5513 -1.30735,5.5513 -3.94588,8.0746 -3.9459,8.0746 -5.79928,6.7383 c -3.1896,3.7061 -8.07027,8.7549 -10.84591,11.2196 -2.77565,2.4646 -8.60409,7.0328 -12.95209,10.1514 l -7.90547,5.6702 -12.28104,5.942 c -15.48271,7.491 -33.54978,14.7242 -42.05615,16.8373 -3.60834,0.8963 -8.24341,2.0617 -10.30016,2.5896 l -3.73956,0.9598 -1.5594,1.5594 -1.55941,1.5594 0,13.095 0,13.095 2.31515,2.3152 2.31515,2.3151 4.11438,0.6579 4.11439,0.658 1.26399,1.523 1.264,1.523 5.17536,0.015 5.17538,0.015 4.35668,1.5174 4.35667,1.5175 0.93489,-0.5778 c 0.88037,-0.5441 22.12721,-1.6739 28.70613,-1.5265 1.66538,0.037 4.61766,0.074 6.56061,0.082 1.94295,0.01 4.15154,0.2362 4.90797,0.5074 l 1.37534,0.4929 -1.24659,1.502 -1.24659,1.5021 -1.57639,0 c -0.86703,0 -3.65014,0.9649 -6.18471,2.1443 -2.53455,1.1793 -7.33347,3.4108 -10.66425,4.9589 -3.33077,1.548 -8.78113,3.5839 -12.1119,4.524 -3.33078,0.9402 -7.54751,2.3423 -9.37051,3.1157 l -3.31457,1.4063 -3.77848,0 -3.77849,0 -2.20738,1.5461 c -3.29999,2.3114 -9.75258,4.4006 -20.44694,6.6201 l -9.58859,1.99 -12.1119,0.5042 -12.11191,0.5042 -3.89876,-1.4651 z m 75.42437,-112.3373 8.94744,-3.5358 4.36804,0.655 4.36805,0.6551 1.61812,-2.4696 1.61813,-2.4696 -0.60788,-2.422 -0.6079,-2.422 1.99186,-1.8026 1.99187,-1.8026 2.16713,1.1598 2.16712,1.1598 1.53648,-1.2751 1.53648,-1.2752 -0.56156,-2.8079 -0.56158,-2.8078 5.04176,-5.7615 c 6.29835,-7.1975 11.3777,-14.8055 14.8916,-22.3051 l 2.71495,-5.7945 6.6e-4,-9.0839 6.5e-4,-9.0839 -2.68522,-5.7281 -2.68521,-5.7281 -4.13028,-4.4808 -4.13028,-4.4808 -5.8852,-2.6411 -5.88521,-2.6412 -7.74517,-1.1519 -7.74517,-1.152 -9.83389,1.1934 c -5.40864,0.6563 -10.59152,1.4121 -11.51752,1.6795 l -1.68363,0.4861 -3.49624,-3.0697 -3.49625,-3.0698 -2.10222,0 -2.10223,0 -1.04484,1.9523 c -0.57466,1.0738 -1.04483,3.0416 -1.04483,4.3729 l 0,2.4206 -3.70585,2.4401 c -2.03822,1.342 -4.59581,3.65 -5.68354,5.1289 l -1.9777,2.6888 -0.83063,15.9837 -0.83064,15.9837 -0.0464,28.8252 -0.0464,28.8252 1.26166,1.5908 c 0.69391,0.8749 1.94295,1.7952 2.77565,2.0451 l 1.51398,0.4543 11.60725,-2.451 11.60724,-2.451 8.94743,-3.5357 z m 95.01309,110.0084 c -1.66538,-0.2209 -5.44725,-1.084 -8.40413,-1.9181 l -5.37616,-1.5164 -4.25617,-4.2562 -4.25617,-4.2562 -4.43349,-11.59 -4.43347,-11.5901 -0.42124,-13.5863 -0.42123,-13.5863 1.19877,-7.4312 1.19878,-7.4312 2.43064,-7.1464 c 1.33685,-3.9305 4.05995,-10.1105 6.05132,-13.7333 4.33633,-7.889 11.24205,-17.0665 17.81842,-23.68 l 4.81216,-4.8394 8.36565,-4.0141 8.36566,-4.0142 5.14613,-0.6094 5.14613,-0.6095 5.23623,2.8499 5.23621,2.8499 5.35955,5.1497 5.35955,5.1496 2.51701,4.9961 2.51701,4.996 1.13487,5.3487 1.13486,5.3486 -0.006,12.8192 -0.006,12.8192 -1.05378,3.7946 -1.05377,3.7945 -2.2209,1.4411 -2.22091,1.4411 -7.06528,1.1552 c -7.08376,1.1583 -41.8821,9.8011 -49.45695,12.2836 l -4.0373,1.3231 -1.75926,3.5962 -1.75928,3.5962 1.71141,4.4784 c 0.94128,2.4631 2.77099,6.1981 4.06601,8.2999 l 2.35459,3.8216 3.24455,2.0462 3.24456,2.0463 6.14647,-0.4396 6.14648,-0.4397 6.47009,-2.8535 c 3.55856,-1.5694 11.91789,-6.1126 18.57631,-10.0961 l 12.10621,-7.2427 1.37518,0.5277 1.37518,0.5277 -0.53964,3.3254 c -0.29679,1.8289 -1.45527,5.3953 -2.57438,7.9252 l -2.03476,4.5999 -2.50797,0 -2.50797,0 -1.65373,1.6537 -1.65372,1.6538 0.16124,4.1499 c 0.0887,2.2824 0.11912,4.6423 0.0676,5.2441 l -0.0936,1.0943 -8.86019,4.2106 -8.8602,4.2106 -7.03668,1.4905 c -6.96912,1.4763 -9.24298,1.5999 -15.11128,0.8216 z m 9.64761,-74.4784 16.59486,-3.7321 4.20331,-1.8301 4.20331,-1.8302 1.09565,-2.0472 1.09564,-2.0472 0,-10.6439 0,-10.6438 -1.62726,-4.0669 -1.62726,-4.067 -2.38367,-0.5982 -2.38368,-0.5983 -4.55621,2.2056 -4.55621,2.2057 -7.54143,7.0428 c -4.1478,3.8736 -9.09017,9.1725 -10.98305,11.7754 -1.89288,2.6029 -5.36642,8.4441 -7.71897,12.9805 l -4.27737,8.2479 0.71517,1.1571 0.71516,1.1572 1.21858,-0.4676 c 0.67022,-0.2572 8.68626,-2.1471 17.81343,-4.1997 z m 319.77832,72.7797 c -2.0083,-0.7177 -5.3052,-2.327 -7.32647,-3.5762 l -3.6751,-2.2713 -2.5255,-4.3095 c -1.3891,-2.3702 -4.2238,-9.0301 -6.2994,-14.7997 l -3.7738,-10.4903 0.094,-16.1492 0.094,-16.1492 2.1869,-8.0746 2.1869,-8.0746 4.0923,-8.5792 4.0924,-8.5793 5.46697,-7.1532 c 3.0068,-3.9343 7.9815,-9.5314 11.0549,-12.4381 l 5.5879,-5.2848 7.6018,-3.5122 7.6017,-3.5123 4.9133,-0.5819 4.9133,-0.5819 4.3735,2.1355 4.3735,2.1354 6.2664,5.6084 6.2663,5.6084 3.3223,6.743 3.3222,6.743 0.3271,17.6899 0.3271,17.6899 -1.039,2.7228 -1.0391,2.7229 -2.316,1.5027 -2.316,1.5026 -9.1149,1.5708 c -5.0132,0.8639 -17.7307,3.8646 -28.2611,6.6683 l -19.1463,5.0977 -4.5419,2.2273 -4.54197,2.2273 0.1697,6.2282 0.1696,6.2282 2.05967,4.6561 2.0596,4.6562 3.5419,1.4799 3.5419,1.4799 7.35,-0.017 7.3501,-0.017 8.5123,-3.4519 8.5123,-3.452 1.9172,1.0261 1.9173,1.026 1.8439,-1.6687 c 1.0141,-0.9178 2.0956,-2.6572 2.4033,-3.8654 l 0.5595,-2.1967 6.3498,-4.2896 6.3499,-4.2897 1.8573,0 1.8572,0 2.8871,-2.0557 c 1.5878,-1.1307 4.9886,-2.9854 7.5573,-4.1217 l 4.6702,-2.0658 0.5277,0.5276 0.5277,0.5277 -1.6918,4.4299 -1.6918,4.4298 -3.9355,5.1998 c -2.1646,2.8598 -4.842,6.9766 -5.95,9.1484 l -2.0145,3.9486 -5.1074,4.4679 -5.1074,4.4679 -9.3106,4.6859 -9.3105,4.6859 -4.8033,1.2602 -4.8033,1.2601 -1.5622,-2.2304 -1.5622,-2.2304 -2.7184,0.01 -2.7184,0.01 -4.0373,2.4867 c -2.2206,1.3676 -4.7186,2.4809 -5.5513,2.4738 -0.8327,-0.01 -3.1572,-0.6 -5.1655,-1.3176 z m 16.268,-72.3485 c 7.4943,-1.66 16.4693,-3.9536 19.9446,-5.0969 l 6.3186,-2.0787 1.1144,-2.0822 1.1144,-2.0823 0.1369,-11.7102 0.1369,-11.7103 -2.1004,-3.5326 -2.1004,-3.5326 -3.5345,0.1001 -3.5346,0.1001 -6.2048,4.2137 -6.2049,4.2136 -2.398,-0.6018 -2.398,-0.6019 -1.66,1.66 -1.66,1.66 0.6183,2.4634 0.6183,2.4633 -4.0022,5.2859 c -2.2011,2.9073 -5.8854,8.7483 -8.1873,12.9801 l -4.1851,7.6943 0,2.2645 0,2.2644 2.271,-0.6578 c 1.249,-0.3618 8.4026,-2.016 15.8968,-3.6761 z m 627.0636,73.0322 -2.2508,-0.4347 -2.0389,-2.5919 -2.0387,-2.5919 0,-1.7589 0,-1.759 -1.4254,-1.1829 -1.4254,-1.183 -6.1169,2.5745 c -3.3641,1.416 -9.6492,3.7407 -13.9667,5.1662 l -7.85,2.5916 -9.1648,0.5733 -9.1649,0.5732 -5.3554,-1.7788 -5.3555,-1.7788 -3.8941,-3.5181 -3.8942,-3.5181 -1.5198,-5.1176 -1.5197,-5.1176 0,-4.8175 0,-4.8175 2.4454,-6.737 2.4454,-6.737 3.7776,-5.4849 3.7776,-5.4849 5.6366,-4.0693 5.6366,-4.0694 12.1119,-5.9004 12.1119,-5.9005 8.8913,-2.217 8.8914,-2.2169 2.1196,-1.7163 2.1195,-1.7164 -1.1143,-9.8093 -1.1143,-9.8094 -1.822,-3.7276 -1.822,-3.7276 -8.0746,-0.2842 -8.0746,-0.2842 -8.0746,3.9251 -8.0746,3.925 -7.57,5.6166 c -4.1634,3.0891 -8.1499,6.2198 -8.8588,6.9571 -0.7089,0.7372 -2.3805,2.703 -3.7148,4.3684 l -2.4259,3.028 -1.2139,-1.1942 -1.2138,-1.1941 2.7237,-6.8805 c 1.4979,-3.7842 4.17,-9.3122 5.9379,-12.2844 l 3.2143,-5.4039 5.9287,-4.9724 c 3.2607,-2.7348 7.8176,-6.0794 10.1263,-7.4324 2.3087,-1.353 6.2267,-3.182 8.7066,-4.0645 l 4.5089,-1.6045 7.2638,-0.041 7.2637,-0.041 5.3989,2.4717 5.3989,2.4716 3.698,3.2471 3.6982,3.247 2.4484,5.2302 2.4484,5.2302 1.1477,5.4543 1.1476,5.4544 0.9717,14.2274 c 0.5345,7.8252 0.9785,18.2018 0.9867,23.0591 l 0.015,8.8316 0.9498,0 c 0.5223,0 1.2304,-0.4542 1.5735,-1.0093 l 0.6238,-1.0093 2.0852,0 2.0853,0 -0.6551,3.2803 c -0.3602,1.8042 -2.0066,6.17 -3.6588,9.7019 l -3.0037,6.4216 0,1.9053 0,1.9054 1.065,0 c 0.5857,0 3.6516,-1.3266 6.813,-2.9479 8.4718,-4.3448 14.8055,-7.1454 16.1598,-7.1454 l 1.1953,0 0,0.938 c 0,0.5158 -1.8482,3.7203 -4.1069,7.121 l -4.107,6.1832 -0.7779,4.9211 -0.778,4.9211 -1.6353,2.4958 -1.6353,2.4958 -5.3394,3.0309 -5.3393,3.0308 -5.4822,1.6084 c -3.0151,0.8845 -5.7403,1.5464 -6.0559,1.4708 -0.3157,-0.076 -1.5867,-0.3331 -2.8247,-0.5722 z m -36.0972,-22.979 7.754,-1.4836 5.7084,-2.6035 c 3.1396,-1.4319 7.4137,-3.7797 9.4979,-5.2173 l 3.7893,-2.6139 2.0143,-3.2591 2.0142,-3.2592 0,-4.2163 0,-4.2164 -2.4774,-2.4774 -2.4775,-2.4775 -1.9414,0 -1.9414,0 -1.5171,-2.271 -1.517,-2.2709 -1.9313,1.7351 -1.9315,1.7351 -6.8317,2.1101 -6.8317,2.1101 -3.7212,3.2892 c -2.0466,1.809 -5.8618,4.7991 -8.4782,6.6447 l -4.7571,3.3556 -2.4596,3.6406 c -1.3527,2.0023 -2.7698,4.6848 -3.1489,5.961 l -0.6894,2.3204 1.621,2.4739 1.621,2.4739 5.4393,0 5.4392,0 7.7538,-1.4836 z m -511.5638,18.2407 -3.7033,-3.7034 -2.5233,-4.9793 -2.5232,-4.9793 0,-2.4974 0,-2.4973 1.2567,-0.7766 1.2566,-0.7767 8.5843,-0.04 8.5843,-0.04 0.6077,-20.1865 0.6076,-20.1865 1.2392,-5.2843 1.2391,-5.2843 -0.3328,-13.0577 -0.3329,-13.0576 -2.2353,-2.3764 -2.2354,-2.3763 0.5835,-2.2316 0.5836,-2.2315 -1.6966,-0.6511 -1.6966,-0.651 -2.2029,1.1592 -2.2028,1.1592 -5.0467,-1.9301 -5.0466,-1.9301 -0.3437,-1.7083 -0.3437,-1.7084 2.2407,-2.3851 2.2407,-2.3851 8.7009,-3.1969 8.7009,-3.1969 5.6146,-0.1192 5.6145,-0.1193 2.7967,1.8325 2.7967,1.8325 1.4297,3.4217 1.4297,3.4217 0,5.0791 0,5.079 1.2616,-6e-4 1.2617,-5e-4 5.7723,-6.4549 5.7722,-6.4548 4.3874,-2.1239 4.3873,-2.1238 4.6454,0 c 2.555,0 5.3986,0.289 6.3193,0.6423 l 1.6738,0.6423 0.907,2.3857 0.9071,2.3856 2.8641,0 2.8641,0 2.5872,2.7757 2.5872,2.7756 4.1623,8.6147 4.1622,8.6148 -0.058,1.9832 c -0.032,1.0907 -0.868,5.0893 -1.8577,8.8858 l -1.7994,6.9026 -4.4507,1.9885 -4.4506,1.9884 -2.6817,2.5626 -2.6816,2.5626 -6.0253,-2.7039 -6.0252,-2.704 -1.096,-2.4054 -1.0959,-2.4054 0.8363,-0.5169 0.8364,-0.5169 1.8053,1.9948 1.8053,1.9949 2.6787,0 2.6786,0 1.6531,-1.2617 1.6531,-1.2616 1.5531,-4.542 c 0.8542,-2.4981 1.5597,-5.3574 1.5678,-6.3541 l 0.015,-1.8122 -2.5233,-2.5234 c -1.3878,-1.3878 -2.5233,-2.8776 -2.5233,-3.3108 0,-0.4331 -1.0512,-1.7751 -2.336,-2.9821 l -2.3361,-2.1946 -5.514,0 -5.514,0 -2.2654,1.5867 -2.2654,1.5868 -2.8653,5.7308 c -1.5759,3.152 -3.5976,8.0018 -4.4927,10.7775 -0.8951,2.7756 -2.7881,11.8498 -4.2068,20.1647 l -2.5794,15.1181 -0.1013,7.8224 -0.1013,7.8224 1.7295,2.6394 1.7294,2.6394 4.3376,1.9187 4.3377,1.9188 0.5491,2.0996 0.5491,2.0997 2.0701,-1.1079 2.0702,-1.1079 1.9796,1.2363 1.9796,1.2362 2.5078,-1.3421 2.5079,-1.3422 2.8534,0.7123 c 1.5693,0.3917 3.5347,1.2971 4.3674,2.012 0.8327,0.7149 2.7723,1.5989 4.3103,1.9644 l 2.7964,0.6647 2.1063,-1.1273 2.1063,-1.1272 0.9658,0.9658 0.9659,0.9659 -1.7294,1.7293 -1.7293,1.7293 -2.046,-0.535 -2.0461,-0.535 -2.5978,1.398 c -3.9474,2.1244 -12.1942,4.5619 -15.4343,4.5619 l -2.8884,0 -4.2495,2.1996 -4.2494,2.1995 -11.1026,0.7475 c -6.1064,0.4111 -15.4542,1.0727 -20.7728,1.4701 l -9.6703,0.7226 -3.7034,-3.7034 z m 585.6454,0.7639 c -1.4415,-1.5872 -3.3718,-4.0088 -4.2896,-5.3814 l -1.6688,-2.4955 0,-2.8034 0,-2.8034 1.9788,-1.9789 1.9789,-1.9789 5.5898,-1.625 5.5896,-1.625 0.5754,-2.2926 0.5754,-2.2926 -0.3216,-36.2429 -0.3218,-36.2428 -2.0733,-3.5292 -2.0731,-3.5292 -3.4781,-2.3439 -3.4781,-2.3439 0,-1.1922 0,-1.1922 9.5886,-3.2546 c 5.2737,-1.79 10.497,-3.2661 11.6073,-3.2802 l 2.0186,-0.026 2.6154,3.2802 2.6154,3.2803 1.2915,4.0373 c 0.7103,2.2205 1.6758,4.4538 2.1455,4.9627 l 0.854,0.9255 7.351,-7.6354 7.351,-7.6354 4.2897,-1.1512 4.2896,-1.1512 3.8071,1.0251 3.807,1.0251 4.2827,3.1496 4.2827,3.1495 2.4092,4.1912 c 1.3251,2.3051 2.7082,5.6271 3.0734,7.3822 l 0.6643,3.1911 -1.1379,6.3975 c -0.6259,3.5186 -2.2839,10.1893 -3.6847,14.8238 l -2.5466,8.4262 -5.9698,6.1198 -5.9696,6.1197 -0.6201,-0.62 -0.6199,-0.62 1.7268,-7.0465 1.7268,-7.0465 -0.5742,-10.3388 -0.5743,-10.3389 -1.0188,-1.0188 -1.0188,-1.0188 -5.6048,1.7668 -5.6049,1.7667 -3.1082,4.2254 c -1.7095,2.324 -3.7355,5.6875 -4.5023,7.4746 l -1.3941,3.2491 -2.5227,16.6215 -2.5228,16.6215 0,6.1696 0,6.1696 1.4766,2.8555 c 0.8122,1.5706 2.0613,3.0739 2.7757,3.3408 0.7145,0.2669 6.7493,0.1606 13.4109,-0.2361 l 12.1119,-0.7213 0.9123,0.8165 0.9123,0.8165 -2.7672,3.628 c -1.522,1.9954 -4.2388,4.5926 -6.0374,5.7717 l -3.2703,2.1437 -2.182,3.3286 -2.182,3.3287 -2.6397,1.7296 -2.6397,1.7297 -9.735,0.7304 c -5.3542,0.4017 -14.0499,1.0491 -19.3236,1.4386 l -9.5886,0.7082 -2.6208,-2.8858 z m 86.2131,1.0204 c -1.2102,-1.0382 -3.3677,-3.6542 -4.7943,-5.8134 l -2.5939,-3.9258 0,-1.9554 0,-1.9555 2.8278,-2.8278 2.8278,-2.8278 4.1794,-0.7061 4.1794,-0.7061 0.9742,-1.1827 0.9743,-1.1828 0.2151,-35.3264 0.2152,-35.3264 -1.0079,-4.8306 -1.0078,-4.8307 -1.7772,-1.9639 -1.7773,-1.9639 -5.1592,-1.9219 -5.1591,-1.9218 -0.2753,-1.3769 -0.2752,-1.3768 12.7972,-2.2837 12.7974,-2.2836 2.6177,1.6649 c 1.4398,0.9157 3.6236,2.8517 4.8528,4.3023 l 2.2349,2.6374 0.6531,3.2803 0.6531,3.2803 1.1493,-0.01 1.1493,-0.01 4.7428,-5.9483 4.743,-5.9483 5.5487,-2.7147 5.5488,-2.7148 3.3342,0.7183 c 1.8339,0.3951 4.6969,1.3967 6.3623,2.2259 3.8859,1.9349 8.3906,6.1228 10.0972,9.3874 l 1.3377,2.559 -1.4407,13.0856 -1.4406,13.0856 -2.9892,4.542 c -1.644,2.498 -3.7662,6.0181 -4.7161,7.8222 l -1.7268,3.2803 -1.6341,0 -1.634,0 -0.097,-8.3269 -0.098,-8.3269 -1.7161,-4.2703 -1.7161,-4.2702 -3.2976,-2.0381 -3.2977,-2.038 -2.5322,0 -2.5322,0 -2.0188,4.7943 c -1.1104,2.6369 -2.7298,7.0653 -3.5988,9.8409 -1.7137,5.4739 -5.23,26.9255 -6.3083,38.4851 l -0.6714,7.1959 1.1793,3.5736 c 0.6487,1.9654 1.724,4.0184 2.3895,4.5622 l 1.21,0.9887 5.5513,-0.9934 c 3.0532,-0.5463 8.2765,-1.1158 11.6072,-1.2655 3.3308,-0.1498 6.8049,-0.5965 7.7202,-0.9928 l 1.6642,-0.7205 0.7145,1.1562 0.7146,1.1561 -6.6351,6.379 -6.6351,6.3789 -1.5767,3.9408 -1.5768,3.9407 -3.2307,1.9085 -3.2308,1.9084 -9.6087,0.7131 c -5.2847,0.3921 -13.6964,1.0406 -18.6926,1.4409 l -9.0839,0.728 -2.2004,-1.8876 z m 114.7402,0.086 -5.5513,-1.5245 -5.3635,-3.6719 -5.3634,-3.672 -3.9571,-4.627 -3.9569,-4.6269 -2.9412,-6.056 -2.9411,-6.0559 -1.112,-5.3487 -1.1119,-5.3486 0.02,-9.2866 0.02,-9.2866 0.9815,-6.786 0.9814,-6.7861 2.1674,-6.3352 c 2.8528,-8.3384 7.4799,-17.5306 11.202,-22.2539 l 2.9999,-3.8069 6.3304,-4.5172 c 3.4818,-2.4846 8.8124,-5.6536 11.8461,-7.0425 l 5.5156,-2.5251 7.4813,-0.6098 7.4814,-0.6098 7.0427,1.6569 7.0428,1.657 4.2168,2.4711 4.2167,2.4712 3.1207,3.9401 3.1205,3.9401 3.5036,7.4282 c 1.9269,4.0855 4.2267,10.1533 5.1107,13.4841 l 1.6072,6.056 0.5641,9.5886 0.5641,9.5886 -1.6329,8.5792 c -0.8982,4.7186 -2.0988,10.244 -2.668,12.2786 l -1.0349,3.6993 -3.5089,2.0703 -3.5088,2.0702 0,1.5618 c 0,0.8589 0.5603,2.4588 1.245,3.5552 l 1.245,1.9936 -2.002,3.7317 c -1.1011,2.0525 -4.1188,6.0511 -6.706,8.8859 l -4.7042,5.1541 -5.3891,2.9752 -5.3892,2.9752 -12.6166,0.2447 -12.6165,0.2448 -5.5513,-1.5245 z m 24.1799,-20.898 5.5665,-1.2616 3.8621,-3.8478 3.8621,-3.8477 1.9618,-4.5769 1.9619,-4.5769 1.1123,-7.1691 1.1124,-7.1691 -0.6712,-14.1814 c -0.3692,-7.7997 -0.6526,-16.2913 -0.6297,-18.8701 l 0.041,-4.6887 -2.7263,-1.7863 c -1.4995,-0.9825 -5.1435,-3.7552 -8.0979,-6.1615 l -5.3714,-4.3753 -3.3102,0 -3.3102,0 -5.1819,1.5389 -5.182,1.5389 -3.2511,2.7357 -3.2513,2.7358 -3.8389,5.9394 -3.8388,5.9394 -0.6159,3.6642 c -0.3387,2.0153 -0.8275,4.4389 -1.0861,5.3857 -0.2587,0.9469 -2.263,3.8908 -4.4539,6.5421 l -3.9835,4.8206 0,1.5605 0,1.5605 1.8628,1.5951 1.8629,1.595 0.6933,5.8996 0.6934,5.8996 4.3633,9.211 4.3634,9.2111 2.9583,2.1065 c 3.4915,2.4861 8.5825,4.0769 13.4528,4.2034 1.9267,0.05 6.008,-0.4767 9.0696,-1.1706 z m 90.0957,19.8557 -5.2211,-2.6018 -2.5952,-3.0842 c -1.4274,-1.6964 -3.4406,-4.7413 -4.4738,-6.7665 l -1.8785,-3.6822 -1.1013,-5.957 -1.1011,-5.957 -0.071,-26.8141 -0.071,-26.8141 -0.7892,-2.0186 -0.7894,-2.0187 -7.284,0 -7.284,0 -3.9677,-4.2505 -3.9676,-4.2506 0,-2.5761 0,-2.576 -1.1686,-1.8713 -1.1685,-1.8713 0.5501,-1.4338 0.5502,-1.4339 5.9545,-3.1212 5.9544,-3.1213 5.8239,-1.3033 5.8239,-1.3033 1.2043,-2.0976 1.2043,-2.0975 -0.2589,-20.5175 -0.259,-20.5175 -1.0727,-2.0045 -1.0728,-2.0045 1.203,-1.4495 1.2029,-1.4494 2.0154,0 2.0154,0 5.9062,3.5878 5.9062,3.5878 2.1245,2.9837 2.1246,2.9836 0.5875,15.2884 0.5876,15.2884 1.8747,1.8746 1.8747,1.8747 2.7602,-0.6633 c 1.5182,-0.3648 4.35,-1.45 6.2929,-2.4116 l 3.5327,-1.7483 7.929,-0.7279 7.9291,-0.7279 3.6782,-1.5672 3.6781,-1.5673 5.2881,-0.1029 5.2881,-0.1029 0.4945,1.2895 0.4946,1.2895 -1.7453,1.4226 c -0.96,0.7825 -3.8757,3.1545 -6.4796,5.2711 -2.6037,2.1167 -8.5867,7.2899 -13.2955,11.4962 l -8.5613,7.6477 -8.9097,3.3693 c -4.9002,1.8532 -9.5909,3.9911 -10.4236,4.7509 l -1.5139,1.3816 -0.3251,27.9744 -0.3253,27.9744 0.6543,5.3319 0.6542,5.3319 2.3422,2.7229 2.3421,2.723 3.1024,-1.4942 3.1023,-1.4943 11.4885,-11.2397 c 6.3187,-6.1819 12.4732,-11.7668 13.6769,-12.4109 l 2.1882,-1.1712 0.8616,0.5326 0.8617,0.5325 -0.8159,4.3084 c -0.4489,2.3697 -1.5413,6.0306 -2.4277,8.1354 l -1.6116,3.827 -3.1325,2.7989 -3.1325,2.7989 1.1681,2.1827 1.1681,2.1827 -1.5849,3.808 -1.585,3.808 -4.2417,4.4151 c -2.3331,2.4283 -6.2612,5.7213 -8.7292,7.3176 l -4.4873,2.9025 -5.6601,0 -5.6601,0 -5.2212,-2.6018 z"
       id="path4376"
       inkscape:connector-curvature="0" />
    <flowRoot
       xml:space="preserve"
       id="flowRoot3063-8-6-1-9-0"
       style="color:#000000;font-style:normal;font-variant:normal;font-weight:normal;font-stretch:normal;font-size:72px;line-height:125%;font-family:Arial;-inkscape-font-specification:Arial;letter-spacing:0px;word-spacing:0px;display:inline;overflow:visible;visibility:visible;opacity:0.34883722;fill:#9adbf1;fill-opacity:1;fill-rule:nonzero;stroke:#95cde0;stroke-width:2.16507292;stroke-opacity:1;marker:none;enable-background:accumulate"
       transform="matrix(0.3931901,0,-0.11464216,0.86351947,1652.543,2421.802)"><flowRegion
         id="flowRegion3065-8-1-1-1-7"
         style="stroke-width:2.16507292"><rect
           id="rect3067-6-3-8-9-84"
           width="615.07123"
           height="310.30325"
           x="92.642677"
           y="425.30325"
           style="color:#000000;font-size:72px;display:inline;overflow:visible;visibility:visible;fill:#9adbf1;fill-opacity:1;fill-rule:nonzero;stroke:#95cde0;stroke-width:2.16507292;stroke-opacity:1;marker:none;enable-background:accumulate" /></flowRegion><flowPara
         style="color:#000000;font-style:normal;font-variant:normal;font-weight:normal;font-stretch:normal;font-size:31.05892754px;font-family:Lavi;-inkscape-font-specification:Lavi;text-align:end;letter-spacing:7.18542147px;text-anchor:end;display:inline;overflow:visible;visibility:visible;fill:#9adbf1;fill-opacity:1;fill-rule:nonzero;stroke:#95cde0;stroke-width:2.80495787;stroke-miterlimit:4;stroke-dasharray:none;stroke-opacity:1;marker:none;enable-background:accumulate"
         id="flowPara3300-48">WWW.PEPPERCARROT.COM</flowPara><flowPara
         style="color:#000000;font-style:normal;font-variant:normal;font-weight:normal;font-stretch:normal;font-size:31.05892754px;font-family:Lavi;-inkscape-font-specification:Lavi;text-align:end;letter-spacing:7.18542147px;text-anchor:end;display:inline;overflow:visible;visibility:visible;fill:#9adbf1;fill-opacity:1;fill-rule:nonzero;stroke:#95cde0;stroke-width:2.80495787;stroke-miterlimit:4;stroke-dasharray:none;stroke-opacity:1;marker:none;enable-background:accumulate"
         id="flowPara4439">05-2014</flowPara></flowRoot>  </g>
</svg>
