<?xml version="1.0" encoding="UTF-8" standalone="no"?>
<!-- Created with Inkscape (http://www.inkscape.org/) -->

<svg
   xmlns:dc="http://purl.org/dc/elements/1.1/"
   xmlns:cc="http://creativecommons.org/ns#"
   xmlns:rdf="http://www.w3.org/1999/02/22-rdf-syntax-ns#"
   xmlns:svg="http://www.w3.org/2000/svg"
   xmlns="http://www.w3.org/2000/svg"
   xmlns:xlink="http://www.w3.org/1999/xlink"
   xmlns:sodipodi="http://sodipodi.sourceforge.net/DTD/sodipodi-0.dtd"
   xmlns:inkscape="http://www.inkscape.org/namespaces/inkscape"
   id="svg2"
   version="1.1"
   inkscape:version="0.92.1 r15371"
   width="2646.3999"
   height="707.20001"
   sodipodi:docname="Pepper-and-Carrot_by-David-Revoy_E01P00.svg"
   style="enable-background:new">
  <metadata
     id="metadata8">
    <rdf:RDF>
      <cc:Work
         rdf:about="">
        <dc:format>image/svg+xml</dc:format>
        <dc:type
           rdf:resource="http://purl.org/dc/dcmitype/StillImage" />
        <dc:title />
      </cc:Work>
    </rdf:RDF>
  </metadata>
  <defs
     id="defs6">
    <filter
       inkscape:collect="always"
       id="filter4386">
      <feBlend
         inkscape:collect="always"
         mode="screen"
         in2="BackgroundImage"
         id="feBlend4388" />
    </filter>
  </defs>
  <sodipodi:namedview
     pagecolor="#ffffff"
     bordercolor="#666666"
     borderopacity="1"
     objecttolerance="10"
     gridtolerance="10"
     guidetolerance="10"
     inkscape:pageopacity="0"
     inkscape:pageshadow="2"
     inkscape:window-width="1278"
     inkscape:window-height="1368"
     id="namedview4"
     showgrid="false"
     inkscape:zoom="0.257597"
     inkscape:cx="1423.9519"
     inkscape:cy="1089.7769"
     inkscape:window-x="1273"
     inkscape:window-y="0"
     inkscape:window-maximized="0"
     inkscape:current-layer="layer3"
     inkscape:snap-global="false">
    <inkscape:grid
       type="xygrid"
       id="grid4282"
       originx="0"
       originy="0"
       spacingx="1.0666667"
       spacingy="1.0666667" />
  </sodipodi:namedview>
  <g
     inkscape:groupmode="layer"
     id="layer1"
     inkscape:label="artwork"
     style="display:inline"
     sodipodi:insensitive="true">
    <image
       sodipodi:absref="D:\Mes Documents\GitHub\peppercarrot\peppercarrot_ep01_translation\da\../gfx_Pepper-and-Carrot_by-David-Revoy_E01P00.png"
       xlink:href="../gfx_Pepper-and-Carrot_by-David-Revoy_E01P00.png"
       width="2646.3999"
       height="707.20001"
       id="image3084"
       x="0"
       y="0" />
  </g>
  <g
     inkscape:groupmode="layer"
     id="layer2"
     inkscape:label="speechbubble"
     style="display:inline;opacity:0.70232556;filter:url(#filter4386)" />
  <g
     inkscape:groupmode="layer"
     id="layer3"
     inkscape:label="txt"
     style="display:inline">
    <flowRoot
       xml:space="preserve"
       id="flowRoot3063"
       style="font-style:normal;font-variant:normal;font-weight:normal;font-stretch:normal;font-size:10.43416882px;line-height:0.01%;font-family:Arial;-inkscape-font-specification:Arial;letter-spacing:0px;word-spacing:0px;display:inline;fill:#285953;fill-opacity:1;stroke:none;stroke-width:0.86951411"><flowRegion
         id="flowRegion3065"
         style="stroke-width:0.86951411"><rect
           id="rect3067"
           width="2321.0791"
           height="94.030907"
           x="225.0735"
           y="560.18195"
           style="font-size:61.5401268px;fill:#285953;fill-opacity:1;stroke-width:0.75605476" /></flowRegion><flowPara
         id="flowPara3069"
         style="font-style:normal;font-variant:normal;font-weight:normal;font-stretch:normal;font-size:75.21570587px;line-height:1.25;font-family:Lavi;-inkscape-font-specification:Lavi;text-align:center;text-anchor:middle;fill:#285953;fill-opacity:1;stroke-width:0.86951411">Episode 1: Flyveeliksir</flowPara></flowRoot>    <path
       style="fill:#2a5953;fill-opacity:1;stroke:none;stroke-width:1.06666672"
       d="m 772.42099,531.03184 c -2.0873,-1.83254 -4.48502,-4.66637 -5.32841,-6.29718 l -1.53336,-2.96526 v -4.33394 -4.33381 l 2.59768,-2.59767 2.59767,-2.59768 1.90004,-0.034 c 1.04513,-0.0177 2.81832,-0.72821 3.94069,-1.57722 l 2.04048,-1.54369 0.79259,-5.56618 0.7926,-5.56632 0.0768,-24.14587 0.0768,-24.14585 -1.09563,-2.04714 -1.09548,-2.04698 h -1.88719 c -1.03804,0 -4.41208,-0.74977 -7.49769,-1.66612 l -5.61033,-1.66611 -2.51897,-2.51898 -2.51911,-2.51896 v -1.63554 -1.63555 l 6.08528,-0.0443 6.08526,-0.0443 4.76236,-2.33761 4.76237,-2.33747 0.30229,-37.04048 0.30246,-37.04062 -1.25616,-4.57821 -1.25631,-4.57834 -2.2211,-1.44062 -2.2211,-1.44061 -9.26007,-0.74106 -9.26009,-0.7409 v -1.26768 -1.26753 l 4.68054,-4.74775 4.6807,-4.74759 13.39451,-6.05441 13.39437,-6.05425 2.03841,0.64697 c 1.12104,0.35577 3.46442,1.84688 5.20747,3.31363 l 3.16921,2.66665 v 1.41772 c 0,0.77989 0.74843,2.16616 1.663,3.08088 l 1.66302,1.66302 h 10.91823 10.91823 l 9.17472,2.65882 c 5.04606,1.46232 11.47158,3.82252 14.27882,5.24513 2.80723,1.42259 8.8869,5.43681 13.51029,8.92071 l 8.4062,6.33426 2.90515,4.19217 2.90514,4.19203 1.5149,5.03349 1.51489,5.0335 v 7.14561 7.14561 l -1.98067,6.36395 -1.98067,6.36395 -3.91499,7.00043 -3.91482,7.00059 -6.36514,6.80418 -6.36497,6.80432 -7.05331,5.19802 c -3.87939,2.85877 -9.43464,6.3765 -12.34496,7.81696 -2.91031,1.44047 -10.76818,4.4323 -17.46189,6.64852 -6.69386,2.21623 -13.24211,4.41827 -14.55173,4.89321 l -2.38118,0.86377 v 22.82428 22.82428 l 2.55471,2.55456 2.55456,2.55471 3.00143,0.63605 c 1.65091,0.34985 3.8017,1.06684 4.77963,1.59331 l 1.77821,0.95726 4.61469,-0.093 c 2.53816,-0.0502 7.04607,0.24176 10.01752,0.65053 l 5.40285,0.74297 3.36237,-1.73862 3.36236,-1.73879 3.11633,0.6845 c 1.71396,0.37643 5.25088,0.6845 7.85993,0.6845 2.60905,0 4.74376,0.22269 4.74376,0.49486 0,0.27219 -1.71973,1.21349 -3.82164,2.09174 -3.85607,1.61118 -12.14885,6.81599 -17.72093,11.12217 l -3.02211,2.33555 -6.886,1.90934 -6.88598,1.90949 -4.90798,3.12047 -4.90812,3.12061 -7.93732,2.24222 c -4.3654,1.23327 -10.36029,2.94 -13.32171,3.79255 l -5.38453,1.55004 h -4.36791 -4.36791 l -3.79491,-3.33194 z m 46.73946,-113.55489 9.36774,-4.70713 8.53085,-6.84863 8.53099,-6.84877 5.11044,-6.17079 5.11029,-6.17077 3.0261,-6.34977 3.02609,-6.34976 8.9e-4,-4.55044 7.4e-4,-4.5503 -1.54945,-2.99626 c -0.85211,-1.64796 -3.02683,-4.23944 -4.83266,-5.75906 l -3.28336,-2.76263 -6.01482,-1.80641 -6.01483,-1.80641 -8.99559,-0.0281 -8.99559,-0.0281 -5.84736,1.32173 -5.84752,1.32173 -3.41256,2.07534 -3.41273,2.07534 v 31.71206 31.71206 l 1.85204,1.07865 c 1.01855,0.59323 2.39892,1.09312 3.06731,1.11085 0.6684,0.0177 5.43075,-2.08598 10.58299,-4.67495 z m 77.62807,115.21525 c -1.45508,-0.94086 -3.94584,-3.39529 -5.53502,-5.45439 l -2.8892,-3.74382 -0.65112,-3.47061 -0.65111,-3.4706 1.42378,-3.00041 1.42377,-3.00025 4.67626,-2.24413 4.67626,-2.24399 1.40902,-1.92692 1.40885,-1.92678 v -29.29912 -29.29913 l -5.55599,-0.6207 c -3.05592,-0.34143 -7.42191,-0.99742 -9.70238,-1.45774 l -4.14624,-0.83704 -0.33434,-1.05444 c -0.18387,-0.57993 0.0369,-1.63909 0.48999,-2.3537 l 0.82435,-1.29929 8.18098,-1.56526 c 4.4995,-0.86082 8.64501,-1.85204 9.21224,-2.20263 l 1.03139,-0.63753 V 388.7325 345.88114 l -1.54413,-2.98622 -1.54429,-2.98623 -8.77421,-1.24626 c -4.82586,-0.68537 -10.32189,-1.48255 -12.21367,-1.77141 l -3.43944,-0.52529 v -0.82598 c 0,-0.45411 1.07155,-1.80168 2.38117,-2.99434 2.59148,-2.35992 15.94656,-10.90007 17.04574,-10.90007 0.37288,0 4.92008,-1.91008 10.10481,-4.24474 l 9.42695,-4.2446 3.00764,1.14349 c 1.65416,0.62881 3.84188,1.89841 4.8616,2.82126 l 1.85383,1.67778 v 2.88743 2.88743 l 2.38118,0.63812 c 1.30976,0.35103 7.15314,0.64477 12.98558,0.65259 l 10.60426,0.0148 7.59308,2.10414 c 4.17623,1.15737 10.30167,3.30211 13.61219,4.7662 l 6.01927,2.66192 7.00339,5.21117 c 3.85177,2.86615 8.76565,7.03144 10.9197,9.25638 l 3.91631,4.04524 2.34843,5.2915 2.3482,5.29148 0.4735,7.99271 0.4737,7.99284 -3.0977,8.98673 -3.09771,8.98688 -4.07433,6.13815 c -2.24073,3.37609 -6.46141,8.75029 -9.37925,11.94281 l -5.30479,5.8044 -3.37506,-0.63325 -3.37493,-0.63311 -1.10345,1.3433 c -0.60682,0.73883 -1.26813,2.52945 -1.46941,3.97922 l -0.36595,2.63577 -5.20747,3.40238 -5.20761,3.40239 -13.13401,4.80947 -13.134,4.80933 -2.29539,0.0162 c -1.26235,0.0147 -3.0097,0.46755 -3.88278,1.01928 l -1.5874,1.00289 v 22.70629 22.70628 l 2.5228,2.68643 2.52281,2.68643 5.49573,1.14097 5.4956,1.14083 10.50192,-0.0296 c 5.77588,-0.0162 13.26779,-0.0842 16.64876,-0.15137 l 6.14716,-0.1211 0.72303,0.72289 0.72289,0.72289 -2.10768,1.23637 c -1.15927,0.68007 -5.13791,2.55205 -8.84126,4.15998 l -6.73344,2.92361 -3.137,2.63961 c -1.72533,1.45184 -3.74781,2.63963 -4.49433,2.63963 h -1.35717 l -4.64688,4.08229 c -2.55573,2.24533 -6.68617,5.12035 -9.17886,6.38891 l -4.53213,2.30645 -10.28408,2.79558 -10.2841,2.79556 -5.2915,0.35976 -5.29149,0.35974 -2.64582,-1.71057 z m 43.15691,-114.1716 7.64418,-3.66333 7.67135,-5.69497 7.67135,-5.69495 7.40818,-7.85314 7.40803,-7.85314 2.9657,-6.11761 2.96569,-6.11763 0.53608,-4.98048 0.53594,-4.98048 -1.91408,-3.67706 -1.91436,-3.67708 -4.23324,-2.94428 -4.23308,-2.94442 -7.93731,-1.67927 -7.93732,-1.67925 -6.8789,0.6139 c -3.78354,0.3376 -9.73635,1.3427 -13.22882,2.23365 l -6.34976,1.62004 -2.42712,2.73974 -2.4271,2.73989 0.31042,29.88852 0.31057,29.88838 1.45243,1.74822 1.45242,1.74809 h 1.7525 c 0.96362,0 5.19197,-1.64841 9.39625,-3.66334 z m 364.81817,82.05357 c -2.9104,-1.03744 -7.7155,-3.115 -10.6782,-4.61719 l -5.3867,-2.73089 -3.3378,-3.80141 c -1.8359,-2.09085 -4.3965,-5.81221 -5.6907,-8.2699 l -2.3529,-4.46833 -0.034,-7.93717 -0.035,-7.93732 3.3411,-7.05228 3.3412,-7.05213 8.2122,-8.59552 8.212,-8.59553 -2.973,-6.22011 -2.9729,-6.22009 0.635,-3.17452 0.6349,-3.17452 -1.5148,-1.25704 -1.5145,-1.25705 1.6426,-3.17643 1.6427,-3.17643 -2.3487,-2.50006 -2.3487,-2.50007 0.6711,-4.89601 0.671,-4.89586 2.1079,-4.76532 2.1079,-4.76532 4.5007,-5.37568 4.5007,-5.37552 4.6459,-2.94634 4.6459,-2.94636 5.7315,-1.28259 5.7317,-1.28274 5.5098,1.74069 5.51,1.74069 6.0415,3.78384 6.0416,3.78384 3.8552,6.34637 3.8554,6.34638 0.5414,4.03725 0.5416,4.03726 -2.3363,7.40257 -2.3363,7.40258 -4.0661,5.17748 c -2.2362,2.8477 -5.8143,7.79688 -7.951,10.99827 -2.1368,3.20139 -5.3111,7.08624 -7.0538,8.63319 l -3.1686,2.8124 0.9011,1.53705 c 0.4957,0.84546 5.2374,6.1408 10.5374,11.76738 l 9.6364,10.23019 1.2639,-1.52287 1.2639,-1.52287 0.2119,-3.00306 0.2119,-3.00305 -3.9633,-0.32815 -3.9632,-0.32814 -2.6509,-3.47579 -2.6514,-3.47577 v -2.20574 -2.20559 l 1.5161,-1.51608 1.5161,-1.51607 8.8023,-2.7365 c 4.8413,-1.50516 11.1836,-3.27759 14.094,-3.9389 l 5.2914,-1.2024 12.6996,-0.4175 c 6.9849,-0.22964 15.1999,-0.70073 18.2557,-1.0466 l 5.556,-0.62912 -4e-4,1.39896 -6e-4,1.39912 -7.5263,6.8789 c -4.1395,3.7834 -9.0207,8.36589 -10.8471,10.18338 l -3.3206,3.30432 -5.1622,0.74947 c -2.8393,0.41217 -5.8158,1.00009 -6.6144,1.30652 l -1.4522,0.55735 v 5.1385 5.13865 l -2.258,6.03491 -2.258,6.03491 3.0408,2.20663 c 1.6723,1.21363 4.9505,3.67648 7.2849,5.47285 l 4.2442,3.26637 -0.1966,1.49599 c -0.1077,0.82287 -0.8551,3.27833 -1.6599,5.45645 l -1.4632,3.96046 -2.4932,2.65396 -2.4934,2.65394 h -3.2549 -3.255 l -3.4652,-2.11256 c -1.9058,-1.16149 -4.1037,-2.1121 -4.8842,-2.1121 -0.7805,0 -2.6301,-0.95254 -4.1101,-2.1167 -1.4798,-1.164 -3.33,-2.10428 -4.1112,-2.08951 -0.7813,0.0147 -4.0399,1.69935 -7.2413,3.74308 l -5.8207,3.71605 -10.0117,3.13583 -10.0117,3.13597 -5.3335,-0.0768 -5.3337,-0.0768 -5.2916,-1.88615 z m 25.6796,-25.61084 4.6526,-2.25226 0.5181,-1.35038 0.5182,-1.35038 -10.9218,-10.67795 -10.9219,-10.6781 h -1.2777 -1.2779 l -2.9554,3.89564 c -1.6255,2.14253 -4.5032,5.32576 -6.3949,7.07368 l -3.4395,3.17806 v 1.43117 1.43131 l 4.4977,4.58898 c 2.4739,2.52399 5.4503,5.11148 6.6144,5.75004 l 2.1167,1.1609 6.8092,0.0325 6.8095,0.0325 4.6527,-2.25226 z m -5.6614,-65.04239 8.1706,-6.97165 2.0407,-3.34686 2.0408,-3.34685 v -3.35823 -3.35837 l -2.6242,-3.11884 -2.6244,-3.11884 -3.1787,-1.31656 -3.1787,-1.31671 -3.6578,0.68626 -3.6579,0.68628 -2.87,3.40341 c -1.5785,1.87199 -3.5121,4.93603 -4.297,6.80904 l -1.4275,3.4055 v 4.09898 4.09899 l 1.4985,4.97974 c 1.4887,4.94594 3.3491,8.05621 4.8193,8.05621 0.4219,0 4.444,-3.13715 8.9378,-6.9715 z m 187.7061,62.00758 c -3.3289,-0.42694 -9.4274,-1.8615 -13.5524,-3.18781 l -7.4999,-2.41145 -6.284,-3.81692 c -3.4563,-2.09941 -8.7196,-5.72198 -11.6962,-8.05014 l -5.4119,-4.23323 -6.1193,-7.20144 -6.1195,-7.20128 -3.2015,-6.02738 c -1.7607,-3.3151 -4.1749,-9.12304 -5.3646,-12.90643 -1.1899,-3.78341 -3.1737,-12.3454 -4.4089,-19.02671 l -2.246,-12.14766 0.4704,-4.7851 c 0.6794,-6.91287 3.6706,-22.26606 6.6179,-33.97111 2.9347,-11.65337 9.2112,-30.14489 12.3525,-36.39113 4.6795,-9.30528 16.4526,-27.99276 23.6788,-37.58557 4.1923,-5.56514 10.8881,-13.45875 14.8798,-17.54134 3.9918,-4.08259 10.5897,-9.94192 14.6622,-13.02059 l 7.4044,-5.59793 8.7754,-4.34841 8.7753,-4.34842 11.3361,-0.0709 11.336,-0.0709 10.0539,4.0569 c 5.5297,2.23128 11.0062,4.1362 12.1703,4.23323 l 2.1166,0.17618 0.5293,-5.86848 0.5291,-5.86848 1.9634,-2.9951 1.9633,-2.99508 5.8225,0.68435 5.8225,0.68419 5.7198,2.70594 5.7198,2.70593 3.6917,3.48168 3.6919,3.48184 v 5.29873 c 0,2.91445 -0.298,6.78793 -0.6618,8.60778 l -0.6618,3.30891 -4.1745,4.74227 -4.1744,4.74228 0.6656,1.07673 0.6651,1.07659 h 1.937 1.9369 l 2.4445,1.97934 2.4444,1.97934 -1.2568,14.68892 c -1.4465,16.90604 -2.5319,24.98247 -4.793,35.66102 -0.8854,4.18109 -2.071,9.98311 -2.6348,12.89357 -0.5641,2.91032 -1.8091,8.79239 -2.7673,13.07125 l -1.7417,7.77974 -2.6272,5.18444 -2.627,5.18442 h -0.9171 -0.9172 l -0.638,-2.38117 c -0.3511,-1.30962 -0.6447,-4.89676 -0.6526,-7.97129 l -0.015,-5.59011 -1.43,-3.42246 -1.43,-3.42262 -0.7804,-13.69859 -0.7804,-13.69843 -4.5347,-13.27106 -4.5348,-13.27105 -4.5572,-8.8866 -4.5576,-8.8866 -3.8022,-3.99708 -3.8025,-3.9971 -2.932,-0.73588 -2.9322,-0.73604 -4.6352,1.77023 c -2.5494,0.97366 -7.6482,3.75875 -11.3306,6.1891 l -6.6957,4.41901 -9.8635,9.99789 -9.8636,9.99789 -7.7963,11.71968 -7.7966,11.71953 -7.3976,15.34535 c -7.9444,16.47968 -13.2657,30.10384 -17.6003,45.06125 l -2.7175,9.37793 -0.6555,7.96892 -0.6553,7.96893 -2.4772,2.9806 -2.4771,2.98061 1.5572,3.01148 c 0.8567,1.65637 2.9142,4.12498 4.5724,5.48584 l 3.015,2.47437 2.8349,4.96483 2.8347,4.96483 5.0189,5.13909 5.0187,5.13909 5.1276,2.47422 5.1277,2.47422 11.8052,-0.55453 11.805,-0.55454 10.2483,-3.31983 c 5.6367,-1.82605 12.9866,-4.53095 16.3336,-6.01114 l 6.0849,-2.69101 1.8806,0.49178 1.8804,0.49161 3.0394,-2.90455 3.0394,-2.90456 7.4626,-2.85169 7.4627,-2.85168 1.9724,-2.17931 c 1.0847,-1.1987 3.216,-2.82244 4.736,-3.60854 l 2.7637,-1.42924 1.2555,-2.96023 1.2556,-2.96024 5.9899,-3.63866 c 3.2947,-2.00121 7.7792,-5.25502 9.9661,-7.23068 l 3.9758,-3.592 4.2001,-6.65073 4.2003,-6.65059 1.5829,-0.60741 1.5829,-0.60741 1.295,1.56068 1.2953,1.56068 -1.1802,2.345 c -0.6493,1.28982 -2.3501,7.1967 -3.7797,13.12647 l -2.5994,10.78118 -5.1077,9.32654 -5.1081,9.32638 -7.0733,7.07858 -7.0735,7.07856 -3.0363,1.57012 -3.0363,1.57013 -2.0402,-0.18224 -2.0403,-0.18238 -2.9442,5.82078 -2.9442,5.82063 -11.3664,7.08181 -11.3662,7.08182 -9.5247,3.16299 -9.5247,3.16299 -8.2785,1.13197 c -9.066,1.23947 -13.9882,1.25616 -23.1732,0.0783 z M 514.35801,453.52 l -4.08795,-1.53616 -3.15251,-2.99405 -3.1525,-2.99405 -2.07813,-4.04095 -2.07811,-4.04109 -0.59414,-5.01667 -0.59416,-5.01652 2.52439,-2.93482 2.52437,-2.93469 6.63151,-0.78197 6.6315,-0.78196 1.80147,-1.80138 1.80148,-1.80155 0.5428,-9.7585 0.54282,-9.75864 3.1749,-0.54066 3.1749,-0.5408 0.32849,-2.83899 0.32847,-2.83914 -2.97422,-1.89383 c -1.63583,-1.04158 -3.32412,-2.38104 -3.75177,-2.97648 l -0.7775,-1.08279 -0.0162,-30.45944 -0.0162,-30.4593 1.32289,-0.40759 c 0.72756,-0.22417 2.57998,-0.68124 4.11647,-1.01588 l 2.79359,-0.60844 0.67211,-1.75148 0.67212,-1.75148 -1.34912,-1.80626 c -0.742,-0.99344 -2.95221,-3.90021 -4.91158,-6.4595 l -3.56248,-4.65322 0.85553,-16.93276 c 0.47052,-9.3131 0.88306,-21.53873 0.91671,-27.16797 l 0.0611,-10.23521 -2.55549,-2.71819 -2.55549,-2.71818 -5.91092,-2.20397 -5.91091,-2.20411 -2.29564,-2.14416 -2.29565,-2.14415 -2.25373,-5.23892 -2.25375,-5.23893 -0.17336,-6.25511 -0.17338,-6.2551 2.47861,-2.63843 2.4786,-2.6383 9.12312,-3.33489 9.12309,-3.33475 16.40367,-3.0608 16.40367,-3.06065 19.04941,0.0222 19.04941,0.0222 10.1766,0.99034 10.17658,0.99034 8.69656,3.17392 c 4.78313,1.74558 11.64112,4.82055 15.24,6.83313 3.59888,2.01256 8.7,5.55761 11.33581,7.87765 l 4.79241,4.21845 6.71365,9.3614 6.71369,9.36139 5.07181,10.583 5.07192,10.58299 1.77747,6.8789 1.77761,6.87905 0.0945,7.93717 0.0945,7.93732 -1.37091,5.82063 -1.37075,5.82064 -4.13739,8.46645 -4.13732,8.46631 -6.08068,7.06542 c -3.34436,3.88588 -8.46187,9.17959 -11.37218,11.76384 -2.91035,2.58438 -9.02159,7.37421 -13.58057,10.64412 l -8.28906,5.94528 -12.87696,6.2303 c -16.23397,7.85446 -35.17771,15.43868 -44.09685,17.65431 -3.78342,0.93984 -8.6434,2.16174 -10.79994,2.71523 l -3.92103,1.00645 -1.63506,1.63495 -1.63507,1.6351 v 13.73049 13.73049 l 2.42748,2.4274 2.42749,2.42755 4.31402,0.6898 4.31404,0.68982 1.32532,1.597 1.32533,1.59686 5.42649,0.0147 5.4265,0.0148 4.56808,1.59109 4.56806,1.5911 0.98027,-0.60593 c 0.92308,-0.57049 23.20088,-1.75502 30.09903,-1.60055 1.7462,0.0384 4.84173,0.0783 6.87894,0.0871 2.03724,0.0147 4.35299,0.24766 5.14613,0.53194 l 1.44208,0.51688 -1.30709,1.57486 -1.30708,1.575 h -1.65286 c -0.90912,0 -3.82727,1.01174 -6.48482,2.24826 -2.65754,1.23667 -7.68932,3.57635 -11.18172,5.1995 -3.49238,1.62329 -9.20721,3.75785 -12.6996,4.74361 -3.4924,0.98589 -7.91374,2.4559 -9.8252,3.26695 l -3.47539,1.47443 h -3.96183 -3.96183 L 575.337,444.97 c -3.4601,2.42356 -10.2258,4.61394 -21.43909,6.94122 l -10.05386,2.08656 -12.6996,0.52869 -12.69961,0.52869 -4.08794,-1.53631 z m 79.08419,-117.78827 9.3816,-3.70719 4.57999,0.68671 4.57999,0.68686 1.69665,-2.58941 1.69664,-2.58941 -0.63737,-2.53949 -0.63741,-2.5395 2.08852,-1.89015 2.08852,-1.88999 2.27229,1.21599 2.27226,1.21614 1.61103,-1.33709 1.61104,-1.33694 -0.5888,-2.94414 -0.58884,-2.94414 5.2864,-6.04096 c 6.60397,-7.54685 11.92979,-15.5239 15.6142,-23.38753 l 2.84667,-6.07553 7e-4,-9.52472 6.8e-4,-9.52472 -2.81551,-6.00612 -2.81551,-6.00597 -4.33069,-4.69826 -4.3307,-4.69813 -6.17076,-2.76928 -6.17078,-2.76929 -8.12098,-1.20786 -8.121,-1.20787 -10.31106,1.25128 c -5.67108,0.68805 -11.10545,1.48049 -12.07638,1.76093 l -1.76532,0.50979 -3.66589,-3.21867 -3.66591,-3.21882 h -2.20421 -2.20425 l -1.09553,2.04714 c -0.60255,1.12576 -1.09553,3.18913 -1.09553,4.58499 v 2.53801 l -3.88568,2.55855 c -2.1371,1.40709 -4.8188,3.82711 -5.95931,5.37774 l -2.07368,2.81935 -0.87092,16.75923 -0.87095,16.75925 -0.0485,30.22389 -0.0485,30.2239 1.32289,1.66789 c 0.72758,0.91738 2.03723,1.88247 2.91032,2.14446 l 1.58745,0.4764 12.17047,-2.57006 12.17047,-2.56991 9.38158,-3.70735 z m 99.62346,115.34639 c -1.7463,-0.23156 -5.71164,-1.13653 -8.81202,-2.01109 l -5.63691,-1.59007 -4.46272,-4.46272 -4.46275,-4.46257 -4.64859,-12.15253 -4.64861,-12.15238 -0.44169,-14.24559 -0.44166,-14.24559 1.25693,-7.79171 1.25696,-7.79185 2.54857,-7.4931 c 1.40173,-4.12114 4.25696,-10.60115 6.34503,-14.39976 4.5466,-8.27181 11.78746,-17.89459 18.68291,-24.82903 l 5.04576,-5.07426 8.77156,-4.20885 8.77155,-4.20887 5.39577,-0.639 5.3959,-0.63916 5.49028,2.98829 5.49027,2.98815 5.61963,5.39959 5.61965,5.39946 2.63917,5.23847 2.63903,5.23849 1.19001,5.60811 1.18999,5.60827 v 13.44117 13.44134 l -1.10493,3.97862 -1.10494,3.97863 -2.3286,1.51106 -2.32876,1.51105 -7.40803,1.21126 c -7.42753,1.21452 -43.91437,10.27657 -51.85686,12.87955 l -4.23322,1.38731 -1.84452,3.77069 -1.84466,3.7707 1.79446,4.69576 c 0.98693,2.58262 2.90544,6.49878 4.26335,8.70259 l 2.46875,4.00698 3.40194,2.14563 3.40209,2.1455 6.44472,-0.46091 6.44472,-0.46106 6.78395,-2.99184 c 3.73127,-1.64559 12.49618,-6.40928 19.47772,-10.58609 l 12.69363,-7.59411 1.44194,0.55336 1.44194,0.5532 -0.56591,3.48671 c -0.31116,1.91776 -1.52582,5.65715 -2.69928,8.30991 l -2.13353,4.82306 h -2.62958 -2.62971 l -1.73391,1.7339 -1.73405,1.73405 0.16909,4.35123 c 0.093,2.39314 0.12553,4.86765 0.0709,5.49869 l -0.0975,1.14731 -9.29006,4.41487 -9.29021,4.41488 -7.37806,1.56289 c -7.30731,1.54797 -9.69145,1.67749 -15.84451,0.86141 z m 10.11574,-78.09222 17.40002,-3.91321 4.40734,-1.91894 4.4072,-1.91894 1.14879,-2.14652 1.1488,-2.14667 v -11.16027 -11.16027 l -1.70614,-4.26439 -1.70629,-4.26423 -2.49932,-0.6272 -2.49933,-0.62734 -4.77728,2.31266 -4.77728,2.31265 -7.90733,7.38456 c -4.34916,4.06163 -9.53123,9.61762 -11.51604,12.34688 -1.98466,2.72911 -5.62673,8.85381 -8.09355,13.61026 l -4.48488,8.6481 0.74991,1.21334 0.74977,1.21333 1.27773,-0.49044 c 0.70281,-0.26967 9.10782,-2.25122 18.67788,-4.40336 z m 335.2949,76.31106 c -2.1057,-0.75243 -5.5626,-2.43981 -7.682,-3.74957 l -3.8534,-2.38163 -2.648,-4.51854 c -1.4566,-2.48515 -4.4288,-9.46816 -6.6051,-15.51784 l -3.9569,-10.99931 0.099,-16.93276 0.099,-16.93276 2.293,-8.46645 2.293,-8.46646 4.2908,-8.99559 4.291,-8.99543 5.7323,-7.50034 c 3.1527,-4.12527 8.3688,-9.9939 11.5914,-13.04171 l 5.859,-5.54122 7.9707,-3.68267 7.9705,-3.68254 5.1517,-0.61021 5.1516,-0.61021 4.5858,2.23912 4.5857,2.23911 6.5705,5.88059 6.5703,5.88044 3.4836,7.07014 3.4833,7.0703 0.343,18.54822 0.343,18.54822 -1.0894,2.85493 -1.0895,2.8551 -2.4284,1.57558 -2.4285,1.57545 -9.557,1.64706 c -5.2565,0.90572 -18.5911,4.05218 -29.6325,6.99188 l -20.0754,5.34496 -4.7622,2.33539 -4.7625,2.33556 0.178,6.53037 0.1778,6.53038 2.1596,4.88199 2.1596,4.88213 3.7138,1.55166 3.7137,1.55182 7.7066,-0.0177 7.7068,-0.0177 8.9254,-3.61946 8.9254,-3.61933 2.0101,1.07584 2.0105,1.07585 1.9332,-1.74971 c 1.0635,-0.96243 2.1973,-2.78627 2.52,-4.05305 l 0.5866,-2.30321 6.658,-4.49787 6.6579,-4.49772 h 1.9475 1.9473 l 3.0272,-2.15553 c 1.6649,-1.18557 5.2308,-3.13021 7.924,-4.32168 l 4.8968,-2.16602 0.5532,0.55321 0.5534,0.55335 -1.7739,4.64481 -1.7738,4.64481 -4.1265,5.45202 c -2.2696,2.99864 -5.077,7.31515 -6.2388,9.59222 l -2.1121,4.14034 -5.3553,4.68468 -5.3552,4.68468 -9.7624,4.91329 -9.7623,4.91329 -5.0364,1.32128 -5.0363,1.3213 -1.6381,-2.33865 -1.6379,-2.33851 h -2.8503 -2.8504 l -4.2332,2.60728 c -2.3283,1.43397 -4.9476,2.60122 -5.8207,2.59384 -0.873,-0.0148 -3.3103,-0.62912 -5.4161,-1.38154 z m 17.0574,-75.85887 c 7.8579,-1.74069 17.2684,-4.1455 20.9123,-5.34436 l 6.6251,-2.17945 1.1687,-2.18329 1.1684,-2.18329 0.1433,-12.27849 0.1432,-12.27851 -2.2023,-3.70394 -2.2024,-3.70409 -3.706,0.10485 -3.706,0.10485 -6.5058,4.41813 -6.5061,4.41812 -2.5144,-0.63119 -2.5143,-0.63103 -1.7406,1.74054 -1.7405,1.74056 0.6483,2.58291 0.6483,2.58291 -4.1965,5.5424 c -2.3078,3.04826 -6.1709,9.17281 -8.5844,13.60999 l -4.3883,8.06757 v 2.37424 2.37438 l 2.3812,-0.68965 c 1.3096,-0.3794 8.8104,-2.11389 16.6682,-3.85444 z m 657.4905,76.57586 -2.3599,-0.45589 -2.1378,-2.71759 -2.1376,-2.7176 v -1.84436 -1.84423 l -1.4945,-1.24035 -1.4947,-1.24051 -6.4137,2.69943 c -3.5273,1.48477 -10.1174,3.92236 -14.6443,5.41688 l -8.231,2.71745 -9.6095,0.60105 -9.6096,0.60105 -5.6153,-1.86503 -5.6154,-1.8652 -4.083,-3.68874 -4.0832,-3.68887 -1.5935,-5.36593 -1.5935,-5.36592 v -5.05123 -5.05137 l 2.5641,-7.06379 2.5641,-7.06395 3.9609,-5.75108 3.961,-5.75092 5.9099,-4.2669 5.9101,-4.26674 12.6997,-6.18674 12.6996,-6.18688 9.3226,-2.32446 9.3229,-2.32447 2.2226,-1.79963 2.2222,-1.79962 -1.1682,-10.28542 -1.1684,-10.28526 -1.9104,-3.90848 -1.9104,-3.90848 -8.4665,-0.29802 -8.4664,-0.29802 -8.4664,4.11552 -8.4664,4.11553 -7.9373,5.88916 c -4.3655,3.23905 -8.5453,6.52166 -9.2888,7.29461 -0.7432,0.7731 -2.4959,2.83426 -3.895,4.58043 l -2.5436,3.17495 -1.2727,-1.25217 -1.2727,-1.25203 2.8558,-7.21442 c 1.5706,-3.96785 4.3724,-9.76397 6.2261,-12.88044 l 3.3703,-5.66617 6.2162,-5.21366 c 3.4189,-2.86749 8.1969,-6.37428 10.6177,-7.7929 2.4208,-1.41875 6.5289,-3.33651 9.1291,-4.26187 l 4.7277,-1.68236 7.6163,-0.0429 7.6162,-0.0428 5.6608,2.59162 5.6609,2.59163 3.8774,3.4046 3.8777,3.40459 2.5673,5.48393 2.567,5.48391 1.2035,5.71903 1.2032,5.71903 1.0189,14.91784 c 0.5604,8.2049 1.0259,19.08503 1.0344,24.17805 l 0.016,9.26008 h 0.996 c 0.5475,0 1.2899,-0.47612 1.6497,-1.05827 l 0.6541,-1.05827 h 2.1863 2.1866 l -0.6868,3.43945 c -0.3779,1.89178 -2.104,6.46939 -3.8365,10.17274 l -3.1494,6.73315 v 1.9978 1.99781 h 1.1166 c 0.6142,0 3.8289,-1.39099 7.1437,-3.09093 8.8829,-4.55576 15.524,-7.49207 16.9438,-7.49207 h 1.2534 v 0.9834 c 0,0.54095 -1.9379,3.90095 -4.3062,7.46667 l -4.3063,6.48311 -0.8156,5.15992 -0.8158,5.15991 -1.7146,2.61689 -1.7146,2.61687 -5.5986,3.17806 -5.5983,3.17791 -5.7482,1.68635 c -3.1614,0.92742 -6.0188,1.62152 -6.3498,1.54222 -0.3311,-0.0798 -1.6637,-0.34926 -2.9618,-0.60003 z m -37.8486,-24.09402 8.1303,-1.55551 5.9853,-2.72986 c 3.2921,-1.50145 7.7735,-3.96311 9.9587,-5.47049 l 3.9734,-2.74077 2.1118,-3.41729 2.112,-3.41731 v -4.42092 -4.42093 l -2.5976,-2.59768 -2.5977,-2.59768 h -2.0356 -2.0356 l -1.5907,-2.38119 -1.5906,-2.38117 -2.025,1.8194 -2.0253,1.81927 -7.1632,2.21253 -7.1632,2.21253 -3.9016,3.44875 c -2.146,1.8968 -6.1463,5.03203 -8.8897,6.96707 l -4.9879,3.51846 -2.579,3.81721 c -1.4182,2.09956 -2.9042,4.91211 -3.3016,6.25023 l -0.7229,2.43303 1.6996,2.59398 1.6996,2.59383 h 5.7033 5.703 z m -536.3865,19.12579 -3.883,-3.88307 -2.6456,-5.22091 -2.6457,-5.22106 v -2.61835 -2.6185 l 1.3176,-0.81445 1.3176,-0.81431 9.0009,-0.0414 9.0008,-0.0414 0.6373,-21.16615 0.637,-21.16598 1.2993,-5.54063 1.2993,-5.54078 -0.349,-13.69135 -0.3491,-13.6912 -2.3437,-2.49163 -2.3439,-2.49165 0.6118,-2.33983 0.612,-2.33983 -1.779,-0.68258 -1.7789,-0.68272 -2.3098,1.21555 -2.3096,1.2154 -5.2916,-2.02379 -5.2916,-2.02365 -0.3603,-1.79135 -0.3603,-1.79121 2.3494,-2.5008 2.3494,-2.50095 9.1231,-3.35202 9.123,-3.35202 5.8871,-0.12554 5.8869,-0.12553 2.9325,1.92132 2.9323,1.92145 1.4991,3.58772 1.4991,3.58772 v 5.32546 5.32546 l 1.3227,-5.8e-4 1.3229,-6e-4 6.0525,-6.76799 6.0523,-6.76799 4.6003,-2.22701 4.6002,-2.22685 h 4.8707 c 2.679,0 5.6606,0.30304 6.626,0.67341 l 1.755,0.67357 0.9511,2.50139 0.951,2.5014 h 3.0031 3.0031 l 2.7126,2.91031 2.7129,2.91032 4.3643,9.0328 4.364,9.03266 -0.061,2.07946 c -0.034,1.14364 -0.9101,5.3364 -1.9478,9.31694 l -1.8867,7.23761 -4.6667,2.08494 -4.6666,2.08494 -2.8118,2.68703 -2.8116,2.68687 -6.3178,-2.83515 -6.3175,-2.83514 -1.1493,-2.52221 -1.1489,-2.52207 0.8767,-0.54199 0.8771,-0.54198 1.8928,2.09158 1.8929,2.09173 h 2.8088 2.8085 l 1.7334,-1.3229 1.7333,-1.32292 1.6285,-4.76236 c 0.8956,-2.61925 1.6354,-5.61728 1.6438,-6.6624 l 0.016,-1.90019 -2.6459,-2.64567 c -1.455,-1.45523 -2.6456,-3.01739 -2.6456,-3.4715 0,-0.45412 -1.1023,-1.8612 -2.4494,-3.12682 l -2.4494,-2.30114 h -5.7815 -5.7817 l -2.3752,1.66376 -2.3753,1.66375 -3.0044,6.00893 c -1.6523,3.30491 -3.7721,8.39009 -4.7107,11.30042 -0.9387,2.91031 -2.9234,12.42469 -4.411,21.14309 l -2.7045,15.85174 -0.1067,8.20197 -0.1066,8.20196 1.8134,2.76736 1.8132,2.76751 4.5481,2.01184 4.5482,2.01198 0.5758,2.20146 0.5757,2.2016 2.1706,-1.16179 2.1706,-1.16165 2.0758,1.29632 2.0756,1.29633 2.6294,-1.40738 2.6296,-1.40723 2.9919,0.74681 c 1.6454,0.4107 3.7062,1.36012 4.5793,2.1096 0.8732,0.74962 2.9068,1.67646 4.5195,2.05983 l 2.932,0.6969 2.2085,-1.18202 2.2086,-1.18188 1.0126,1.01264 1.0128,1.01278 -1.8134,1.8132 -1.8132,1.81321 -2.1452,-0.56089 -2.1455,-0.56103 -2.7237,1.46586 c -4.1391,2.22745 -12.7859,4.78334 -16.1834,4.78334 h -3.0283 l -4.4558,2.30616 -4.4556,2.3063 -11.6414,0.78375 c -6.4026,0.43107 -16.204,1.12472 -21.7808,1.54147 l -10.1395,0.75759 -3.883,-3.88307 z m 614.0627,0.80086 c -1.5114,-1.66404 -3.5353,-4.20324 -4.4977,-5.64238 l -1.7498,-2.61672 v -2.93942 -2.93941 l 2.075,-2.07489 2.0748,-2.07489 5.8609,-1.70378 5.8608,-1.70392 0.6035,-2.40378 0.6033,-2.40392 -0.3372,-38.00143 -0.3375,-38.00142 -2.1738,-3.70056 -2.1737,-3.70039 -3.647,-2.45768 -3.6467,-2.45753 v -1.2501 -1.24997 l 10.0539,-3.41257 c 5.5295,-1.87685 11.0062,-3.42468 12.1703,-3.43945 l 2.1167,-0.0266 2.7423,3.43945 2.7422,3.43945 1.3542,4.23323 c 0.7448,2.32831 1.7572,4.66991 2.2496,5.20348 l 0.8954,0.9704 7.7077,-8.00584 7.7079,-8.00599 4.4977,-1.20699 4.4978,-1.20712 3.9918,1.07495 3.9918,1.07482 4.4904,3.3024 4.4906,3.30226 2.526,4.39463 c 1.3895,2.41692 2.8397,5.90009 3.2225,7.74046 l 0.6966,3.34583 -1.1931,6.70804 c -0.6563,3.68932 -2.3947,10.68371 -3.8634,15.54295 l -2.6702,8.83521 -6.2595,6.41667 -6.2593,6.41666 -0.6503,-0.65008 -0.6499,-0.65008 1.8106,-7.3884 1.8105,-7.38839 -0.6019,-10.84056 -0.6022,-10.84054 -1.0682,-1.06817 -1.0684,-1.06831 -5.8767,1.85249 -5.8769,1.85249 -3.259,4.43053 c -1.7924,2.4367 -3.9168,5.96343 -4.7207,7.83719 l -1.4617,3.40682 -2.6452,17.42792 -2.6451,17.42808 v 6.46895 6.46894 l 1.5482,2.99419 c 0.8516,1.64663 2.1613,3.22296 2.9104,3.50281 0.7492,0.27985 7.0768,0.16835 14.0615,-0.24751 l 12.6997,-0.75642 0.9565,0.8561 0.9566,0.85625 -2.9014,3.80392 c -1.5959,2.09232 -4.4445,4.81553 -6.3304,6.05176 l -3.4289,2.24781 -2.288,3.49012 -2.2879,3.49025 -2.7678,1.8135 -2.7677,1.81351 -10.2074,0.76585 c -5.614,0.42133 -14.7315,1.10007 -20.2612,1.50855 l -10.0539,0.74253 -2.748,-3.0258 z m 90.3965,1.06994 c -1.269,-1.08839 -3.5312,-3.83139 -5.027,-6.09546 l -2.7196,-4.11627 v -2.05023 -2.05038 l 2.9649,-2.96496 2.965,-2.9651 4.3822,-0.74032 4.3823,-0.74032 1.0214,-1.2402 1.0215,-1.24021 0.2255,-37.04048 0.2256,-37.04047 -1.0567,-5.06511 -1.0567,-5.0651 -1.8634,-2.05909 -1.8635,-2.05925 -5.4097,-2.01508 -5.4093,-2.01523 -0.2887,-1.44356 -0.2886,-1.44373 13.4182,-2.39446 13.4183,-2.39448 2.7449,1.74572 c 1.5095,0.96022 3.7993,2.99006 5.0882,4.51116 l 2.3432,2.76529 0.6848,3.43946 0.6848,3.43959 1.2051,-0.0147 1.2051,-0.0148 4.9729,-6.23693 4.9732,-6.23694 5.8179,-2.84652 5.8181,-2.84637 3.4961,0.75301 c 1.9227,0.41424 4.9248,1.46454 6.6709,2.33407 4.0745,2.02868 8.7977,6.41992 10.5871,9.84283 l 1.4027,2.68319 -1.5107,13.72044 -1.5104,13.72058 -3.1344,4.76236 c -1.7237,2.61939 -3.9489,6.31019 -4.9448,8.20181 l -1.8106,3.43961 h -1.7134 -1.7133 l -0.1014,-8.7311 -0.1034,-8.73095 -1.7995,-4.47749 -1.7994,-4.47733 -3.4576,-2.13692 -3.4578,-2.13692 h -2.6549 -2.6552 l -2.1167,5.02685 c -1.1642,2.76485 -2.8622,7.40803 -3.7735,10.31836 -1.7968,5.73955 -5.4837,28.232 -6.6144,40.35248 l -0.7039,7.54522 1.2365,3.74693 c 0.6802,2.06086 1.8077,4.21344 2.5055,4.78362 l 1.2687,1.03657 5.8207,-1.04159 c 3.2014,-0.5727 8.678,-1.16991 12.1703,-1.3269 3.4925,-0.15698 7.1352,-0.62542 8.0949,-1.04098 l 1.7449,-0.75539 0.7491,1.2123 0.7494,1.21215 -6.9571,6.68855 -6.957,6.68839 -1.6532,4.13206 -1.6533,4.13193 -3.3874,2.00106 -3.3877,2.00104 -10.075,0.74755 c -5.5411,0.4113 -14.3609,1.09121 -19.5995,1.51092 l -9.5247,0.76334 -2.3072,-1.97918 z m 120.3076,0.0901 -5.8205,-1.59848 -5.6238,-3.85015 -5.6236,-3.85015 -4.1491,-4.85141 -4.1489,-4.85141 -3.084,-6.34991 -3.0838,-6.34977 -1.166,-5.60812 -1.1657,-5.60827 0.02,-9.73709 0.02,-9.73723 1.029,-7.11534 1.029,-7.11534 2.2727,-6.64261 c 2.9912,-8.74292 7.8427,-18.3812 11.7454,-23.33376 l 3.1455,-3.99163 6.6376,-4.73637 c 3.6508,-2.60507 9.24,-5.92799 12.4209,-7.38411 l 5.7832,-2.64774 7.8443,-0.63931 7.8444,-0.63946 7.3844,1.7373 7.3847,1.73745 4.4214,2.59103 4.4212,2.59104 3.2721,4.13133 3.272,4.13133 3.6736,7.78861 c 2.0204,4.28373 4.4318,10.64605 5.3586,14.13837 l 1.6853,6.34976 0.5914,10.05385 0.5916,10.05387 -1.7122,8.99558 c -0.9418,4.94755 -2.2008,10.74102 -2.7974,12.87439 l -1.0853,3.8788 -3.6791,2.17074 -3.679,2.17073 v 1.63747 c 0,0.90069 0.5876,2.57819 1.3054,3.72787 l 1.3054,2.09025 -2.0992,3.91277 c -1.1544,2.15213 -4.3186,6.34474 -7.0313,9.31708 l -4.9325,5.40418 -5.6507,3.11957 -5.6505,3.11959 -13.229,0.25651 -13.2285,0.25667 -5.8207,-1.59848 z m 25.3532,-21.91192 5.8367,-1.32291 4.0496,-4.03444 4.0493,-4.03446 2.0571,-4.79898 2.0571,-4.79899 1.1662,-7.51702 1.1664,-7.51688 -0.7037,-14.86953 c -0.3872,-8.17819 -0.6843,-17.08178 -0.6602,-19.78579 l 0.043,-4.91623 -2.8585,-1.87288 c -1.5723,-1.0302 -5.3932,-3.93741 -8.4909,-6.46052 l -5.632,-4.58751 h -3.4708 -3.4709 l -5.4332,1.61355 -5.4336,1.61355 -3.4088,2.86837 -3.4092,2.86852 -4.025,6.22764 -4.0251,6.22763 -0.6457,3.84202 c -0.3552,2.11299 -0.8677,4.65426 -1.1388,5.64696 -0.2713,0.99285 -2.3729,4.07965 -4.6701,6.85956 l -4.1769,5.05447 v 1.63628 1.63629 l 1.9533,1.67232 1.9532,1.67247 0.727,6.18584 0.7271,6.18585 4.5749,9.65808 4.5753,9.65793 3.1018,2.20868 c 3.6608,2.60684 8.9989,4.27473 14.1054,4.40749 2.0203,0.0531 6.2996,-0.49989 9.5099,-1.22751 z m 94.4675,20.81909 -5.4744,-2.72808 -2.7212,-3.23388 c -1.4966,-1.77864 -3.6075,-4.97133 -4.6909,-7.0948 l -1.9696,-3.86093 -1.1546,-6.24595 -1.1546,-6.24609 -0.074,-28.11519 -0.074,-28.11519 -0.8276,-2.11654 -0.8275,-2.11669 h -7.6376 -7.6374 l -4.1602,-4.45666 -4.1601,-4.45681 v -2.70121 -2.70104 l -1.2254,-1.96207 -1.2251,-1.96207 0.5766,-1.50337 0.577,-1.50353 6.2435,-3.27272 6.2432,-3.27257 6.1066,-1.36663 6.1064,-1.36647 1.2628,-2.19939 1.2627,-2.19938 -0.2715,-21.51304 -0.2716,-21.51303 -1.1247,-2.10177 -1.1249,-2.10179 1.2615,-1.51976 1.2612,-1.51977 h 2.1133 2.1132 l 6.1927,3.76184 6.1929,3.76198 2.2275,3.12844 2.2277,3.12829 0.616,16.03029 0.6161,16.03014 1.9657,1.96576 1.9657,1.96562 2.8941,-0.69557 c 1.5918,-0.38249 4.5611,-1.52021 6.5983,-2.52856 l 3.7041,-1.83315 8.3137,-0.7632 8.3138,-0.76322 3.8567,-1.64322 3.8566,-1.64338 5.5446,-0.10781 5.5448,-0.10779 0.5185,1.35215 0.5186,1.352 -1.8301,1.49171 c -1.0065,0.8205 -4.0638,3.30757 -6.7939,5.52689 -2.7301,2.21933 -9.0034,7.64359 -13.9407,12.05404 l -8.9767,8.01868 -9.342,3.53293 c -5.138,1.94302 -10.0563,4.18464 -10.9294,4.98138 l -1.5874,1.44858 -0.3409,29.33191 -0.3409,29.33176 0.6859,5.59055 0.6859,5.5907 2.4558,2.85508 2.4558,2.85509 3.2529,-1.56673 3.2529,-1.56673 12.046,-11.78525 c 6.6253,-6.48179 13.0785,-12.33772 14.3405,-13.01306 l 2.2944,-1.22796 0.9034,0.55838 0.9036,0.55838 -0.8556,4.51751 c -0.4706,2.48455 -1.616,6.32319 -2.5455,8.5301 l -1.6898,4.01274 -3.2845,2.93468 -3.2845,2.93469 1.2248,2.28859 1.2248,2.28858 -1.6617,3.9928 -1.6621,3.99281 -4.4474,4.6293 c -2.4463,2.54615 -6.5652,5.99888 -9.1528,7.67269 l -4.7051,3.04337 h -5.9347 -5.9348 l -5.4745,-2.72809 z"
       id="path4376"
       inkscape:connector-curvature="0" />
  </g>
</svg>
