<?xml version="1.0" encoding="UTF-8" standalone="no"?>
<!-- Created with Inkscape (http://www.inkscape.org/) -->

<svg
   xmlns:dc="http://purl.org/dc/elements/1.1/"
   xmlns:cc="http://creativecommons.org/ns#"
   xmlns:rdf="http://www.w3.org/1999/02/22-rdf-syntax-ns#"
   xmlns:svg="http://www.w3.org/2000/svg"
   xmlns="http://www.w3.org/2000/svg"
   xmlns:xlink="http://www.w3.org/1999/xlink"
   xmlns:sodipodi="http://sodipodi.sourceforge.net/DTD/sodipodi-0.dtd"
   xmlns:inkscape="http://www.inkscape.org/namespaces/inkscape"
   id="svg2"
   version="1.1"
   inkscape:version="0.91 r"
   width="2481"
   height="663"
   sodipodi:docname="Pepper-and-Carrot_by-David-Revoy_E01P00.svg"
   enable-background="new">
  <metadata
     id="metadata8">
    <rdf:RDF>
      <cc:Work
         rdf:about="">
        <dc:format>image/svg+xml</dc:format>
        <dc:type
           rdf:resource="http://purl.org/dc/dcmitype/StillImage" />
        <dc:title />
      </cc:Work>
    </rdf:RDF>
  </metadata>
  <defs
     id="defs6">
    <filter
       inkscape:collect="always"
       id="filter4386">
      <feBlend
         inkscape:collect="always"
         mode="screen"
         in2="BackgroundImage"
         id="feBlend4388" />
    </filter>
  </defs>
  <sodipodi:namedview
     pagecolor="#ffffff"
     bordercolor="#666666"
     borderopacity="1"
     objecttolerance="10"
     gridtolerance="10"
     guidetolerance="10"
     inkscape:pageopacity="0"
     inkscape:pageshadow="2"
     inkscape:window-width="1536"
     inkscape:window-height="803"
     id="namedview4"
     showgrid="false"
     inkscape:zoom="0.257597"
     inkscape:cx="415.31663"
     inkscape:cy="1089.7769"
     inkscape:window-x="-8"
     inkscape:window-y="-8"
     inkscape:window-maximized="1"
     inkscape:current-layer="layer3"
     inkscape:snap-global="false">
    <inkscape:grid
       type="xygrid"
       id="grid4282" />
  </sodipodi:namedview>
  <g
     inkscape:groupmode="layer"
     id="layer1"
     inkscape:label="artwork"
     style="display:inline"
     sodipodi:insensitive="true">
    <image
       sodipodi:absref="/home/deevad/peppercarrot/webcomics/New/lang/da/../gfx_Pepper-and-Carrot_by-David-Revoy_E01P00.png"
       xlink:href="../gfx_Pepper-and-Carrot_by-David-Revoy_E01P00.png"
       width="2481"
       height="663"
       id="image3084"
       x="0"
       y="0" />
  </g>
  <g
     inkscape:groupmode="layer"
     id="layer2"
     inkscape:label="speechbubble"
     style="opacity:0.70232556;display:inline;filter:url(#filter4386)" />
  <g
     inkscape:groupmode="layer"
     id="layer3"
     inkscape:label="txt"
     style="display:inline">
    <flowRoot
       xml:space="preserve"
       id="flowRoot3063"
       style="font-style:normal;font-variant:normal;font-weight:normal;font-stretch:normal;font-size:70.7753067px;line-height:125%;font-family:Arial;-inkscape-font-specification:Arial;letter-spacing:0px;word-spacing:0px;display:inline;fill:#285953;fill-opacity:1;stroke:none"
       transform="matrix(0.81516947,0,0,0.81516947,283.8572,278.68829)"><flowRegion
         id="flowRegion3065"><rect
           id="rect3067"
           width="2669.3979"
           height="108.1419"
           x="-89.368896"
           y="302.36935"
           style="font-size:70.7753067px;fill:#285953;fill-opacity:1" /></flowRegion><flowPara
         id="flowPara3069"
         style="font-style:normal;font-variant:normal;font-weight:normal;font-stretch:normal;font-size:86.50315094px;font-family:Lavi;-inkscape-font-specification:Lavi;text-align:center;text-anchor:middle;fill:#285953;fill-opacity:1">Episode 1 : Flyveeliksir</flowPara></flowRoot>    <path
       style="fill:#2a5953;fill-opacity:1;stroke:none"
       d="m 724.14468,497.84235 c -1.95685,-1.71801 -4.20471,-4.37472 -4.99539,-5.90361 l -1.43752,-2.77993 0,-4.06307 0,-4.06294 2.43532,-2.43532 2.43532,-2.43532 1.78129,-0.0319 c 0.97981,-0.0166 2.64217,-0.68269 3.69439,-1.47864 l 1.91295,-1.44721 0.74306,-5.21829 0.74306,-5.21843 0.072,-22.63675 0.072,-22.63674 -1.02715,-1.91919 -1.02702,-1.91904 -1.76924,0 c -0.97316,0 -4.13632,-0.70291 -7.02908,-1.56199 l -5.25969,-1.56198 -2.36153,-2.36154 -2.36167,-2.36153 0,-1.53332 0,-1.53333 5.70495,-0.0415 5.70494,-0.0415 4.46471,-2.19151 4.46472,-2.19138 0.2834,-34.72545 0.28355,-34.72558 -1.17765,-4.29207 -1.17779,-4.2922 -2.08228,-1.35058 -2.08228,-1.35057 -8.68132,-0.69474 -8.68133,-0.6946 0,-1.18845 0,-1.18831 4.38801,-4.45101 4.38815,-4.45087 12.55736,-5.67601 12.55722,-5.67586 1.91101,0.60654 c 1.05097,0.33353 3.24789,1.73145 4.882,3.10653 l 2.97113,2.49998 0,1.32911 c 0,0.73115 0.70166,2.03078 1.55907,2.88833 l 1.55908,1.55908 10.23584,0 10.23584,0 8.6013,2.49264 c 4.73068,1.37093 10.75461,3.58362 13.38639,4.91731 2.63178,1.33368 8.33147,5.09701 12.6659,8.36317 l 7.88081,5.93837 2.72358,3.93016 2.72357,3.93002 1.42022,4.7189 1.42021,4.71891 0,6.69901 0,6.69901 -1.85688,5.9662 -1.85688,5.9662 -3.6703,6.56291 -3.67015,6.56305 -5.96731,6.37892 -5.96716,6.37905 -6.61248,4.87314 c -3.63693,2.6801 -8.84498,5.97797 -11.5734,7.3284 -2.72842,1.35044 -10.09517,4.15528 -16.37052,6.23299 -6.2755,2.07771 -12.41448,4.14213 -13.64225,4.58738 l -2.23236,0.80979 0,21.39776 0,21.39776 2.39504,2.3949 2.3949,2.39504 2.81384,0.5963 c 1.54773,0.32798 3.5641,1.00016 4.48091,1.49373 l 1.66707,0.89743 4.32627,-0.0872 c 2.37953,-0.0471 6.60569,0.22665 9.39143,0.60987 l 5.06517,0.69654 3.15222,-1.62996 3.15221,-1.63011 2.92156,0.64172 c 1.60684,0.3529 4.9227,0.64171 7.36869,0.64171 2.44598,0 4.44727,0.20878 4.44727,0.46394 0,0.25517 -1.61225,1.13764 -3.58279,1.961 -3.61506,1.51048 -11.38954,6.38999 -16.61337,10.42704 l -2.83323,2.18957 -6.45562,1.79001 -6.45561,1.79015 -4.60123,2.92544 -4.60136,2.92557 -7.44124,2.10208 c -4.09256,1.15619 -9.71277,2.75625 -12.4891,3.55552 l -5.048,1.45316 -4.09491,0 -4.09492,0 -3.55773,-3.12369 z m 43.81824,-106.45771 8.78226,-4.41293 7.99767,-6.42059 7.9978,-6.42073 4.79104,-5.78511 4.7909,-5.7851 2.83697,-5.95291 2.83696,-5.9529 8.3e-4,-4.26604 6.9e-4,-4.2659 -1.45261,-2.809 c -0.79885,-1.54496 -2.83765,-3.97447 -4.53061,-5.39911 l -3.07815,-2.58997 -5.6389,-1.69351 -5.6389,-1.69351 -8.43337,-0.0263 -8.43336,-0.0263 -5.4819,1.23912 -5.48205,1.23912 -3.19928,1.94563 -3.19943,1.94563 0,29.73006 0,29.73006 1.73629,1.01123 c 0.95489,0.55615 2.24898,1.0248 2.8756,1.04142 0.62662,0.0166 5.09133,-1.9556 9.92155,-4.38276 z m 72.77632,108.0143 c -1.36414,-0.88206 -3.69923,-3.18309 -5.18908,-5.11349 l -2.70863,-3.50983 -0.61042,-3.2537 -0.61042,-3.25369 1.33479,-2.81288 1.33479,-2.81274 4.38399,-2.10387 4.384,-2.10374 1.32095,-1.80649 1.3208,-1.80635 0,-27.46793 0,-27.46793 -5.20874,-0.58191 c -2.86493,-0.32009 -6.95804,-0.93508 -9.09598,-1.36663 l -3.8871,-0.78473 -0.31345,-0.98853 c -0.17237,-0.54369 0.0346,-1.53665 0.45937,-2.2066 l 0.77283,-1.21808 7.66967,-1.46743 c 4.21828,-0.80702 8.10469,-1.73629 8.63647,-2.06497 l 0.96693,-0.59768 0,-40.17302 0,-40.17315 -1.44762,-2.79958 -1.44777,-2.79959 -8.22583,-1.16837 c -4.52424,-0.64254 -9.67677,-1.38989 -11.45031,-1.6607 l -3.22448,-0.49246 0,-0.77435 c 0,-0.42573 1.00458,-1.68908 2.23235,-2.8072 2.42951,-2.21242 14.9499,-10.21881 15.98038,-10.21881 0.34958,0 4.61258,-1.7907 9.47326,-3.97945 l 8.83777,-3.97931 2.81966,1.07202 c 1.55077,0.58951 3.60176,1.77976 4.55775,2.64493 l 1.73796,1.57292 0,2.70697 0,2.70696 2.23236,0.59824 c 1.2279,0.32909 6.70607,0.60447 12.17398,0.6118 l 9.9415,0.0139 7.11851,1.97263 c 3.91521,1.08503 9.65781,3.09573 12.76143,4.46831 l 5.64306,2.49555 6.56568,4.88547 c 3.61103,2.68702 8.2178,6.59198 10.23722,8.67786 l 3.67154,3.79241 2.20162,4.96078 2.20148,4.96077 0.44387,7.49316 0.44415,7.49329 -2.90412,8.42506 -2.90411,8.4252 -3.81968,5.75451 c -2.10069,3.16509 -6.05757,8.2034 -8.79305,11.19639 l -4.97324,5.44162 -3.16412,-0.59367 -3.16399,-0.59354 -1.03449,1.25934 c -0.56889,0.69266 -1.18887,2.37136 -1.37757,3.73052 l -0.34308,2.47104 -4.882,3.18973 -4.88214,3.18974 -12.31313,4.50888 -12.31313,4.50874 -2.15192,0.0152 c -1.18346,0.0138 -2.8216,0.43833 -3.64011,0.95558 l -1.48819,0.94021 0,21.28714 0,21.28714 2.36513,2.51853 2.36513,2.51853 5.15225,1.06966 5.15212,1.06952 9.84555,-0.0277 c 5.41489,-0.0152 12.43856,-0.0789 15.60822,-0.14191 l 5.76296,-0.11353 0.67784,0.67771 0.67771,0.67771 -1.97595,1.1591 c -1.08682,0.63756 -4.81679,2.39254 -8.28868,3.89998 l -6.3126,2.74088 -2.94094,2.47464 c -1.6175,1.3611 -3.51357,2.47465 -4.21343,2.47465 l -1.27235,0 -4.35645,3.82715 c -2.396,2.10499 -6.26829,4.80032 -8.60518,5.9896 l -4.24887,2.1623 -9.64133,2.62085 -9.64134,2.62084 -4.96078,0.33727 -4.96078,0.33726 -2.48045,-1.60366 z m 40.4596,-107.03588 7.16642,-3.43437 7.19189,-5.33903 7.19189,-5.33902 6.94517,-7.36232 6.94503,-7.36232 2.78034,-5.73526 2.78034,-5.73527 0.50257,-4.6692 0.50244,-4.6692 -1.79445,-3.44725 -1.79471,-3.44726 -3.96866,-2.76026 -3.96851,-2.7604 -7.44123,-1.57431 -7.44124,-1.5743 -6.44897,0.57553 c -3.54707,0.3165 -9.12783,1.25878 -12.40202,2.09405 l -5.9529,1.51879 -2.27542,2.5685 -2.27541,2.56865 0.29102,28.02049 0.29116,28.02035 1.36165,1.63896 1.36165,1.63883 1.64297,0 c 0.90339,0 4.86747,-1.54538 8.80898,-3.43438 z m 342.01706,76.92522 c -2.7285,-0.9726 -7.2333,-2.92031 -10.0108,-4.32861 l -5.0501,-2.56021 -3.1292,-3.56382 c -1.7211,-1.96017 -4.1217,-5.44895 -5.335,-7.75303 l -2.2058,-4.18906 -0.032,-7.4411 -0.033,-7.44124 3.1323,-6.61151 3.1324,-6.61137 7.6989,-8.0583 7.6987,-8.05831 -2.7871,-5.83135 -2.7871,-5.83134 0.5953,-2.97611 0.5952,-2.97611 -1.4201,-1.17848 -1.4199,-1.17848 1.54,-2.97791 1.54,-2.9779 -2.2019,-2.34381 -2.2019,-2.34381 0.6291,-4.59001 0.6291,-4.58987 1.9762,-4.46749 1.9761,-4.46748 4.2194,-5.0397 4.2194,-5.03955 4.3556,-2.7622 4.3555,-2.76221 5.3733,-1.20243 5.3734,-1.20257 5.1655,1.6319 5.1656,1.6319 5.6639,3.54735 5.664,3.54735 3.6143,5.94972 3.6144,5.94973 0.5076,3.78492 0.5077,3.78493 -2.1903,6.93991 -2.1903,6.93992 -3.8119,4.85389 c -2.0965,2.66972 -5.4509,7.30957 -7.4541,10.31088 -2.0032,3.0013 -4.9791,6.64335 -6.6129,8.09361 l -2.9706,2.63663 0.8448,1.44098 c 0.4647,0.79262 4.9101,5.757 9.8788,11.03192 l 9.0341,9.5908 1.1849,-1.42769 1.1849,-1.42769 0.1987,-2.81537 0.1987,-2.81536 -3.7156,-0.30764 -3.7155,-0.30763 -2.4853,-3.25855 -2.4856,-3.25854 0,-2.06788 0,-2.06774 1.4213,-1.42132 1.4213,-1.42132 8.2522,-2.56547 c 4.5387,-1.41108 10.4846,-3.07274 13.2131,-3.69272 l 4.9607,-1.12725 11.9059,-0.3914 c 6.5483,-0.21529 14.2499,-0.65694 17.1147,-0.98119 l 5.2088,-0.5898 -4e-4,1.31153 -6e-4,1.31167 -7.0559,6.44897 c -3.8808,3.54694 -8.4569,7.84302 -10.1691,9.54692 l -3.1131,3.0978 -4.8396,0.70263 c -2.6618,0.38641 -5.4523,0.93758 -6.201,1.22486 l -1.3614,0.52251 0,4.81735 0,4.81748 -2.1169,5.65773 -2.1169,5.65773 2.8508,2.06871 c 1.5678,1.13778 4.6411,3.4467 6.8296,5.1308 l 3.9789,3.06222 -0.1843,1.40249 c -0.101,0.77144 -0.8016,3.07344 -1.5561,5.11543 l -1.3718,3.71293 -2.3374,2.48808 -2.3375,2.48807 -3.0515,0 -3.0516,0 -3.2486,-1.98052 c -1.7867,-1.0889 -3.8472,-1.9801 -4.5789,-1.9801 -0.7317,0 -2.4657,-0.893 -3.8532,-1.9844 -1.3874,-1.09125 -3.1219,-1.97276 -3.8543,-1.95892 -0.7325,0.0138 -3.7874,1.59314 -6.7887,3.50914 l -5.4569,3.4838 -9.386,2.93984 -9.386,2.93997 -5.0001,-0.072 -5.0004,-0.072 -4.9608,-1.76827 z m 24.0746,-24.01016 4.3618,-2.11149 0.4857,-1.26598 0.4858,-1.26598 -10.2391,-10.01058 -10.2393,-10.01072 -1.1979,0 -1.198,0 -2.7707,3.65216 c -1.5239,2.00862 -4.2217,4.9929 -5.9952,6.63158 l -3.2245,2.97943 0,1.34172 0,1.34185 4.2166,4.30217 c 2.3192,2.36624 5.1096,4.79201 6.201,5.39066 l 1.9844,1.08835 6.3836,0.0305 6.3839,0.0305 4.3619,-2.11149 z m -5.3076,-60.97724 7.66,-6.53592 1.9131,-3.13768 1.9133,-3.13767 0,-3.14834 0,-3.14848 -2.4602,-2.92391 -2.4604,-2.92391 -2.98,-1.23428 -2.98,-1.23441 -3.4292,0.64337 -3.4293,0.64338 -2.6906,3.1907 c -1.4799,1.75499 -3.2926,4.62753 -4.0285,6.38348 l -1.3383,3.19265 0,3.8428 0,3.8428 1.4049,4.66851 c 1.3956,4.63681 3.1398,7.55269 4.5181,7.55269 0.3955,0 4.1662,-2.94108 8.3792,-6.53578 z m 175.9745,58.13211 c -3.1208,-0.40026 -8.8382,-1.74516 -12.7054,-2.98857 l -7.0311,-2.26074 -5.8913,-3.57836 c -3.2403,-1.9682 -8.1746,-5.36436 -10.9652,-7.54701 l -5.0736,-3.96865 -5.7369,-6.75135 -5.737,-6.7512 -3.0014,-5.65067 c -1.6507,-3.10791 -3.914,-8.55285 -5.0293,-12.09978 -1.1155,-3.54694 -2.9754,-11.57381 -4.1334,-17.83754 l -2.1056,-11.38843 0.441,-4.48603 c 0.637,-6.48082 3.4412,-20.87443 6.2043,-31.84792 2.7513,-10.92503 8.6355,-28.26083 11.5805,-34.11668 4.387,-8.7237 15.4243,-26.24321 22.1988,-35.23647 3.9303,-5.21732 10.2076,-12.61758 13.9499,-16.44501 3.7423,-3.82743 9.9278,-9.32055 13.7458,-12.2068 l 6.9416,-5.24806 8.2269,-4.07664 8.2269,-4.07664 10.6276,-0.0665 10.6275,-0.0665 9.4255,3.80334 c 5.1841,2.09183 10.3183,3.87769 11.4097,3.96865 l 1.9843,0.16517 0.4962,-5.5017 0.496,-5.5017 1.8407,-2.8079 1.8406,-2.80789 5.4586,0.64158 5.4586,0.64143 5.3623,2.53681 5.3623,2.53681 3.461,3.26408 3.4611,3.26422 0,4.96756 c 0,2.7323 -0.2793,6.36369 -0.6204,8.0698 l -0.6204,3.1021 -3.9136,4.44588 -3.9135,4.44589 0.624,1.00943 0.6235,1.0093 1.8159,0 1.8159,0 2.2917,1.85563 2.2916,1.85564 -1.1782,13.77086 c -1.3561,15.84941 -2.3737,23.42106 -4.4935,33.4322 -0.83,3.91978 -1.9415,9.35917 -2.4701,12.08773 -0.5288,2.72842 -1.696,8.24286 -2.5943,12.25429 l -1.6329,7.29351 -2.463,4.86041 -2.4628,4.8604 -0.8598,0 -0.8598,0 -0.5982,-2.23235 c -0.3291,-1.22777 -0.6044,-4.59071 -0.6118,-7.47309 l -0.014,-5.24072 -1.3407,-3.20856 -1.3406,-3.20871 -0.7316,-12.84242 -0.7316,-12.84228 -4.2513,-12.44162 -4.2514,-12.44161 -4.2724,-8.33119 -4.2727,-8.33119 -3.5646,-3.74726 -3.5648,-3.74728 -2.7488,-0.68989 -2.7489,-0.69003 -4.3455,1.65959 c -2.3901,0.9128 -7.1702,3.52382 -10.6225,5.80228 l -6.2772,4.14282 -9.247,9.37302 -9.2471,9.37302 -7.3091,10.9872 -7.3093,10.98706 -6.9352,14.38627 c -7.4479,15.4497 -12.4366,28.22235 -16.5003,42.24492 l -2.5477,8.79181 -0.6145,7.47086 -0.6143,7.47087 -2.3224,2.79432 -2.3223,2.79432 1.4599,2.82326 c 0.8031,1.55285 2.732,3.86717 4.2866,5.14298 l 2.8266,2.31972 2.6577,4.65453 2.6575,4.65452 4.7052,4.8179 4.7051,4.8179 4.8071,2.31958 4.8072,2.31958 11.0674,-0.51987 11.0672,-0.51988 9.6078,-3.11234 c 5.2844,-1.71193 12.1749,-4.24777 15.3127,-5.63545 l 5.7046,-2.52282 1.7631,0.46104 1.7628,0.46089 2.8495,-2.72302 2.8494,-2.72302 6.9962,-2.67346 6.9963,-2.67345 1.8491,-2.0431 c 1.0169,-1.12379 3.015,-2.64604 4.44,-3.38301 l 2.591,-1.33991 1.177,-2.77522 1.1771,-2.77522 5.6156,-3.41125 c 3.0887,-1.87613 7.293,-4.92658 9.3432,-6.77876 l 3.7273,-3.3675 3.9376,-6.23506 3.9378,-6.23493 1.4839,-0.56944 1.484,-0.56945 1.2141,1.46314 1.2143,1.46313 -1.1064,2.19844 c -0.6087,1.20921 -2.2032,6.74691 -3.5435,12.30607 l -2.4369,10.10735 -4.7885,8.74363 -4.7888,8.74349 -6.6313,6.63616 -6.6314,6.63615 -2.8465,1.47199 -2.8465,1.472 -1.9127,-0.17085 -1.9128,-0.17098 -2.7602,5.45698 -2.7602,5.45684 -10.656,6.6392 -10.6558,6.6392 -8.9294,2.96531 -8.9294,2.9653 -7.7611,1.06122 c -8.4994,1.162 -13.1139,1.17765 -21.7249,0.0734 z M 482.21063,425.175 l -3.83245,-1.44015 -2.95548,-2.80692 -2.95547,-2.80692 -1.94824,-3.78839 -1.94823,-3.78853 -0.55701,-4.70312 -0.55702,-4.70299 2.36661,-2.7514 2.3666,-2.75127 6.21704,-0.73309 6.21703,-0.73309 1.68888,-1.6888 1.68889,-1.68895 0.50887,-9.14859 0.5089,-9.14873 2.97647,-0.50687 2.97646,-0.507 0.30796,-2.66155 0.30794,-2.66169 -2.78833,-1.77547 c -1.53359,-0.97648 -3.11636,-2.23222 -3.51728,-2.79045 l -0.72891,-1.01511 -0.0152,-28.55573 -0.0152,-28.55559 1.24021,-0.38212 c 0.68209,-0.21016 2.41873,-0.63866 3.85919,-0.95239 l 2.61899,-0.57041 0.6301,-1.64201 0.63012,-1.64201 -1.2648,-1.69337 c -0.69563,-0.93135 -2.7677,-3.65645 -4.60461,-6.05578 l -3.33983,-4.3624 0.80206,-15.87446 c 0.44112,-8.73103 0.82787,-20.19256 0.85942,-25.46997 l 0.0573,-9.59551 -2.39577,-2.5483 -2.39577,-2.5483 -5.54149,-2.06622 -5.54148,-2.06635 -2.15216,-2.01015 -2.15217,-2.01014 -2.11288,-4.91149 -2.11289,-4.9115 -0.16252,-5.86416 -0.16255,-5.86416 2.3237,-2.47353 2.32369,-2.4734 8.55292,-3.12646 8.5529,-3.12633 15.37844,-2.8695 15.37844,-2.86936 17.85882,0.0208 17.85883,0.0208 9.54056,0.92844 9.54054,0.92844 8.15303,2.97555 c 4.48418,1.63648 10.91355,4.51927 14.2875,6.40606 3.37395,1.88678 8.15625,5.21026 10.62732,7.3853 l 4.49288,3.9548 6.29405,8.77631 6.29408,8.7763 4.75483,9.92156 4.75492,9.92156 1.66638,6.44897 1.66651,6.44911 0.0886,7.44109 0.0886,7.44124 -1.28523,5.45684 -1.28508,5.45685 -3.8788,7.9373 -3.87874,7.93716 -5.70064,6.62383 c -3.13534,3.64302 -7.933,8.60587 -10.66142,11.0286 -2.72845,2.42286 -8.45774,6.91333 -12.73178,9.97887 l -7.771,5.5737 -12.07215,5.8409 c -15.21934,7.36356 -32.9791,14.47377 -41.34079,16.55092 -3.54696,0.8811 -8.10319,2.02663 -10.12495,2.54553 l -3.67596,0.94354 -1.53287,1.53277 -1.53288,1.53291 0,12.87233 0,12.87233 2.27576,2.27569 2.27578,2.27583 4.04439,0.64669 4.04441,0.6467 1.24249,1.49719 1.2425,1.49706 5.08733,0.0138 5.08734,0.0139 4.28258,1.49165 4.28256,1.49165 0.919,-0.56806 c 0.86539,-0.53483 21.75082,-1.64533 28.21784,-1.50051 1.63706,0.036 4.53912,0.0734 6.44901,0.0817 1.90991,0.0138 4.08092,0.23218 4.82449,0.4987 l 1.35195,0.48457 -1.22539,1.47643 -1.22539,1.47656 -1.54956,0 c -0.8523,0 -3.58806,0.94851 -6.07952,2.10775 -2.49144,1.15938 -7.20873,3.35283 -10.48286,4.87453 -3.27411,1.52183 -8.63176,3.52298 -11.90587,4.44713 -3.27413,0.92428 -7.41914,2.30241 -9.21113,3.06277 l -3.25818,1.38228 -3.71421,0 -3.71422,0 -2.16984,1.5199 c -3.24385,2.27209 -9.58669,4.32557 -20.09915,6.50739 l -9.42549,1.95615 -11.90588,0.49565 -11.90588,0.49565 -3.83245,-1.44029 z m 74.14143,-110.4265 8.79525,-3.47549 4.29374,0.64379 4.29374,0.64393 1.59061,-2.42757 1.5906,-2.42758 -0.59753,-2.38077 -0.59757,-2.38078 1.95798,-1.77201 1.95799,-1.77187 2.13027,1.13999 2.13025,1.14013 1.51034,-1.25352 1.51035,-1.25338 -0.552,-2.76013 -0.55204,-2.76013 4.956,-5.6634 c 6.19122,-7.07518 11.18418,-14.55366 14.63831,-21.92581 l 2.66876,-5.69581 6.5e-4,-8.92943 6.4e-4,-8.92942 -2.63954,-5.63074 -2.63954,-5.6306 -4.06002,-4.40462 -4.06003,-4.40449 -5.78509,-2.5962 -5.78511,-2.59621 -7.61342,-1.13237 -7.61343,-1.13238 -9.66662,1.17308 c -5.31664,0.64504 -10.41136,1.38796 -11.32161,1.65087 l -1.65499,0.47793 -3.43677,-3.01751 -3.43679,-3.01764 -2.06645,0 -2.06648,0 -1.02706,1.91919 c -0.56489,1.0554 -1.02706,2.98981 -1.02706,4.29843 l 0,2.37939 -3.64282,2.39864 c -2.00354,1.31914 -4.51763,3.58791 -5.58686,5.04163 l -1.94407,2.64314 -0.81649,15.71178 -0.81652,15.71179 -0.0455,28.3349 -0.0455,28.33491 1.24021,1.56364 c 0.68211,0.86005 1.9099,1.76482 2.72843,2.01043 l 1.48823,0.44663 11.40982,-2.40943 11.40981,-2.40929 8.79523,-3.47564 z m 93.397,108.13724 c -1.63716,-0.21709 -5.35467,-1.0655 -8.26127,-1.8854 l -5.28461,-1.49069 -4.1838,-4.1838 -4.18382,-4.18366 -4.35806,-11.393 -4.35807,-11.39285 -0.41408,-13.35524 -0.41406,-13.35524 1.17837,-7.30473 1.1784,-7.30486 2.38929,-7.02478 c 1.31412,-3.86357 3.9909,-9.93858 5.94846,-13.49978 4.26244,-7.75482 11.05075,-16.77618 17.51523,-23.27721 l 4.7304,-4.75712 8.22334,-3.9458 8.22333,-3.94581 5.05853,-0.59907 5.05866,-0.59921 5.14713,2.80152 5.14713,2.80139 5.26841,5.06212 5.26842,5.06199 2.47422,4.91107 2.47409,4.91108 1.11563,5.25761 1.11562,5.25775 0,12.6011 0,12.60125 -1.03587,3.72996 -1.03588,3.72996 -2.18307,1.41662 -2.18321,1.41661 -6.94503,1.13556 c -6.96331,1.13861 -41.16972,9.63428 -48.6158,12.07458 l -3.96865,1.3006 -1.72923,3.53502 -1.72937,3.53503 1.6823,4.40228 c 0.92525,2.4212 2.72385,6.0926 3.99689,8.15868 l 2.31446,3.75654 3.18932,2.01153 3.18946,2.0114 6.04192,-0.4321 6.04193,-0.43224 6.35995,-2.80485 c 3.49806,-1.54274 11.71517,-6.0087 18.26036,-9.92446 l 11.90028,-7.11948 1.35182,0.51877 1.35182,0.51863 -0.53054,3.26879 c -0.29172,1.7979 -1.43046,5.30358 -2.53058,7.79054 l -2.00018,4.52162 -2.46523,0 -2.46536,0 -1.62554,1.62553 -1.62567,1.62567 0.15852,4.07928 c 0.0872,2.24357 0.11769,4.56342 0.0665,5.15502 l -0.0914,1.07561 -8.70943,4.13894 -8.70957,4.13895 -6.91693,1.46521 c -6.85061,1.45122 -9.08574,1.57264 -14.85423,0.80757 z m 9.4835,-73.21146 16.31252,-3.66863 4.13188,-1.79901 4.13175,-1.79901 1.07699,-2.01236 1.077,-2.0125 0,-10.46275 0,-10.46276 -1.5995,-3.99786 -1.59965,-3.99772 -2.34311,-0.588 -2.34312,-0.58813 -4.4787,2.16812 -4.4787,2.16811 -7.41313,6.92302 c -4.07733,3.80778 -8.93552,9.01652 -10.79628,11.5752 -1.86062,2.55854 -5.27506,8.30045 -7.58771,12.75962 l -4.20457,8.1076 0.70304,1.1375 0.70291,1.1375 1.19787,-0.45979 c 0.65888,-0.25281 8.53858,-2.11052 17.51051,-4.12815 z m 314.33899,71.54162 c -1.97415,-0.7054 -5.21497,-2.28732 -7.20186,-3.51522 l -3.61256,-2.23278 -2.48253,-4.23613 c -1.36553,-2.32983 -4.15196,-8.8764 -6.19229,-14.54798 l -3.70961,-10.31185 0.0928,-15.87446 0.0928,-15.87446 2.14971,-7.9373 2.1497,-7.93731 4.02265,-8.43336 4.02278,-8.43322 5.37405,-7.03157 c 2.95562,-3.86744 7.84578,-9.36928 10.86689,-12.2266 l 5.49284,-5.19489 7.47252,-3.45251 7.47239,-3.45238 4.82967,-0.57207 4.8297,-0.57207 4.2991,2.09917 4.2991,2.09917 6.1599,5.51305 6.1596,5.51291 3.2659,6.62826 3.2656,6.62841 0.3216,17.38895 0.3215,17.38896 -1.0213,2.6765 -1.0214,2.67665 -2.2766,1.47711 -2.2767,1.47698 -8.9597,1.54412 c -4.928,0.84911 -17.4292,3.79892 -27.78046,6.55489 l -18.82067,5.0109 -4.46457,2.18943 -4.46486,2.18958 0.16684,6.12223 0.16669,6.12223 2.02468,4.57686 2.02455,4.577 3.48172,1.45468 3.48159,1.45483 7.22498,-0.0166 7.22511,-0.0166 8.3675,-3.39325 8.3676,-3.39312 1.8845,1.0086 1.8848,1.00861 1.8124,-1.64035 c 0.997,-0.90228 2.06,-2.61213 2.3625,-3.79974 l 0.5499,-2.15926 6.2419,-4.21675 6.2418,-4.21661 1.8258,0 1.8256,0 2.838,-2.02081 c 1.5608,-1.11147 4.9038,-2.93457 7.4287,-4.05158 l 4.5908,-2.03064 0.5186,0.51863 0.5188,0.51877 -1.663,4.35451 -1.663,4.35451 -3.8686,5.11127 c -2.1277,2.81122 -4.7597,6.85795 -5.8488,8.9927 l -1.9801,3.88157 -5.0206,4.39189 -5.0205,4.39189 -9.1523,4.60621 -9.1521,4.60621 -4.7217,1.2387 -4.7215,1.23871 -1.53568,-2.19248 -1.53555,-2.19235 -2.67221,0 -2.67221,0 -3.96865,2.44432 c -2.18279,1.34435 -4.63833,2.43865 -5.45684,2.43173 -0.81851,-0.0139 -3.10348,-0.5898 -5.07763,-1.2952 z m 15.99131,-71.11769 c 7.36676,-1.6319 16.18914,-3.88641 19.60524,-5.01034 l 6.2111,-2.04323 1.0956,-2.04684 1.0954,-2.04683 0.1343,-11.51109 0.1343,-11.5111 -2.0647,-3.47244 -2.0647,-3.47259 -3.4744,0.0983 -3.4744,0.0983 -6.0992,4.14199 -6.09941,4.14199 -2.35723,-0.59174 -2.35724,-0.59159 -1.63177,1.63176 -1.63176,1.63177 0.60779,2.42148 0.60779,2.42148 -3.93417,5.196 c -2.16355,2.85774 -5.78525,8.59951 -8.04792,12.75936 l -4.11403,7.56335 0,2.22585 0,2.22598 2.23236,-0.64655 c 1.22777,-0.35568 8.25975,-1.98177 15.6265,-3.61353 z m 616.39734,71.78987 -2.2124,-0.4274 -2.0042,-2.54774 -2.004,-2.54775 0,-1.72909 0,-1.72896 -1.4011,-1.16283 -1.4013,-1.16298 -6.0128,2.53072 c -3.3069,1.39197 -9.4851,3.67721 -13.7291,5.07832 l -7.7165,2.54761 -9.0089,0.56349 -9.009,0.56348 -5.2644,-1.74847 -5.2644,-1.74862 -3.8278,-3.45819 -3.828,-3.45832 -1.4939,-5.03056 -1.4939,-5.03055 0,-4.73553 0,-4.73566 2.4038,-6.6223 2.4039,-6.62245 3.7133,-5.39164 3.7134,-5.39149 5.5406,-4.00022 5.5407,-4.00007 11.906,-5.80006 11.9058,-5.8002 8.74,-2.17919 8.7402,-2.17919 2.0837,-1.68715 2.0833,-1.68714 -1.0952,-9.64258 -1.0954,-9.64244 -1.791,-3.6642 -1.791,-3.6642 -7.9373,-0.27939 -7.9373,-0.27939 -7.9372,3.8583 -7.9373,3.85831 -7.4412,5.52108 c -4.0926,3.03661 -8.0112,6.11406 -8.7082,6.8387 -0.6968,0.72478 -2.3399,2.65712 -3.6516,4.29415 l -2.3846,2.97652 -1.1932,-1.17391 -1.1931,-1.17378 2.6773,-6.76352 c 1.4724,-3.71986 4.0991,-9.15372 5.8369,-12.07541 l 3.1597,-5.31203 5.8277,-4.88781 c 3.2052,-2.68827 7.6846,-5.97589 9.9541,-7.30584 2.2695,-1.33008 6.1208,-3.12798 8.5585,-3.99551 l 4.4322,-1.57721 7.1403,-0.0402 7.1402,-0.0401 5.307,2.42965 5.3071,2.42965 3.6351,3.19181 3.6353,3.19181 2.4068,5.14118 2.4066,5.14117 1.1283,5.36159 1.128,5.36159 0.9552,13.98547 c 0.5254,7.6921 0.9618,17.89222 0.9698,22.66692 l 0.015,8.68133 0.9337,0 c 0.5133,0 1.2093,-0.44636 1.5466,-0.99213 l 0.6132,-0.99213 2.0497,0 2.0499,0 -0.6439,3.22449 c -0.3542,1.77354 -1.9725,6.06505 -3.5967,9.53694 l -2.9525,6.31233 0,1.87294 0,1.87294 1.0468,0 c 0.5758,0 3.5896,-1.30405 6.6972,-2.89774 8.3277,-4.27103 14.5537,-7.02382 15.8848,-7.02382 l 1.1751,0 0,0.92194 c 0,0.50714 -1.8168,3.65714 -4.0371,7 l -4.0372,6.07792 -0.7646,4.83742 -0.7648,4.83742 -1.6074,2.45333 -1.6075,2.45332 -5.2487,2.97943 -5.2484,2.97929 -5.3889,1.58095 c -2.9638,0.86946 -5.6426,1.52018 -5.9529,1.44583 -0.3104,-0.0748 -1.5598,-0.32743 -2.7767,-0.56252 z m -35.4831,-22.58815 7.6222,-1.45829 5.6112,-2.55924 c 3.0863,-1.40761 7.2877,-3.71542 9.3363,-5.12858 l 3.725,-2.56948 1.9799,-3.20371 1.98,-3.20372 0,-4.14462 0,-4.14462 -2.4353,-2.43532 -2.4353,-2.43533 -1.9084,0 -1.9084,0 -1.4913,-2.23236 -1.4912,-2.23235 -1.8984,1.70569 -1.8987,1.70556 -6.7155,2.07425 -6.7155,2.07425 -3.6578,3.2332 c -2.0118,1.77825 -5.7621,4.71753 -8.3341,6.53163 l -4.6761,3.29855 -2.4178,3.57864 c -1.3296,1.96834 -2.7227,4.6051 -3.0953,5.85959 l -0.6777,2.28096 1.5934,2.43186 1.5934,2.43172 5.3468,0 5.3466,0 7.622,-1.45828 z m -502.8623,17.93043 -3.6403,-3.64038 -2.4803,-4.8946 -2.4803,-4.89474 0,-2.45471 0,-2.45484 1.2352,-0.76355 1.2353,-0.76341 8.4383,-0.0388 8.4383,-0.0388 0.5974,-19.84326 0.5972,-19.84311 1.2181,-5.19434 1.2181,-5.19448 -0.3272,-12.83564 -0.3273,-12.8355 -2.1972,-2.33591 -2.1974,-2.33592 0.5736,-2.19359 0.5737,-2.19359 -1.6678,-0.63992 -1.6677,-0.64005 -2.1654,1.13958 -2.1653,1.13944 -4.9609,-1.89731 -4.9608,-1.89717 -0.3378,-1.67939 -0.3378,-1.67926 2.2026,-2.3445 2.2025,-2.34464 8.5529,-3.14252 8.5528,-3.14252 5.5192,-0.11769 5.519,-0.11768 2.7492,1.80123 2.749,1.80136 1.4054,3.36349 1.4054,3.36349 0,4.99262 0,4.99262 1.2401,-5.5e-4 1.2402,-5.6e-4 5.6742,-6.34499 5.674,-6.34499 4.3128,-2.08782 4.3127,-2.08768 4.5663,0 c 2.5115,0 5.3068,0.2841 6.2119,0.63133 l 1.6453,0.63147 0.8916,2.34505 0.8916,2.34506 2.8154,0 2.8154,0 2.5431,2.72842 2.5433,2.72842 4.0915,8.46825 4.0913,8.46812 -0.057,1.9495 c -0.032,1.07216 -0.8532,5.00287 -1.8261,8.73463 l -1.7688,6.78526 -4.375,1.95463 -4.3749,1.95463 -2.6361,2.51909 -2.6359,2.51894 -5.9229,-2.65795 -5.9227,-2.65795 -1.0774,-2.36457 -1.0771,-2.36444 0.8219,-0.50811 0.8223,-0.50811 1.7745,1.96086 1.7746,1.96099 2.6332,0 2.633,0 1.625,-1.24022 1.625,-1.24023 1.5267,-4.46472 c 0.8397,-2.45554 1.5332,-5.2662 1.5411,-6.246 l 0.015,-1.78142 -2.4805,-2.48032 c -1.3641,-1.36428 -2.4803,-2.8288 -2.4803,-3.25453 0,-0.42574 -1.0334,-1.74488 -2.2963,-2.93139 l -2.2963,-2.15732 -5.4202,0 -5.4203,0 -2.2268,1.55977 -2.2268,1.55977 -2.8166,5.63337 c -1.5491,3.09835 -3.5364,7.86571 -4.4163,10.59414 -0.88,2.72842 -2.7407,11.64815 -4.1353,19.82165 l -2.5355,14.86101 -0.1,7.68934 -0.1,7.68934 1.7001,2.5944 1.6999,2.59454 4.2638,1.8861 4.264,1.88623 0.5398,2.06387 0.5397,2.064 2.0349,-1.08918 2.035,-1.08904 1.946,1.2153 1.9459,1.21531 2.4651,-1.31942 2.4652,-1.31928 2.8049,0.70013 c 1.5426,0.38503 3.4746,1.27512 4.2931,1.97775 0.8186,0.70277 2.7251,1.57168 4.237,1.93109 l 2.7488,0.65335 2.0705,-1.10815 2.0705,-1.10801 0.9493,0.94935 0.9495,0.94948 -1.7,1.69988 -1.6999,1.69988 -2.0111,-0.52583 -2.0114,-0.52597 -2.5535,1.37425 c -3.8804,2.08823 -11.9868,4.48438 -15.1719,4.48438 l -2.8391,0 -4.1773,2.16202 -4.1771,2.16216 -10.9138,0.73476 c -6.0025,0.40413 -15.1913,1.05443 -20.4195,1.44513 l -9.5058,0.71024 -3.6403,-3.64038 z m 575.6838,0.75081 c -1.417,-1.56004 -3.3144,-3.94054 -4.2166,-5.28973 l -1.6405,-2.45318 0,-2.7557 0,-2.7557 1.9453,-1.94521 1.9452,-1.94521 5.4946,-1.59729 5.4945,-1.59743 0.5657,-2.25354 0.5656,-2.25368 -0.3161,-35.62634 -0.3164,-35.62633 -2.0379,-3.46927 -2.0379,-3.46912 -3.419,-2.30407 -3.4188,-2.30394 0,-1.17197 0,-1.17184 9.4255,-3.19929 c 5.1839,-1.75955 10.3183,-3.21064 11.4097,-3.22448 l 1.9844,-0.0249 2.5709,3.22448 2.5708,3.22449 1.2696,3.96865 c 0.6982,2.18279 1.6473,4.37804 2.109,4.87826 l 0.8394,0.90975 7.226,-7.50547 7.2261,-7.50562 4.2166,-1.13155 4.2167,-1.13168 3.7423,1.00777 3.7423,1.00764 4.2098,3.096 4.2099,3.09587 2.3681,4.11997 c 1.3027,2.26586 2.6623,5.53133 3.0211,7.25668 l 0.6531,3.13671 -1.1185,6.28879 c -0.6153,3.45874 -2.2451,10.01598 -3.622,14.57152 l -2.5033,8.28301 -5.8683,6.01562 -5.8681,6.01562 -0.6096,-0.60945 -0.6093,-0.60945 1.6974,-6.92662 1.6974,-6.92662 -0.5643,-10.16302 -0.5646,-10.16301 -1.0014,-1.00141 -1.0016,-1.00154 -5.5094,1.73671 -5.5096,1.73671 -3.0553,4.15362 c -1.6804,2.28441 -3.672,5.59072 -4.4257,7.34737 l -1.3703,3.19389 -2.4799,16.33868 -2.4798,16.33882 0,6.06464 0,6.06463 1.4514,2.80706 c 0.7984,1.54371 2.0263,3.02152 2.7285,3.28388 0.7024,0.26236 6.6345,0.15783 13.1827,-0.23204 l 11.906,-0.70914 0.8967,0.80259 0.8968,0.80273 -2.7201,3.56618 c -1.4961,1.96155 -4.1667,4.51456 -5.9347,5.67352 l -3.2146,2.10733 -2.145,3.27198 -2.1449,3.27211 -2.5948,1.70016 -2.5947,1.70016 -9.5695,0.71799 c -5.2631,0.395 -13.8108,1.03131 -18.9949,1.41426 l -9.4255,0.69613 -2.5762,-2.83669 z m 84.7467,1.00307 c -1.1897,-1.02037 -3.3105,-3.59193 -4.7128,-5.7145 l -2.5497,-3.859 0,-1.92209 0,-1.92223 2.7796,-2.77965 2.7797,-2.77978 4.1083,-0.69405 4.1084,-0.69405 0.9576,-1.16269 0.9577,-1.1627 0.2114,-34.72545 0.2115,-34.72544 -0.9907,-4.74854 -0.9906,-4.74853 -1.747,-1.9304 -1.747,-1.93054 -5.0716,-1.88914 -5.0712,-1.88928 -0.2707,-1.35334 -0.2705,-1.35349 12.5795,-2.24481 12.5797,-2.24482 2.5733,1.63661 c 1.4152,0.9002 3.5619,2.80318 4.7702,4.22921 l 2.1968,2.59246 0.642,3.22449 0.642,3.22462 1.1297,-0.0138 1.1298,-0.0139 4.6621,-5.84713 4.6624,-5.84713 5.4543,-2.66861 5.4544,-2.66847 3.2776,0.70595 c 1.8026,0.38835 4.617,1.373 6.254,2.18819 3.8198,1.90188 8.2478,6.01867 9.9254,9.22765 l 1.315,2.51549 -1.4162,12.86291 -1.416,12.86305 -2.9385,4.46471 c -1.616,2.45568 -3.7021,5.9158 -4.6358,7.6892 l -1.6974,3.22463 -1.6063,0 -1.6063,0 -0.095,-8.18541 -0.097,-8.18526 -1.687,-4.19765 -1.6869,-4.1975 -3.2415,-2.00336 -3.2417,-2.00336 -2.489,0 -2.4892,0 -1.9844,4.71267 c -1.0915,2.59205 -2.6834,6.94503 -3.5377,9.67346 -1.6845,5.38083 -5.141,26.4675 -6.201,37.83045 l -0.6599,7.07365 1.1592,3.51274 c 0.6377,1.93206 1.6947,3.9501 2.3489,4.48465 l 1.1894,0.97178 5.4569,-0.97649 c 3.0013,-0.5369 8.1357,-1.09679 11.4097,-1.24397 3.2742,-0.14717 6.6892,-0.58633 7.589,-0.97592 l 1.6358,-0.70817 0.7023,1.13653 0.7025,1.13639 -6.5222,6.27051 -6.5222,6.27037 -1.5499,3.87381 -1.55,3.87368 -3.1757,1.87599 -3.1759,1.87598 -9.4453,0.70083 c -5.1948,0.38559 -13.4634,1.02301 -18.3746,1.41648 l -8.9294,0.71564 -2.163,-1.85549 z m 112.7884,0.0845 -5.4568,-1.49857 -5.2723,-3.60952 -5.2721,-3.60951 -3.8898,-4.5482 -3.8896,-4.5482 -2.8912,-5.95304 -2.8911,-5.95291 -1.0931,-5.25761 -1.0929,-5.25775 0.019,-9.12852 0.019,-9.12866 0.9647,-6.67063 0.9647,-6.67063 2.1306,-6.22745 c 2.8043,-8.19648 7.3526,-17.23237 11.0114,-21.8754 l 2.9489,-3.74215 6.2227,-4.44035 c 3.4226,-2.44225 8.6625,-5.55749 11.6446,-6.9226 l 5.4218,-2.48226 7.354,-0.59935 7.3541,-0.59949 6.9229,1.62872 6.9231,1.62886 4.1451,2.42909 4.1449,2.4291 3.0676,3.87312 3.0675,3.87312 3.444,7.30182 c 1.8941,4.016 4.1548,9.98067 5.0237,13.25472 l 1.5799,5.9529 0.5545,9.42549 0.5546,9.4255 -1.6052,8.43336 c -0.8829,4.63833 -2.0632,10.0697 -2.6226,12.06974 l -1.0174,3.63637 -3.4492,2.03507 -3.449,2.03506 0,1.53513 c 0,0.8444 0.5508,2.41705 1.2238,3.49488 l 1.2238,1.95961 -1.968,3.66822 c -1.0823,2.01762 -4.0487,5.94819 -6.5919,8.73476 l -4.6242,5.06642 -5.2975,2.9246 -5.2974,2.92461 -12.4021,0.24048 -12.4018,0.24063 -5.4569,-1.49858 z m 23.7686,-20.54242 5.4719,-1.24023 3.7965,-3.78229 3.7962,-3.7823 1.9285,-4.49905 1.9286,-4.49905 1.0933,-7.04721 1.0935,-7.04707 -0.6597,-13.94019 c -0.363,-7.66705 -0.6416,-16.01416 -0.619,-18.54917 l 0.04,-4.60897 -2.6799,-1.75582 c -1.474,-0.96582 -5.0561,-3.69133 -7.9602,-6.05674 l -5.28,-4.30079 -3.2539,0 -3.2539,0 -5.0937,1.5127 -5.094,1.5127 -3.1957,2.6891 -3.1961,2.68924 -3.7735,5.83841 -3.7735,5.8384 -0.6054,3.6019 c -0.333,1.98093 -0.8134,4.36337 -1.0676,5.29402 -0.2543,0.9308 -2.2246,3.82467 -4.3782,6.43084 l -3.9158,4.73857 0,1.53401 0,1.53402 1.8312,1.5678 1.8311,1.56794 0.6816,5.79923 0.6816,5.79923 4.289,9.05445 4.2893,9.05431 2.908,2.07064 c 3.432,2.44391 8.4364,4.00756 13.2238,4.13202 1.894,0.0498 5.9059,-0.46865 8.9155,-1.15079 z m 88.5633,19.5179 -5.1323,-2.55758 -2.5511,-3.03176 c -1.4031,-1.66748 -3.382,-4.66062 -4.3977,-6.65138 l -1.8465,-3.61962 -1.0825,-5.85558 -1.0824,-5.85571 -0.069,-26.35799 -0.069,-26.35799 -0.7759,-1.98425 -0.7758,-1.9844 -7.1602,0 -7.1601,0 -3.9002,-4.17812 -3.9001,-4.17826 0,-2.53238 0,-2.53223 -1.1488,-1.83944 -1.1485,-1.83944 0.5406,-1.40941 0.5409,-1.40956 5.8533,-3.06817 5.853,-3.06804 5.7249,-1.28121 5.7248,-1.28107 1.1838,-2.06193 1.1838,-2.06192 -0.2545,-20.16847 -0.2546,-20.16847 -1.0544,-1.97041 -1.0546,-1.97042 1.1826,-1.42478 1.1824,-1.42478 1.9812,0 1.9811,0 5.8057,3.52672 5.8058,3.52686 2.0883,2.93291 2.0885,2.93277 0.5775,15.0284 0.5776,15.02826 1.8428,1.8429 1.8429,1.84276 2.7132,-0.65209 c 1.4923,-0.35859 4.276,-1.4252 6.1859,-2.37053 l 3.4726,-1.71858 7.7941,-0.7155 7.7942,-0.71551 3.6156,-1.54052 3.6156,-1.54067 5.1981,-0.10107 5.1982,-0.10106 0.4861,1.26764 0.4862,1.2675 -1.7157,1.39848 c -0.9436,0.76922 -3.8098,3.10085 -6.3693,5.18146 -2.5595,2.08062 -8.4407,7.16587 -13.0694,11.30066 l -8.4157,7.51752 -8.7581,3.31212 c -4.8169,1.82158 -9.4278,3.9231 -10.2463,4.67004 l -1.4882,1.35805 -0.3196,27.49866 -0.3196,27.49853 0.643,5.24114 0.6431,5.24128 2.3023,2.67664 2.3023,2.67664 3.0496,-1.46881 3.0496,-1.46881 11.2931,-11.04867 c 6.2112,-6.07668 12.2611,-11.56661 13.4442,-12.19974 l 2.151,-1.15121 0.847,0.52348 0.8471,0.52348 -0.8021,4.23516 c -0.4412,2.32927 -1.515,5.92799 -2.3864,7.99697 l -1.5842,3.76195 -3.0792,2.75126 -3.0793,2.75127 1.1483,2.14555 1.1482,2.14555 -1.5578,3.74325 -1.5582,3.74326 -4.1695,4.33997 c -2.2934,2.38701 -6.1548,5.62395 -8.5807,7.19314 l -4.411,2.85316 -5.5638,0 -5.5639,0 -5.1323,-2.55758 z"
       id="path4376"
       inkscape:connector-curvature="0" />
  </g>
</svg>
